<?xml version="1.0" encoding="utf-8" ?>
<svg baseProfile="full" height="300mm" version="1.1" viewBox="0,0,200,300" width="200mm" xmlns="http://www.w3.org/2000/svg" xmlns:ev="http://www.w3.org/2001/xml-events" xmlns:xlink="http://www.w3.org/1999/xlink"><defs /><rect fill="#222222" height="300" width="200" x="0" y="0" /><text fill="#FFFFFF" style="font-size:12px; font-family:Arial; font-weight:bold;" x="10" y="20">Over 3km Workouts</text><text fill="#FFFFFF" style="font-size:4px; font-family:Arial" x="10" y="280">ATHLETE</text><text fill="#FFFFFF" style="font-size:9px; font-family:Arial" x="10" y="290">JaneZhou</text><text fill="#FFFFFF" style="font-size:4px; font-family:Arial" x="65" y="280">SPECIAL TRACKS</text><rect fill="yellow" height="2.6" width="2.6" x="65" y="283" /><text fill="#FFFFFF" style="font-size:3px; font-family:Arial" x="70" y="285.5">Over 5.0 km</text><rect fill="red" height="2.6" width="2.6" x="65" y="287" /><text fill="#FFFFFF" style="font-size:3px; font-family:Arial" x="70" y="289.5">Over 10.0 km</text><text fill="#FFFFFF" style="font-size:4px; font-family:Arial" x="120" y="280">STATISTICS</text><text fill="#FFFFFF" style="font-size:3px; font-family:Arial" x="120" y="285">Number: 6</text><text fill="#FFFFFF" style="font-size:3px; font-family:Arial" x="120" y="290">Weekly: 1.2</text><text fill="#FFFFFF" style="font-size:3px; font-family:Arial" x="141" y="285">Total: 34.1 km</text><text fill="#FFFFFF" style="font-size:3px; font-family:Arial" x="141" y="290">Avg: 5.7 km</text><text fill="#FFFFFF" style="font-size:3px; font-family:Arial" x="167" y="285">Min: 3.3 km</text><text fill="#FFFFFF" style="font-size:3px; font-family:Arial" x="167" y="290">Max: 7.1 km</text><polyline fill="none" points="86.0,88.45572215726133 85.79574468033388,87.86038596753497 83.65106382966042,87.97945323050953 79.36170212738216,86.07437553093769 79.77021276531741,79.16844213963486 79.46382978651673,78.93030575790908 74.35744680836797,79.04937395488378 73.84680851036683,84.40742992807645 75.7872340423055,88.81292372138705 79.56595744658262,87.97945323050953 79.8723404253833,83.2167530026054 79.25957446778193,78.69216932670679 78.95319148898125,78.69216932670679 74.66382978716865,79.40657847141847 74.4595744679682,79.76378287537955 73.94893616996706,84.40742992807645 75.48085106350482,88.57478935760446 75.88936170190573,88.69385654549114 79.77021276531741,87.74131869233679 80.38297872291878,85.24090303468984 80.28085106331855,84.16929464275017 80.58723404211923,83.6930239222711 78.34042553137988,82.26421056548133 74.05106382956728,80.12098716769833 29.931914892978966,59.76016359729692 26.663829787634313,57.49782738252543 23.906382978428155,54.75920384260826 19.923404255416244,52.13964472536463 18.08510638261214,51.187076278496534 17.165957446675748,51.187076278496534 16.144680851139128,51.42521846492309 14.714893617201596,52.85407053725794 14.408510637935251,53.925708413822576 14.510638297535479,57.259686466655694 14.408510637935251,59.52202315442264 14.919148935936391,60.95086506160442 15.838297872338444,61.78435534553137 17.370212765876204,62.26063523394987 18.902127659413964,61.90342533623334 20.331914893351495,60.712724868324585 20.842553191352636,59.52202315442264 20.740425531752408,54.16385002748575 20.22978723421693,52.377786712138914 19.10638297861442,51.42521846492309 17.472340425476432,51.187076278496534 16.55319148954004,51.42521846492309 15.53191489353776,51.90150268841535 14.612765957601368,52.85407053725794 14.306382978800684,54.04477922664955 14.102127659600228,56.902474999427795 14.204255319200456,59.998303989414126 14.612765957601368,60.59365475305822 15.634042553137988,61.546215326641686 16.655319148674607,62.02249531459529 17.778723404277116,62.14156528073363 19.310638297814876,61.66528534225654 20.331914893351495,60.59365475305822 20.63829787215218,59.87923379952554 20.944680850952864,58.807601528591476 20.944680850952864,57.855038662673905 20.842553191352636,54.52106235397514 20.536170213017613,52.97314146219287 20.22978723421693,52.377786712138914 19.310638297814876,51.663360601640306 18.289361702278256,51.30614737817086 17.165957446675748,51.187076278496534 15.634042553137988,51.78243165113963 14.919148935936391,52.49685768724885 14.612765957601368,52.97314146219287 14.306382978800684,54.52106235397514 14.408510637935251,57.378756930702366 14.204255319200456,58.56946088676341 14.510638297535479,60.35551448480692 15.327659574802965,61.30807525792625 16.348936170339584,62.02249531459529 17.880851063877344,62.26063523394987 20.025531915016472,61.18900520505849 20.536170213017613,60.35551448480692 20.944680850952864,59.52202315442264 20.842553191352636,54.04477922664955 20.536170213017613,52.97314146219287 19.923404255416244,52.020573713001795 18.391489361412823,51.30614737817086 17.57446808507666,51.187076278496534 16.144680851139128,51.663360601640306 15.634042553137988,51.90150268841535 14.612765957601368,53.211283274577 14.204255319200456,54.878274568356574 14.204255319200456,58.4503905470483 14.306382978800684,60.23644433228765 15.02127659553662,61.18900520505849 15.940425531938672,61.78435534553137 17.57446808507666,62.26063523394987 18.902127659413964,61.90342533623334 20.22978723421693,60.95086506160442 20.944680850952864,59.64109338214621 20.842553191352636,56.54526342044119 20.944680850952864,54.64013310451992 20.63829787215218,53.211283274577 20.12765957415104,52.377786712138914 19.412765957415104,51.663360601640306 18.59574468061328,51.30614737817086 17.268085106275976,51.187076278496534 16.451063829939812,51.42521846492309 15.53191489353776,51.90150268841535 14.817021276336163,52.73499959951732 14.510638297535479,53.211283274577 14.408510637935251,54.28292081539985 14.306382978800684,59.402952914708294 14.612765957601368,60.35551448480692 15.429787233937532,61.42714529868681 16.757446808274835,62.02249531459529 18.391489361412823,62.02249531459529 19.61702127661556,61.30807525792625 20.536170213017613,60.474584625218995 21.04680851055309,59.28388266230468 20.842553191352636,55.473628010135144 20.944680850952864,54.64013310451992 20.63829787215218,53.33035416237544 20.331914893351495,52.73499959951732 19.208510638214648,51.663360601640306 18.08510638261214,51.30614737817086 16.96170212747529,51.30614737817086 16.0425531915389,51.54428953945171 15.123404255136847,52.13964472536463 14.510638297535479,53.56849590037018 14.306382978800684,54.75920384260826 14.306382978800684,59.402952914708294 15.225531914737076,61.18900520505849 15.838297872338444,61.66528534225654 17.06382978754118,62.26063523394987 18.18723404267803,62.26063523394987 19.208510638214648,61.90342533623334 20.025531915016472,61.18900520505849 20.740425531752408,60.23644433228765 20.944680850952864,58.4503905470483 20.842553191352636,54.04477922664955 20.22978723421693,52.49685768724885 18.49361702101305,51.30614737817086 17.57446808507666,51.187076278496534 16.451063829939812,51.42521846492309 15.225531914737076,52.2587157250382 14.306382978800684,53.80663758853916 14.204255319200456,57.855038662673905 14.306382978800684,59.76016359729692 14.714893617201596,60.712724868324585 15.53191489353776,61.546215326641686 16.0425531915389,61.90342533623334 17.268085106275976,62.14156528073363 18.289361702278256,62.14156528073363 19.821276595350355,61.30807525792625 20.63829787215218,60.23644433228765 20.944680850952864,59.402952914708294 20.842553191352636,54.04477922664955 20.536170213017613,53.211283274577 20.025531915016472,52.2587157250382 19.208510638214648,51.663360601640306 18.08510638261214,51.187076278496534 17.06382978754118,51.30614737817086 15.327659574802965,52.020573713001795 14.204255319200456,53.68756675091572 14.0,55.35455734655261 14.306382978800684,59.28388266230468 14.714893617201596,60.59365475305822 16.246808510739356,62.14156528073363 18.08510638261214,62.02249531459529 19.10638297861442,61.66528534225654 19.923404255416244,61.18900520505849 20.536170213017613,60.35551448480692 20.944680850952864,59.64109338214621 20.740425531752408,53.56849590037018 20.12765957415104,52.49685768724885 19.310638297814876,51.78243165113963 18.391489361412823,51.30614737817086 17.268085106275976,51.30614737817086 16.246808510739356,51.663360601640306 14.919148935936391,52.73499959951732 14.306382978800684,54.04477922664955 14.102127659600228,58.21224983094726 14.204255319200456,59.52202315442264 14.919148935936391,61.06993513950147 15.736170212738216,61.78435534553137 16.96170212747529,62.26063523394987 18.18723404267803,62.14156528073363 19.208510638214648,61.78435534553137 20.63829787215218,60.8317949710181 21.965957446955144,60.95086506160442 22.17021276568994,61.18900520505849" stroke="#4DD2FF" stroke-linecap="round" stroke-linejoin="round" stroke-width="0.5"><title>2025-06-15 3.3km</title><desc>14807579363</desc></polyline><polyline fill="none" points="163.86049540131353,105.66707116276666 164.18998419842683,105.7951207691076 164.43160931637976,105.84634059289237 165.3761438683141,105.69268108937831 165.85939410421997,105.66707116276666 166.54033761832397,105.7951207691076 167.1334174531512,106.0 167.28717889194377,105.92317030853883 167.30914481182117,104.9499921293027 167.39700849098153,104.61706186398806 167.4848721702583,103.56704806133348 167.66059952869546,103.13167516364774 167.63863360893447,102.77313219589996 167.74846320797224,101.97921375562146 167.72649728821125,101.3645654526772 167.79239504761063,99.80232740276551 167.77042912773322,98.95717807215988 167.83632688724902,98.18885796664108 167.79239504761063,97.59981091920054 167.8802587268874,95.19238651097112 167.85829280701,94.70577657291142 167.77042912773322,94.01427657576278 167.79239504761063,93.86060964438366 167.8802587268874,93.7069426166272 167.94615648628678,93.11788478284143 167.8802587268874,92.221489707008 167.9022246466484,91.58120549999876 167.85829280701,91.4019256218744 167.63863360893447,91.19703417182609 167.59470176929608,90.88969667503261 167.59470176929608,89.99329343860154 167.63863360893447,89.73717762509477 167.61666768905707,89.58350800843618 167.63863360893447,89.40422666698578 167.59470176929608,89.25055684120161 167.63863360893447,88.9944402504625 167.61666768905707,88.48220626512193 167.59470176929608,88.30292411688424 167.4848721702583,88.07241830485873 167.4629062503809,87.91874764286331 167.35307665134314,87.73946508196241 166.7819627362769,87.71385327682947 165.7275985853048,87.79068868412287 165.3322120286757,87.76507688440324 165.06862099084537,87.66262965845817 165.0466550712008,87.58579421088507 165.0466550712008,87.32967587804887 164.84896179288626,87.35528772343241 164.56340483529493,87.27845217938011 163.79459764191415,87.30406403004599 163.42117700516246,87.25284032602212 163.04775636829436,87.27845217938011 162.5205742927501,87.22722846991383 162.1910854956368,87.27845217938011 161.35638054285664,87.20161661112797 159.6650047171861,87.20161661112797 159.2915840804344,87.15039288559637 159.13782264175825,87.22722846991383 159.07192488224246,87.30406403004599 158.9401293634437,87.32967587804887 157.97362889174838,87.30406403004599 157.57824233511928,87.15039288559637 157.5562764153583,87.07355727721006 157.57824233511928,86.76621460243769 157.40251497668214,86.63815504065133 156.0406279482413,86.66376695835788 154.43711580196396,86.58693119723466 153.86600188689772,86.51009541192616 153.5804449294228,86.30519986648869 153.33881981146988,85.97224423936859 153.2509561321931,86.0746921729733 153.07522877375595,86.17714006359165 152.72377405664884,86.25397595339746 152.04283054254483,86.20275202952325 151.86710318399128,86.38203571617487 151.62547806615476,86.48448347806698 151.4497507076012,86.63815504065133 150.7248753538588,86.68937887338689 149.47281792457215,86.53570734304958 149.18726096698083,86.5613192714518 148.68204481131397,86.53570734304958 148.33059009443969,86.5613192714518 147.38605554250535,86.48448347806698 146.83690754708368,86.51009541192616 146.50741874997038,86.48448347806698 146.37562323105522,86.53570734304958 145.78254339611158,86.48448347806698 144.24492900935002,86.45887154161755 143.47612181585282,86.38203571617487 141.98243926872965,86.43325960249058 140.049438325339,86.25397595339746 139.45635849039536,86.25397595339746 138.86327865545172,86.30519986648869 138.18233514134772,86.20275202952325 137.171902830014,86.22836399283551 136.7984821931459,86.15152809495339 136.38112971675582,86.17714006359165 136.1395045988029,86.04908019353752 135.87591356097255,86.10030414960056 135.30479964602273,86.0746921729733 134.22846957517322,86.12591612356482 134.0088103770977,85.86979626302491 133.9429126176983,85.63928815933468 133.85504893842153,85.51122800794838 133.45966238167603,85.46000392861606 133.41573054215405,85.40877983855898 133.30590094299987,85.20388337115583 133.02034398552496,84.94776254562021 132.8885484667262,84.4611322387791 132.93248030624818,84.00011316072778 132.800684787333,83.46225647199026 133.04230990540236,81.66939230573189 133.04230990540236,80.721730225996 133.32786686287727,79.69722655221995 133.34983278275467,79.33864925314265 133.54752606106922,78.31413978914497 133.67932157986797,77.44330337244901 133.74521933938377,76.39317298357491 133.74521933938377,75.52232973085484 133.83308301854413,74.83077552836039 133.8989807779435,73.88308696552122 133.87701485818252,73.55011443697731 133.9209466978209,73.26836809740053 133.87701485818252,73.03784812377125 133.67932157986797,72.65364768517611 133.65735565999057,72.3975137242378 133.70128749962896,72.14137949523865 133.8989807779435,71.7571776490804 134.0088103770977,71.3985887150775 133.96487853734288,71.03999925547396 133.85504893842153,70.68140927045897 133.9429126176983,70.34843238523172 134.16257181577384,69.83615936931164 134.18453773553483,69.52879504508746 134.09667405625805,69.17020284540195 134.18453773553483,68.65792736281583 134.11863997613546,68.47863069055893 133.81111709866673,68.04319536809635 133.72325341950636,67.73582879155583 133.54752606106922,67.50530360577977 133.45966238167603,67.27477820283093 133.2619691034779,67.09548051703314 133.2400031837169,66.96741066107643 133.13017358456273,66.83934073803539 133.1521395043237,65.78916484060755 133.32786686287727,65.14881147163396 133.39376462227665,64.71337022335501 133.52556014119182,64.22669967591355 133.54752606106922,63.99617118401511 133.2619691034779,62.8947542803362 132.66888926853426,61.76771789765917 132.5151278297417,61.22981233934115 132.49316191009711,60.05153888883069 132.5590596694965,59.66731805850577 132.5590596694965,58.46342221634404 132.66888926853426,57.49005528949783 132.66888926853426,56.43983926203509 132.77871886757202,55.671385654088226 132.77871886757202,54.800468647197704 132.822650707094,54.185701834459906 132.800684787333,53.98077922032098 132.8885484667262,53.647779606151744 132.8885484667262,53.08424076499068 132.8665825468488,52.59754708482069 132.822650707094,52.39262314030202 132.8446166269714,52.05962136440212 132.71282110817265,50.138448421799694 132.60299150913488,49.216280050284695 132.5370937496191,47.9354848787043 132.38333231094293,46.60345078675891 132.38333231094293,46.39852182111645 132.25153679214418,45.2457931907702 132.27350271190517,45.09209562963224 132.33940047130454,44.98963053524494 132.36136639118195,44.861549106877646 132.33940047130454,44.73346761148423 132.27350271190517,44.6822349945287 132.22957087226678,44.579769728457904 132.07580943359062,43.298950281052385 132.05384351382963,42.06935730225814 132.09777535346802,41.83880793071876 132.07580943359062,41.32647521579929 132.09777535346802,40.993458375683986 132.07580943359062,40.1224891118909 132.09777535346802,39.40521797791007 132.1636731128674,38.662327800368075 132.27350271190517,38.278073374938685 132.4711959902197,38.02190342260292 132.62495742901228,37.89381834589585 132.8885484667262,37.84258429639158 133.28393502323888,37.86820132244611 133.76718525902834,37.81696726757218 134.16257181577384,37.66326503868913 134.51402653276455,37.330243211312336 134.55795837240294,37.20215777232079 134.6238561318023,36.664198196376674 134.6897538912017,36.510495243011974 135.3706974053057,36.459260903822724 136.27130011760164,36.53611240866303 136.51292523555458,36.459260903822724 137.01814139133785,36.40802655387961 137.852846344118,36.2287062444957 137.8748122639954,36.151854643045226 137.8308804242406,35.94691692125343 137.8308804242406,35.81883075789665 137.8748122639954,35.58827549494163 138.05053962243255,35.2808681394672 138.11643738183193,35.050312369377934 138.16036922147032,34.74290433789429 138.11643738183193,34.38426114617323 138.13840330170933,34.23055676011427 138.2043010611087,34.15370453093783 138.5557557780994,34.0 138.77541497617494,34.0256174284732 138.70951721677557,34.15370453093783 139.21473337244242,34.922225736576365" stroke="yellow" stroke-linecap="round" stroke-linejoin="round" stroke-width="0.5"><title>2025-06-10 5.1km</title><desc>14754484246</desc></polyline><polyline fill="none" points="80.96596499695443,185.68207496847026 82.26883827964775,186.0 82.42033517290838,185.68207496847026 82.66273020219523,184.69297295651631 83.26871777558699,178.79362578471773 83.14752026088536,177.48657084724982 83.05662212497555,176.07353279093513 83.20811901823618,170.38599481256097 82.42033517290838,169.92674843527493 81.26895878370851,169.39684799322276 67.69483714108355,163.03797781621688 67.14944832515903,162.68470373915625 65.96777255716734,161.6955343571026 65.72537752776407,161.342258875462 65.60418001317885,160.77701733578579 65.66477877052967,160.3884132283565 65.57388063450344,159.82317009178223 65.63447939185426,159.15194263798185 65.57388063450344,158.37473023493658 65.4526831198018,157.98612336226506 65.17998871183954,157.6328439990466 65.14968933316413,157.45620417888858 65.17998871183954,157.067596248904 65.02849181857891,156.2550509502471 65.14968933316413,155.65447273323662 65.24058746919036,154.9479087573418 65.21028809051495,153.88806002066121 64.90729430387728,153.3934628047864 64.33160610916093,152.8635364123038 63.87711542926263,152.8282079564815 62.907535311882384,152.969521757419 62.05915270932019,152.969521757419 61.66526078642346,152.8282079564815 61.210770106641576,152.36893769551534 61.028973834589124,152.29828067691415 59.69580117322039,152.29828067691415 58.99891546391882,152.22762364332448 58.60502354125492,152.29828067691415 58.120233482681215,152.19229512099992 57.12035398662556,152.26295216195285 56.05987573321909,152.12163806537865 55.02969685860444,152.15696659503737 53.66622481867671,152.01565245419624 52.99963848805055,152.19229512099992 52.60574656538665,152.15696659503737 51.696765205357224,152.22762364332448 50.999879496055655,152.08630953205284 50.33329316531308,152.01565245419624 49.6061080773361,151.87433825415792 48.788024853449315,151.83900969478418 48.000241008005105,151.9449953615549 46.48527207470033,151.90966680963174 45.69748822937254,152.05098099491443 45.091500656097196,152.29828067691415 44.66730935475789,152.22762364332448 44.364315568236634,152.29828067691415 43.334136693389155,152.12163806537865 42.75844849878922,152.29828067691415 42.15246092539746,151.90966680963174 42.000964032136835,151.83900969478418 41.455575216095895,152.08630953205284 39.72851063217968,152.19229512099992 39.30431933084037,152.01565245419624 39.06192430155352,151.7330239948933 38.84982865082566,151.62703826167854 38.57713424297981,151.167766366445 38.213541698874906,151.06178045575507 37.668152882833965,151.02645181145635 37.122764067025855,151.02645181145635 35.85019016289152,151.167766366445 35.092705696239136,151.06178045575507 33.153545461711474,151.0971090963867 30.79019392572809,150.99112316340324 29.760015050997026,151.02645181145635 28.578339283005334,150.84980853454908 26.88157407764811,150.95579451177036 25.881694581825286,150.9204658564413 24.70001881371718,150.84980853454908 24.184929376468062,150.7438225239457 21.942775355069898,150.70849384643952 20.67020145105198,150.63783648019307 19.852118227165192,150.7438225239457 19.064334381720982,150.70849384643952 18.791639973875135,150.63783648019307 18.09475426445715,150.67316516523715 17.67056296323426,150.7438225239457 17.428167933947407,150.7438225239457 17.306970419129357,150.63783648019307 17.185772904427722,150.24922070163302 17.185772904427722,149.64863180028624 17.428167933947407,149.29534371203044 17.519066069857217,148.97738411655882 17.48876669118181,148.7654108866118 17.276671040570363,148.41212187407655 17.36756917636376,147.70554273982998 17.155473525752313,147.03429119256907 17.155473525752313,146.64567126569455 17.337269797804765,145.65645488741575 17.519066069857217,144.06663677783217 17.458467312389985,143.46603687672177 17.54936544841621,142.79477689909982 17.852359235053882,142.08818600702216 17.943257371196523,141.77021962302388 18.09475426445715,140.00373425797443 18.215951779158786,139.65043607569532 18.215951779158786,139.3677972635778 18.337149293744005,138.87317877291935 18.337149293744005,138.3785595575755 18.397748051094823,138.09591968049062 18.48864618712105,137.03601803377387 18.42804742977023,136.57672628658474 18.518945565796457,136.40007544809487 18.42804742977023,136.0821037061396 18.48864618712105,135.58748040083447 18.397748051094823,135.4814895982854 18.57954432303086,135.12818668264663 18.518945565796457,134.88087442170945 18.609843701822683,133.9269540035457 18.731041216640733,133.25567505622166 18.70074183784891,132.65505591908004 18.36744867253583,132.16042759193806 18.276550536509603,131.80712120010867 18.397748051094823,131.24183020403143 18.76134059508331,130.49988433503313 18.791639973875135,130.21723786069197 18.731041216640733,129.8992602940416 18.731041216640733,129.2633042622474 18.943136867135763,128.59201603991096 19.15523251774721,128.27403694216628 19.185531896422617,127.9913886039285 19.03403500316199,127.3200978517707 19.064334381720982,126.75479934088071 19.00373562448658,126.47214973031078 18.912837488460355,126.29549360353849 18.82193935243413,126.22483112697955 18.670442459057085,126.15416863557766 17.67056296323426,126.08350612936192 17.54936544841621,126.04817487072432 17.48876669118181,125.90684979918296 17.54936544841621,125.6595307814714 17.519066069857217,124.95290401831153 17.609964205767028,124.59959008201258 17.79176047781948,124.49359582888428 18.185652400483377,124.42293297499418 18.397748051094823,124.21094432467362 18.82193935243413,124.17561287005083 18.246251157834195,124.28160722300527 17.88265861372929,124.28160722300527 17.67056296323426,124.14028141173185 17.609964205767028,123.92829258381971 17.519066069857217,122.93900962671614 17.67056296323426,122.19704550589086 18.034155507106334,121.2077574742143 18.12505364313256,120.28913027682574 18.034155507106334,119.22917271140614 17.912957992521115,118.73452470829943 17.67056296323426,118.20454390035593 17.064575389842503,117.21524416570901 16.882779117906466,116.79125767745427 16.79188098188024,116.4379351969983 16.731282224529423,115.73128912629909 16.882779117906466,115.20130360228359 17.125174147076905,114.98930915966048 17.09487476851791,114.38865751566482 17.034276011167094,114.17666256258963 17.064575389842503,114.0353325199103 17.21607228310313,114.0 17.912957992521115,114.14133005743497 18.42804742977023,114.07066503615351 18.76134059508331,114.24732756178128 19.67032195511274,114.07066503615351 20.276309528388083,114.24732756178128 20.458105800440535,114.95397673963453 20.518704557791352,115.51929501653649 20.488405179115944,115.76662146497983 20.36720766441431,116.04928004113026 20.397507043089718,116.4026029285451 20.276309528388083,117.003250988113 20.033914498984814,117.63923012133455 19.882417605724186,118.3812042621721 19.882417605724186,119.54716033054865 20.185411392361857,120.60711689732852 20.57930331514217,121.13709393239697 20.730800208402798,121.70240185249713 20.67020145105198,121.91439207838266 20.549003936350346,122.05571882185177 19.943016363075003,122.37370377781917 19.03403500316199,123.39831993164262 18.943136867135763,123.61030909241526 18.82193935243413,124.24627577565843 18.912837488460355,124.74091570085147 18.82193935243413,124.91757264127955 18.791639973875135,125.1295608477958 18.943136867135763,125.48287422946305 19.00373562448658,126.04817487072432 19.09463376039639,126.26016236716532 19.21583127521444,126.64880576462019 19.15523251774721,127.8853954160586 19.09463376039639,128.27403694216628 18.791639973875135,128.94532579701627 18.70074183784891,129.29863518441562 18.670442459057085,129.61661331669893 18.82193935243413,130.21723786069197 18.82193935243413,130.46455353873898 18.731041216640733,130.71186903546914 18.36744867253583,131.34782233796432 18.306849915185012,131.5951371875708 18.337149293744005,132.0897663431242 18.670442459057085,132.58439477393404 18.76134059508331,133.07902247979655 18.640143080498092,134.7042226959311 18.549244944471866,135.16351699089864 18.57954432303086,135.51681986945914 18.48864618712105,136.11743391444907 18.57954432303086,136.75337703249534 18.518945565796457,136.8240373049921 18.458346808562055,137.31865879820543 18.42804742977023,138.6258692558331 18.15535302180797,139.8270852130663 18.15535302180797,140.1097236405476 18.00385612854734,140.81631867415854 17.912957992521115,141.8055492361018 17.609964205767028,142.65345883910777 17.48876669118181,144.63190629670862 17.276671040570363,145.76244249512092 17.155473525752313,146.15106343876687 17.246371661894955,146.15106343876687 17.21607228310313,146.57501304897596 17.276671040570363,146.85764582667616 17.246371661894955,147.140278367704 17.397868555155583,147.5995557421993 17.397868555155583,147.95284560506116 17.306970419129357,148.12949039781233 17.306970419129357,148.37679295244743 17.519066069857217,149.01271297532367 17.458467312389985,149.3306725374423 17.246371661894955,149.57797421212308 17.125174147076905,149.82527570569073 17.09487476851791,150.00191951866145 17.185772904427722,150.24922070163302 17.428167933947407,150.46119299996644 17.67056296323426,150.56717909919098 18.185652400483377,150.46119299996644 18.42804742977023,150.49652170337504 18.42804742977023,150.53185040308745 18.397748051094823,150.49652170337504 18.48864618712105,150.42586429286166 18.397748051094823,150.39053558197338 19.03403500316199,150.46119299996644 19.67032195511274,150.42586429286166 19.730920712463558,150.56717909919098 19.124933139188215,150.56717909919098 19.09463376039639,150.7438225239457 19.185531896422617,150.88513719738694 19.57942381920293,151.13243773329305 20.24601014982909,151.27375224389834 21.791278461692855,151.20309499592986 22.972954229800962,151.27375224389834 27.42696289368905,151.30908086232375 40.00120504014194,151.69769542088034" stroke="yellow" stroke-linecap="round" stroke-linejoin="round" stroke-width="0.5"><title>2025-04-19 6.0km</title><desc>14222567780</desc></polyline><polyline fill="none" points="143.52925727062393,114.0 143.5160111238365,114.27811953927448 143.44978038966656,114.47898332464683 143.43653424282093,114.83435704377189 143.3835496554384,114.95796509311185 143.39679580234224,115.34423957917897 143.34381121495971,115.66870936537453 143.27758048078977,116.34854850643023 143.26433433394413,116.68846690133796 143.14511901244987,116.9511305787455 143.18485745292855,116.93567978715873 143.1583651592373,117.21379378827987 143.05239598458866,117.84727372106863 143.03914983774303,118.04813264361292 142.9861652504187,118.41894839705492 142.97291910357308,118.86701618802908 142.91993451624876,119.14512654587452 142.86694992886623,119.77859818020079 142.82721148838755,119.91765256485087 142.84045763523318,120.0567068183882 142.73448846052634,120.59747211329523 142.69475001998944,121.13823542464525 142.60202699218644,121.72534763145086 142.60202699218644,121.97255207164562 142.40333478961838,123.239468322834 142.40333478961838,123.53302053491643 142.29736561491154,124.13557324449357 142.2841194680659,124.36732363099873 142.21788873389596,124.78447340874118 142.20464258710854,125.12437235508696 142.0589349718648,126.14406449296803 142.04568882507738,126.45306071828236 141.95296579721617,127.42639459579368 141.82050432887627,128.35337326787703 141.7410274478607,129.1721995810367 141.6615505668451,129.60478523171332 141.58207368582953,130.42360459601332 141.436366070644,131.25786870620504 141.3568891895702,131.41236154201033 141.23767386807594,131.520506430752 141.2641661617672,131.50505716580665 141.19793542753905,131.96853441078565 141.19793542753905,132.16937409786624 141.2641661617672,132.41656102957495 141.3039046022459,132.61740010652284 141.23767386807594,133.20446660926973 141.25092001492158,133.43620274333807 141.18468928075163,133.82242882426362 141.171443133906,134.1932049102761 141.02573551872047,135.0892432697001 140.93301249080105,135.89258337731007 140.93301249080105,136.17066162580159 140.8270433161524,136.78861141185916 140.6415972604882,138.5034085065563 140.6415972604882,139.27583311712078 140.69458184781251,139.83197633187228 140.7740587288281,140.26453071577998 140.91976634401362,140.86701506502868 141.10521239973605,141.39225582305517 141.15819698706036,141.5776344675687 141.3039046022459,141.90204653477122 141.40987377695274,142.22645788852242 141.9264735035249,143.0452071797772 141.9662119440618,143.15334353885555 141.95296579721617,143.35416799539234 142.16490414657164,143.52409616815567 142.29736561491154,143.6785761553183 142.33710405544844,143.75581608821813 142.50930396432523,143.84850395431567 142.74773460737197,144.0802233647555 142.84045763523318,144.14201514603337 143.2908266276354,144.6209005734272 143.47627268335782,144.7599315353291 144.00611855677562,145.0534409134125 144.3902568150661,145.31605407247844 145.03931800997816,145.62501013159635 145.68837920489023,145.8258312230173 145.88707140745828,145.94941329720314 146.52288645558292,146.1193384801736 147.2646706784144,146.16568167789956 147.4898551746155,146.134786214403 147.68854737712536,146.19657713499328 147.94022416701773,146.16568167789956 148.44357774674427,146.19657713499328 149.35756187845254,146.134786214403 149.56950022780802,146.18112940728315 149.83442316454602,146.19657713499328 149.99337692657718,146.18112940728315 150.58945353422314,146.2120248610736 150.81463803042425,146.16568167789956 150.96034564560978,146.18112940728315 151.26500702282647,146.18112940728315 151.47694537218194,146.24292030850484 151.52992995956447,146.304711183795 151.62265298736747,146.44374055867956 151.66239142790437,146.90717086175573 151.64914528100053,147.15433309476066 151.66239142790437,147.30880928004626 151.6358991342713,147.52507566775603 151.67563757475,147.78768442649744 151.67563757475,147.89581730893406 151.6358991342713,148.0193976489245 151.71537601522868,148.513717973663 151.71537601522868,148.83811478652933 151.60940684058005,149.87309032559278 151.68888372153742,150.38285172806354 151.66239142790437,150.61456087416445 151.64914528100053,151.64952394999273 151.67563757475,151.89667823734635 151.6358991342713,152.15927921401453 151.60940684058005,152.53000920877093 151.62265298736747,152.9779733761534 151.66239142790437,153.42593618326646 151.6358991342713,153.68853443782427 151.66239142790437,154.02836677926825 151.62265298736747,154.2137295446446 151.66239142790437,155.26411414935137 151.60940684058005,155.91287737517268 151.64914528100053,157.33396780584008 151.67563757475,157.828256921086 151.62265298736747,158.30709792229754 151.5829145468888,158.50790175066504 151.56966840004316,158.80138377736148 151.59616069373442,159.62004108229303 151.6358991342713,159.8517357212986 151.59616069373442,160.0679837227217 151.60940684058005,160.94841874223494 151.5829145468888,161.19555745253456 151.5829145468888,161.6126030874584 151.59616069373442,161.96786325408902 151.6358991342713,162.30767652617942 151.56966840004316,162.64748901568237 151.5829145468888,162.84828693710733 151.5431761063519,163.0954224652669 151.60940684058005,163.38889536731585 151.52992995956447,164.42376883752877 151.55642225325573,165.2732864110876 151.60940684058005,165.81388595695898 151.56966840004316,166.57072199387767 151.5034376658732,167.45111821409955 151.31799161015078,168.31606377150456 151.0133302329341,169.3663479898969 150.9206072051311,169.56713676876097 150.6689304151805,170.3548439553997 150.58945353422314,170.7873088582419 150.52322279999498,171.00354083439743 150.45699206582503,171.14254693752446 150.3510228911764,171.68312498267915 150.1390845417627,172.37815098831197 150.03311536705587,172.5943806335854 149.84766931139166,173.0731737207534 149.71520784305176,173.5674101169716 149.63573096197797,173.81452769436873 149.56950022780802,173.93808632789296 149.54300793411676,173.8608621940657 149.72845398983918,173.82997252920177 150.09934610128403,173.90719667923986 150.16557683545398,174.03075523515872 150.23180756962392,174.32420639097109 150.29803830379387,174.38598550732422 150.40400747850072,174.41687505580194 150.73516114940867,174.35509595238545 151.62265298736747,174.339651172515 151.87432977725985,174.41687505580194 152.28496032918338,174.38598550732422 153.58308271906571,174.46320936639677 154.07319015206303,174.41687505580194 154.39109767612536,174.40143028239254 154.69575905334204,174.44776459783316 154.92094354954315,174.41687505580194 155.5170201571309,174.44776459783316 155.76869694696506,174.43231982763973 156.0866044710856,174.46320936639677 156.4442504356848,174.46320936639677 156.73566566605587,174.50954366245423 157.64964979770593,174.47865413334512 157.88808044075267,174.50954366245423 158.44441860786173,174.43231982763973 158.72258769138716,174.44776459783316 158.93452604080085,174.41687505580194 159.11997209646506,174.44776459783316 159.2259412712301,174.55587794395979 159.2656797117088,174.84932805562858 159.27892585849622,175.28177978836175 159.2259412712301,176.08490107303078 159.21269512432627,176.79535087426484 159.30541815218749,177.32046374671336 159.27892585849622,177.50579725569696 159.33191044587875,177.64479723467957 159.3584027395118,177.87646357543417 159.27892585849622,178.10812955255096 159.25243356486317,178.43246130962507 159.19944897753885,178.6641264140344 159.19944897753885,178.83401392624364 159.30541815218749,179.5444504947809 159.21269512432627,180.28577196407423 159.21269512432627,180.54832242496195 159.1332182433107,182.6950410263671 159.14646439021453,182.8803677870019 159.10672594967764,183.20468905812595 159.1332182433107,183.52900961668638 159.0404952155077,183.93054836863303 159.02724906866206,184.3011985547637 158.9610183344921,184.54829816186975 158.9610183344921,184.82628472537908 158.89478760026395,185.18148901691893 158.84180301293964,185.8146771559841 158.7888184255571,185.8610078887723 158.55038778256858,185.87645146317664 158.44441860786173,185.8610078887723 158.32520328636747,185.79923357516236 158.11326493695378,185.73745923566457 157.7291266786633,185.73745923566457 157.49069603573298,185.768346408644 157.02708089642692,185.70657205620955 156.96085016225697,185.66024127496348 156.94760401541134,185.6139104791073 156.94760401541134,185.4749180044455 157.02708089642692,185.28959450122784 156.98734245594824,185.13515807087242 156.7489118128433,185.39769990634522 156.77540410653455,185.5675796687574 156.89461942808703,185.73745923566457 156.90786557487445,185.64479767794546 156.94760401541134,185.59846687728714 156.9343578685075,185.53669245378114 156.90786557487445,185.6139104791073 156.7489118128433,185.72201564673742 156.65618878504029,185.92278217658168 156.66943493188592,185.9845564385614 156.69592722557718,186.0 156.82838869385887,185.9845564385614 156.8416348407627,185.8455643128109 156.82838869385887,185.75290282294736 156.64294263819465,185.3050381353678 156.45749658247223,185.19693266238028 156.37801970145665,185.19693266238028 156.2190659394255,185.27415086547262" stroke="yellow" stroke-linecap="round" stroke-linejoin="round" stroke-width="0.5"><title>2025-03-07 6.9km</title><desc>13950596373</desc></polyline><polyline fill="none" points="39.64985156740295,194.0 39.774468739225995,194.45222423346422 39.899085910990834,194.500676751195 40.32832283596508,194.48452591366367 40.90986963751493,194.51682758706738 41.546801848802716,194.41992254652723 41.782189839868806,194.48452591366367 42.128348650294356,194.51682758706738 42.97297614783747,194.51682758706738 43.08374696719693,194.549129253719 43.31913495832123,194.7429391113983 43.34682766313199,194.80754234312917 43.37452036794275,194.90444713995385 43.36067401553737,195.11440732401388 43.30528860591585,195.43742243324232 43.30528860591585,195.84119036767515 43.2637495486415,196.09960129055253 43.20836413890356,196.22880658949725 43.1806714340928,196.81022909436433 43.13913237687666,197.08478895910957 43.15297872928204,197.2139934320876 43.13913237687666,197.39164940560295 43.06990061479155,197.60160620120587 43.01451520505361,198.15072262195463 42.97297614783747,198.2960766411852 42.90374438575236,198.82904020530987 42.84835897607263,199.0874461184285 42.84835897607263,199.42660322190204 42.79297356645111,199.60425664497598 42.73758815671317,200.20181665592827 42.696049099438824,200.31486828924972 42.696049099438824,200.54097130720038 42.66835639462806,200.86397504310298 42.696049099438824,201.0416268093104 42.654510042164475,201.33232925779885 42.58527828013757,201.4453800619085 42.54373922286322,201.88143238674093 42.488353813183494,202.269033417615 42.47450746077811,202.4789835690317 42.294504879333545,204.0132259944221 42.308351231738925,204.1101250033098 42.23911946971202,204.48157063967665 42.197580412437674,204.9822133419948 42.156041355163325,205.15986036161485 42.114502297888976,205.450555043004 42.114502297888976,205.72509951649408 42.003731478587724,206.5002812725579 41.976038773718756,206.96861836107564 41.79603619227419,208.05063308968965 41.768343487463426,208.53511483473994 41.643726315698586,208.93884845916182 41.491416439122986,209.13264022325166 41.42218467697967,209.42332741258724 41.42218467697967,209.85935716881067 41.50526279152837,210.08544618646556 41.532955496397335,210.24693813890917 41.4775700866594,211.00594804930734 41.491416439122986,211.28048262849916 41.39449197216891,211.82955032007885 41.39449197216891,211.97489144049177 41.26987480034586,212.97612654665136 41.22833574312972,213.54133704141714 41.13141127623385,214.18728935510444 41.10371857142309,214.51026449693018 41.04833316168515,214.78479283553315 40.96525504719466,215.25310475543665 40.95140869473107,215.51148313676822 40.89602328510955,215.75371247598378 40.85448422789341,216.15742719553236 40.85448422789341,216.48039821004204 40.81294517061906,216.67418049401022 40.89602328510955,217.12633820927294 40.88217693264596,217.44930719402328 40.90986963751493,217.7722755021823 40.97910139965825,218.192133291348 41.11756492377026,218.7411763673008 41.14525762863923,219.04799370518595 41.20064303831896,219.2094762693887 41.26987480034586,219.37095866442542 41.339106562547386,219.5970337333565 41.43603102938505,219.7908120999491 41.58834090601886,220.22681253448536 41.79603619227419,220.56592313115834 41.879114306822885,220.7435521935986 42.169887707568705,221.14725384730264 42.211426764843054,221.4379183834244 42.266812174522784,221.4702144091716 42.23911946971202,221.4379183834244 42.308351231738925,221.4702144091716 42.51604651805246,221.6639904215408 42.66835639462806,221.93850602222665 42.84835897607263,222.00309785724676 43.04220790992258,222.1645773263881 43.1806714340928,222.29376077999768 43.29144225345226,222.47138785188145 43.4160594252171,222.5521273623599 43.6514474163414,222.82664138180553 43.8729890549439,222.90738070626685 44.05299163644668,223.0527113837743 44.509921266231686,223.31107669443008 44.64838479046011,223.44025918743864 44.814541019441094,223.52099819057912 45.29916335409507,223.79551048502617 45.63147581211524,223.84395378039335 46.0468663846259,224.08617002886604 46.50379601446912,224.21535187242262 46.960725644254126,224.4737152349844 47.113035520829726,224.4091244348965 47.279191749868914,224.4414198382874 47.473040683718864,224.4091244348965 47.61150420794729,224.45756753747992 47.70842867484316,224.42527213746507 47.91612396109849,224.4091244348965 48.30382182879839,224.45756753747992 49.536147194041405,224.4414198382874 49.7715351851657,224.48986293074267 50.29769657709403,224.50601062481292 50.87924337864388,224.4737152349844 51.11463136970997,224.48986293074267 51.530021942278836,224.4737152349844 52.07002968661254,224.5221583172388 52.180800505913794,224.57060138428642 52.27772497286787,224.6997828220483 52.319264030084014,224.97429301786178 52.333110382489394,225.15191700180003 52.38849579222733,225.31339317333186 52.360803087300155,226.1530665391474 52.38849579222733,226.70208126766374 52.37464943976374,226.87970326130744 52.402342144574504,227.5094523174339 52.34695673495298,228.1230514880299 52.38849579222733,228.60747016117966 52.360803087300155,228.80123720437405 52.38849579222733,229.05959288320446 52.34695673495298,229.3340953176812 52.360803087300155,230.0930112699716 52.319264030084014,230.46439431105682 52.319264030084014,230.75504128457396 52.29157132527325,230.91651158868626 52.37464943976374,231.85303601856867 52.360803087300155,232.25670858769445 52.37464943976374,232.35358984705817 52.333110382489394,232.51505847742374 52.34695673495298,232.72496744414093 52.333110382489394,232.99946335406275 52.360803087300155,233.54845370822295 52.333110382489394,234.17817553141504 52.29157132527325,234.51725544809597 52.319264030084014,234.80789478329825 52.333110382489394,235.29229245812166 52.319264030084014,235.76054209753056 52.34695673495298,235.93815365781484 52.319264030084014,237.19757521779684 52.27772497286787,237.746550627955 52.29157132527325,237.94030618855322 52.27772497286787,238.24708532828663 52.30541767767863,238.63459494838025 52.27772497286787,239.3288805828779 52.319264030084014,239.70024138348526 52.26387862046249,240.15233158605406 52.29157132527325,240.37837619044876 52.26387862046249,241.20182159048272 52.29157132527325,241.44401057738287 52.22233956318814,241.99297087309242 52.250032267998904,242.28359612102213 52.30541767767863,242.55807501902746 52.30541767767863,242.91328227960912 52.22233956318814,243.6559857266402 52.27772497286787,244.9637809296255 52.29157132527325,245.9486564174731 52.250032267998904,246.28771045821486 52.097722391423304,247.06268832433852 52.08387603901792,247.30486810897128 51.890027105109766,247.93453376974503 51.80694899056107,248.3220190526481 51.37771206564503,249.43603381936555 51.21155583666405,250.11412582545017 51.08693866489921,250.75992496481922 50.87924337864388,251.30885210774431 50.81001161650056,251.6478943672555 50.49154551094398,252.61658243149577 50.29769657709403,253.10092418263957 50.25615751976147,253.27851577708498 50.17307940532919,253.55297511177196 50.10384764318587,253.64984299569915 50.09000129078049,253.6336983526271 50.11769399559125,253.64984299569915 50.10384764318587,253.77900007965218 50.06230858591152,254.02116932060744 50.020769528637175,254.11803691052774 49.90999870933592,254.24719360251038 49.688457070617005,254.44092843774706 49.605378956126515,254.57008485936967 49.563839898852166,254.57008485936967 49.549993546446785,254.5539403126022 49.591532603721134,254.60237394789874 49.660764365806244,254.44092843774706 49.6192253085901,254.45707299635978 49.591532603721134,254.42478387743176 49.674610718211625,254.2956273341115 49.93769141420489,254.10189231640834 50.076154938316904,254.08574772063002 50.14538670046022,254.15032609370246 50.21461846254533,254.13418150294456 50.5469309205655,254.19875985567342 50.69924079719931,254.16647068271413 50.81001161650056,254.1826152700378 50.87924337864388,254.16647068271413 51.12847772211535,254.02116932060744 51.46079018013552,253.9727355028008 52.028490629338194,253.98888011045347 52.319264030084014,253.9727355028008 52.54080566880293,254.0050247163599 52.77619365992723,254.0050247163599 52.92850353650283,253.9727355028008 53.20543058484327,254.0050247163599 53.51005033805268,254.0050247163599 54.063904434791766,254.0696031231637 54.590065826661885,254.05345852402388 55.01930275163613,254.0050247163599 55.18545898067532,254.03731392313784 56.03008647810202,254.02116932060744 56.7500968038803,254.08574772063002 56.9024066804559,254.05345852402388 57.34548995789373,254.08574772063002 58.02396122639766,254.0696031231637 58.27319556992734,254.11803691052774 58.75781790452311,254.08574772063002 59.173208477091976,254.08574772063002 59.560906344791874,254.03731392313784 60.05937503185123,253.98888011045347 60.19783855607966,254.0696031231637 60.30860937538091,254.23104902193882 60.30860937538091,254.65080756797397 60.33630208019167,254.90911995174247 60.30860937538091,255.5387545752019 60.26707031810656,255.66791007775464 60.28091667057015,255.95850956326467 60.26707031810656,256.3944077651249 60.29476302291732,256.89488195964077 60.3224557278445,257.0401806152513 60.29476302291732,257.23391194322903 60.3224557278445,257.6213738693332 60.30860937538091,257.97654644680733 60.3224557278445,258.0734115533123 60.30860937538091,258.5415920440719 60.33630208019167,258.70303326316935 60.3224557278445,258.8806184090936 60.35014843265526,259.23578808775346 60.33630208019167,259.397228580463 60.3224557278445,259.89769303447974 60.26707031810656,260.1721405942226 60.30860937538091,260.33358010723896 60.29476302291732,260.947048716087 60.26707031810656,261.2053505584918 60.3224557278445,262.17397861641075 60.30860937538091,262.3677034982684 60.28091667057015,262.52914071401756 60.28091667057015,262.78743990797375 60.19783855607966,263.23946245681145 60.21168490848504,263.4008987605048 60.17014585121069,263.4977604616288 60.11476044153096,263.73991444846615 60.11476044153096,263.88520665814576 60.07322138425661,264.0304987309937 60.05937503185123,264.4502306174836 60.01783597463509,264.57937866050634 59.99014326976612,264.85381789310486 59.92091150768101,265.12825663757394 59.92091150768101,265.386551480653 59.87937245040666,265.93542658652586 59.85167974565411,265.9838566491817 59.78244798351079,266.0 59.45013552549062,265.96771329667536 59.339364706131164,265.90313986963884 58.743971552175935,265.80627967847977 58.3839663892868,265.7739929345116 58.02396122639766,265.8224230478809 57.89934405463282,265.7739929345116 57.88549770216923,265.70941942645004 57.83011229254771,265.64484589133644 58.55012261826778,264.27265188179445 58.42550544656115,264.64395264150517 58.2316565127112,264.9829655983631 57.91319040709641,265.45112512381456 57.74703417805722,265.59641572226246 57.74703417805722,265.58027232917084 57.78857323527336,265.61255911363696 57.78857323527336,265.56412893440574 57.76088053040439,265.56412893440574 57.70549512078287,265.64484589133644 57.71934147318825,265.54798553798173" stroke="yellow" stroke-linecap="round" stroke-linejoin="round" stroke-width="0.5"><title>2023-07-15 7.1km</title><desc>13950596377</desc></polyline><polyline fill="none" points="139.7454018285498,194.0 139.7454018285498,194.3292730517569 139.71218855510233,194.46485590261 139.72879519179696,194.639176564815 139.52951555128675,195.58825284171326 139.51290891459212,195.97562951374857 139.39666245749686,196.55669299993315 139.38005582080223,196.73101168965513 139.33023591066012,196.944067642733 139.26380936382338,197.07964857597835 139.19738281698665,197.15712335034914 139.09774299664423,197.21522940983414 139.14756290684454,197.1958607253473 139.16416954353917,197.62197131468565 139.04792308650212,198.10618670134863 139.16416954353917,198.39671532460488 139.180776180292,198.64850642884267 139.11434963333886,199.248929985828 139.0811363599496,199.94619360494835 138.99810317641823,200.50787627465616 138.96488990291255,201.03082067465584 138.89846335613402,201.32134470227174 138.78221689903876,202.48343624737754 138.54972398508107,204.40087132867484 138.4168708913494,205.23369047312008 138.4168708913494,205.62104693663423 138.3338377077598,205.96966705995146 138.31723107106518,206.14397687512974 138.3338377077598,207.0736264475854 138.45008416473866,208.06137399697036 138.7490036256495,209.30089286837028 138.83203680923907,209.41709733658354 138.88185671938118,209.41709733658354 138.83203680923907,209.41709733658354 138.83203680923907,209.55266912383377 139.2305960903759,210.48230155889178 139.6457620082656,211.04395222368476 140.27681420341833,211.99294429819565 140.50930711743422,212.28345110249938 140.72519339469727,212.53522329706175 141.67177168745548,213.4842077185167 142.36925042944495,213.98774849518668 143.21618890197715,214.4525541490293 144.09634064789861,214.8979918043333 145.07613221398788,215.20786084476276 146.10574369039387,215.42089550889796 147.74980072519975,215.51772936599446 151.7021802632953,215.55646289464494 151.88485326711088,215.59519641519 152.00109972420614,215.67266343192023 152.10073954449035,215.76949715719093 152.15055945463246,215.90506428739172 152.20037936477456,217.14453058417712 152.16716609126888,217.86109324745485 152.20037936477456,218.71321820600133 152.13395281787962,221.44386491864861 152.16716609126888,223.03188205436163 152.10073954449035,223.7677878109389 152.13395281787962,224.61988555526477 152.11734618118498,226.55645673831168 152.15055945463246,227.25361740059452 152.0841329077375,228.14442997840524 152.16716609126888,228.58983465848723 152.16716609126888,229.36444893867883 152.13395281787962,230.7974768052809 152.10073954449035,231.14604947251792 152.0841329077375,231.16541460146254 152.05091963434825,231.14604947251792 152.11734618118498,231.24287509683927 152.0841329077375,231.22350997604372 152.0841329077375,231.18477972835535 152.06752627104288,232.0562083401892 152.0841329077375,232.77271323447349 152.06752627104288,235.87108082805935 152.0343129975954,236.49074811929313 152.06752627104288,237.53643196642224 152.00109972420614,238.5046524805075 152.05091963434825,240.15061572467675 152.0343129975954,241.68038019779488 151.934673177253,242.4549396641669 151.6025404429529,243.84913853163016 150.95488161110552,245.78550841804827 150.78881524398457,246.3664154320286 150.5729289666633,247.33458973553206 150.12454977538437,248.76747840708413 149.7592037676368,249.77436651062453 149.72599049424753,249.85181921471667 149.74259713100037,249.83245604169497 149.74259713100037,249.85181921471667 149.60974403721048,249.6581873937248 149.5267108536209,249.48391858156538 149.5267108536209,249.3096496052458 149.60974403721048,249.09665396691707 149.576530763763,249.07729071487847 149.41046439664206,249.21283343636605 149.37725112319458,249.13538046485337 149.3440378497471,249.15474371076562 149.31082457635785,249.13538046485337 149.27761130285216,249.03856420477678 149.27761130285216,248.86429480899824 149.46028430678416,249.03856420477678 149.60974403721048,249.07729071487847 149.69277722085826,249.07729071487847 149.77581040438963,249.13538046485337 149.8090236777789,249.34837605860957 149.89205686136847,249.48391858156538 149.87545022467384,249.46455537005386 149.858843587921,249.77436651062453 149.72599049424753,250.06481398375763 149.74259713100037,250.21971911631408 149.858843587921,250.33589788065 150.25740286911605,250.45207657205174 150.423469236237,250.8393383497896 150.5231090565212,250.93615366754238 150.58953560341615,250.97487978050776 150.90506170096342,250.99424283388362 151.53611389617436,250.95551672500733 152.00109972420614,250.99424283388362 153.3130240246537,251.01360588532407 154.37584877444897,251.0716950273345 155.45528016088065,251.01360588532407 157.43146992992843,251.0716950273345 157.66396284394432,251.12978415114048 157.71378275408642,251.18787325672747 157.7469960275339,251.36214046397072 157.71378275408642,251.98175587171863 157.73038939083926,252.7949979455443 157.7968159377342,253.7825013728434 157.76360266422853,254.73127421134268 157.68056948069716,255.46705387978 157.7469960275339,255.98984291889064 157.7968159377342,256.1834681141481 157.94627566810232,256.2802806358086 158.19537521881284,256.31900563025556 159.1751667849603,256.241555633198 160.3542379917344,256.2609181354783 161.31742292124545,256.241555633198 161.50009592506103,256.2802806358086 161.63294901885092,256.3964555948478 161.6661622922984,256.53199295494414 161.68276892893482,257.1709534582769 161.63294901885092,261.52744354146125 161.59973574540345,262.08893924660515 161.40045610483503,263.69596926282975 161.31742292124545,264.8383074152953 161.2842096478562,265.1287312451168 161.23438973771408,265.26426220971916 161.2842096478562,265.26426220971916 161.2842096478562,265.30298532424786 161.21778310096124,265.38043152897444 161.11814328061882,265.4191546191287 160.73619063617662,265.38043152897444 160.70297736278735,265.38043152897444 160.73619063617662,265.36106998080504 160.68637072609272,265.38043152897444 160.65315745264525,265.3417084306566 160.6697640893981,265.3223468784854 160.52030435891356,265.26426220971916 159.80621898017125,265.20617752279213 159.5405127927079,265.1287312451168 159.37444642558694,265.1480928175588 159.09213360142894,265.109369670623 158.64375441015,265.1480928175588 158.52750795311294,265.109369670623 158.42786813282873,265.0125617678859 158.44447476958157,265.09000809413556 158.24519512901315,265.09000809413556 158.42786813282873,266.0 158.5109013163601,265.6514929902769 158.47768804297084,265.4772392392915" stroke="yellow" stroke-linecap="round" stroke-linejoin="round" stroke-width="0.5"><title>2023-07-01 5.8km</title><desc>13950596319</desc></polyline></svg>