<?xml version="1.0" encoding="utf-8" ?>
<svg baseProfile="full" height="300mm" version="1.1" viewBox="0,0,200,300" width="200mm" xmlns="http://www.w3.org/2000/svg" xmlns:ev="http://www.w3.org/2001/xml-events" xmlns:xlink="http://www.w3.org/1999/xlink"><defs /><rect fill="#222222" height="300" width="200" x="0" y="0" /><text fill="#FFFFFF" style="font-size:12px; font-family:Arial; font-weight:bold;" x="10" y="20">Over 3km Workouts</text><text fill="#FFFFFF" style="font-size:4px; font-family:Arial" x="10" y="280">ATHLETE</text><text fill="#FFFFFF" style="font-size:9px; font-family:Arial" x="10" y="290">JaneZhou</text><text fill="#FFFFFF" style="font-size:4px; font-family:Arial" x="65" y="280">SPECIAL TRACKS</text><rect fill="yellow" height="2.6" width="2.6" x="65" y="283" /><text fill="#FFFFFF" style="font-size:3px; font-family:Arial" x="70" y="285.5">Over 5.0 km</text><rect fill="red" height="2.6" width="2.6" x="65" y="287" /><text fill="#FFFFFF" style="font-size:3px; font-family:Arial" x="70" y="289.5">Over 10.0 km</text><text fill="#FFFFFF" style="font-size:4px; font-family:Arial" x="120" y="280">STATISTICS</text><text fill="#FFFFFF" style="font-size:3px; font-family:Arial" x="120" y="285">Number: 7</text><text fill="#FFFFFF" style="font-size:3px; font-family:Arial" x="120" y="290">Weekly: 1.2</text><text fill="#FFFFFF" style="font-size:3px; font-family:Arial" x="141" y="285">Total: 37.2 km</text><text fill="#FFFFFF" style="font-size:3px; font-family:Arial" x="141" y="290">Avg: 5.3 km</text><text fill="#FFFFFF" style="font-size:3px; font-family:Arial" x="167" y="285">Min: 3.1 km</text><text fill="#FFFFFF" style="font-size:3px; font-family:Arial" x="167" y="290">Max: 7.1 km</text><polyline fill="none" points="20.42305196262896,57.49491327209398 25.675403878092766,60.278419009409845 27.585350025445223,62.505222550127655 29.972782712429762,77.53612207947299 31.405242323875427,80.31961733289063 35.22513462603092,85.32990512112156 39.04502692818642,87.0 45.7298384513706,86.44330176478252 51.937163438647985,83.65980971511453 54.80208266340196,80.8763162093237 58.62197496369481,74.7526253699325 60.53192111477256,65.84542611567304 58.62197496369481,43.57736274506897 57.66700189001858,40.793848272413015 54.324596129357815,37.453628982417285 51.937163438647985,35.783518550451845 43.81989230029285,34.113407594617456 40.47748653776944,34.67011130601168 35.70262116380036,36.34022208629176 32.360215401276946,39.68044207431376 29.495296174660325,44.69076812826097 27.585350025445223,56.938211949542165 26.630376951768994,58.60831574164331 25.675403878092766,59.16501688910648 25.675403878092766,58.051614535506815 27.10786348581314,59.16501688910648 29.017809638753533,64.73202515998855 29.972782712429762,75.30932482751086 31.405242323875427,78.64952035574242 35.22513462603092,82.54641248704866 41.43245961330831,86.44330176478252 44.29737883992493,87.0 46.68481152690947,86.44330176478252 54.324596129357815,80.31961733289063 58.14448842778802,74.19592585461214 60.05443457700312,65.28872566623613 59.576948039233685,49.70108946226537 59.09946150146425,43.57736274506897 56.712028816342354,38.56703564571217 51.45967690087855,34.113407594617456 44.29737883992493,33.0 40.47748653776944,34.113407594617456 35.22513462603092,36.89692556299269 31.405242323875427,41.907254237215966 29.495296174660325,47.474280561320484 28.540323100984097,71.41242739604786 29.017809638753533,74.7526253699325 31.405242323875427,78.64952035574242 35.22513462603092,82.54641248704866 40.47748653776944,85.32990512112156 47.16229806467891,85.32990512112156 54.324596129357815,82.54641248704866 58.14448842778802,76.42272357037291 59.09946150146425,71.41242739604786 58.14448842778802,64.17532459460199 59.576948039233685,58.051614535506815 59.09946150146425,46.91757819149643 58.62197496369481,43.57736274506897 56.23454227671027,38.56703564571217 52.41464997641742,35.783518550451845 47.16229806467891,33.55670382734388 43.34240576438606,33.55670382734388 38.0900538507849,35.22681495686993 35.22513462603092,36.89692556299269 31.405242323875427,40.23714520316571 29.972782712429762,44.13406546507031 28.540323100984097,49.70108946226537 28.540323100984097,72.52582695381716 30.92775578983128,78.64952035574242 34.27016155049205,82.54641248704866 40.000000001862645,85.32990512112156 44.77486537583172,86.44330176478252 49.549730751663446,85.32990512112156 56.23454227671027,79.2062194054015 59.09946150146425,73.08252664469182 60.05443457700312,68.62892748368904 59.576948039233685,59.721717978827655 58.62197496369481,53.04130106512457 59.09946150146425,44.69076812826097 57.1895153503865,39.68044207431376 54.324596129357815,35.783518550451845 47.16229806467891,33.0 41.90994615294039,33.0 37.135080775246024,34.67011130601168 31.405242323875427,41.907254237215966 29.495296174660325,48.58768512913957 28.540323100984097,56.38151056971401 29.017809638753533,73.63922627922148 30.4502692501992,78.09282124694437 33.31518847681582,81.98971378663555 37.612567314878106,84.77320670988411 41.90994615294039,85.8866034722887 49.072244212031364,84.77320670988411 51.937163438647985,83.10311112971976 55.757055738940835,79.76291839918122 58.14448842778802,75.30932482751086 59.09946150146425,72.52582695381716 60.53192111477256,59.721717978827655 58.62197496369481,43.57736274506897 55.757055738940835,38.56703564571217 49.549730751663446,34.67011130601168 43.81989230029285,33.55670382734388 40.954973075538874,34.113407594617456 36.180107701569796,36.34022208629176 32.360215401276946,40.793848272413015 29.017809638753533,48.58768512913957 28.06283656321466,55.824809131678194 25.675403878092766,59.721717978827655 27.10786348581314,61.94852175144479 27.10786348581314,65.84542611567304 29.495296174660325,75.86602422734722 32.83770193718374,80.31961733289063 39.04502692818642,84.77320670988411 45.7298384513706,85.32990512112156 49.549730751663446,84.77320670988411 53.84710958972573,81.98971378663555 58.62197496369481,75.30932482751086 59.09946150146425,61.3918208964169 58.62197496369481,42.46395713137463 57.1895153503865,39.68044207431376 54.80208266340196,37.453628982417285 50.98219036497176,35.22681495686993 44.29737883992493,34.113407594617456 35.70262116380036,36.34022208629176 30.4502692501992,43.02065996732563 29.017809638753533,49.70108946226537 29.495296174660325,59.16501688910648 28.540323100984097,74.19592585461214 29.972782712429762,78.64952035574242 33.79267501458526,83.10311112971976 37.135080775246024,85.32990512112156 41.43245961330831,86.44330176478252 47.639784602448344,85.32990512112156 54.324596129357815,81.98971378663555 57.1895153503865,78.64952035574242 59.576948039233685,68.62892748368904 58.62197496369481,64.17532459460199 56.23454227671027,65.28872566623613 59.576948039233685,63.61862397193909 60.05443457700312,62.505222550127655 60.05443457700312,51.9278974304907 59.09946150146425,46.36087576346472 57.1895153503865,40.23714520316571 50.02721729129553,34.67011130601168 45.25235191360116,33.55670382734388 42.38743268698454,33.55670382734388 36.65759423933923,36.89692556299269 32.83770193718374,40.793848272413015 30.4502692501992,43.57736274506897 28.06283656321466,54.15470446506515 26.152890412136912,57.49491327209398 23.287971187382936,58.60831574164331 19.468078887090087,56.38151056971401 28.540323100984097,59.721717978827655 29.495296174660325,61.94852175144479 29.495296174660325,73.08252664469182 30.4502692501992,77.53612207947299 32.83770193718374,81.43301502615213 35.70262116380036,84.21650824137032 38.0900538507849,85.32990512112156 42.38743268698454,85.8866034722887 49.072244212031364,84.77320670988411 53.369623051956296,82.54641248704866 57.66700189001858,76.42272357037291 59.576948039233685,71.96912720380351 59.576948039233685,68.62892748368904 59.576948039233685,51.9278974304907 58.62197496369481,43.57736274506897 56.712028816342354,39.123738889116794 53.84710958972573,36.89692556299269 50.02721729129553,34.67011130601168 45.7298384513706,34.113407594617456 39.04502692818642,35.22681495686993 31.88272886350751,41.350551282987 29.017809638753533,50.25779154151678 28.540323100984097,70.29902760777622 30.4502692501992,75.86602422734722 32.360215401276946,79.76291839918122 37.135080775246024,84.21650824137032 40.954973075538874,85.32990512112156 47.639784602448344,84.77320670988411 53.84710958972573,81.43301502615213 57.66700189001858,76.97942285332829 58.62197496369481,50.814493561629206 56.712028816342354,41.350551282987 53.84710958972573,38.010332342237234 49.072244212031364,35.22681495686993 40.000000001862645,35.22681495686993 35.70262116380036,38.010332342237234 31.88272886350751,41.907254237215966 29.972782712429762,46.91757819149643 29.017809638753533,54.711406079586595 29.495296174660325,71.96912720380351 32.360215401276946,79.2062194054015 34.27016155049205,81.43301502615213 40.954973075538874,84.77320670988411 44.77486537583172,85.32990512112156 50.02721729129553,84.21650824137032 55.757055738940835,78.64952035574242 58.14448842778802,75.30932482751086 58.14448842778802,69.185627582483 59.09946150146425,61.94852175144479 58.62197496369481,58.051614535506815 59.576948039233685,54.711406079586595 59.576948039233685,49.144387325737625 57.66700189001858,41.350551282987 53.84710958972573,36.89692556299269 46.68481152690947,34.113407594617456 41.90994615294039,34.113407594617456 36.65759423933923,36.34022208629176 31.88272886350751,41.350551282987 29.495296174660325,47.474280561320484 28.540323100984097,70.29902760777622 30.4502692501992,79.2062194054015 32.360215401276946,81.98971378663555 41.90994615294039,85.8866034722887 45.7298384513706,85.8866034722887 50.02721729129553,83.65980971511453 56.23454227671027,77.53612207947299 58.62197496369481,71.96912720380351 58.14448842778802,63.61862397193909 58.62197496369481,57.49491327209398 58.14448842778802,47.474280561320484 56.712028816342354,41.907254237215966 53.369623051956296,36.89692556299269 45.25235191360116,33.55670382734388 37.135080775246024,35.783518550451845 33.79267501458526,38.56703564571217 31.405242323875427,41.907254237215966 29.495296174660325,46.36087576346472 26.630376951768994,55.824809131678194 25.197917338460684,58.051614535506815 22.332998113706708,59.16501688910648 19.468078887090087,57.49491327209398" stroke="#4DD2FF" stroke-linecap="round" stroke-linejoin="round" stroke-width="0.5"><title>2025-07-07 3.1km</title><desc>15035124835</desc></polyline><polyline fill="none" points="187.0,73.8417916179751 186.8468085108325,73.39528947562212 185.2382978722453,73.48458992282394 182.02127659553662,72.05578164820326 182.3276595743373,66.87633160472615 182.09787234012038,66.69772931846092 178.26808510674164,66.78703046613373 177.88510638289154,70.80557244608644 179.34042553184554,74.10969279106939 182.1744680851698,73.48458992282394 182.40425531938672,69.91256475198315 181.94468085095286,66.51912699500099 181.7148936172016,66.51912699500099 178.4978723404929,67.05493385356385 178.3446808513254,67.32283715659287 177.9617021274753,70.80557244608644 179.11063829809427,73.93109201820334 179.4170212764293,74.02039240917657 182.3276595743373,73.3059890192817 182.7872340423055,71.43067727604648 182.71063829772174,70.62697098206263 182.94042553193867,70.26976794173243 181.25531914876774,69.198157924111 178.0382978725247,67.59074037574464 144.94893616996706,52.32012269797269 142.49787234095857,50.62337053689407 140.4297872344032,48.569402881956194 137.44255319191143,46.60473354405258 136.06382978754118,45.89030720893061 135.37446808535606,45.89030720893061 134.60851063858718,46.06891384872142 133.5361702130176,47.140552902943455 133.30638297880068,47.94428131036693 133.38297872338444,50.444764850020874 133.30638297880068,52.14151736587519 133.68936170218512,53.21314879623242 134.37872340437025,53.83826650917763 135.52765957452357,54.1954764254624 136.6765957446769,53.9275690021459 137.74893617024645,53.03454365127254 138.1319148936309,52.14151736587519 138.05531914904714,48.12288752058521 137.67234042612836,46.78334003413329 136.82978723431006,46.06891384872142 135.60425531910732,45.89030720893061 134.91489361738786,46.06891384872142 134.14893617061898,46.42612701636972 133.45957446843386,47.140552902943455 133.22978723421693,48.033584419987164 133.07659574504942,50.17685624951264 133.15319148963317,52.498727992060594 133.45957446843386,52.94524106482277 134.22553191520274,53.65966149501037 134.99148936197162,54.01687148597557 135.83404255332425,54.10617396055022 136.98297872347757,53.7489640066633 137.74893617024645,52.94524106482277 137.97872340446338,52.409425349673256 138.20851063821465,51.6057011464145 138.20851063821465,50.89127899700543 138.1319148936309,48.39079676545225 137.90212765987962,47.22985609661555 137.67234042612836,46.78334003413329 136.98297872347757,46.247520451201126 136.2170212767087,45.979610533686355 135.37446808535606,45.89030720893061 134.22553191520274,46.336823738354724 133.68936170218512,46.87264326546574 133.45957446843386,47.22985609661555 133.22978723421693,48.39079676545225 133.30638297880068,50.53406769805588 133.15319148963317,51.42709566507256 133.38297872338444,52.76663586363429 133.99574468145147,53.48105644347379 134.7617021277547,54.01687148597557 135.91063829837367,54.1954764254624 137.51914893649518,53.391753903764766 137.90212765987962,52.76663586363429 138.20851063821465,52.14151736587519 138.1319148936309,48.033584419987164 137.90212765987962,47.22985609661555 137.44255319191143,46.51543028472224 136.29361702129245,45.979610533686355 135.68085106415674,45.89030720893061 134.60851063858718,46.247520451201126 134.22553191520274,46.42612701636972 133.45957446843386,47.40846245596185 133.15319148963317,48.65870592632564 133.15319148963317,51.33779291034443 133.22978723421693,52.67733324924484 133.76595744676888,53.391753903764766 134.455319148954,53.83826650917763 135.68085106415674,54.1954764254624 136.6765957446769,53.9275690021459 137.67234042612836,53.21314879623242 138.20851063821465,52.230820036667865 138.1319148936309,49.908947565359995 138.20851063821465,48.48009982844815 137.97872340446338,47.40846245596185 137.59574468107894,46.78334003413329 137.05957446806133,46.247520451201126 136.44680851045996,45.979610533686355 135.4510638299398,45.89030720893061 134.8382978728041,46.06891384872142 134.14893617061898,46.42612701636972 133.61276595760137,47.051249699667096 133.38297872338444,47.40846245596185 133.30638297880068,48.21219061157899 133.22978723421693,52.052214686060324 133.45957446843386,52.76663586363429 134.07234042556956,53.57035897404421 135.06808510655537,54.01687148597557 136.29361702129245,54.01687148597557 137.2127659576945,53.48105644347379 137.90212765987962,52.85593846888514 138.28510638326406,51.962911996699404 138.1319148936309,49.10522100760136 138.20851063821465,48.48009982844815 137.97872340446338,47.497765621810686 137.74893617024645,47.051249699667096 136.90638297889382,46.247520451201126 136.06382978754118,45.979610533686355 135.22127659618855,45.979610533686355 134.53191489353776,46.15821715461789 133.84255319135264,46.60473354405258 133.38297872338444,47.676371925277635 133.22978723421693,48.569402881956194 133.22978723421693,52.052214686060324 133.91914893640205,53.391753903764766 134.37872340437025,53.7489640066633 135.2978723407723,54.1954764254624 136.14042553212494,54.1954764254624 136.90638297889382,53.9275690021459 137.51914893649518,53.391753903764766 138.05531914904714,52.67733324924484 138.20851063821465,51.33779291034443 138.1319148936309,48.033584419987164 137.67234042612836,46.87264326546574 136.3702127658762,45.979610533686355 135.68085106415674,45.89030720893061 134.8382978728041,46.06891384872142 133.91914893640205,46.69403679377865 133.22978723421693,47.854978191433474 133.15319148963317,50.89127899700543 133.22978723421693,52.32012269797269 133.5361702130176,53.03454365127254 134.14893617061898,53.65966149501037 134.53191489353776,53.9275690021459 135.4510638299398,54.10617396055022 136.2170212767087,54.10617396055022 137.365957446862,53.48105644347379 137.97872340446338,52.67733324924484 138.20851063821465,52.052214686060324 138.1319148936309,48.033584419987164 137.90212765987962,47.40846245596185 137.51914893649518,46.69403679377865 136.90638297889382,46.247520451201126 136.06382978754118,45.89030720893061 135.2978723407723,45.979610533686355 133.99574468145147,46.51543028472224 133.15319148963317,47.76567506318679 133.0,49.01591800991446 133.22978723421693,51.962911996699404 133.5361702130176,52.94524106482277 134.68510638317093,54.10617396055022 136.06382978754118,54.01687148597557 136.82978723431006,53.7489640066633 137.44255319191143,53.391753903764766 137.90212765987962,52.76663586363429 138.20851063821465,52.230820036667865 138.05531914904714,47.676371925277635 137.59574468107894,46.87264326546574 136.98297872347757,46.336823738354724 136.29361702129245,45.979610533686355 135.4510638299398,45.979610533686355 134.68510638317093,46.247520451201126 133.68936170218512,47.051249699667096 133.22978723421693,48.033584419987164 133.07659574504942,51.15918737323955 133.15319148963317,52.14151736587519 133.68936170218512,53.3024513546261 134.3021276597865,53.83826650917763 135.22127659618855,54.1954764254624 136.14042553212494,54.10617396055022 136.90638297889382,53.83826650917763 137.97872340446338,53.12384622823447 138.9744680854492,53.21314879623242 139.1276595746167,53.391753903764766" stroke="#4DD2FF" stroke-linecap="round" stroke-linejoin="round" stroke-width="0.5"><title>2025-06-15 3.3km</title><desc>14807579363</desc></polyline><polyline fill="none" points="50.39537155092694,146.75030337207136 50.642488148703706,146.84634057682706 50.82370698719751,146.88475544466928 51.53210790117737,146.7695108170301 51.89454557810677,146.75030337207136 52.40525321371388,146.84634057682706 52.85006308980519,147.0 52.96538416889962,146.94237773140776 52.981858608778566,146.21249409698066 53.04775636817794,145.96279639800196 53.11365412763553,145.17528604599647 53.24544964649249,144.84875637273944 53.22897520667175,144.57984914693225 53.311347405891865,143.984410316727 53.294872966071125,143.5234240895079 53.34429628564976,142.35174555207777 53.32782184577081,141.71788355411263 53.37724516534945,141.14164347498445 53.34429628564976,140.6998581894004 53.41019404504914,138.89428988323198 53.3937196052284,138.52933242967993 53.32782184577081,138.01070743182208 53.34429628564976,137.89545723328774 53.41019404504914,137.7802069624595 53.45961736468598,137.33841358713107 53.41019404504914,136.666117280256 53.426668484928086,136.18590412499907 53.3937196052284,136.05144421641307 53.22897520667175,135.89777562886593 53.19602632691385,135.66727250628173 53.19602632691385,134.99497007894388 53.22897520667175,134.80288321882836 53.21250076673459,134.6876310063235 53.22897520667175,134.5531700002466 53.19602632691385,134.4379176309012 53.22897520667175,134.24583018785052 53.21250076673459,133.86165469884872 53.19602632691385,133.72719308765954 53.11365412763553,133.55431372864405 53.09717968775658,133.4390607321402 53.014807488478255,133.30459881147544 52.586472052149475,133.28538995762938 51.7956989389495,133.34301651309943 51.49915902141947,133.3238076632988 51.30146574310493,133.24697224384 51.284991303342395,133.18934565816016 51.284991303342395,132.99725690853666 51.13672134454828,133.01646579257795 50.92255362641299,132.95883913453144 50.3459482313483,132.97804802253086 50.06588275375543,132.93963024452387 49.78581727616256,132.95883913453144 49.39043071947526,132.92042135243537 49.14331412164029,132.95883913453144 48.51728540705517,132.90121245835326 47.24875353783136,132.90121245835326 46.96868806023849,132.86279466419364 46.85336698126048,132.92042135243537 46.803943661623634,132.97804802253086 46.70509702246636,132.99725690853666 45.98022166878218,132.97804802253086 45.68368175125215,132.86279466419364 45.66720731143141,132.80516795790754 45.68368175125215,132.57466095183918 45.55188623239519,132.47861628049577 44.530470961122774,132.49782521877205 43.32783685141476,132.44019839793327 42.89950141508598,132.38257155894826 42.68533369695069,132.22889989987016 42.5041148585733,131.97918317953008 42.43821709905751,132.05601912972634 42.30642158020055,132.13285504770465 42.04283054248663,132.19048196505173 41.53212290687952,132.15206402214244 41.40032738796435,132.28652678712388 41.219108549528755,132.36336260855023 41.087313030671794,132.47861628049577 40.54365651530679,132.51703415504016 39.60461344337091,132.4017805072799 39.390445725177415,132.42098945358885 39.01153360842727,132.4017805072799 38.74794257071335,132.42098945358885 38.0395416567917,132.36336260855023 37.62768066028366,132.38257155894826 37.380564062448684,132.36336260855023 37.28171742329141,132.4017805072799 36.836907547025476,132.36336260855023 35.683696756954305,132.3441536562168 35.10709136183141,132.28652678712388 33.986829451459926,132.3249447018752 32.537078743916936,132.19048196505173 32.09226886770921,132.19048196505173 31.647458991559688,132.22889989987016 31.136751355952583,132.15206402214244 30.37892712239409,132.17127299463027 30.098861644801218,132.11364607121504 29.78584728745045,132.13285504770465 29.604628449014854,132.03681014516042 29.406935170700308,132.07522811219678 28.978599734429736,132.05601912972634 28.171352181292605,132.09443709267362 28.006607782735955,131.90234719727596 27.957184463215526,131.72946611950465 27.891286703699734,131.6334210059722 27.594746786227915,131.5950029464584 27.561797906528227,131.55658487892651 27.479425707191695,131.4029125283705 27.26525798905641,131.2108219092188 27.166411349957343,130.8458491790807 27.199360229598824,130.5000848705531 27.10051359044155,130.09669235399633 27.281732428935356,128.75204422930256 27.281732428935356,128.0412976695079 27.495900147070643,127.27291991416132 27.51237458694959,127.00398693986062 27.6606445456855,126.23560484185873 27.75949118490098,125.58247752932948 27.808914504479617,124.79487973767391 27.808914504479617,124.14174729814113 27.874812263820786,123.62308164627757 27.924235583399422,122.91231522413727 27.907761143578682,122.6625858277257 27.94071002327837,122.45127607305767 27.907761143578682,122.27838609283208 27.75949118490098,121.99023576387845 27.743016744963825,121.79813529318199 27.775965624663513,121.60603462142171 27.924235583399422,121.31788323681394 28.006607782735955,121.04894153631176 27.97365890297806,120.77999944159819 27.891286703699734,120.51105695284787 27.957184463215526,120.26132428892015 28.121928861713968,119.8771195269801 28.138403301592916,119.64659628382651 28.072505542135332,119.37765213406237 28.138403301592916,118.99344552212278 28.088979982072487,118.85897301792284 27.858337824000046,118.5323965260759 27.79244006454246,118.30187159366324 27.6606445456855,118.1289777043421 27.594746786227915,117.95608365212684 27.446476827550214,117.82161038777849 27.430002387671266,117.72555799580005 27.34763018839294,117.62950555353018 27.36410462821368,116.8418736304593 27.495900147070643,116.36160860372183 27.54532346664928,116.03502766751626 27.644170105806552,115.6700247569388 27.6606445456855,115.49712838801497 27.446476827550214,114.67106571025215 27.001666951342486,113.82578842324438 26.886345872306265,113.42235925450223 26.869871432485525,112.53865416662302 26.919294752005953,112.25048854388297 26.919294752005953,111.3475666622544 27.001666951342486,110.6175414671161 27.001666951342486,109.82987944652268 27.08403915062081,109.25353924056981 27.08403915062081,108.60035148539464 27.1169880303205,108.13927637584857 27.10051359044155,107.98558441523346 27.166411349957343,107.73583470461017 27.166411349957343,107.31318057375029 27.149936910078395,106.9481603136228 27.1169880303205,106.79446735522652 27.133462470199447,106.54471602330159 27.034615831042174,105.10383631635341 26.95224363176385,104.41221003771352 26.902820312185213,103.45161365902459 26.7874992332072,102.45258809007646 26.7874992332072,102.2988913658337 26.68865259399172,101.43434489307401 26.705127033870667,101.31907172223146 26.754550353449304,101.2422229014337 26.77102479332825,101.1461618301546 26.754550353449304,101.05010070861317 26.705127033870667,101.01167624589289 26.67217815417098,100.93482729633979 26.55685707507655,99.97421271078929 26.540382635314018,99.05201797668997 26.573331515013706,98.8791059480427 26.55685707507655,98.4948564118531 26.573331515013706,98.24509378176299 26.55685707507655,97.59186683391454 26.573331515013706,97.05391348342528 26.622754834592342,96.4967458502797 26.705127033870667,96.20855503120401 26.853396992606577,96.01642756695219 26.968718071701005,95.92036375941825 27.166411349957343,95.88193822230096 27.462951267370954,95.90115099183458 27.82538894424215,95.86272545068641 28.121928861713968,95.74744877901685 28.3855198994861,95.49768240848789 28.418468779243995,95.40161832924059 28.467892098764423,94.9981486472825 28.51731541834306,94.88287143225898 29.028023053950164,94.84444567786704 29.703475088172127,94.90208430649363 29.884693926665932,94.84444567786704 30.263606043416075,94.80601991541334 30.889634758001193,94.67152968337177 30.90610919793835,94.6138909822912 30.873160318122245,94.46018769094371 30.873160318122245,94.36412306842976 30.90610919793835,94.19120662120986 31.037904716737103,93.9606511046004 31.087328036373947,93.78773427703709 31.120276916015428,93.55717825342435 31.087328036373947,93.28819585962628 31.103802476194687,93.17291757008934 31.153225795773324,93.1152783981961 31.416816833545454,93.0 31.581561232043896,93.0192130713549 31.532137912523467,93.1152783981961 31.911050029215403,93.691669302425" stroke="yellow" stroke-linecap="round" stroke-linejoin="round" stroke-width="0.5"><title>2025-06-10 5.1km</title><desc>14754484246</desc></polyline><polyline fill="none" points="183.22447374777403,146.76155622633814 184.20162870979402,147.0 184.3152513797395,146.76155622633814 184.49704765167553,146.01972971738724 184.95153833169024,141.59521933853102 184.86064019566402,140.61492813541554 184.79246659378987,139.5551495931868 184.90608926373534,135.28949610941345 184.3152513797395,134.94506132644892 183.45171908778138,134.54763599489524 173.27112785587087,129.77848336215538 172.86208624392748,129.51352780434536 171.9758294179337,128.7716507678124 171.79403314588126,128.50669415657467 171.70313500997145,128.0827630018175 171.74858407792635,127.79130992124556 171.68041047581937,127.36737756883667 171.7258595438907,126.86395697848639 171.68041047581937,126.2810476761806 171.58951233990956,125.9895925216988 171.38499153382145,125.72463299926312 171.3622669999022,125.59215313414461 171.38499153382145,125.30069718667073 171.27136886387598,124.6912882126635 171.3622669999022,124.24085454992019 171.43044060189277,123.71093156798452 171.40771606797352,122.91604501548863 171.18047072796617,122.54509710357524 170.7487045818707,122.1476523092133 170.40783657191787,122.12115596735384 169.6806514839409,122.22714131804241 169.04436453199014,122.22714131804241 168.7489455898758,122.12115596735384 168.4080775800394,121.7767032716365 168.27173037594184,121.72371050767833 167.2718508798862,121.72371050767833 166.7491865978809,121.67071773247153 166.4537676559994,121.72371050767833 166.0901751120109,121.64422134072811 165.34026548999827,121.69721412145009 164.54490679991432,121.59122854903399 163.77227264398243,121.61772494626348 162.74966861400753,121.51173934062535 162.2497288660379,121.64422134072811 161.95430992404,121.61772494626348 161.27257390401792,121.67071773247153 160.74990962201264,121.56473214902508 160.24996987404302,121.51173934062535 159.70458105800208,121.40575369058934 159.091018640087,121.37925727108086 158.50018075609114,121.45874652115162 157.36395405605435,121.43225010720198 156.7731161720585,121.53823574617854 156.3186254920438,121.72371050767833 156.00048201612663,121.67071773247153 155.77323667611927,121.72371050767833 155.00060252007097,121.59122854903399 154.56883637409192,121.72371050767833 154.1143456940772,121.43225010720198 154.00072302413173,121.37925727108086 153.59168141207192,121.56473214902508 152.29638297413476,121.64422134072811 151.97823949810117,121.51173934062535 151.79644322616514,121.29976799615542 151.63737148814835,121.22027869624435 151.43285068217665,120.87582477483375 151.1601562742144,120.7963353418163 150.75111466215458,120.76983885858499 150.34207305021118,120.76983885858499 149.38764262211043,120.87582477483375 148.81952927215025,120.7963353418163 147.3651590963127,120.8228318222682 145.59264544432517,120.74334237254516 144.82001128827687,120.76983885858499 143.9337544622831,120.63735640089726 142.6611805582652,120.71684588382777 141.91127093636896,120.69034939231642 141.0250141103752,120.63735640089726 140.63869703235105,120.557866892952 138.95708151627332,120.53137038482237 138.00265108828899,120.47837736012298 137.3890886703739,120.557866892952 136.79825078637805,120.53137038482237 136.59372998040635,120.47837736012298 136.07106569840107,120.50487387391331 135.7529222223675,120.557866892952 135.57112595043145,120.557866892952 135.48022781440523,120.47837736012298 135.38932967826258,120.18691552619566 135.38932967826258,119.73647385019285 135.57112595043145,119.47150778402283 135.63929955242202,119.23303808740457 135.61657501838636,119.07405816492974 135.45750328036956,118.80909140553558 135.52567688236013,118.27915705485793 135.36660514434334,117.77571839441953 135.36660514434334,117.48425344926363 135.50295234832447,116.74234116554726 135.63929955242202,115.54997758335958 135.5938504843507,115.09952765754133 135.66202408634126,114.59608267432486 135.88926942634862,114.06613950525934 135.9574430284556,113.82766471726063 136.07106569840107,112.50280069347355 136.1619638344273,112.23782705675694 136.1619638344273,112.02584794766153 136.2528619703371,111.65488407968951 136.2528619703371,111.2839196681598 136.298311038292,111.07193976035342 136.36648464028258,110.27701352530858 136.32103557232767,109.93254471491673 136.38920917443465,109.80005658607115 136.32103557232767,109.56157777959015 136.36648464028258,109.19061030061857 136.298311038292,109.1111171986995 136.43465824227314,108.84614001197042 136.38920917443465,108.66065581627481 136.45738277642522,107.94521550263744 136.54828091245145,107.44175629215897 136.52555637841579,106.99129193929548 136.27558650437277,106.62032069392444 136.2074129023822,106.35534090007422 136.298311038292,105.93137265300902 136.5710054463707,105.37491325124574 136.59372998040635,105.1629283955117 136.54828091245145,104.9244452205312 136.54828091245145,104.44747819668555 136.70735265035182,103.94401202992594 136.8664243883686,103.70552770661016 136.88914892228786,103.49354145293182 136.7755262523424,102.99007338882075 136.79825078637805,102.56609950565326 136.75280171842314,102.35411229771853 136.68462811643258,102.22162020264659 136.6164545143256,102.16862334520556 136.50283184438013,102.11562647666142 135.7529222223675,102.06262959699961 135.66202408634126,102.03613115302869 135.61657501838636,101.9301373493654 135.66202408634126,101.74464808608172 135.63929955242202,101.21467801372637 135.70747315441258,100.94969256148033 135.8438203583937,100.87019687164866 136.13923930039164,100.81719973123109 136.298311038292,100.65820824349066 136.6164545143256,100.63170965251629 136.18468836834654,100.71120541724667 135.91199396026786,100.71120541724667 135.7529222223675,100.60521105877706 135.70747315441258,100.44621943785751 135.63929955242202,99.70425722002983 135.7529222223675,99.14778412939631 136.02561663032975,98.40581810564618 136.09379023232032,97.71684770760476 136.02561663032975,96.92187953353277 135.93471849441994,96.55089353121002 135.7529222223675,96.15340792525967 135.2984315424692,95.41143312427448 135.16208433837164,95.09344325806887 135.09391073638108,94.8284513977269 135.04846166842617,94.29846684471704 135.16208433837164,93.90097770170541 135.3438806104241,93.74198186972353 135.32115607638843,93.29149313674134 135.2757070083171,93.13249692192767 135.2984315424692,93.02649938990362 135.41205421241466,93.0 135.93471849441994,93.1059975430544 136.32103557232767,93.05299877710058 136.5710054463707,93.1854956713214 137.25274146639276,93.05299877710058 137.70723214629106,93.1854956713214 137.8435793503886,93.71548255471862 137.8890284183435,94.13947126240237 137.86630388430785,94.32496609872032 137.77540574839804,94.53696003083314 137.7981302823173,94.80195219638699 137.70723214629106,95.25243824107747 137.5254358742386,95.72942259100091 137.41181320429314,96.2859031966218 137.41181320429314,97.16037024790421 137.6390585443005,97.95533767297457 137.93447748629842,98.35282044929045 138.0481001562439,98.77680138936557 138.00265108828899,98.93579405877972 137.91175295226276,99.041789116367 137.45726227236446,99.28027783334255 136.7755262523424,100.04873994873196 136.70735265035182,100.20773181930417 136.6164545143256,100.68470683172927 136.68462811643258,101.0556867756386 136.6164545143256,101.18817948095966 136.59372998040635,101.34717063582502 136.70735265035182,101.61215567209001 136.75280171842314,102.03613115302869 136.8209753202973,102.19512177535216 136.91187345643993,102.48660432345059 136.8664243883686,103.4140465620294 136.8209753202973,103.70552770661016 136.59372998040635,104.20899434774765 136.52555637841579,104.47397638829716 136.50283184438013,104.7124599875242 136.6164545143256,105.1629283955117 136.6164545143256,105.34841515403241 136.54828091245145,105.53390177659458 136.27558650437277,106.01086675345141 136.23013743641786,106.19635289066355 136.2528619703371,106.5673247573286 136.50283184438013,106.93829608043598 136.5710054463707,107.30926685984014 136.48010731034447,108.52816702194104 136.4119337083539,108.87263774315943 136.43465824227314,109.1376149020798 136.36648464028258,109.58807543582225 136.43465824227314,110.06503277434967 136.38920917443465,110.11802797872224 136.34376010647975,110.4889940986468 136.32103557232767,111.46940194186755 136.11651476635598,112.37031390979246 136.11651476635598,112.58229273039615 136.0028920964105,113.11223900559708 135.93471849441994,113.85416192706907 135.70747315441258,114.49009412931628 135.61657501838636,115.97392972251691 135.45750328036956,116.82183187131886 135.36660514434334,117.11329757906788 135.43477874645032,117.11329757906788 135.41205421241466,117.4312597867247 135.45750328036956,117.6432343699853 135.43477874645032,117.85520877575618 135.5484014163958,118.1996668066422 135.5484014163958,118.46463420377404 135.48022781440523,118.5971177983447 135.48022781440523,118.78259471431375 135.63929955242202,119.2595347314782 135.5938504843507,119.49800440306717 135.43477874645032,119.68348065907776 135.3438806104241,119.86895677926077 135.32115607638843,120.00143963898881 135.38932967826258,120.18691552619566 135.57112595043145,120.34589474996028 135.7529222223675,120.42538432437868 136.13923930039164,120.34589474996028 136.32103557232767,120.37239127751673 136.32103557232767,120.39888780229376 136.298311038292,120.37239127751673 136.36648464028258,120.31939821962442 136.298311038292,120.29290168646548 136.7755262523424,120.34589474996028 137.25274146639276,120.31939821962442 137.29819053434767,120.42538432437868 136.84369985433295,120.42538432437868 136.8209753202973,120.557866892952 136.88914892228786,120.66385289802565 137.1845678644022,120.84932829995523 137.68450761237182,120.9553141829092 138.84345884632785,120.90232124693284 139.72971567232162,120.9553141829092 143.070222170325,120.98181064672826 152.50090378010646,121.2732715656457" stroke="yellow" stroke-linecap="round" stroke-linejoin="round" stroke-width="0.5"><title>2025-04-19 6.0km</title><desc>14222567780</desc></polyline><polyline fill="none" points="35.14694295299705,153.0 35.13700834295014,153.20858965446678 35.087335292308126,153.3592374934815 35.0774006821448,153.62576778283255 35.037662241607904,153.71847381984117 35.04759685177123,154.00817968438787 35.00785841123434,154.25153202403453 34.95818536065053,154.76141137981904 34.94825075054541,155.01635017600347 34.858839259366505,155.21334793406277 34.88864308974007,155.20175984037633 34.868773869471624,155.4103453412099 34.789296988456044,155.88545529080875 34.779362378350925,156.03609948271333 34.73962393787224,156.31421129779483 34.72968932770891,156.65026214102545 34.689950887230225,156.85884490940225 34.65021244669333,157.33394863514695 34.620408616319764,157.43823942363815 34.63034322648309,157.54253011379478 34.55086634546751,157.9481040849787 34.52106251503574,158.35367656848393 34.451520244183484,158.7940107235845 34.451520244183484,158.9794140537415 34.302501092257444,159.9296012421255 34.302501092257444,160.14976540118369 34.223024211241864,160.60167993336654 34.213089601078536,160.77549272325268 34.16341655049473,161.08835505655588 34.15348194038961,161.34327926631522 34.044201228942256,162.10804836972966 34.03426661883714,162.33979553871177 33.964724347926676,163.06979594684526 33.86537824670086,163.7650299509114 33.805770585953724,164.37914968578116 33.74616292514838,164.70358892378135 33.68655526440125,165.31770344701363 33.5772745530121,165.9434015296647 33.51766689226497,166.0592711565114 33.42825540108606,166.14037982306763 33.44812462135451,166.12879287435499 33.398451570712496,166.4764008080965 33.398451570712496,166.62703057340696 33.44812462135451,166.81242077219213 33.477928451728076,166.96305007989577 33.42825540108606,167.40334995695594 33.43819001124939,167.57715205751447 33.388516960607376,167.86682161819772 33.37858235044405,168.14490368270344 33.26930163911311,168.81693245228234 33.19975936814444,169.41943753298256 33.19975936814444,169.6279962193512 33.12028248718707,170.0914585589053 32.98119794536615,171.37755637992814 32.98119794536615,171.95687483784423 33.02093638590304,172.37398224890785 33.080544046650175,172.69839803683863 33.18982475803932,173.15026129877515 33.32890929986024,173.544191867295 33.36864774033893,173.6832258506838 33.477928451728076,173.92653490108933 33.557405332743656,174.1698434163918 33.94485512771644,174.78390538483654 33.974658958090004,174.86500765415258 33.964724347926676,175.01562599655153 34.12367810995784,175.1430721261131 34.223024211241864,175.25893211649236 34.25282804161543,175.31686206615996 34.381977973273024,175.3863779657404 34.56080095557263,175.56016752356663 34.63034322648309,175.60651135952503 34.96811997081386,175.96567543006677 35.10720451257657,176.06994865150045 35.50458891765447,176.29008068505937 35.79269261134323,176.48704055436974 36.27948850754183,176.71875759870454 36.76628440374043,176.86937341727025 36.91530355566647,176.96205997290963 37.39216484170174,177.08950386013748 37.9485030088108,177.12426125843194 38.11739138100529,177.10108966080588 38.266410532873124,177.14743285124132 38.45516812527785,177.12426125843194 38.832683310087305,177.14743285124132 39.51817140885396,177.10108966080588 39.67712517088512,177.13584705546236 39.875817373453174,177.14743285124132 39.99503269494744,177.13584705546236 40.442090150667354,177.15901864581247 40.61097852286184,177.12426125843194 40.72025923425099,177.13584705546236 40.9487552671344,177.13584705546236 41.10770902922377,177.18219023138226 41.147447469702456,177.22853338784626 41.21698974055471,177.3328054190133 41.24679357098648,177.68037814632407 41.236858960823156,177.86574982107413 41.24679357098648,177.98160696004197 41.226924350718036,178.14380675082793 41.25672818114981,178.34076331988035 41.25672818114981,178.4218629816969 41.226924350718036,178.51454823669337 41.28653201146517,178.88528848025453 41.28653201146517,179.12858608990064 41.20705513044959,179.90481774420186 41.26666279119672,180.28713879605493 41.24679357098648,180.4609206556197 41.236858960823156,181.23714296250546 41.25672818114981,181.4225086780134 41.226924350718036,181.6194594105109 41.20705513044959,181.89750690658548 41.21698974055471,182.2334800321114 41.24679357098648,182.56945213746076 41.226924350718036,182.76640082837548 41.24679357098648,183.0212750844512 41.21698974055471,183.1602971584798 41.24679357098648,183.94808561201353 41.20705513044959,184.4346580313795 41.236858960823156,185.50047585438733 41.25672818114981,185.87119269082177 41.21698974055471,186.23032344173407 41.18718591018114,186.38092631300242 41.17725130007602,186.60103783302475 41.19712052034447,187.21503081171977 41.226924350718036,187.38880179097032 41.19712052034447,187.55098779204855 41.20705513044959,188.21131405667256 41.18718591018114,188.3966680894082 41.18718591018114,188.70945231559745 41.19712052034447,188.97589744056313 41.226924350718036,189.2307573946382 41.17725130007602,189.48561676176905 41.18718591018114,189.63621520283777 41.157382079807576,189.82156684895745 41.20705513044959,190.04167152549053 41.147447469702456,190.81782662814658 41.1673166899709,191.45496480832662 41.20705513044959,191.86041446772288 41.17725130007602,192.4280414954119 41.12757824943401,193.0883386605783 40.988493707671296,193.73704782863206 40.759997674729675,194.5247609924263 40.69045540387742,194.67535257657437 40.50169781141449,195.26613296654978 40.442090150667354,195.59048164368141 40.39241710002534,195.7526556258017 40.342744049441535,195.85691020314698 40.263267168425955,196.26234373700572 40.104313406394795,196.78361324124126 40.02483652532101,196.94578547519632 39.88575198355829,197.3048802905687 39.786405882332474,197.67555758772505 39.72679822152713,197.86089577078383 39.67712517088512,197.95356474591972 39.65725595067488,197.89564664555655 39.796340492437594,197.87247939690133 40.07450957602123,197.9303975094299 40.124182626605034,198.02306642637996 40.17385567724705,198.2431547932283 40.22352872788906,198.28948913050408 40.30300560890464,198.31265629186237 40.5513708620565,198.26632196428545 41.21698974055471,198.25473837939353 41.40574733301764,198.31265629186237 41.71372024691664,198.28948913050408 42.687312039372046,198.34740702479758 43.05489261407638,198.31265629186237 43.29332325712312,198.30107271180168 43.52181929006474,198.33582344837487 43.69070766220102,198.31265629186237 44.137765117920935,198.33582344837487 44.326522710267454,198.32423987073707 44.5649533533724,198.34740702479758 44.83318782679271,198.34740702479758 45.051749249571,198.38215774684795 45.73723734833766,198.35899060001248 45.91606033057906,198.38215774684795 46.333313955925405,198.32423987073707 46.54194076859858,198.33582344837487 46.70089453062974,198.31265629186237 46.83997907239245,198.33582344837487 46.91945595346624,198.41690845796984 46.94925978383981,198.6369960417287 46.95919439388672,198.96133484126767 46.91945595346624,199.56367580477672 46.90952134330291,200.09651315570954 46.979063614155166,200.49034781003866 46.95919439388672,200.62934794177272 46.99893283442361,200.73359792600968 47.01880205469206,200.90734768157563 46.95919439388672,201.08109716442414 46.93932517367648,201.32434598222608 46.89958673319779,201.49809481052944 46.89958673319779,201.62551044468273 46.979063614155166,202.15833787108568 46.90952134330291,202.7143289730593 46.90952134330291,202.91124181872874 46.84991368255578,204.5212807697826 46.8598482926609,204.66027584025142 46.83004446228733,204.90351679360174 46.84991368255578,205.14675721251842 46.78037141170353,205.44791127647477 46.7704368015402,205.72589891608368 46.720763750898186,205.91122362139868 46.720763750898186,206.11971354403795 46.67109070025617,206.38611676269647 46.631352259777486,206.86100786698807 46.59161381924059,206.8957559165865 46.41279083699919,206.90733859738248 46.333313955925405,206.8957559165865 46.24390246486291,206.8494251813754 46.084948702773545,206.80309442675207 45.79684500908479,206.80309442675207 45.61802202684339,206.82625980649027 45.2703106723493,206.77992904216808 45.22063762176549,206.74518095621897 45.21070301160216,206.71043285934138 45.21070301160216,206.60618850333412 45.2703106723493,206.46719587592088 45.24050684197573,206.35136855315795 45.06168385967612,206.5482749297662 45.08155307994457,206.67568475157896 45.17096457112348,206.80309442675207 45.1808991812286,206.73359825846273 45.21070301160216,206.698850157969 45.200768401438836,206.65251934033586 45.1808991812286,206.71043285934138 45.06168385967612,206.7915117350567 44.99214158882387,206.94208663244353 45.00207619892899,206.98841732893197 45.021945419197436,207.0 45.121291520423256,206.98841732893197 45.13122613058658,206.8841732346118 45.121291520423256,206.81467711721052 44.98220697866054,206.47877860152948 44.84312243689783,206.39769949678885 44.783514776150696,206.39769949678885 44.66429945459822,206.45561314911174" stroke="yellow" stroke-linecap="round" stroke-linejoin="round" stroke-width="0.5"><title>2025-03-07 6.9km</title><desc>13950596373</desc></polyline><polyline fill="none" points="152.23738867556676,153.0 152.33085155440494,153.3391681751018 152.42431443318492,153.37550756339624 152.7462421269156,153.36339443524776 153.18240222812165,153.3876206903078 153.66010138654383,153.3149419098918 153.8366423798725,153.36339443524776 154.09626148769166,153.3876206903078 154.72973211080534,153.3876206903078 154.81281022535404,153.41184694028925 154.9893512186827,153.55720433354873 155.0101207473199,153.6056567573396 155.03089027595706,153.67833535496175 155.02050551160937,153.83580549301405 154.97896645439323,154.07806682493538 154.97896645439323,154.38089277575637 154.94781216146657,154.57470096791803 154.90627310413402,154.67160494212294 154.88550357555505,155.1076718207696 154.8543492826284,155.31359171932854 154.86473404697608,155.4104950740657 154.8543492826284,155.54373705420585 154.80242546106456,155.70120465089713 154.7608864037902,156.1130419664696 154.72973211080534,156.2220574808889 154.67780828929972,156.6217801539824 154.63626923202537,156.815584588825 154.63626923202537,157.06995241643017 154.59473017480923,157.20319248373562 154.55319111747667,157.6513624919462 154.52203682455,157.7361512169373 154.52203682455,157.90572848040028 154.50126729597105,158.14798128233087 154.52203682455,158.28122010699008 154.49088253162336,158.49924694334914 154.43895871005952,158.58403504642774 154.40780441713287,158.91107429005206 154.36626535985852,159.2017750632076 154.35588059556903,159.3592376767774 154.2208786595147,160.50991949581658 154.2312634238042,160.582593752486 154.17933960224036,160.86117797975749 154.1481853093137,161.23666000649973 154.11703101632884,161.36989527121477 154.08587672340218,161.587916282253 154.08587672340218,161.79382463736692 154.0027986089117,162.37521095442207 153.98202908027451,162.72646377080673 153.84702714416198,163.53797481727088 153.82625761558302,163.90133612605132 153.73279473674484,164.2041363443641 153.6185623293277,164.34948016743874 153.56663850770565,164.56749555944407 153.56663850770565,164.89451787660073 153.62894709361717,165.06408463984553 153.64971662225435,165.1852036041746 153.60817756498,165.7544610369805 153.6185623293277,165.9603619713671 153.54586897906847,166.37216274005914 153.54586897906847,166.48116858037247 153.4524061002303,167.2320949099958 153.42125180736184,167.65600278106285 153.34855845716083,168.1404670163247 153.32778892852366,168.38269837269763 153.2862498712493,168.58859462664986 153.2239412853378,168.93982856657385 153.2135565210483,169.13361235257616 153.17201746383216,169.3152843569842 153.1408631708473,169.61807039664563 153.1408631708473,169.86029865753517 153.10970887792064,170.00563537050766 153.17201746383216,170.34475365695835 153.16163269948447,170.58698039551382 153.18240222812165,170.829206626644 153.23432604968548,171.14409996850736 153.33817369281314,171.55588227546832 153.35894322145032,171.7859952788931 153.40048227866646,171.90710720204515 153.4524061002303,172.0282189983118 153.50432992185233,172.19777530001738 153.57702327199513,172.34310907496547 153.6912556795287,172.67010940086038 153.84702714416198,172.92444234836876 153.9093357300735,173.05766414519894 154.12741578067653,173.3604403854697 154.1585700736032,173.57843878756103 154.20010913081933,173.6026608068787 154.17933960224036,173.57843878756103 154.2312634238042,173.6026608068787 154.3870348884957,173.7479928161556 154.50126729597105,173.95387951667362 154.63626923202537,174.00232339293143 154.78165593242738,174.1234329947838 154.88550357555505,174.22032058499462 154.96858169004554,174.35354088890745 155.06204456888372,174.41409552176628 155.2385855622124,174.61998103636142 155.40474179119337,174.6805355296965 155.5397437273059,174.78953353782708 155.88244094961556,174.98330752082256 155.98628859280143,175.08019439057534 156.11090576456627,175.1407486429307 156.4743725155713,175.346632863766 156.72360685910098,175.382965335295 157.03514978842577,175.56462752164225 157.37784701085184,175.6615139043206 157.7205442331615,175.8552864262383 157.83477664057864,175.8068433261651 157.9593938124017,175.83106487871555 158.1047805127455,175.8068433261651 158.20862815593136,175.84317565311358 158.28132150607416,175.81895410309517 158.43709297082387,175.8068433261651 158.7278663715697,175.84317565311358 159.6521103954874,175.83106487871555 159.82865138881607,175.86739719806064 160.22327243280597,175.8795079686024 160.6594325339538,175.8552864262383 160.83597352728248,175.86739719806064 161.14751645666547,175.8552864262383 161.55252226494486,175.8916187379291 161.63560037943535,175.92795103821845 161.70829372957814,176.02483711653622 161.739448022563,176.23071976339997 161.7498327868525,176.36393775135366 161.79137184412684,176.4850448799989 161.77060231543146,177.11479990436055 161.79137184412684,177.5265609507478 161.78098707977915,177.65977744598058 161.80175660841633,178.13208923807542 161.76021755120018,178.59228861602605 161.79137184412684,178.95560262088838 161.77060231543146,179.10092790328054 161.79137184412684,179.2946946623997 161.76021755120018,179.50057148825726 161.77060231543146,180.06975845248235 161.739448022563,180.34829573328898 161.739448022563,180.56628096343047 161.71867849392584,180.68738369151833 161.78098707977915,181.38977701393014 161.77060231543146,181.69253144077084 161.78098707977915,181.76519238529727 161.7498327868525,181.88629385807144 161.76021755120018,182.0437255831057 161.7498327868525,182.24959751554707 161.77060231543146,182.66134028117085 161.7498327868525,183.13363164856128 161.71867849392584,183.3879415860647 161.739448022563,183.6059210874737 161.7498327868525,183.96921934359125 161.739448022563,184.32040657314792 161.76021755120018,184.45361524336477 161.739448022563,185.398181413344 161.70829372957814,185.80991297096625 161.71867849392584,185.95522964141128 161.70829372957814,186.1853139962186 161.72906325827353,186.4759462112852 161.70829372957814,186.99666043715843 161.739448022563,187.27518103760667 161.69790896528866,187.61424868954055 161.71867849392584,187.7837821428402 161.69790896528866,188.40136619285477 161.71867849392584,188.5830079330335 161.666754672362,188.99472815481568 161.68752420094097,189.21269709077023 161.72906325827353,189.41855626426695 161.72906325827353,189.68496170971048 161.666754672362,190.2419892949838 161.70829372957814,191.22283569721912 161.71867849392584,191.9614923131012 161.68752420094097,192.21578284366842 161.57329179352382,192.79701624324662 161.56290702923434,192.97865108172846 161.41752032877412,193.45090032730513 161.3552117429208,193.74151428948244 161.03328404919012,194.57702536451689 160.90866687748348,195.08559436909127 160.8152039986453,195.56994372361805 160.6594325339538,195.9816390808046 160.60750871233176,196.23592077543435 160.36865913314978,196.96243682362547 160.22327243280597,197.32569313697604 160.1921181398211,197.45888683280646 160.1298095539678,197.6647313338326 160.07788573234575,197.737382246778 160.06750096805627,197.7252737644667 160.08827049663523,197.737382246778 160.07788573234575,197.8342500597355 160.0467314394191,198.01587699045922 160.01557714649243,198.08852768289216 159.93249903200194,198.18539520188642 159.76634280296275,198.33069632830302 159.70403421705123,198.42756364452362 159.67287992412457,198.42756364452362 159.6624951598351,198.4154552344553 159.69364945276175,198.45178046092042 159.74557327432558,198.33069632830302 159.71441898139892,198.34280474726984 159.69364945276175,198.31858790807019 159.75595803867327,198.22172050057998 159.95326856063912,198.07641923730262 160.05711620370857,198.06431079047616 160.10904002533061,198.11274457028048 160.16096384689445,198.1006361272157 160.41019819042413,198.14906989175506 160.52443059784127,198.1248530120356 160.60750871233176,198.1369614525247 160.6594325339538,198.1248530120356 160.84635829157196,198.01587699045922 161.09559263510164,197.97955162710423 161.52136797196,197.99166008283646 161.739448022563,197.97955162710423 161.9056042516022,198.0037685372663 162.08214524493087,198.0037685372663 162.19637765234802,197.97955162710423 162.40407293860335,198.0037685372663 162.63253775349585,198.0037685372663 163.04792832606472,198.0522023423764 163.4425493699964,198.04009389301063 163.7644770637271,198.0037685372663 163.88909423549194,198.02798544235702 164.5225648585474,198.01587699045922 165.06257260288112,198.06431079047616 165.17680501035647,198.04009389301063 165.50911746837664,198.06431079047616 166.0179709197837,198.0522023423764 166.20489667740185,198.08852768289216 166.56836342834868,198.06431079047616 166.87990635778988,198.06431079047616 167.1706797585939,198.02798544235702 167.54453127388842,197.99166008283646 167.6483789170161,198.0522023423764 167.73145703150658,198.1732867664541 167.73145703150658,198.48810567598412 167.75222656008555,198.68183996380685 167.73145703150658,199.15406593140506 167.70030273857992,199.25093255832326 167.7106875029276,199.4688821724485 167.70030273857992,199.79580582385097 167.7210722671589,200.17116146973422 167.74184179585427,200.28013546144211 167.7210722671589,200.42543395741814 167.74184179585427,200.7160304019926 167.73145703150658,200.98240983510186 167.74184179585427,201.05505866498424 167.73145703150658,201.40619403305755 167.75222656008555,201.52727494738065 167.74184179585427,201.66046380682383 167.76261132443324,201.92684106581146 167.75222656008555,202.0479214353545 167.74184179585427,202.42326977586345 167.70030273857992,202.62910544565966 167.73145703150658,202.75018508042558 167.7210722671589,203.2102865370689 167.70030273857992,203.40401291887247 167.74184179585427,204.1304839623117 167.73145703150658,204.27577762370493 167.7106875029276,204.3968555355168 167.7106875029276,204.59057993097667 167.6483789170161,204.9295968426086 167.65876368130557,205.05067407037131 167.62760938837891,205.12332034621795 167.58607033110457,205.3049358363569 167.58607033110457,205.41390499360568 167.5549160381779,205.52287404824165 167.54453127388842,205.8376729631127 167.51337698090356,205.93453399537975 167.49260745226638,206.14036341982865 167.44068363076076,206.34619247817318 167.44068363076076,206.53991361048247 167.4095293377759,206.95156993989076 167.38875980919693,206.9878924868899 167.3368359875749,207.0 167.08760164410342,206.97578497250652 167.00452352961292,206.9273549022255 166.5579786641174,206.85470975885255 166.28797479195055,206.83049470088008 166.0179709197837,206.86681728590338 165.9245080409455,206.83049470088008 165.91412327659782,206.78206456983753 165.87258421938168,206.73363441849506 166.41259196365718,205.70448891134583 166.3191290848772,205.98296448112524 166.1737423844752,206.23722419876867 165.9348928052932,206.58834384286456 165.81027563347016,206.69731179170049 165.81027563347016,206.68520424688177 165.84142992645502,206.70941933522408 165.84142992645502,206.67309670079703 165.82066039781785,206.67309670079703 165.7791213405435,206.73363441849506 165.78950610483298,206.66098915348266" stroke="yellow" stroke-linecap="round" stroke-linejoin="round" stroke-width="0.5"><title>2023-07-15 7.1km</title><desc>13950596377</desc></polyline><polyline fill="none" points="32.30905137147056,213.0 32.30905137147056,213.24695478881767 32.2841414163704,213.34864192696114 32.29659639392048,213.47938242361124 32.147136663494166,214.19118963129586 32.134681686002295,214.48172213531507 32.047496843209956,214.91751974994258 32.03504186565988,215.048258767245 31.99767693306785,215.20805073204974 31.947857022925746,215.30973643198377 31.89803711278364,215.36784251277277 31.82330724754138,215.41142205738288 31.860672180191614,215.3968955440214 31.873127157683484,215.71647848600696 31.785942314949352,216.0796400260151 31.873127157683484,216.29753649345366 31.885582135233562,216.48637982163928 31.835762225091457,216.93669748937828 31.81085227004951,217.45964520372218 31.748577382357325,217.88090720599575 31.72366742725717,218.2731155060028 31.67384751717327,218.4910085267038 31.586662674322724,219.36257718552952 31.41229298885446,220.80065349650977 31.31265316857025,221.42526785485097 31.31265316857025,221.7157852024684 31.250378280878067,221.9772502949636 31.23792330332799,222.10798265635094 31.250378280878067,222.80521983568906 31.3375631236122,223.5460304977314 31.561752719280776,224.4756696512777 31.62402760697296,224.56282300244493 31.661392539564986,224.56282300244493 31.62402760697296,224.56282300244493 31.62402760697296,224.6645018428826 31.92294706782559,225.36172616916883 32.2343215062283,225.7829641677672 32.7076106526074,226.49470822364674 32.88198033813387,226.71258832687454 33.043895046110265,226.90141747279267 33.753828765649814,227.61315578888752 34.27693782217102,227.99081137139 34.91214167652652,228.33941561177198 35.57225548598217,228.67349385324633 36.307099160563666,228.90589563357935 37.07930776785361,229.06567163167347 38.31235054391436,229.13829702450312 41.276635197515134,229.16734717099462 41.41363995039137,229.19639731138886 41.50082479318371,229.2544975739438 41.57555465842597,229.3271228678932 41.612919591018,229.42879821555107 41.65028452366823,230.35839793813648 41.62537456850987,230.89581993558386 41.65028452366823,231.5349136545119 41.60046461346792,233.58289868898282 41.62537456850987,234.77391154077486 41.57555465842597,235.32584085820417 41.60046461346792,235.9649141664413 41.58800963591784,237.41734255374467 41.612919591018,237.9402130504459 41.563099680875894,238.60832248380757 41.62537456850987,238.94237599386543 41.62537456850987,239.5233367040055 41.60046461346792,240.59810760396067 41.57555465842597,240.85953710439207 41.563099680875894,240.87406095110055 41.538189725833945,240.85953710439207 41.58800963591784,240.93215632262581 41.563099680875894,240.91763248202915 41.563099680875894,240.8885847962665 41.550644703325815,241.54215625514917 41.563099680875894,242.0795349258551 41.550644703325815,244.40331062104087 41.52573474822566,244.86806108948076 41.550644703325815,245.65232397482032 41.50082479318371,246.3784893603879 41.538189725833945,247.61296179350757 41.52573474822566,248.76028514835343 41.4510048829834,249.34120474812516 41.20190533227287,250.3868538987299 40.7161612084019,251.8391313135362 40.59161143301753,252.27481157402508 40.42969672504114,253.0009423016454 40.09341233159648,254.07560880531673 39.8194028257858,254.8307748829684 39.79449287074385,254.88886441104114 39.80694784829393,254.87434203128214 39.80694784829393,254.88886441104114 39.70730802795151,254.74364054528996 39.64503314025933,254.61293893617403 39.64503314025933,254.48223720393435 39.70730802795151,254.32249047518417 39.682398072909564,254.30796803615522 39.5578482975252,254.40962507728545 39.53293834242504,254.35153534864367 39.50802838738309,254.3660577830742 39.48311843234114,254.35153534864367 39.45820847718278,254.27892315358622 39.45820847718278,254.14822110674868 39.595213230117224,254.27892315358622 39.70730802795151,254.30796803615522 39.7695829157019,254.30796803615522 39.83185780333588,254.35153534864367 39.85676775837783,254.51128204395354 39.91904264607001,254.61293893617403 39.90658766857814,254.59841652754403 39.894132690969855,254.8307748829684 39.79449287074385,255.04861048782186 39.80694784829393,255.16478933722829 39.894132690969855,255.25192341048387 40.19305215188069,255.3390574290388 40.31760192720685,255.62950376233493 40.39233179244911,255.70211525066406 40.442151702649426,255.73115983538446 40.67879627580987,255.74568212541635 41.152085422188975,255.71663754375186 41.50082479318371,255.74568212541635 42.48476801853394,255.76020441399305 43.28188658086583,255.8037712705118 44.0914601207478,255.76020441399305 45.57360244751908,255.8037712705118 45.74797213298734,255.84733811335173 45.78533706563758,255.89090494254197 45.810247020679526,256.0216053479817 45.78533706563758,256.4863169037999 45.797792043187656,257.09624845915823 45.84761195338797,257.8368760296289 45.822701998229604,258.5484556585143 45.76042711059563,259.1002904098423 45.810247020679526,259.4923821891716 45.84761195338797,259.63760108561837 45.95970675110584,259.71021047685645 46.14653141418239,259.73925422268803 46.88137508876389,259.6811667248985 47.76567849382991,259.69568860161235 48.488067190977745,259.6811667248985 48.62507194385398,259.71021047685645 48.7247117641964,259.79734169614676 48.749621719296556,259.898994716219 48.76207669673022,260.3782150937186 48.7247117641964,263.6455826560996 48.69980180909624,264.06670443495386 48.55034207866993,265.27197694711504 48.488067190977745,266.1287305614678 48.463157235935796,266.3465484338376 48.42579230334377,266.448196657293 48.463157235935796,266.448196657293 48.463157235935796,266.47723899318953 48.41333732573548,266.53532364673447 48.33860746055143,266.5643659643538 48.05214297719067,266.53532364673447 48.02723302214872,266.53532364673447 48.05214297719067,266.52080248561106 48.01477804459864,266.53532364673447 47.989868089556694,266.5062813229888 48.00232306710677,266.4917601588677 47.890228269272484,266.448196657293 47.3546642352012,266.40463314209774 47.15538459463278,266.3465484338376 47.03083481924841,266.36106961316545 46.81910020112991,266.33202725296724 46.48281580762705,266.36106961316545 46.395630964892916,266.33202725296724 46.320901099650655,266.25942132591445 46.33335607725894,266.3175060706126 46.18389634677442,266.3175060706126 46.320901099650655,267.0 46.38317598734284,266.7386197427113 46.35826603230089,266.60792942946136" stroke="yellow" stroke-linecap="round" stroke-linejoin="round" stroke-width="0.5"><title>2023-07-01 5.8km</title><desc>13950596319</desc></polyline></svg>