<?xml version="1.0" encoding="utf-8" ?>
<svg baseProfile="full" height="300mm" version="1.1" viewBox="0,0,200,300" width="200mm" xmlns="http://www.w3.org/2000/svg" xmlns:ev="http://www.w3.org/2001/xml-events" xmlns:xlink="http://www.w3.org/1999/xlink"><defs /><rect fill="#222222" height="300" width="200" x="0" y="0" /><text fill="#FFFFFF" style="font-size:12px; font-family:Arial; font-weight:bold;" x="10" y="20">Over 3km Workouts</text><text fill="#FFFFFF" style="font-size:4px; font-family:Arial" x="10" y="280">ATHLETE</text><text fill="#FFFFFF" style="font-size:9px; font-family:Arial" x="10" y="290">JaneZhou</text><text fill="#FFFFFF" style="font-size:4px; font-family:Arial" x="65" y="280">SPECIAL TRACKS</text><rect fill="yellow" height="2.6" width="2.6" x="65" y="283" /><text fill="#FFFFFF" style="font-size:3px; font-family:Arial" x="70" y="285.5">Over 5.0 km</text><rect fill="red" height="2.6" width="2.6" x="65" y="287" /><text fill="#FFFFFF" style="font-size:3px; font-family:Arial" x="70" y="289.5">Over 10.0 km</text><text fill="#FFFFFF" style="font-size:4px; font-family:Arial" x="120" y="280">STATISTICS</text><text fill="#FFFFFF" style="font-size:3px; font-family:Arial" x="120" y="285">Number: 11</text><text fill="#FFFFFF" style="font-size:3px; font-family:Arial" x="120" y="290">Weekly: 1.4</text><text fill="#FFFFFF" style="font-size:3px; font-family:Arial" x="141" y="285">Total: 52.0 km</text><text fill="#FFFFFF" style="font-size:3px; font-family:Arial" x="141" y="290">Avg: 4.7 km</text><text fill="#FFFFFF" style="font-size:3px; font-family:Arial" x="167" y="285">Min: 3.1 km</text><text fill="#FFFFFF" style="font-size:3px; font-family:Arial" x="167" y="290">Max: 7.1 km</text><polyline fill="none" points="54.956267109140754,68.43756117345765 55.92118757031858,60.56256776442751 55.92118757031858,50.43755929172039 54.956267109140754,44.25004472536966 52.54396596364677,39.18752751220018 50.131664818152785,36.375015889294446 45.30706252157688,34.68750821007416 41.44738068804145,34.12500553205609 36.14031816460192,35.250010828487575 28.903414722532034,40.87503377860412 26.973573805764318,43.68754304852337 25.526193115860224,48.750056023709476 25.526193115860224,67.87506202608347 25.526193115860224,74.62504790117964 27.456034034490585,79.1250337776728 34.210477247834206,84.75001082615927 42.41230114735663,87.0 48.20182389765978,84.18751338636503 52.54396596364677,79.68753174832091 53.99134665168822,76.87504131020978 54.956267109140754,69.56255928892642 54.47380688227713,65.62506485078484 54.956267109140754,49.31255717296153 53.99134665168822,42.56253951694816 50.131664818152785,36.9375183316879 45.789522752165794,34.12500553205609 39.999999998137355,33.56250279676169 37.10523862205446,34.12500553205609 30.350795410573483,38.625025305897 26.491113575175405,47.06255222996697 25.526193115860224,72.937552227173 26.00865334458649,75.75004472536966 28.420954493805766,81.37502530403435 30.833255641162395,84.18751338636503 35.175397707149386,86.43750279396772 43.37722160667181,86.43750279396772 50.131664818152785,81.37502530403435 53.02642619423568,76.87504131020978 54.956267109140754,70.12505825981498 54.47380688227713,46.50005084555596 52.0615057349205,39.18752751220018 45.30706252157688,34.12500553205609 39.999999998137355,33.56250279676169 34.69293747656047,34.68750821007416 31.315715869888663,36.375015889294446 27.456034034490585,39.750029660761356 25.043732887133956,45.37504790304229 24.561272658407688,51.562561173923314 25.526193115860224,72.37505355197936 26.00865334458649,76.87504131020978 28.903414722532034,81.37502530403435 33.24555678665638,84.18751338636503 37.58769885264337,85.31250820774585 44.824602292850614,85.87500552972779 48.68428413011134,84.75001082615927 51.09658527560532,82.50002071354538 53.99134665168822,79.1250337776728 54.956267109140754,75.18754634307697 55.92118757031858,69.00006026029587 54.47380688227713,60.000067793764174 54.956267109140754,50.43755929172039 53.02642619423568,42.0000376640819 48.68428413011134,35.812513389624655 46.27198298275471,34.12500553205609 38.552619310095906,33.0 33.24555678665638,35.250010828487575 29.86833518370986,38.06252303952351 25.043732887133956,48.18755481764674 26.00865334458649,57.750067323446274 24.561272658407688,68.43756117345765 25.526193115860224,75.18754634307697 28.420954493805766,80.25002965889871 33.24555678665638,85.31250820774585 39.03507954068482,87.0 49.166744358837605,83.06251832982525 54.47380688227713,75.75004472536966 54.956267109140754,72.37505355197936 54.956267109140754,56.62506673624739 52.0615057349205,40.87503377860412 50.131664818152785,38.06252303952351 46.75444320961833,35.250010828487575 39.999999998137355,34.12500553205609 36.62277839332819,34.68750821007416 32.280636329203844,36.9375183316879 28.420954493805766,41.43753575114533 26.973573805764318,44.812546343076974 25.526193115860224,62.25006732158363 25.043732887133956,73.50005084415898 25.526193115860224,76.31254304712638 29.86833518370986,83.06251832982525 34.210477247834206,85.31250820774585 38.070159083232284,86.43750279396772 44.824602292850614,85.87500552972779 49.64920458756387,83.06251832982525 53.508886421099305,77.43753951461986 55.43872734159231,62.25006732158363 53.99134665168822,46.50005084555596 51.579045506194234,41.43753575114533 46.75444320961833,35.250010828487575 41.44738068804145,33.56250279676169 36.62277839332819,34.68750821007416 31.79817609861493,36.9375183316879 29.385874953120947,39.750029660761356 26.973573805764318,44.25004472536966 25.043732887133956,52.12506202654913 26.00865334458649,76.31254304712638 28.420954493805766,80.81252750987187 32.280636329203844,84.18751338636503 40.964920457452536,86.43750279396772 45.30706252157688,85.31250820774585 48.68428413011134,83.06251832982525 51.09658527560532,80.25002965889871 53.508886421099305,75.75004472536966 54.47380688227713,68.43756117345765 53.99134665168822,60.000067793764174 55.43872734159231,51.00006026169285 54.956267109140754,45.37504790304229 52.54396596364677,39.750029660761356 49.64920458756387,36.375015889294446 43.85968183539808,33.56250279676169 39.51753976941109,33.0 32.280636329203844,35.250010828487575 28.903414722532034,39.18752751220018 26.973573805764318,44.25004472536966 25.043732887133956,53.81256423378363 25.043732887133956,74.62504790117964 27.456034034490585,79.68753174832091 30.350795410573483,82.50002071354538 35.657857935875654,85.31250820774585 40.964920457452536,85.87500552972779 44.342142064124346,85.31250820774585 48.20182389765978,82.50002071354538 50.6141250487417,79.68753174832091 53.508886421099305,74.62504790117964 54.47380688227713,71.25005602370948 54.47380688227713,65.62506485078484 53.508886421099305,46.50005084555596 51.579045506194234,41.43753575114533 49.166744358837605,38.06252303952351 45.789522752165794,35.250010828487575 40.48246022872627,33.56250279676169 30.833255641162395,36.375015889294446 27.456034034490585,39.18752751220018 25.526193115860224,42.56253951694816 24.07881242968142,48.750056023709476 24.07881242968142,72.37505355197936 25.043732887133956,75.75004472536966 27.9384942650795,80.25002965889871 30.833255641162395,83.62501588836312 39.999999998137355,86.43750279396772 44.824602292850614,85.87500552972779 48.68428413011134,83.06251832982525 51.09658527560532,80.81252750987187 53.508886421099305,75.75004472536966 54.47380688227713,70.68755717063323 54.956267109140754,60.000067793764174 53.508886421099305,44.812546343076974 50.131664818152785,39.18752751220018 47.23690344020724,36.375015889294446 43.85968183539808,34.12500553205609 40.48246022872627,33.0 35.657857935875654,34.12500553205609 31.79817609861493,36.375015889294446 28.420954493805766,39.750029660761356 26.973573805764318,42.56253951694816 24.561272658407688,61.68756752926856 24.561272658407688,70.68755717063323 25.043732887133956,75.75004472536966 26.973573805764318,79.1250337776728 30.350795410573483,83.06251832982525 36.14031816460192,86.43750279396772 41.44738068804145,86.43750279396772 45.30706252157688,84.75001082615927 50.6141250487417,81.37502530403435 53.508886421099305,76.87504131020978 54.956267109140754,72.37505355197936 54.956267109140754,62.25006732158363 55.92118757031858,56.62506673624739 54.956267109140754,53.25006355764344 53.99134665168822,44.25004472536966 52.0615057349205,39.18752751220018 50.6141250487417,36.9375183316879 46.27198298275471,34.68750821007416 37.58769885264337,33.56250279676169 32.280636329203844,35.812513389624655 27.9384942650795,40.31253174925223 26.00865334458649,45.93754940479994 26.00865334458649,58.31256752833724 25.043732887133956,70.12505825981498 26.00865334458649,75.75004472536966 27.456034034490585,78.56253574881703 29.86833518370986,80.81252750987187 35.657857935875654,85.31250820774585 43.37722160667181,85.31250820774585 50.6141250487417,81.37502530403435 53.99134665168822,73.50005084415898 53.508886421099305,62.812567058485 53.99134665168822,44.25004472536966 52.54396596364677,41.43753575114533 48.68428413011134,36.375015889294446 43.37722160667181,34.12500553205609 35.175397707149386,34.68750821007416 29.385874953120947,37.50002071540803 26.973573805764318,41.43753575114533 25.526193115860224,47.625053552910686 24.561272658407688,60.56256776442751 25.043732887133956,72.937552227173 26.973573805764318,77.43753951461986 28.903414722532034,80.25002965889871 36.62277839332819,85.31250820774585 41.92984091863036,85.87500552972779 48.68428413011134,82.50002071354538 53.508886421099305,76.31254304712638 54.47380688227713,72.37505355197936 54.47380688227713,48.18755481764674 53.02642619423568,41.43753575114533 49.64920458756387,36.9375183316879 47.23690344020724,35.250010828487575 40.48246022872627,33.56250279676169 38.552619310095906,33.56250279676169 32.280636329203844,36.375015889294446 26.491113575175405,43.12504131346941 25.043732887133956,49.31255717296153 25.526193115860224,74.06254940247163 26.491113575175405,78.00003766221926 31.315715869888663,82.50002071354538 37.10523862205446,84.75001082615927 44.342142064124346,84.75001082615927 49.166744358837605,81.93752303766087 53.508886421099305,76.31254304712638 54.956267109140754,68.43756117345765 54.47380688227713,61.68756752926856 54.956267109140754,56.06256635300815 53.99134665168822,54.37506485264748 50.131664818152785,54.93756540957838 49.166744358837605,53.81256423378363 49.64920458756387,51.00006026169285 47.71936366893351,52.12506202654913 48.20182389765978,52.12506202654913" stroke="#4DD2FF" stroke-linecap="round" stroke-linejoin="round" stroke-width="0.5"><title>2025-07-27 3.3km</title><desc>15253476603</desc></polyline><polyline fill="none" points="116.57632037810981,58.57901427010074 115.11370387487113,43.80004293564707 113.16354853473604,39.25265905354172 110.23831553012133,38.68423580145463 105.36292718164623,35.273695033974946 101.95015533827245,33.568423848133534 97.07476699166,33.568423848133534 91.22430097498,36.41054219426587 87.32399029843509,40.9579284559004 84.39875729009509,47.21057835035026 83.42367962189019,59.14743544207886 83.42367962189019,73.92636502813548 85.3738349583,79.61055801203474 89.27414563857019,83.58948956103995 95.12461165338755,85.8631634246558 101.95015533827245,86.43158174306154 107.31308251991868,84.15790811553597 112.67600970156491,79.61055801203474 114.13862620666623,77.9053007401526 116.08878154307604,70.51584638468921 115.60124270804226,65.96848486177623 115.60124270804226,47.77900071069598 114.13862620666623,42.09477442735806 111.70093203149736,38.68423580145463 108.28816018998623,35.84211864322424 104.38784951157868,34.1368476357311 94.14953398332,35.273695033974946 89.76168446987867,37.54738911660388 86.34891263023019,40.389505381230265 84.39875729009509,44.36846565362066 83.42367962189019,48.91584525583312 83.91121845692396,76.76846226258203 85.3738349583,79.04213898163289 90.2492233067751,83.02107094787061 94.14953398332,85.29474504757673 98.0498446598649,85.8631634246558 102.43769417330623,85.8631634246558 107.80062135308981,83.02107094787061 112.18847086653113,79.04213898163289 115.11370387487113,73.35794540308416 115.11370387487113,44.36846565362066 112.18847086653113,39.25265905354172 107.80062135308981,34.70527136558667 100.9750776682049,33.0 93.66199515014887,34.1368476357311 88.29906796664,39.25265905354172 85.86137379519641,43.23162015900016 84.39875729009509,48.347423014231026 83.42367962189019,68.2421660986729 83.91121845692396,72.78952571796253 84.88629612326622,77.33688153186813 87.81152913160622,81.88423353992403 91.71183981187642,84.72632661182433 96.09968932159245,86.43158174306154 101.95015533827245,86.43158174306154 108.28816018998623,84.72632661182433 110.72585436142981,82.45265227276832 114.62616503797472,76.20004293462262 115.60124270804226,71.65268617076799 115.11370387487113,61.98954040789977 115.60124270804226,47.77900071069598 114.62616503797472,42.6631973227486 113.65108736976981,40.389505381230265 107.80062135308981,35.273695033974946 102.43769417330623,33.568423848133534 97.07476699166,33.568423848133534 90.2492233067751,36.97896568430588 85.86137379519641,42.09477442735806 84.39875729009509,46.642155930865556 83.42367962189019,70.51584638468921 83.91121845692396,75.06320410221815 85.86137379519641,79.04213898163289 89.76168446987867,83.02107094787061 94.63707282021642,85.8631634246558 99.02492232993245,86.43158174306154 102.43769417330623,85.8631634246558 110.23831553012133,81.88423353992403 113.65108736976981,76.76846226258203 116.08878154307604,68.81058625876904 114.13862620666623,43.23162015900016 112.18847086653113,39.25265905354172 108.28816018998623,35.84211864322424 104.38784951157868,34.1368476357311 97.56230582855642,33.568423848133534 92.19937864504755,35.273695033974946 86.83645146153867,40.389505381230265 83.91121845692396,46.07373345177621 83.91121845692396,72.78952571796253 85.3738349583,77.9053007401526 94.14953398332,84.72632661182433 98.53738349676132,85.8631634246558 102.92523300834,85.8631634246558 105.36292718164623,85.29474504757673 109.26323785819113,82.45265227276832 112.18847086653113,79.04213898163289 114.13862620666623,76.20004293462262 114.62616503797472,70.51584638468921 113.65108736976981,53.463221051264554 114.13862620666623,44.93688831338659 113.16354853473604,40.9579284559004 110.72585436142981,37.54738911660388 105.36292718164623,34.70527136558667 96.58722815662622,33.568423848133534 89.27414563857019,36.97896568430588 84.88629612326622,44.36846565362066 83.91121845692396,58.01059303898364 84.88629612326622,74.4947845954448 90.73676214180887,83.58948956103995 97.07476699166,86.43158174306154 102.92523300834,85.8631634246558 106.33800484985113,84.15790811553597 111.21339319832623,80.74739589495584 114.62616503797472,75.06320410221815 115.60124270804226,71.08426630869508 114.62616503797472,64.83164388639852 114.62616503797472,48.347423014231026 113.65108736976981,43.23162015900016 112.18847086653113,39.82108224602416 109.26323785819113,36.41054219426587 105.85046601668,34.1368476357311 100.9750776682049,33.0 92.19937864504755,34.70527136558667 85.86137379519641,40.9579284559004 83.91121845692396,48.91584525583312 84.39875729009509,58.57901427010074 83.91121845692396,69.94742640201002 84.39875729009509,75.06320410221815 86.34891263023019,80.17897698190063 88.78660680353642,82.45265227276832 96.09968932159245,85.29474504757673 103.41277184337378,84.72632661182433 108.28816018998623,82.45265227276832 113.65108736976981,76.20004293462262 114.62616503797472,72.22110597370192 113.65108736976981,66.53690526122227 114.13862620666623,50.62111162440851 113.16354853473604,43.80004293564707 110.23831553012133,38.68423580145463 107.31308251991868,35.84211864322424 102.92523300834,34.1368476357311 99.51246116496623,33.568423848133534 96.58722815662622,33.568423848133534 91.22430097498,35.84211864322424 88.29906796664,38.68423580145463 85.86137379519641,42.6631973227486 84.39875729009509,48.347423014231026 83.91121845692396,54.600064404308796 84.88629612326622,63.6948026730679 83.91121845692396,73.92636502813548 89.76168446987867,83.58948956103995 96.58722815662622,86.43158174306154 101.95015533827245,85.8631634246558 105.85046601668,84.72632661182433 110.72585436142981,80.74739589495584 114.13862620666623,75.63162354798988 114.62616503797472,71.08426630869508 113.65108736976981,61.98954040789977 114.13862620666623,47.21057835035026 111.21339319832623,39.82108224602416 106.8255436848849,35.84211864322424 100.9750776682049,33.568423848133534 98.53738349676132,33.0 93.66199515014887,34.70527136558667 89.27414563857019,37.54738911660388 86.34891263023019,40.389505381230265 84.39875729009509,50.05268956115469 83.91121845692396,73.92636502813548 85.3738349583,77.9053007401526 89.27414563857019,83.02107094787061 96.09968932159245,87.0 101.46261650510132,86.43158174306154 105.85046601668,84.72632661182433 109.26323785819113,83.02107094787061 112.67600970156491,78.47371989069507 114.62616503797472,69.37900636065751 114.62616503797472,56.30532899033278 113.65108736976981,43.80004293564707 108.28816018998623,36.41054219426587 104.38784951157868,34.70527136558667 98.53738349676132,33.568423848133534 94.14953398332,34.70527136558667 89.76168446987867,37.54738911660388 85.3738349583,44.36846565362066 84.39875729009509,50.05268956115469 84.88629612326622,75.06320410221815 87.32399029843509,80.17897698190063 89.76168446987867,82.45265227276832 93.1744563151151,84.72632661182433 100.0,85.8631634246558 108.77569902315736,82.45265227276832 113.16354853473604,77.9053007401526 114.62616503797472,72.78952571796253 115.11370387487113,65.40006440458819 114.62616503797472,48.347423014231026 113.16354853473604,41.52635147050023 110.72585436142981,38.11581248790026 107.31308251991868,34.70527136558667 100.9750776682049,33.568423848133534 95.61215048842132,33.568423848133534 89.76168446987867,38.11581248790026 86.34891263023019,43.23162015900016 84.39875729009509,47.21057835035026 84.39875729009509,73.92636502813548 85.3738349583,77.9053007401526 87.32399029843509,80.74739589495584 92.19937864504755,83.58948956103995 97.56230582855642,85.8631634246558 103.9003106765449,85.8631634246558 109.7507766932249,81.88423353992403 112.18847086653113,79.04213898163289 113.65108736976981,74.4947845954448 115.11370387487113,54.600064404308796 113.65108736976981,42.09477442735806 109.7507766932249,36.97896568430588 104.87538834474981,33.568423848133534 97.07476699166,33.568423848133534 90.2492233067751,37.54738911660388 86.34891263023019,42.6631973227486 85.3738349583,46.07373345177621 84.39875729009509,67.10532559920102 84.88629612326622,76.20004293462262 89.76168446987867,82.45265227276832 92.68691748008132,84.72632661182433 96.09968932159245,85.8631634246558 102.92523300834,85.8631634246558 109.26323785819113,82.45265227276832 113.65108736976981,75.63162354798988 115.11370387487113,52.89479928417131 113.16354853473604,41.52635147050023 110.23831553012133,36.97896568430588 107.31308251991868,34.70527136558667 102.43769417330623,33.568423848133534 98.0498446598649,33.568423848133534 94.14953398332,34.70527136558667 89.27414563857019,38.11581248790026 83.91121845692396,43.80004293564707 83.42367962189019,50.05268956115469 83.91121845692396,54.03164275595918 83.42367962189019,67.10532559920102 83.42367962189019,73.35794540308416 84.39875729009509,76.76846226258203 89.27414563857019,82.45265227276832 94.14953398332,85.29474504757673 97.07476699166,85.8631634246558 102.92523300834,85.29474504757673 108.28816018998623,82.45265227276832 111.21339319832623,79.61055801203474 114.62616503797472,72.22110597370192 114.62616503797472,47.77900071069598 112.67600970156491,40.389505381230265 110.72585436142981,37.54738911660388 106.33800484985113,34.1368476357311 97.07476699166,33.0 88.78660680353642,37.54738911660388 86.34891263023019,41.52635147050023 84.88629612326622,46.07373345177621 84.39875729009509,74.4947845954448 90.2492233067751,82.45265227276832 95.61215048842132,84.72632661182433 102.43769417330623,84.72632661182433 109.7507766932249,80.74739589495584 114.13862620666623,73.92636502813548 114.62616503797472,66.53690526122227 114.62616503797472,46.642155930865556 113.65108736976981,42.09477442735806 109.26323785819113,35.84211864322424 103.9003106765449,33.568423848133534 99.02492232993245,33.0 94.63707282021642,34.1368476357311 88.78660680353642,37.54738911660388 86.83645146153867,39.82108224602416 84.88629612326622,45.505310910753906 83.42367962189019,64.83164388639852 83.91121845692396,71.08426630869508 84.88629612326622,73.92636502813548 87.32399029843509,79.61055801203474 89.76168446987867,81.88423353992403 95.61215048842132,84.72632661182433 102.43769417330623,84.72632661182433 104.87538834474981,84.15790811553597 110.72585436142981,79.61055801203474 114.13862620666623,72.22110597370192 115.11370387487113,62.55796122131869 113.65108736976981,43.23162015900016 110.23831553012133,37.54738911660388 107.80062135308981,34.70527136558667 100.0,33.0 95.12461165338755,34.1368476357311 88.78660680353642,38.68423580145463 86.34891263023019,41.52635147050023 84.88629612326622,44.93688831338659 83.42367962189019,65.96848486177623 84.39875729009509,74.4947845954448 87.81152913160622,79.61055801203474 92.19937864504755,83.02107094787061 99.51246116496623,84.72632661182433 104.38784951157868,84.15790811553597 108.77569902315736,81.88423353992403 111.70093203149736,79.04213898163289 113.65108736976981,75.06320410221815 114.62616503797472,68.2421660986729 114.13862620666623,55.73690752219409 114.62616503797472,50.05268956115469 113.65108736976981,42.6631973227486 109.7507766932249,36.41054219426587 103.41277184337378,33.568423848133534 99.02492232993245,33.0 94.14953398332,34.1368476357311 89.76168446987867,36.97896568430588 85.86137379519641,40.9579284559004 84.88629612326622,44.36846565362066 83.91121845692396,60.85269859991968 83.91121845692396,69.37900636065751 85.3738349583,75.63162354798988 89.27414563857019,80.17897698190063 95.12461165338755,83.58948956103995 98.0498446598649,84.72632661182433 102.92523300834,84.15790811553597 106.33800484985113,83.02107094787061 109.26323785819113,80.74739589495584 113.65108736976981,75.06320410221815 114.62616503797472,51.75795557303354 112.67600970156491,41.52635147050023 107.80062135308981,35.273695033974946 97.07476699166,33.0 92.68691748008132,34.70527136558667 89.27414563857019,37.54738911660388 86.83645146153867,41.52635147050023 85.3738349583,44.93688831338659 84.88629612326622,52.89479928417131 85.3738349583,58.57901427010074 84.39875729009509,67.10532559920102 85.3738349583,74.4947845954448 88.29906796664,79.04213898163289 93.1744563151151,81.88423353992403 99.51246116496623,83.58948956103995 103.41277184337378,83.02107094787061 107.31308251991868,81.31581474700943 110.23831553012133,79.04213898163289 113.65108736976981,72.78952571796253 114.62616503797472,50.05268956115469 113.65108736976981,42.6631973227486 112.18847086653113,38.68423580145463 107.31308251991868,34.70527136558667 103.9003106765449,33.568423848133534 96.09968932159245,33.0 92.19937864504755,34.1368476357311 87.81152913160622,37.54738911660388 85.3738349583,41.52635147050023 83.42367962189019,48.347423014231026 83.42367962189019,52.89479928417131" stroke="yellow" stroke-linecap="round" stroke-linejoin="round" stroke-width="0.5"><title>2025-07-25 5.0km</title><desc>15231554030</desc></polyline><polyline fill="none" points="187.0,72.88201988424407 185.7142857145518,72.97570573893609 184.26785714318976,69.88406736491015 182.2589285718277,68.29140100668883 180.0892857145518,70.7272425253177 180.0892857145518,72.31990455149207 182.17857142863795,74.66204944427591 184.75,72.97570573893609 184.91071428591385,69.22826391342096 183.3035714291036,66.60504530509934 183.06250000046566,66.51135878398782 180.33035714318976,67.82296918594511 180.33035714318976,68.10402830806561 180.0089285718277,71.66410288377665 181.2946428572759,74.75573511276161 184.50892857136205,73.81887798866956 184.5892857145518,73.53782066021813 184.83035714318976,70.44618422683561 183.9464285718277,67.0734777629259 181.6160714291036,66.60504530509934 181.05357142863795,66.97979129105806 181.45535714318976,67.54190997604746 180.33035714318976,67.1671642253059 143.20535714318976,50.86557229136815 138.38392857136205,49.55393705330789 136.7767857145518,49.460248748539016 134.6071428572759,49.64762534806505 133.88392857136205,49.928690174478106 133.1607142854482,50.95926044922089 133.0803571427241,51.896141488163266 133.1607142854482,52.36458163964562 133.40178571408615,52.73933358467184 133.8035714291036,53.114085373003036 135.0892857145518,53.67621276131831 136.2946428572759,53.67621276131831 137.3392857145518,53.114085373003036 137.9017857145518,52.17720560828457 138.1428571427241,48.71074195735855 138.0625,47.39910356258042 137.66071428591385,46.27484055282548 137.3392857145518,45.806397215346806 136.7767857145518,45.619019811740145 135.7321428572759,45.337953632930294 134.68750000046566,45.5253310953849 133.5625,46.368529190833215 133.24107142863795,46.83697223413037 133.0803571427241,47.77385758579476 133.1607142854482,52.08351757802302 133.4821428572759,52.8330215466558 134.125,53.395149111165665 135.25,53.76990062528057 136.2946428572759,53.76990062528057 137.4196428572759,52.92670949851163 137.82142857136205,52.08351757802302 137.9821428572759,51.52138918999117 137.9017857145518,50.3034431389533 138.0625,48.617053564230446 138.0625,47.39910356258042 137.66071428591385,46.368529190833215 136.7767857145518,45.5253310953849 135.7321428572759,45.337953632930294 134.92857142863795,45.431642369017936 133.88392857136205,45.9937745797215 133.3214285718277,47.024349382845685 133.0,48.71074195735855 133.0,51.70876535854768 133.3214285718277,52.64564561331645 134.0446428572759,53.48883700440638 135.25,53.76990062528057 136.0535714291036,53.76990062528057 137.17857142863795,53.207773295696825 137.66071428591385,52.73933358467184 137.9017857145518,52.17720560828457 138.0625,50.116066676331684 137.9821428572759,47.21172649250366 137.74107142863795,46.46221781929489 137.17857142863795,45.806397215346806 136.6964285718277,45.431642369017936 135.5714285718277,45.24426488723839 134.6071428572759,45.5253310953849 133.3214285718277,46.74328364501707 133.1607142854482,47.305415032373276 133.0803571427241,48.14861145202303 133.0803571427241,51.80245342833223 134.125,53.30146120826248 134.92857142863795,53.67621276131831 135.97321428591385,53.67621276131831 136.7767857145518,53.48883700440638 137.17857142863795,53.207773295696825 137.74107142863795,52.64564561331645 138.0625,50.67819594661705 138.0625,47.21172649250366 137.66071428591385,46.46221781929489 137.01785714318976,45.71270851860754 136.53571428591385,45.431642369017936 135.7321428572759,45.337953632930294 135.16964285774156,45.337953632930294 134.5267857145518,45.5253310953849 133.9642857145518,45.90008590259822 133.40178571408615,46.6495950462413 133.0803571427241,48.05492300004698 133.0803571427241,51.80245342833223 133.5625,52.64564561331645 134.28571428591385,53.30146120826248 135.6517857145518,53.76990062528057 136.375,53.67621276131831 137.09821428591385,53.30146120826248 137.4196428572759,53.02039744076319 137.74107142863795,52.45826964074513 137.9821428572759,51.24032486404758 137.9017857145518,50.116066676331684 137.9821428572759,48.617053564230446 137.9017857145518,47.21172649250366 137.4196428572759,46.0874632470659 136.61607142863795,45.431642369017936 135.6517857145518,45.24426488723839 134.84821428591385,45.337953632930294 134.20535714318976,45.71270851860754 133.5625,46.46221781929489 133.3214285718277,47.024349382845685 133.0803571427241,47.68016909493599 133.0803571427241,51.98982953798259 133.3214285718277,52.55195763200754 133.8035714291036,53.207773295696825 135.25,53.76990062528057 135.7321428572759,53.76990062528057 136.8571428572759,53.395149111165665 137.2589285718277,53.114085373003036 137.82142857136205,52.55195763200754 138.0625,51.24032486404758 137.9821428572759,47.305415032373276 137.5,46.27484055282548 137.09821428591385,45.71270851860754 135.89285714318976,45.24426488723839 134.76785714318976,45.431642369017936 133.9642857145518,45.90008590259822 133.40178571408615,46.55590643762844 133.0803571427241,47.961234538350254 133.0803571427241,51.896141488163266 133.8035714291036,53.114085373003036 134.5267857145518,53.58252488769358 135.41071428591385,53.86358847905649 136.9375,53.395149111165665 137.4196428572759,52.92670949851163 137.9821428572759,52.08351757802302 138.0625,47.49279208329972 137.9017857145518,46.83697223413037 137.3392857145518,45.9937745797215 136.6964285718277,45.5253310953849 136.1339285718277,45.337953632930294 135.0892857145518,45.337953632930294 134.28571428591385,45.619019811740145 133.8035714291036,46.0874632470659 133.24107142863795,47.11803794273874 133.0803571427241,48.80443034047494 133.1607142854482,52.17720560828457 133.8035714291036,53.114085373003036 134.5267857145518,53.67621276131831 135.16964285774156,53.95727632299531 136.2142857145518,53.86358847905649 136.6964285718277,53.67621276131831 137.4196428572759,53.02039744076319 137.82142857136205,52.45826964074513 137.9821428572759,51.80245342833223 137.9821428572759,47.961234538350254 137.58035714318976,46.368529190833215 137.09821428591385,45.806397215346806 136.375,45.337953632930294 135.81250000046566,45.24426488723839 135.00892857136205,45.24426488723839 133.72321428591385,46.0874632470659 133.4821428572759,46.46221781929489 133.24107142863795,47.21172649250366 133.1607142854482,51.42770109104458 133.3214285718277,52.45826964074513 134.0446428572759,53.30146120826248 134.4464285718277,53.48883700440638 135.41071428591385,53.76990062528057 136.53571428591385,53.58252488769358 137.3392857145518,53.114085373003036 137.74107142863795,52.64564561331645 137.9821428572759,51.80245342833223 137.82142857136205,49.928690174478106 137.9821428572759,48.05492300004698 137.9017857145518,47.024349382845685 137.5,45.9937745797215 137.4196428572759,45.431642369017936" stroke="#4DD2FF" stroke-linecap="round" stroke-linejoin="round" stroke-width="0.5"><title>2025-07-16 3.1km</title><desc>15133462266</desc></polyline><polyline fill="none" points="24.876343980431557,118.3470077230595 26.766800981014967,118.3470077230595 27.712029485031962,118.89802827546373 28.184643734246492,132.1225042352453 30.075100736692548,137.08167415950447 34.328628992661834,142.04083941457793 38.582157250493765,144.24491136241704 45.198756758123636,145.34694699104875 49.92489926330745,144.24491136241704 54.17842751927674,142.04083941457793 57.48672727495432,137.632692752406 58.9045700263232,134.87759921327233 59.37718427553773,125.51027040649205 59.37718427553773,112.8367990301922 57.014113023877144,103.46943101938814 55.12365602143109,99.6122746434994 51.81535626761615,96.8571612178348 48.97967076301575,94.65306944027543 42.36307125352323,93.0 36.691700246185064,94.65306944027543 33.85601474158466,96.3061383604072 30.547714989632368,100.16329715726897 27.712029485031962,107.87760627735406 28.184643734246492,131.0204658396542 31.020329236984253,139.2857481832616 32.91078624129295,142.04083941457793 37.16431449726224,144.24491136241704 44.72614250704646,144.24491136241704 49.45228501409292,143.14287550374866 52.28797051683068,141.48982128407806 55.59627027064562,138.1837112866342 57.014113023877144,133.77556139649823 57.95934152416885,130.46944655664265 57.95934152416885,107.87760627735406 55.59627027064562,100.71431961189955 54.17842751927674,99.06125207431614 50.39751351438463,96.3061383604072 46.61659951135516,95.20409247046337 42.835685504600406,95.20409247046337 36.691700246185064,97.40818401938304 30.547714989632368,101.81636434886605 28.657257985323668,105.67351911077276 28.184643734246492,110.63271393766627 28.184643734246492,132.1225042352453 30.547714989632368,138.1837112866342 34.80124324373901,142.04083941457793 38.582157250493765,144.79592920653522 46.61659951135516,147.0 53.23319901898503,143.6938934614882 57.48672727495432,137.632692752406 59.37718427553773,129.9184272158891 58.431955775246024,125.51027040649205 58.431955775246024,112.28577784309164 57.48672727495432,105.67351911077276 55.12365602143109,100.16329715726897 49.45228501409292,94.65306944027543 42.835685504600406,93.0 40.0,93.0 36.21908599510789,94.65306944027543 30.547714989632368,99.6122746434994 28.657257985323668,103.46943101938814 28.184643734246492,107.87760627735406 27.712029485031962,129.9184272158891 28.184643734246492,134.3265803339891 31.965557739138603,140.9388030944392 35.27385749295354,143.6938934614882 40.94522850215435,145.89796471735463 44.72614250704646,146.44898238731548 49.45228501409292,144.79592920653522 56.541498770937324,139.2857481832616 58.9045700263232,134.3265803339891 59.37718427553773,129.3674078155309 57.95934152416885,124.40823062788695 58.431955775246024,107.87760627735406 56.541498770937324,101.81636434886605 54.17842751927674,98.51022944785655 51.34274201467633,95.75511544384062 46.61659951135516,93.55102320481092 40.47261424921453,93.55102320481092 35.74647174589336,95.20409247046337 30.547714989632368,101.26534200832248 28.184643734246492,111.73475659964606 28.657257985323668,132.1225042352453 30.547714989632368,137.632692752406 34.80124324373901,141.48982128407806 41.417842753231525,144.79592920653522 45.198756758123636,144.79592920653522 50.8701277654618,143.14287550374866 53.70581327006221,141.48982128407806 57.48672727495432,137.632692752406 60.32241277769208,129.9184272158891 60.32241277769208,118.89802827546373 59.37718427553773,109.53067104658112 55.12365602143109,100.16329715726897 51.81535626761615,96.3061383604072 48.0344422608614,94.65306944027543 39.054771499708295,94.10204635048285 33.383400494232774,96.8571612178348 30.547714989632368,100.71431961189955 28.657257985323668,108.97964951535687 29.129872234538198,116.1429249374196 28.657257985323668,131.5714850658551 29.602486485615373,135.42861803574488 33.383400494232774,140.9388030944392 36.691700246185064,143.6938934614882 42.36307125352323,145.34694699104875 47.08921376056969,144.24491136241704 52.28797051683068,141.48982128407806 56.06888452358544,138.1837112866342 57.95934152416885,134.3265803339891 58.9045700263232,128.81638835789636 59.37718427553773,121.1021099081263 57.014113023877144,106.7755628079176 53.23319901898503,99.06125207431614 51.34274201467633,96.3061383604072 47.56182800978422,94.10204635048285 43.780914006754756,93.55102320481092 38.582157250493765,94.10204635048285 34.80124324373901,96.3061383604072 30.547714989632368,100.16329715726897 28.657257985323668,109.53067104658112 29.129872234538198,133.77556139649823 32.43817199021578,140.9388030944392 36.691700246185064,144.79592920653522 42.36307125352323,146.44898238731548 48.97967076301575,144.79592920653522 55.59627027064562,139.8367665442638 57.95934152416885,134.3265803339891 58.9045700263232,129.9184272158891 57.95934152416885,122.20415037823841 58.9045700263232,108.97964951535687 57.014113023877144,101.26534200832248 54.17842751927674,97.95920676132664 49.92489926330745,94.65306944027543 45.198756758123636,93.55102320481092 38.582157250493765,94.10204635048285 33.85601474158466,97.40818401938304 30.547714989632368,101.81636434886605 28.184643734246492,109.53067104658112 29.129872234538198,132.6735233454965 30.547714989632368,137.08167415950447 32.91078624129295,140.9388030944392 39.52738575078547,144.24491136241704 43.780914006754756,144.79592920653522 48.50705651007593,143.6938934614882 52.76058476790786,142.04083941457793 55.59627027064562,139.2857481832616 57.48672727495432,133.22454240033403 57.48672727495432,105.67351911077276 54.65104177035391,98.51022944785655 46.61659951135516,94.65306944027543 38.582157250493765,95.20409247046337 34.328628992661834,97.95920676132664 30.547714989632368,103.46943101938814 28.657257985323668,108.97964951535687 26.766800981014967,127.71434927079827 27.239415232092142,131.0204658396542 28.657257985323668,134.87759921327233 32.43817199021578,140.9388030944392 36.691700246185064,144.24491136241704 41.890457002446055,146.44898238731548 48.0344422608614,147.0 51.34274201467633,145.34694699104875 55.12365602143109,142.04083941457793 57.95934152416885,138.1837112866342 58.9045700263232,131.5714850658551 57.48672727495432,123.85721065104008 57.48672727495432,110.0816925209947 56.541498770937324,103.46943101938814 53.70581327006221,99.06125207431614 49.45228501409292,95.20409247046337 42.835685504600406,94.10204635048285 38.109542997553945,95.20409247046337 31.965557739138603,99.6122746434994 29.602486485615373,105.67351911077276 28.657257985323668,132.6735233454965 31.965557739138603,139.8367665442638 35.74647174589336,143.14287550374866 42.36307125352323,145.34694699104875 48.97967076301575,144.24491136241704 53.23319901898503,141.48982128407806 56.541498770937324,137.632692752406 58.431955775246024,132.1225042352453 57.48672727495432,123.30619061831385 58.431955775246024,115.04088320024312 57.95934152416885,104.57147518126294 55.59627027064562,99.06125207431614 50.8701277654618,95.20409247046337 48.0344422608614,94.10204635048285 42.835685504600406,94.10204635048285 35.74647174589336,96.3061383604072 31.020329236984253,101.26534200832248 29.129872234538198,107.87760627735406 30.075100736692548,116.6939457198605 29.602486485615373,131.5714850658551 30.547714989632368,134.87759921327233 33.383400494232774,139.2857481832616 38.582157250493765,143.6938934614882 47.56182800978422,145.34694699104875 50.39751351438463,144.24491136241704 55.59627027064562,137.632692752406 57.95934152416885,132.1225042352453 57.48672727495432,122.20415037823841 58.431955775246024,110.63271393766627 57.95934152416885,105.12249717349187 54.17842751927674,97.95920676132664 49.45228501409292,94.65306944027543 43.780914006754756,94.10204635048285 40.94522850215435,94.10204635048285 36.21908599510789,96.3061383604072 31.492943489924073,101.26534200832248 29.129872234538198,110.63271393766627 29.602486485615373,120.55108958482742 29.129872234538198,125.51027040649205 29.602486485615373,131.5714850658551 31.965557739138603,138.73472976265475 36.21908599510789,142.04083941457793 42.835685504600406,144.24491136241704 51.34274201467633,142.04083941457793 56.541498770937324,136.53065550886095 58.431955775246024,131.0204658396542 57.48672727495432,123.85721065104008 58.431955775246024,112.28577784309164 57.95934152416885,107.32658457010984 55.59627027064562,101.26534200832248 52.28797051683068,96.8571612178348 48.0344422608614,94.65306944027543 43.780914006754756,94.10204635048285 34.80124324373901,97.40818401938304 30.547714989632368,101.26534200832248 29.129872234538198,108.97964951535687 27.239415232092142,113.93884122930467 26.294186733663082,114.4898622436449 22.04065847583115,112.28577784309164 20.62281572446227,113.38782015722245 20.15020147524774,115.59190409770235 20.15020147524774,114.4898622436449 21.568044224753976,113.93884122930467 19.677587224170566,115.04088320024312 20.15020147524774,115.59190409770235" stroke="#4DD2FF" stroke-linecap="round" stroke-linejoin="round" stroke-width="0.5"><title>2025-07-09 3.3km</title><desc>15057512390</desc></polyline><polyline fill="none" points="80.42305196262896,117.49491327209398 85.67540387809277,120.27841900940984 87.58535002544522,122.50522255012766 89.97278271242976,137.536122079473 91.40524232387543,140.31961733289063 95.22513462603092,145.32990512112156 99.04502692818642,147.0 105.7298384513706,146.44330176478252 111.93716343864799,143.65980971511453 114.80208266340196,140.8763162093237 118.62197496369481,134.7526253699325 120.53192111477256,125.84542611567304 118.62197496369481,103.57736274506897 117.66700189001858,100.79384827241302 114.32459612935781,97.45362898241729 111.93716343864799,95.78351855045184 103.81989230029285,94.11340759461746 100.47748653776944,94.67011130601168 95.70262116380036,96.34022208629176 92.36021540127695,99.68044207431376 89.49529617466033,104.69076812826097 87.58535002544522,116.93821194954216 86.630376951769,118.60831574164331 85.67540387809277,119.16501688910648 85.67540387809277,118.05161453550681 87.10786348581314,119.16501688910648 89.01780963875353,124.73202515998855 89.97278271242976,135.30932482751086 91.40524232387543,138.64952035574242 95.22513462603092,142.54641248704866 101.43245961330831,146.44330176478252 104.29737883992493,147.0 106.68481152690947,146.44330176478252 114.32459612935781,140.31961733289063 118.14448842778802,134.19592585461214 120.05443457700312,125.28872566623613 119.57694803923368,109.70108946226537 119.09946150146425,103.57736274506897 116.71202881634235,98.56703564571217 111.45967690087855,94.11340759461746 104.29737883992493,93.0 100.47748653776944,94.11340759461746 95.22513462603092,96.89692556299269 91.40524232387543,101.90725423721597 89.49529617466033,107.47428056132048 88.5403231009841,131.41242739604786 89.01780963875353,134.7526253699325 91.40524232387543,138.64952035574242 95.22513462603092,142.54641248704866 100.47748653776944,145.32990512112156 107.16229806467891,145.32990512112156 114.32459612935781,142.54641248704866 118.14448842778802,136.4227235703729 119.09946150146425,131.41242739604786 118.14448842778802,124.17532459460199 119.57694803923368,118.05161453550681 119.09946150146425,106.91757819149643 118.62197496369481,103.57736274506897 116.23454227671027,98.56703564571217 112.41464997641742,95.78351855045184 107.16229806467891,93.55670382734388 103.34240576438606,93.55670382734388 98.0900538507849,95.22681495686993 95.22513462603092,96.89692556299269 91.40524232387543,100.23714520316571 89.97278271242976,104.13406546507031 88.5403231009841,109.70108946226537 88.5403231009841,132.52582695381716 90.92775578983128,138.64952035574242 94.27016155049205,142.54641248704866 100.00000000186265,145.32990512112156 104.77486537583172,146.44330176478252 109.54973075166345,145.32990512112156 116.23454227671027,139.2062194054015 119.09946150146425,133.08252664469182 120.05443457700312,128.62892748368904 119.57694803923368,119.72171797882766 118.62197496369481,113.04130106512457 119.09946150146425,104.69076812826097 117.1895153503865,99.68044207431376 114.32459612935781,95.78351855045184 107.16229806467891,93.0 101.90994615294039,93.0 97.13508077524602,94.67011130601168 91.40524232387543,101.90725423721597 89.49529617466033,108.58768512913957 88.5403231009841,116.38151056971401 89.01780963875353,133.63922627922148 90.4502692501992,138.09282124694437 93.31518847681582,141.98971378663555 97.6125673148781,144.7732067098841 101.90994615294039,145.8866034722887 109.07224421203136,144.7732067098841 111.93716343864799,143.10311112971976 115.75705573894083,139.76291839918122 118.14448842778802,135.30932482751086 119.09946150146425,132.52582695381716 120.53192111477256,119.72171797882766 118.62197496369481,103.57736274506897 115.75705573894083,98.56703564571217 109.54973075166345,94.67011130601168 103.81989230029285,93.55670382734388 100.95497307553887,94.11340759461746 96.1801077015698,96.34022208629176 92.36021540127695,100.79384827241302 89.01780963875353,108.58768512913957 88.06283656321466,115.8248091316782 85.67540387809277,119.72171797882766 87.10786348581314,121.94852175144479 87.10786348581314,125.84542611567304 89.49529617466033,135.86602422734722 92.83770193718374,140.31961733289063 99.04502692818642,144.7732067098841 105.7298384513706,145.32990512112156 109.54973075166345,144.7732067098841 113.84710958972573,141.98971378663555 118.62197496369481,135.30932482751086 119.09946150146425,121.3918208964169 118.62197496369481,102.46395713137463 117.1895153503865,99.68044207431376 114.80208266340196,97.45362898241729 110.98219036497176,95.22681495686993 104.29737883992493,94.11340759461746 95.70262116380036,96.34022208629176 90.4502692501992,103.02065996732563 89.01780963875353,109.70108946226537 89.49529617466033,119.16501688910648 88.5403231009841,134.19592585461214 89.97278271242976,138.64952035574242 93.79267501458526,143.10311112971976 97.13508077524602,145.32990512112156 101.43245961330831,146.44330176478252 107.63978460244834,145.32990512112156 114.32459612935781,141.98971378663555 117.1895153503865,138.64952035574242 119.57694803923368,128.62892748368904 118.62197496369481,124.17532459460199 116.23454227671027,125.28872566623613 119.57694803923368,123.61862397193909 120.05443457700312,122.50522255012766 120.05443457700312,111.9278974304907 119.09946150146425,106.36087576346472 117.1895153503865,100.23714520316571 110.02721729129553,94.67011130601168 105.25235191360116,93.55670382734388 102.38743268698454,93.55670382734388 96.65759423933923,96.89692556299269 92.83770193718374,100.79384827241302 90.4502692501992,103.57736274506897 88.06283656321466,114.15470446506515 86.15289041213691,117.49491327209398 83.28797118738294,118.60831574164331 79.46807888709009,116.38151056971401 88.5403231009841,119.72171797882766 89.49529617466033,121.94852175144479 89.49529617466033,133.08252664469182 90.4502692501992,137.536122079473 92.83770193718374,141.43301502615213 95.70262116380036,144.21650824137032 98.0900538507849,145.32990512112156 102.38743268698454,145.8866034722887 109.07224421203136,144.7732067098841 113.3696230519563,142.54641248704866 117.66700189001858,136.4227235703729 119.57694803923368,131.9691272038035 119.57694803923368,128.62892748368904 119.57694803923368,111.9278974304907 118.62197496369481,103.57736274506897 116.71202881634235,99.1237388891168 113.84710958972573,96.89692556299269 110.02721729129553,94.67011130601168 105.7298384513706,94.11340759461746 99.04502692818642,95.22681495686993 91.88272886350751,101.350551282987 89.01780963875353,110.25779154151678 88.5403231009841,130.29902760777622 90.4502692501992,135.86602422734722 92.36021540127695,139.76291839918122 97.13508077524602,144.21650824137032 100.95497307553887,145.32990512112156 107.63978460244834,144.7732067098841 113.84710958972573,141.43301502615213 117.66700189001858,136.9794228533283 118.62197496369481,110.8144935616292 116.71202881634235,101.350551282987 113.84710958972573,98.01033234223723 109.07224421203136,95.22681495686993 100.00000000186265,95.22681495686993 95.70262116380036,98.01033234223723 91.88272886350751,101.90725423721597 89.97278271242976,106.91757819149643 89.01780963875353,114.7114060795866 89.49529617466033,131.9691272038035 92.36021540127695,139.2062194054015 94.27016155049205,141.43301502615213 100.95497307553887,144.7732067098841 104.77486537583172,145.32990512112156 110.02721729129553,144.21650824137032 115.75705573894083,138.64952035574242 118.14448842778802,135.30932482751086 118.14448842778802,129.185627582483 119.09946150146425,121.94852175144479 118.62197496369481,118.05161453550681 119.57694803923368,114.7114060795866 119.57694803923368,109.14438732573763 117.66700189001858,101.350551282987 113.84710958972573,96.89692556299269 106.68481152690947,94.11340759461746 101.90994615294039,94.11340759461746 96.65759423933923,96.34022208629176 91.88272886350751,101.350551282987 89.49529617466033,107.47428056132048 88.5403231009841,130.29902760777622 90.4502692501992,139.2062194054015 92.36021540127695,141.98971378663555 101.90994615294039,145.8866034722887 105.7298384513706,145.8866034722887 110.02721729129553,143.65980971511453 116.23454227671027,137.536122079473 118.62197496369481,131.9691272038035 118.14448842778802,123.61862397193909 118.62197496369481,117.49491327209398 118.14448842778802,107.47428056132048 116.71202881634235,101.90725423721597 113.3696230519563,96.89692556299269 105.25235191360116,93.55670382734388 97.13508077524602,95.78351855045184 93.79267501458526,98.56703564571217 91.40524232387543,101.90725423721597 89.49529617466033,106.36087576346472 86.630376951769,115.8248091316782 85.19791733846068,118.05161453550681 82.33299811370671,119.16501688910648 79.46807888709009,117.49491327209398" stroke="#4DD2FF" stroke-linecap="round" stroke-linejoin="round" stroke-width="0.5"><title>2025-07-07 3.1km</title><desc>15035124835</desc></polyline><polyline fill="none" points="187.0,133.8417916179751 186.8468085108325,133.39528947562212 185.2382978722453,133.48458992282394 182.02127659553662,132.05578164820326 182.3276595743373,126.87633160472615 182.09787234012038,126.69772931846092 178.26808510674164,126.78703046613373 177.88510638289154,130.80557244608644 179.34042553184554,134.1096927910694 182.1744680851698,133.48458992282394 182.40425531938672,129.91256475198315 181.94468085095286,126.51912699500099 181.7148936172016,126.51912699500099 178.4978723404929,127.05493385356385 178.3446808513254,127.32283715659287 177.9617021274753,130.80557244608644 179.11063829809427,133.93109201820334 179.4170212764293,134.02039240917657 182.3276595743373,133.3059890192817 182.7872340423055,131.43067727604648 182.71063829772174,130.62697098206263 182.94042553193867,130.26976794173243 181.25531914876774,129.198157924111 178.0382978725247,127.59074037574464 144.94893616996706,112.32012269797269 142.49787234095857,110.62337053689407 140.4297872344032,108.5694028819562 137.44255319191143,106.60473354405258 136.06382978754118,105.89030720893061 135.37446808535606,105.89030720893061 134.60851063858718,106.06891384872142 133.5361702130176,107.14055290294345 133.30638297880068,107.94428131036693 133.38297872338444,110.44476485002087 133.30638297880068,112.14151736587519 133.68936170218512,113.21314879623242 134.37872340437025,113.83826650917763 135.52765957452357,114.1954764254624 136.6765957446769,113.9275690021459 137.74893617024645,113.03454365127254 138.1319148936309,112.14151736587519 138.05531914904714,108.12288752058521 137.67234042612836,106.78334003413329 136.82978723431006,106.06891384872142 135.60425531910732,105.89030720893061 134.91489361738786,106.06891384872142 134.14893617061898,106.42612701636972 133.45957446843386,107.14055290294345 133.22978723421693,108.03358441998716 133.07659574504942,110.17685624951264 133.15319148963317,112.4987279920606 133.45957446843386,112.94524106482277 134.22553191520274,113.65966149501037 134.99148936197162,114.01687148597557 135.83404255332425,114.10617396055022 136.98297872347757,113.7489640066633 137.74893617024645,112.94524106482277 137.97872340446338,112.40942534967326 138.20851063821465,111.6057011464145 138.20851063821465,110.89127899700543 138.1319148936309,108.39079676545225 137.90212765987962,107.22985609661555 137.67234042612836,106.78334003413329 136.98297872347757,106.24752045120113 136.2170212767087,105.97961053368635 135.37446808535606,105.89030720893061 134.22553191520274,106.33682373835472 133.68936170218512,106.87264326546574 133.45957446843386,107.22985609661555 133.22978723421693,108.39079676545225 133.30638297880068,110.53406769805588 133.15319148963317,111.42709566507256 133.38297872338444,112.76663586363429 133.99574468145147,113.48105644347379 134.7617021277547,114.01687148597557 135.91063829837367,114.1954764254624 137.51914893649518,113.39175390376477 137.90212765987962,112.76663586363429 138.20851063821465,112.14151736587519 138.1319148936309,108.03358441998716 137.90212765987962,107.22985609661555 137.44255319191143,106.51543028472224 136.29361702129245,105.97961053368635 135.68085106415674,105.89030720893061 134.60851063858718,106.24752045120113 134.22553191520274,106.42612701636972 133.45957446843386,107.40846245596185 133.15319148963317,108.65870592632564 133.15319148963317,111.33779291034443 133.22978723421693,112.67733324924484 133.76595744676888,113.39175390376477 134.455319148954,113.83826650917763 135.68085106415674,114.1954764254624 136.6765957446769,113.9275690021459 137.67234042612836,113.21314879623242 138.20851063821465,112.23082003666786 138.1319148936309,109.90894756536 138.20851063821465,108.48009982844815 137.97872340446338,107.40846245596185 137.59574468107894,106.78334003413329 137.05957446806133,106.24752045120113 136.44680851045996,105.97961053368635 135.4510638299398,105.89030720893061 134.8382978728041,106.06891384872142 134.14893617061898,106.42612701636972 133.61276595760137,107.0512496996671 133.38297872338444,107.40846245596185 133.30638297880068,108.21219061157899 133.22978723421693,112.05221468606032 133.45957446843386,112.76663586363429 134.07234042556956,113.57035897404421 135.06808510655537,114.01687148597557 136.29361702129245,114.01687148597557 137.2127659576945,113.48105644347379 137.90212765987962,112.85593846888514 138.28510638326406,111.9629119966994 138.1319148936309,109.10522100760136 138.20851063821465,108.48009982844815 137.97872340446338,107.49776562181069 137.74893617024645,107.0512496996671 136.90638297889382,106.24752045120113 136.06382978754118,105.97961053368635 135.22127659618855,105.97961053368635 134.53191489353776,106.15821715461789 133.84255319135264,106.60473354405258 133.38297872338444,107.67637192527764 133.22978723421693,108.5694028819562 133.22978723421693,112.05221468606032 133.91914893640205,113.39175390376477 134.37872340437025,113.7489640066633 135.2978723407723,114.1954764254624 136.14042553212494,114.1954764254624 136.90638297889382,113.9275690021459 137.51914893649518,113.39175390376477 138.05531914904714,112.67733324924484 138.20851063821465,111.33779291034443 138.1319148936309,108.03358441998716 137.67234042612836,106.87264326546574 136.3702127658762,105.97961053368635 135.68085106415674,105.89030720893061 134.8382978728041,106.06891384872142 133.91914893640205,106.69403679377865 133.22978723421693,107.85497819143347 133.15319148963317,110.89127899700543 133.22978723421693,112.32012269797269 133.5361702130176,113.03454365127254 134.14893617061898,113.65966149501037 134.53191489353776,113.9275690021459 135.4510638299398,114.10617396055022 136.2170212767087,114.10617396055022 137.365957446862,113.48105644347379 137.97872340446338,112.67733324924484 138.20851063821465,112.05221468606032 138.1319148936309,108.03358441998716 137.90212765987962,107.40846245596185 137.51914893649518,106.69403679377865 136.90638297889382,106.24752045120113 136.06382978754118,105.89030720893061 135.2978723407723,105.97961053368635 133.99574468145147,106.51543028472224 133.15319148963317,107.76567506318679 133.0,109.01591800991446 133.22978723421693,111.9629119966994 133.5361702130176,112.94524106482277 134.68510638317093,114.10617396055022 136.06382978754118,114.01687148597557 136.82978723431006,113.7489640066633 137.44255319191143,113.39175390376477 137.90212765987962,112.76663586363429 138.20851063821465,112.23082003666786 138.05531914904714,107.67637192527764 137.59574468107894,106.87264326546574 136.98297872347757,106.33682373835472 136.29361702129245,105.97961053368635 135.4510638299398,105.97961053368635 134.68510638317093,106.24752045120113 133.68936170218512,107.0512496996671 133.22978723421693,108.03358441998716 133.07659574504942,111.15918737323955 133.15319148963317,112.14151736587519 133.68936170218512,113.3024513546261 134.3021276597865,113.83826650917763 135.22127659618855,114.1954764254624 136.14042553212494,114.10617396055022 136.90638297889382,113.83826650917763 137.97872340446338,113.12384622823447 138.9744680854492,113.21314879623242 139.1276595746167,113.39175390376477" stroke="#4DD2FF" stroke-linecap="round" stroke-linejoin="round" stroke-width="0.5"><title>2025-06-15 3.3km</title><desc>14807579363</desc></polyline><polyline fill="none" points="50.39537155092694,206.75030337207136 50.642488148703706,206.84634057682706 50.82370698719751,206.88475544466928 51.53210790117737,206.7695108170301 51.89454557810677,206.75030337207136 52.40525321371388,206.84634057682706 52.85006308980519,207.0 52.96538416889962,206.94237773140776 52.981858608778566,206.21249409698066 53.04775636817794,205.96279639800196 53.11365412763553,205.17528604599647 53.24544964649249,204.84875637273944 53.22897520667175,204.57984914693225 53.311347405891865,203.984410316727 53.294872966071125,203.5234240895079 53.34429628564976,202.35174555207777 53.32782184577081,201.71788355411263 53.37724516534945,201.14164347498445 53.34429628564976,200.6998581894004 53.41019404504914,198.89428988323198 53.3937196052284,198.52933242967993 53.32782184577081,198.01070743182208 53.34429628564976,197.89545723328774 53.41019404504914,197.7802069624595 53.45961736468598,197.33841358713107 53.41019404504914,196.666117280256 53.426668484928086,196.18590412499907 53.3937196052284,196.05144421641307 53.22897520667175,195.89777562886593 53.19602632691385,195.66727250628173 53.19602632691385,194.99497007894388 53.22897520667175,194.80288321882836 53.21250076673459,194.6876310063235 53.22897520667175,194.5531700002466 53.19602632691385,194.4379176309012 53.22897520667175,194.24583018785052 53.21250076673459,193.86165469884872 53.19602632691385,193.72719308765954 53.11365412763553,193.55431372864405 53.09717968775658,193.4390607321402 53.014807488478255,193.30459881147544 52.586472052149475,193.28538995762938 51.7956989389495,193.34301651309943 51.49915902141947,193.3238076632988 51.30146574310493,193.24697224384 51.284991303342395,193.18934565816016 51.284991303342395,192.99725690853666 51.13672134454828,193.01646579257795 50.92255362641299,192.95883913453144 50.3459482313483,192.97804802253086 50.06588275375543,192.93963024452387 49.78581727616256,192.95883913453144 49.39043071947526,192.92042135243537 49.14331412164029,192.95883913453144 48.51728540705517,192.90121245835326 47.24875353783136,192.90121245835326 46.96868806023849,192.86279466419364 46.85336698126048,192.92042135243537 46.803943661623634,192.97804802253086 46.70509702246636,192.99725690853666 45.98022166878218,192.97804802253086 45.68368175125215,192.86279466419364 45.66720731143141,192.80516795790754 45.68368175125215,192.57466095183918 45.55188623239519,192.47861628049577 44.530470961122774,192.49782521877205 43.32783685141476,192.44019839793327 42.89950141508598,192.38257155894826 42.68533369695069,192.22889989987016 42.5041148585733,191.97918317953008 42.43821709905751,192.05601912972634 42.30642158020055,192.13285504770465 42.04283054248663,192.19048196505173 41.53212290687952,192.15206402214244 41.40032738796435,192.28652678712388 41.219108549528755,192.36336260855023 41.087313030671794,192.47861628049577 40.54365651530679,192.51703415504016 39.60461344337091,192.4017805072799 39.390445725177415,192.42098945358885 39.01153360842727,192.4017805072799 38.74794257071335,192.42098945358885 38.0395416567917,192.36336260855023 37.62768066028366,192.38257155894826 37.380564062448684,192.36336260855023 37.28171742329141,192.4017805072799 36.836907547025476,192.36336260855023 35.683696756954305,192.3441536562168 35.10709136183141,192.28652678712388 33.986829451459926,192.3249447018752 32.537078743916936,192.19048196505173 32.09226886770921,192.19048196505173 31.647458991559688,192.22889989987016 31.136751355952583,192.15206402214244 30.37892712239409,192.17127299463027 30.098861644801218,192.11364607121504 29.78584728745045,192.13285504770465 29.604628449014854,192.03681014516042 29.406935170700308,192.07522811219678 28.978599734429736,192.05601912972634 28.171352181292605,192.09443709267362 28.006607782735955,191.90234719727596 27.957184463215526,191.72946611950465 27.891286703699734,191.6334210059722 27.594746786227915,191.5950029464584 27.561797906528227,191.55658487892651 27.479425707191695,191.4029125283705 27.26525798905641,191.2108219092188 27.166411349957343,190.8458491790807 27.199360229598824,190.5000848705531 27.10051359044155,190.09669235399633 27.281732428935356,188.75204422930256 27.281732428935356,188.0412976695079 27.495900147070643,187.27291991416132 27.51237458694959,187.00398693986062 27.6606445456855,186.23560484185873 27.75949118490098,185.58247752932948 27.808914504479617,184.7948797376739 27.808914504479617,184.14174729814113 27.874812263820786,183.62308164627757 27.924235583399422,182.91231522413727 27.907761143578682,182.6625858277257 27.94071002327837,182.45127607305767 27.907761143578682,182.27838609283208 27.75949118490098,181.99023576387845 27.743016744963825,181.79813529318199 27.775965624663513,181.6060346214217 27.924235583399422,181.31788323681394 28.006607782735955,181.04894153631176 27.97365890297806,180.7799994415982 27.891286703699734,180.51105695284787 27.957184463215526,180.26132428892015 28.121928861713968,179.8771195269801 28.138403301592916,179.6465962838265 28.072505542135332,179.37765213406237 28.138403301592916,178.99344552212278 28.088979982072487,178.85897301792284 27.858337824000046,178.5323965260759 27.79244006454246,178.30187159366324 27.6606445456855,178.1289777043421 27.594746786227915,177.95608365212684 27.446476827550214,177.8216103877785 27.430002387671266,177.72555799580005 27.34763018839294,177.62950555353018 27.36410462821368,176.8418736304593 27.495900147070643,176.36160860372183 27.54532346664928,176.03502766751626 27.644170105806552,175.6700247569388 27.6606445456855,175.49712838801497 27.446476827550214,174.67106571025215 27.001666951342486,173.82578842324438 26.886345872306265,173.42235925450223 26.869871432485525,172.53865416662302 26.919294752005953,172.25048854388297 26.919294752005953,171.3475666622544 27.001666951342486,170.6175414671161 27.001666951342486,169.82987944652268 27.08403915062081,169.2535392405698 27.08403915062081,168.60035148539464 27.1169880303205,168.13927637584857 27.10051359044155,167.98558441523346 27.166411349957343,167.73583470461017 27.166411349957343,167.3131805737503 27.149936910078395,166.9481603136228 27.1169880303205,166.79446735522652 27.133462470199447,166.5447160233016 27.034615831042174,165.1038363163534 26.95224363176385,164.41221003771352 26.902820312185213,163.4516136590246 26.7874992332072,162.45258809007646 26.7874992332072,162.2988913658337 26.68865259399172,161.434344893074 26.705127033870667,161.31907172223146 26.754550353449304,161.2422229014337 26.77102479332825,161.1461618301546 26.754550353449304,161.05010070861317 26.705127033870667,161.0116762458929 26.67217815417098,160.9348272963398 26.55685707507655,159.9742127107893 26.540382635314018,159.05201797668997 26.573331515013706,158.8791059480427 26.55685707507655,158.4948564118531 26.573331515013706,158.245093781763 26.55685707507655,157.59186683391454 26.573331515013706,157.05391348342528 26.622754834592342,156.4967458502797 26.705127033870667,156.208555031204 26.853396992606577,156.0164275669522 26.968718071701005,155.92036375941825 27.166411349957343,155.88193822230096 27.462951267370954,155.90115099183458 27.82538894424215,155.8627254506864 28.121928861713968,155.74744877901685 28.3855198994861,155.4976824084879 28.418468779243995,155.4016183292406 28.467892098764423,154.9981486472825 28.51731541834306,154.88287143225898 29.028023053950164,154.84444567786704 29.703475088172127,154.90208430649363 29.884693926665932,154.84444567786704 30.263606043416075,154.80601991541334 30.889634758001193,154.67152968337177 30.90610919793835,154.6138909822912 30.873160318122245,154.4601876909437 30.873160318122245,154.36412306842976 30.90610919793835,154.19120662120986 31.037904716737103,153.9606511046004 31.087328036373947,153.7877342770371 31.120276916015428,153.55717825342435 31.087328036373947,153.28819585962628 31.103802476194687,153.17291757008934 31.153225795773324,153.1152783981961 31.416816833545454,153.0 31.581561232043896,153.0192130713549 31.532137912523467,153.1152783981961 31.911050029215403,153.691669302425" stroke="yellow" stroke-linecap="round" stroke-linejoin="round" stroke-width="0.5"><title>2025-06-10 5.1km</title><desc>14754484246</desc></polyline><polyline fill="none" points="123.22447374777403,206.76155622633814 124.20162870979402,207.0 124.3152513797395,206.76155622633814 124.49704765167553,206.01972971738724 124.95153833169024,201.59521933853102 124.86064019566402,200.61492813541554 124.79246659378987,199.5551495931868 124.90608926373534,195.28949610941345 124.3152513797395,194.94506132644892 123.45171908778138,194.54763599489524 113.27112785587087,189.77848336215538 112.86208624392748,189.51352780434536 111.97582941793371,188.7716507678124 111.79403314588126,188.50669415657467 111.70313500997145,188.0827630018175 111.74858407792635,187.79130992124556 111.68041047581937,187.36737756883667 111.72585954389069,186.86395697848639 111.68041047581937,186.2810476761806 111.58951233990956,185.9895925216988 111.38499153382145,185.72463299926312 111.3622669999022,185.5921531341446 111.38499153382145,185.30069718667073 111.27136886387598,184.6912882126635 111.3622669999022,184.2408545499202 111.43044060189277,183.71093156798452 111.40771606797352,182.91604501548863 111.18047072796617,182.54509710357524 110.7487045818707,182.1476523092133 110.40783657191787,182.12115596735384 109.68065148394089,182.2271413180424 109.04436453199014,182.2271413180424 108.7489455898758,182.12115596735384 108.40807758003939,181.7767032716365 108.27173037594184,181.72371050767833 107.27185087988619,181.72371050767833 106.74918659788091,181.67071773247153 106.4537676559994,181.72371050767833 106.09017511201091,181.6442213407281 105.34026548999827,181.6972141214501 104.54490679991432,181.59122854903399 103.77227264398243,181.61772494626348 102.74966861400753,181.51173934062535 102.24972886603791,181.6442213407281 101.95430992403999,181.61772494626348 101.27257390401792,181.67071773247153 100.74990962201264,181.56473214902508 100.24996987404302,181.51173934062535 99.70458105800208,181.40575369058934 99.09101864008699,181.37925727108086 98.50018075609114,181.45874652115162 97.36395405605435,181.43225010720198 96.77311617205851,181.53823574617854 96.3186254920438,181.72371050767833 96.00048201612663,181.67071773247153 95.77323667611927,181.72371050767833 95.00060252007097,181.59122854903399 94.56883637409192,181.72371050767833 94.1143456940772,181.43225010720198 94.00072302413173,181.37925727108086 93.59168141207192,181.56473214902508 92.29638297413476,181.6442213407281 91.97823949810117,181.51173934062535 91.79644322616514,181.29976799615542 91.63737148814835,181.22027869624435 91.43285068217665,180.87582477483375 91.16015627421439,180.7963353418163 90.75111466215458,180.769838858585 90.34207305021118,180.769838858585 89.38764262211043,180.87582477483375 88.81952927215025,180.7963353418163 87.36515909631271,180.8228318222682 85.59264544432517,180.74334237254516 84.82001128827687,180.769838858585 83.9337544622831,180.63735640089726 82.66118055826519,180.71684588382777 81.91127093636896,180.69034939231642 81.0250141103752,180.63735640089726 80.63869703235105,180.557866892952 78.95708151627332,180.53137038482237 78.00265108828899,180.47837736012298 77.3890886703739,180.557866892952 76.79825078637805,180.53137038482237 76.59372998040635,180.47837736012298 76.07106569840107,180.5048738739133 75.75292222236749,180.557866892952 75.57112595043145,180.557866892952 75.48022781440523,180.47837736012298 75.38932967826258,180.18691552619566 75.38932967826258,179.73647385019285 75.57112595043145,179.47150778402283 75.63929955242202,179.23303808740457 75.61657501838636,179.07405816492974 75.45750328036956,178.80909140553558 75.52567688236013,178.27915705485793 75.36660514434334,177.77571839441953 75.36660514434334,177.48425344926363 75.50295234832447,176.74234116554726 75.63929955242202,175.54997758335958 75.5938504843507,175.09952765754133 75.66202408634126,174.59608267432486 75.88926942634862,174.06613950525934 75.9574430284556,173.82766471726063 76.07106569840107,172.50280069347355 76.1619638344273,172.23782705675694 76.1619638344273,172.02584794766153 76.25286197033711,171.6548840796895 76.25286197033711,171.2839196681598 76.29831103829201,171.07193976035342 76.36648464028258,170.27701352530858 76.32103557232767,169.93254471491673 76.38920917443465,169.80005658607115 76.32103557232767,169.56157777959015 76.36648464028258,169.19061030061857 76.29831103829201,169.1111171986995 76.43465824227314,168.84614001197042 76.38920917443465,168.6606558162748 76.45738277642522,167.94521550263744 76.54828091245145,167.44175629215897 76.52555637841579,166.99129193929548 76.27558650437277,166.62032069392444 76.2074129023822,166.35534090007422 76.29831103829201,165.93137265300902 76.57100544637069,165.37491325124574 76.59372998040635,165.1629283955117 76.54828091245145,164.9244452205312 76.54828091245145,164.44747819668555 76.70735265035182,163.94401202992594 76.86642438836861,163.70552770661016 76.88914892228786,163.49354145293182 76.77552625234239,162.99007338882075 76.79825078637805,162.56609950565326 76.75280171842314,162.35411229771853 76.68462811643258,162.2216202026466 76.6164545143256,162.16862334520556 76.50283184438013,162.11562647666142 75.75292222236749,162.0626295969996 75.66202408634126,162.0361311530287 75.61657501838636,161.9301373493654 75.66202408634126,161.74464808608172 75.63929955242202,161.21467801372637 75.70747315441258,160.94969256148033 75.84382035839371,160.87019687164866 76.13923930039164,160.81719973123109 76.29831103829201,160.65820824349066 76.6164545143256,160.6317096525163 76.18468836834654,160.71120541724667 75.91199396026786,160.71120541724667 75.75292222236749,160.60521105877706 75.70747315441258,160.4462194378575 75.63929955242202,159.70425722002983 75.75292222236749,159.1477841293963 76.02561663032975,158.40581810564618 76.09379023232032,157.71684770760476 76.02561663032975,156.92187953353277 75.93471849441994,156.55089353121002 75.75292222236749,156.15340792525967 75.29843154246919,155.41143312427448 75.16208433837164,155.09344325806887 75.09391073638108,154.8284513977269 75.04846166842617,154.29846684471704 75.16208433837164,153.90097770170541 75.3438806104241,153.74198186972353 75.32115607638843,153.29149313674134 75.27570700831711,153.13249692192767 75.29843154246919,153.02649938990362 75.41205421241466,153.0 75.93471849441994,153.1059975430544 76.32103557232767,153.05299877710058 76.57100544637069,153.1854956713214 77.25274146639276,153.05299877710058 77.70723214629106,153.1854956713214 77.84357935038861,153.71548255471862 77.88902841834351,154.13947126240237 77.86630388430785,154.32496609872032 77.77540574839804,154.53696003083314 77.79813028231729,154.801952196387 77.70723214629106,155.25243824107747 77.52543587423861,155.7294225910009 77.41181320429314,156.2859031966218 77.41181320429314,157.1603702479042 77.6390585443005,157.95533767297457 77.93447748629842,158.35282044929045 78.04810015624389,158.77680138936557 78.00265108828899,158.93579405877972 77.91175295226276,159.041789116367 77.45726227236446,159.28027783334255 76.77552625234239,160.04873994873196 76.70735265035182,160.20773181930417 76.6164545143256,160.68470683172927 76.68462811643258,161.0556867756386 76.6164545143256,161.18817948095966 76.59372998040635,161.34717063582502 76.70735265035182,161.61215567209 76.75280171842314,162.0361311530287 76.8209753202973,162.19512177535216 76.91187345643993,162.4866043234506 76.86642438836861,163.4140465620294 76.8209753202973,163.70552770661016 76.59372998040635,164.20899434774765 76.52555637841579,164.47397638829716 76.50283184438013,164.7124599875242 76.6164545143256,165.1629283955117 76.6164545143256,165.3484151540324 76.54828091245145,165.53390177659458 76.27558650437277,166.0108667534514 76.23013743641786,166.19635289066355 76.25286197033711,166.5673247573286 76.50283184438013,166.93829608043598 76.57100544637069,167.30926685984014 76.48010731034447,168.52816702194104 76.4119337083539,168.87263774315943 76.43465824227314,169.1376149020798 76.36648464028258,169.58807543582225 76.43465824227314,170.06503277434967 76.38920917443465,170.11802797872224 76.34376010647975,170.4889940986468 76.32103557232767,171.46940194186755 76.11651476635598,172.37031390979246 76.11651476635598,172.58229273039615 76.0028920964105,173.11223900559708 75.93471849441994,173.85416192706907 75.70747315441258,174.49009412931628 75.61657501838636,175.9739297225169 75.45750328036956,176.82183187131886 75.36660514434334,177.11329757906788 75.43477874645032,177.11329757906788 75.41205421241466,177.4312597867247 75.45750328036956,177.6432343699853 75.43477874645032,177.85520877575618 75.54840141639579,178.1996668066422 75.54840141639579,178.46463420377404 75.48022781440523,178.5971177983447 75.48022781440523,178.78259471431375 75.63929955242202,179.2595347314782 75.5938504843507,179.49800440306717 75.43477874645032,179.68348065907776 75.3438806104241,179.86895677926077 75.32115607638843,180.0014396389888 75.38932967826258,180.18691552619566 75.57112595043145,180.34589474996028 75.75292222236749,180.42538432437868 76.13923930039164,180.34589474996028 76.32103557232767,180.37239127751673 76.32103557232767,180.39888780229376 76.29831103829201,180.37239127751673 76.36648464028258,180.31939821962442 76.29831103829201,180.29290168646548 76.77552625234239,180.34589474996028 77.25274146639276,180.31939821962442 77.29819053434767,180.42538432437868 76.84369985433295,180.42538432437868 76.8209753202973,180.557866892952 76.88914892228786,180.66385289802565 77.1845678644022,180.84932829995523 77.68450761237182,180.9553141829092 78.84345884632785,180.90232124693284 79.72971567232162,180.9553141829092 83.070222170325,180.98181064672826 92.50090378010646,181.2732715656457" stroke="yellow" stroke-linecap="round" stroke-linejoin="round" stroke-width="0.5"><title>2025-04-19 6.0km</title><desc>14222567780</desc></polyline><polyline fill="none" points="155.14694295299705,153.0 155.13700834295014,153.20858965446678 155.08733529230813,153.3592374934815 155.0774006821448,153.62576778283255 155.0376622416079,153.71847381984117 155.04759685177123,154.00817968438787 155.00785841123434,154.25153202403453 154.95818536065053,154.76141137981904 154.9482507505454,155.01635017600347 154.8588392593665,155.21334793406277 154.88864308974007,155.20175984037633 154.86877386947162,155.4103453412099 154.78929698845604,155.88545529080875 154.77936237835092,156.03609948271333 154.73962393787224,156.31421129779483 154.7296893277089,156.65026214102545 154.68995088723022,156.85884490940225 154.65021244669333,157.33394863514695 154.62040861631976,157.43823942363815 154.6303432264831,157.54253011379478 154.5508663454675,157.9481040849787 154.52106251503574,158.35367656848393 154.45152024418348,158.7940107235845 154.45152024418348,158.9794140537415 154.30250109225744,159.9296012421255 154.30250109225744,160.14976540118369 154.22302421124186,160.60167993336654 154.21308960107854,160.77549272325268 154.16341655049473,161.08835505655588 154.1534819403896,161.34327926631522 154.04420122894226,162.10804836972966 154.03426661883714,162.33979553871177 153.96472434792668,163.06979594684526 153.86537824670086,163.7650299509114 153.80577058595372,164.37914968578116 153.74616292514838,164.70358892378135 153.68655526440125,165.31770344701363 153.5772745530121,165.9434015296647 153.51766689226497,166.0592711565114 153.42825540108606,166.14037982306763 153.4481246213545,166.12879287435499 153.3984515707125,166.4764008080965 153.3984515707125,166.62703057340696 153.4481246213545,166.81242077219213 153.47792845172808,166.96305007989577 153.42825540108606,167.40334995695594 153.4381900112494,167.57715205751447 153.38851696060738,167.86682161819772 153.37858235044405,168.14490368270344 153.2693016391131,168.81693245228234 153.19975936814444,169.41943753298256 153.19975936814444,169.6279962193512 153.12028248718707,170.0914585589053 152.98119794536615,171.37755637992814 152.98119794536615,171.95687483784423 153.02093638590304,172.37398224890785 153.08054404665018,172.69839803683863 153.18982475803932,173.15026129877515 153.32890929986024,173.544191867295 153.36864774033893,173.6832258506838 153.47792845172808,173.92653490108933 153.55740533274366,174.1698434163918 153.94485512771644,174.78390538483654 153.97465895809,174.86500765415258 153.96472434792668,175.01562599655153 154.12367810995784,175.1430721261131 154.22302421124186,175.25893211649236 154.25282804161543,175.31686206615996 154.38197797327302,175.3863779657404 154.56080095557263,175.56016752356663 154.6303432264831,175.60651135952503 154.96811997081386,175.96567543006677 155.10720451257657,176.06994865150045 155.50458891765447,176.29008068505937 155.79269261134323,176.48704055436974 156.27948850754183,176.71875759870454 156.76628440374043,176.86937341727025 156.91530355566647,176.96205997290963 157.39216484170174,177.08950386013748 157.9485030088108,177.12426125843194 158.1173913810053,177.10108966080588 158.26641053287312,177.14743285124132 158.45516812527785,177.12426125843194 158.8326833100873,177.14743285124132 159.51817140885396,177.10108966080588 159.67712517088512,177.13584705546236 159.87581737345317,177.14743285124132 159.99503269494744,177.13584705546236 160.44209015066735,177.15901864581247 160.61097852286184,177.12426125843194 160.720259234251,177.13584705546236 160.9487552671344,177.13584705546236 161.10770902922377,177.18219023138226 161.14744746970246,177.22853338784626 161.2169897405547,177.3328054190133 161.24679357098648,177.68037814632407 161.23685896082316,177.86574982107413 161.24679357098648,177.98160696004197 161.22692435071804,178.14380675082793 161.2567281811498,178.34076331988035 161.2567281811498,178.4218629816969 161.22692435071804,178.51454823669337 161.28653201146517,178.88528848025453 161.28653201146517,179.12858608990064 161.2070551304496,179.90481774420186 161.26666279119672,180.28713879605493 161.24679357098648,180.4609206556197 161.23685896082316,181.23714296250546 161.2567281811498,181.4225086780134 161.22692435071804,181.6194594105109 161.2070551304496,181.89750690658548 161.2169897405547,182.2334800321114 161.24679357098648,182.56945213746076 161.22692435071804,182.76640082837548 161.24679357098648,183.0212750844512 161.2169897405547,183.1602971584798 161.24679357098648,183.94808561201353 161.2070551304496,184.4346580313795 161.23685896082316,185.50047585438733 161.2567281811498,185.87119269082177 161.2169897405547,186.23032344173407 161.18718591018114,186.38092631300242 161.17725130007602,186.60103783302475 161.19712052034447,187.21503081171977 161.22692435071804,187.38880179097032 161.19712052034447,187.55098779204855 161.2070551304496,188.21131405667256 161.18718591018114,188.3966680894082 161.18718591018114,188.70945231559745 161.19712052034447,188.97589744056313 161.22692435071804,189.2307573946382 161.17725130007602,189.48561676176905 161.18718591018114,189.63621520283777 161.15738207980758,189.82156684895745 161.2070551304496,190.04167152549053 161.14744746970246,190.81782662814658 161.1673166899709,191.45496480832662 161.2070551304496,191.86041446772288 161.17725130007602,192.4280414954119 161.127578249434,193.0883386605783 160.9884937076713,193.73704782863206 160.75999767472968,194.5247609924263 160.69045540387742,194.67535257657437 160.5016978114145,195.26613296654978 160.44209015066735,195.59048164368141 160.39241710002534,195.7526556258017 160.34274404944154,195.85691020314698 160.26326716842595,196.26234373700572 160.1043134063948,196.78361324124126 160.024836525321,196.94578547519632 159.8857519835583,197.3048802905687 159.78640588233247,197.67555758772505 159.72679822152713,197.86089577078383 159.67712517088512,197.95356474591972 159.65725595067488,197.89564664555655 159.7963404924376,197.87247939690133 160.07450957602123,197.9303975094299 160.12418262660503,198.02306642637996 160.17385567724705,198.2431547932283 160.22352872788906,198.28948913050408 160.30300560890464,198.31265629186237 160.5513708620565,198.26632196428545 161.2169897405547,198.25473837939353 161.40574733301764,198.31265629186237 161.71372024691664,198.28948913050408 162.68731203937205,198.34740702479758 163.05489261407638,198.31265629186237 163.29332325712312,198.30107271180168 163.52181929006474,198.33582344837487 163.69070766220102,198.31265629186237 164.13776511792094,198.33582344837487 164.32652271026745,198.32423987073707 164.5649533533724,198.34740702479758 164.8331878267927,198.34740702479758 165.051749249571,198.38215774684795 165.73723734833766,198.35899060001248 165.91606033057906,198.38215774684795 166.3333139559254,198.32423987073707 166.54194076859858,198.33582344837487 166.70089453062974,198.31265629186237 166.83997907239245,198.33582344837487 166.91945595346624,198.41690845796984 166.9492597838398,198.6369960417287 166.95919439388672,198.96133484126767 166.91945595346624,199.56367580477672 166.9095213433029,200.09651315570954 166.97906361415517,200.49034781003866 166.95919439388672,200.62934794177272 166.9989328344236,200.73359792600968 167.01880205469206,200.90734768157563 166.95919439388672,201.08109716442414 166.93932517367648,201.32434598222608 166.8995867331978,201.49809481052944 166.8995867331978,201.62551044468273 166.97906361415517,202.15833787108568 166.9095213433029,202.7143289730593 166.9095213433029,202.91124181872874 166.84991368255578,204.5212807697826 166.8598482926609,204.66027584025142 166.83004446228733,204.90351679360174 166.84991368255578,205.14675721251842 166.78037141170353,205.44791127647477 166.7704368015402,205.72589891608368 166.7207637508982,205.91122362139868 166.7207637508982,206.11971354403795 166.67109070025617,206.38611676269647 166.6313522597775,206.86100786698807 166.5916138192406,206.8957559165865 166.4127908369992,206.90733859738248 166.3333139559254,206.8957559165865 166.2439024648629,206.8494251813754 166.08494870277354,206.80309442675207 165.7968450090848,206.80309442675207 165.6180220268434,206.82625980649027 165.2703106723493,206.77992904216808 165.2206376217655,206.74518095621897 165.21070301160216,206.71043285934138 165.21070301160216,206.60618850333412 165.2703106723493,206.46719587592088 165.24050684197573,206.35136855315795 165.06168385967612,206.5482749297662 165.08155307994457,206.67568475157896 165.17096457112348,206.80309442675207 165.1808991812286,206.73359825846273 165.21070301160216,206.698850157969 165.20076840143884,206.65251934033586 165.1808991812286,206.71043285934138 165.06168385967612,206.7915117350567 164.99214158882387,206.94208663244353 165.002076198929,206.98841732893197 165.02194541919744,207.0 165.12129152042326,206.98841732893197 165.13122613058658,206.8841732346118 165.12129152042326,206.81467711721052 164.98220697866054,206.47877860152948 164.84312243689783,206.39769949678885 164.7835147761507,206.39769949678885 164.66429945459822,206.45561314911174" stroke="yellow" stroke-linecap="round" stroke-linejoin="round" stroke-width="0.5"><title>2025-03-07 6.9km</title><desc>13950596373</desc></polyline><polyline fill="none" points="32.23738867556676,213.0 32.330851554404944,213.3391681751018 32.42431443318492,213.37550756339624 32.746242126915604,213.36339443524776 33.182402228121646,213.3876206903078 33.66010138654383,213.3149419098918 33.8366423798725,213.36339443524776 34.09626148769166,213.3876206903078 34.729732110805344,213.3876206903078 34.81281022535404,213.41184694028925 34.989351218682714,213.55720433354873 35.01012074731989,213.6056567573396 35.03089027595706,213.67833535496175 35.02050551160937,213.83580549301405 34.97896645439323,214.07806682493538 34.97896645439323,214.38089277575637 34.94781216146657,214.57470096791803 34.906273104134016,214.67160494212294 34.88550357555505,215.1076718207696 34.85434928262839,215.31359171932854 34.86473404697608,215.4104950740657 34.85434928262839,215.54373705420585 34.80242546106456,215.70120465089713 34.76088640379021,216.1130419664696 34.729732110805344,216.2220574808889 34.67780828929972,216.6217801539824 34.63626923202537,216.815584588825 34.63626923202537,217.06995241643017 34.59473017480923,217.20319248373562 34.55319111747667,217.6513624919462 34.522036824550014,217.7361512169373 34.522036824550014,217.90572848040028 34.50126729597105,218.14798128233087 34.522036824550014,218.28122010699008 34.490882531623356,218.49924694334914 34.438958710059524,218.58403504642774 34.407804417132866,218.91107429005206 34.36626535985852,219.2017750632076 34.35588059556903,219.3592376767774 34.22087865951471,220.50991949581658 34.231263423804194,220.582593752486 34.17933960224036,220.86117797975749 34.1481853093137,221.23666000649973 34.11703101632884,221.36989527121477 34.08587672340218,221.587916282253 34.08587672340218,221.79382463736692 34.00279860891169,222.37521095442207 33.982029080274515,222.72646377080673 33.847027144161984,223.53797481727088 33.82625761558302,223.90133612605132 33.732794736744836,224.2041363443641 33.61856232932769,224.34948016743874 33.56663850770565,224.56749555944407 33.56663850770565,224.89451787660073 33.62894709361717,225.06408463984553 33.649716622254346,225.1852036041746 33.60817756498,225.7544610369805 33.61856232932769,225.9603619713671 33.54586897906847,226.37216274005914 33.54586897906847,226.48116858037247 33.45240610023029,227.2320949099958 33.42125180736184,227.65600278106285 33.348558457160834,228.1404670163247 33.32778892852366,228.38269837269763 33.28624987124931,228.58859462664986 33.22394128533779,228.93982856657385 33.213556521048304,229.13361235257616 33.17201746383216,229.3152843569842 33.1408631708473,229.61807039664563 33.1408631708473,229.86029865753517 33.10970887792064,230.00563537050766 33.17201746383216,230.34475365695835 33.16163269948447,230.58698039551382 33.182402228121646,230.829206626644 33.23432604968548,231.14409996850736 33.33817369281314,231.55588227546832 33.35894322145032,231.7859952788931 33.40048227866646,231.90710720204515 33.45240610023029,232.0282189983118 33.50432992185233,232.19777530001738 33.57702327199513,232.34310907496547 33.691255679528695,232.67010940086038 33.847027144161984,232.92444234836876 33.90933573007351,233.05766414519894 34.12741578067653,233.3604403854697 34.15857007360319,233.57843878756103 34.20010913081933,233.6026608068787 34.17933960224036,233.57843878756103 34.231263423804194,233.6026608068787 34.38703488849569,233.7479928161556 34.50126729597105,233.95387951667362 34.63626923202537,234.00232339293143 34.781655932427384,234.1234329947838 34.88550357555505,234.22032058499462 34.96858169004554,234.35354088890745 35.06204456888372,234.41409552176628 35.23858556221239,234.61998103636142 35.40474179119337,234.6805355296965 35.539743727305904,234.78953353782708 35.88244094961556,234.98330752082256 35.98628859280143,235.08019439057534 36.11090576456627,235.1407486429307 36.474372515571304,235.346632863766 36.72360685910098,235.382965335295 37.03514978842577,235.56462752164225 37.37784701085184,235.6615139043206 37.72054423316149,235.8552864262383 37.83477664057864,235.8068433261651 37.959393812401686,235.83106487871555 38.10478051274549,235.8068433261651 38.208628155931365,235.84317565311358 38.281321506074164,235.81895410309517 38.43709297082387,235.8068433261651 38.72786637156969,235.84317565311358 39.6521103954874,235.83106487871555 39.82865138881607,235.86739719806064 40.22327243280597,235.8795079686024 40.659432533953805,235.8552864262383 40.835973527282476,235.86739719806064 41.14751645666547,235.8552864262383 41.552522264944855,235.8916187379291 41.635600379435346,235.92795103821845 41.708293729578145,236.02483711653622 41.73944802256301,236.23071976339997 41.749832786852494,236.36393775135366 41.79137184412684,236.4850448799989 41.77060231543146,237.11479990436055 41.79137184412684,237.5265609507478 41.78098707977915,237.65977744598058 41.801756608416326,238.13208923807542 41.760217551200185,238.59228861602605 41.79137184412684,238.95560262088838 41.77060231543146,239.10092790328054 41.79137184412684,239.2946946623997 41.760217551200185,239.50057148825726 41.77060231543146,240.06975845248235 41.73944802256301,240.34829573328898 41.73944802256301,240.56628096343047 41.718678493925836,240.68738369151833 41.78098707977915,241.38977701393014 41.77060231543146,241.69253144077084 41.78098707977915,241.76519238529727 41.749832786852494,241.88629385807144 41.760217551200185,242.0437255831057 41.749832786852494,242.24959751554707 41.77060231543146,242.66134028117085 41.749832786852494,243.13363164856128 41.718678493925836,243.3879415860647 41.73944802256301,243.6059210874737 41.749832786852494,243.96921934359125 41.73944802256301,244.32040657314792 41.760217551200185,244.45361524336477 41.73944802256301,245.398181413344 41.708293729578145,245.80991297096625 41.718678493925836,245.95522964141128 41.708293729578145,246.1853139962186 41.72906325827353,246.4759462112852 41.708293729578145,246.99666043715843 41.73944802256301,247.27518103760667 41.69790896528866,247.61424868954055 41.718678493925836,247.7837821428402 41.69790896528866,248.40136619285477 41.718678493925836,248.5830079330335 41.666754672362,248.99472815481568 41.68752420094097,249.21269709077023 41.72906325827353,249.41855626426695 41.72906325827353,249.68496170971048 41.666754672362,250.2419892949838 41.708293729578145,251.22283569721912 41.718678493925836,251.9614923131012 41.68752420094097,252.21578284366842 41.57329179352382,252.79701624324662 41.56290702923434,252.97865108172846 41.41752032877412,253.45090032730513 41.3552117429208,253.74151428948244 41.033284049190115,254.57702536451689 40.90866687748348,255.08559436909127 40.8152039986453,255.56994372361805 40.659432533953805,255.9816390808046 40.607508712331764,256.23592077543435 40.36865913314978,256.96243682362547 40.22327243280597,257.32569313697604 40.192118139821105,257.45888683280646 40.12980955396779,257.6647313338326 40.07788573234575,257.737382246778 40.067500968056265,257.7252737644667 40.08827049663523,257.737382246778 40.07788573234575,257.8342500597355 40.04673143941909,258.0158769904592 40.01557714649243,258.08852768289216 39.93249903200194,258.1853952018864 39.766342802962754,258.330696328303 39.70403421705123,258.4275636445236 39.67287992412457,258.4275636445236 39.66249515983509,258.4154552344553 39.69364945276175,258.4517804609204 39.74557327432558,258.330696328303 39.71441898139892,258.34280474726984 39.69364945276175,258.3185879080702 39.75595803867327,258.22172050058 39.95326856063912,258.0764192373026 40.057116203708574,258.06431079047616 40.109040025330614,258.1127445702805 40.16096384689445,258.1006361272157 40.410198190424126,258.14906989175506 40.524430597841274,258.1248530120356 40.607508712331764,258.1369614525247 40.659432533953805,258.1248530120356 40.84635829157196,258.0158769904592 41.09559263510164,257.97955162710423 41.52136797195999,257.99166008283646 41.73944802256301,257.97955162710423 41.9056042516022,258.0037685372663 42.08214524493087,258.0037685372663 42.19637765234802,257.97955162710423 42.40407293860335,258.0037685372663 42.63253775349585,258.0037685372663 43.04792832606472,258.0522023423764 43.442549369996414,258.04009389301063 43.7644770637271,258.0037685372663 43.88909423549194,258.027985442357 44.52256485854741,258.0158769904592 45.06257260288112,258.06431079047616 45.176805010356475,258.04009389301063 45.509117468376644,258.06431079047616 46.01797091978369,258.0522023423764 46.20489667740185,258.08852768289216 46.568363428348675,258.06431079047616 46.87990635778988,258.06431079047616 47.170679758593906,258.027985442357 47.544531273888424,257.99166008283646 47.64837891701609,258.0522023423764 47.73145703150658,258.1732867664541 47.73145703150658,258.4881056759841 47.752226560085546,258.68183996380685 47.73145703150658,259.15406593140506 47.70030273857992,259.25093255832326 47.71068750292761,259.4688821724485 47.70030273857992,259.79580582385097 47.72107226715889,260.1711614697342 47.74184179585427,260.2801354614421 47.72107226715889,260.42543395741814 47.74184179585427,260.7160304019926 47.73145703150658,260.98240983510186 47.74184179585427,261.05505866498424 47.73145703150658,261.40619403305755 47.752226560085546,261.52727494738065 47.74184179585427,261.6604638068238 47.76261132443324,261.92684106581146 47.752226560085546,262.0479214353545 47.74184179585427,262.42326977586345 47.70030273857992,262.62910544565966 47.73145703150658,262.7501850804256 47.72107226715889,263.2102865370689 47.70030273857992,263.40401291887247 47.74184179585427,264.1304839623117 47.73145703150658,264.2757776237049 47.71068750292761,264.3968555355168 47.71068750292761,264.5905799309767 47.64837891701609,264.9295968426086 47.65876368130557,265.0506740703713 47.627609388378914,265.12332034621795 47.586070331104565,265.3049358363569 47.586070331104565,265.4139049936057 47.55491603817791,265.52287404824165 47.544531273888424,265.8376729631127 47.51337698090356,265.93453399537975 47.492607452266384,266.14036341982865 47.44068363076076,266.3461924781732 47.44068363076076,266.5399136104825 47.40952933777589,266.95156993989076 47.38875980919693,266.9878924868899 47.33683598757489,267.0 47.087601644103415,266.9757849725065 47.004523529612925,266.9273549022255 46.5579786641174,266.85470975885255 46.287974791950546,266.8304947008801 46.01797091978369,266.8668172859034 45.92450804094551,266.8304947008801 45.91412327659782,266.78206456983753 45.87258421938168,266.73363441849506 46.41259196365718,265.70448891134583 46.319129084877204,265.98296448112524 46.17374238447519,266.2372241987687 45.9348928052932,266.58834384286456 45.810275633470155,266.6973117917005 45.810275633470155,266.68520424688177 45.84142992645502,266.7094193352241 45.84142992645502,266.67309670079703 45.820660397817846,266.67309670079703 45.7791213405435,266.73363441849506 45.78950610483298,266.66098915348266" stroke="yellow" stroke-linecap="round" stroke-linejoin="round" stroke-width="0.5"><title>2023-07-15 7.1km</title><desc>13950596377</desc></polyline><polyline fill="none" points="92.30905137147056,213.0 92.30905137147056,213.24695478881767 92.2841414163704,213.34864192696114 92.29659639392048,213.47938242361124 92.14713666349417,214.19118963129586 92.1346816860023,214.48172213531507 92.04749684320996,214.91751974994258 92.03504186565988,215.048258767245 91.99767693306785,215.20805073204974 91.94785702292575,215.30973643198377 91.89803711278364,215.36784251277277 91.82330724754138,215.41142205738288 91.86067218019161,215.3968955440214 91.87312715768348,215.71647848600696 91.78594231494935,216.0796400260151 91.87312715768348,216.29753649345366 91.88558213523356,216.48637982163928 91.83576222509146,216.93669748937828 91.81085227004951,217.45964520372218 91.74857738235733,217.88090720599575 91.72366742725717,218.2731155060028 91.67384751717327,218.4910085267038 91.58666267432272,219.36257718552952 91.41229298885446,220.80065349650977 91.31265316857025,221.42526785485097 91.31265316857025,221.7157852024684 91.25037828087807,221.9772502949636 91.23792330332799,222.10798265635094 91.25037828087807,222.80521983568906 91.3375631236122,223.5460304977314 91.56175271928078,224.4756696512777 91.62402760697296,224.56282300244493 91.66139253956499,224.56282300244493 91.62402760697296,224.56282300244493 91.62402760697296,224.6645018428826 91.92294706782559,225.36172616916883 92.2343215062283,225.7829641677672 92.7076106526074,226.49470822364674 92.88198033813387,226.71258832687454 93.04389504611026,226.90141747279267 93.75382876564981,227.61315578888752 94.27693782217102,227.99081137139 94.91214167652652,228.33941561177198 95.57225548598217,228.67349385324633 96.30709916056367,228.90589563357935 97.0793077678536,229.06567163167347 98.31235054391436,229.13829702450312 101.27663519751513,229.16734717099462 101.41363995039137,229.19639731138886 101.50082479318371,229.2544975739438 101.57555465842597,229.3271228678932 101.612919591018,229.42879821555107 101.65028452366823,230.35839793813648 101.62537456850987,230.89581993558386 101.65028452366823,231.5349136545119 101.60046461346792,233.58289868898282 101.62537456850987,234.77391154077486 101.57555465842597,235.32584085820417 101.60046461346792,235.9649141664413 101.58800963591784,237.41734255374467 101.612919591018,237.9402130504459 101.5630996808759,238.60832248380757 101.62537456850987,238.94237599386543 101.62537456850987,239.5233367040055 101.60046461346792,240.59810760396067 101.57555465842597,240.85953710439207 101.5630996808759,240.87406095110055 101.53818972583394,240.85953710439207 101.58800963591784,240.93215632262581 101.5630996808759,240.91763248202915 101.5630996808759,240.8885847962665 101.55064470332582,241.54215625514917 101.5630996808759,242.0795349258551 101.55064470332582,244.40331062104087 101.52573474822566,244.86806108948076 101.55064470332582,245.65232397482032 101.50082479318371,246.3784893603879 101.53818972583394,247.61296179350757 101.52573474822566,248.76028514835343 101.4510048829834,249.34120474812516 101.20190533227287,250.3868538987299 100.7161612084019,251.8391313135362 100.59161143301753,252.27481157402508 100.42969672504114,253.0009423016454 100.09341233159648,254.07560880531673 99.8194028257858,254.8307748829684 99.79449287074385,254.88886441104114 99.80694784829393,254.87434203128214 99.80694784829393,254.88886441104114 99.70730802795151,254.74364054528996 99.64503314025933,254.61293893617403 99.64503314025933,254.48223720393435 99.70730802795151,254.32249047518417 99.68239807290956,254.30796803615522 99.5578482975252,254.40962507728545 99.53293834242504,254.35153534864367 99.50802838738309,254.3660577830742 99.48311843234114,254.35153534864367 99.45820847718278,254.27892315358622 99.45820847718278,254.14822110674868 99.59521323011722,254.27892315358622 99.70730802795151,254.30796803615522 99.7695829157019,254.30796803615522 99.83185780333588,254.35153534864367 99.85676775837783,254.51128204395354 99.91904264607001,254.61293893617403 99.90658766857814,254.59841652754403 99.89413269096985,254.8307748829684 99.79449287074385,255.04861048782186 99.80694784829393,255.16478933722829 99.89413269096985,255.25192341048387 100.19305215188069,255.3390574290388 100.31760192720685,255.62950376233493 100.39233179244911,255.70211525066406 100.44215170264943,255.73115983538446 100.67879627580987,255.74568212541635 101.15208542218897,255.71663754375186 101.50082479318371,255.74568212541635 102.48476801853394,255.76020441399305 103.28188658086583,255.8037712705118 104.0914601207478,255.76020441399305 105.57360244751908,255.8037712705118 105.74797213298734,255.84733811335173 105.78533706563758,255.89090494254197 105.81024702067953,256.0216053479817 105.78533706563758,256.4863169037999 105.79779204318766,257.09624845915823 105.84761195338797,257.8368760296289 105.8227019982296,258.5484556585143 105.76042711059563,259.1002904098423 105.81024702067953,259.4923821891716 105.84761195338797,259.63760108561837 105.95970675110584,259.71021047685645 106.14653141418239,259.73925422268803 106.88137508876389,259.6811667248985 107.76567849382991,259.69568860161235 108.48806719097774,259.6811667248985 108.62507194385398,259.71021047685645 108.7247117641964,259.79734169614676 108.74962171929656,259.898994716219 108.76207669673022,260.3782150937186 108.7247117641964,263.6455826560996 108.69980180909624,264.06670443495386 108.55034207866993,265.27197694711504 108.48806719097774,266.1287305614678 108.4631572359358,266.3465484338376 108.42579230334377,266.448196657293 108.4631572359358,266.448196657293 108.4631572359358,266.47723899318953 108.41333732573548,266.53532364673447 108.33860746055143,266.5643659643538 108.05214297719067,266.53532364673447 108.02723302214872,266.53532364673447 108.05214297719067,266.52080248561106 108.01477804459864,266.53532364673447 107.9898680895567,266.5062813229888 108.00232306710677,266.4917601588677 107.89022826927248,266.448196657293 107.3546642352012,266.40463314209774 107.15538459463278,266.3465484338376 107.03083481924841,266.36106961316545 106.81910020112991,266.33202725296724 106.48281580762705,266.36106961316545 106.39563096489292,266.33202725296724 106.32090109965065,266.25942132591445 106.33335607725894,266.3175060706126 106.18389634677442,266.3175060706126 106.32090109965065,267.0 106.38317598734284,266.7386197427113 106.35826603230089,266.60792942946136" stroke="yellow" stroke-linecap="round" stroke-linejoin="round" stroke-width="0.5"><title>2023-07-01 5.8km</title><desc>13950596319</desc></polyline></svg>