<?xml version="1.0" encoding="utf-8" ?>
<svg baseProfile="full" height="300mm" version="1.1" viewBox="0,0,200,300" width="200mm" xmlns="http://www.w3.org/2000/svg" xmlns:ev="http://www.w3.org/2001/xml-events" xmlns:xlink="http://www.w3.org/1999/xlink"><defs /><rect fill="#222222" height="300" width="200" x="0" y="0" /><text fill="#FFFFFF" style="font-size:12px; font-family:Arial; font-weight:bold;" x="10" y="20">Over 3km Workouts</text><text fill="#FFFFFF" style="font-size:4px; font-family:Arial" x="10" y="280">ATHLETE</text><text fill="#FFFFFF" style="font-size:9px; font-family:Arial" x="10" y="290">JaneZhou</text><text fill="#FFFFFF" style="font-size:4px; font-family:Arial" x="65" y="280">SPECIAL TRACKS</text><rect fill="yellow" height="2.6" width="2.6" x="65" y="283" /><text fill="#FFFFFF" style="font-size:3px; font-family:Arial" x="70" y="285.5">Over 5.0 km</text><rect fill="red" height="2.6" width="2.6" x="65" y="287" /><text fill="#FFFFFF" style="font-size:3px; font-family:Arial" x="70" y="289.5">Over 10.0 km</text><text fill="#FFFFFF" style="font-size:4px; font-family:Arial" x="120" y="280">STATISTICS</text><text fill="#FFFFFF" style="font-size:3px; font-family:Arial" x="120" y="285">Number: 8</text><text fill="#FFFFFF" style="font-size:3px; font-family:Arial" x="120" y="290">Weekly: 1.3</text><text fill="#FFFFFF" style="font-size:3px; font-family:Arial" x="141" y="285">Total: 40.6 km</text><text fill="#FFFFFF" style="font-size:3px; font-family:Arial" x="141" y="290">Avg: 5.1 km</text><text fill="#FFFFFF" style="font-size:3px; font-family:Arial" x="167" y="285">Min: 3.1 km</text><text fill="#FFFFFF" style="font-size:3px; font-family:Arial" x="167" y="290">Max: 7.1 km</text><polyline fill="none" points="24.876343980431557,58.347007723059505 26.766800981014967,58.347007723059505 27.712029485031962,58.89802827546373 28.184643734246492,72.12250423524529 30.075100736692548,77.08167415950447 34.328628992661834,82.04083941457793 38.582157250493765,84.24491136241704 45.198756758123636,85.34694699104875 49.92489926330745,84.24491136241704 54.17842751927674,82.04083941457793 57.48672727495432,77.632692752406 58.9045700263232,74.87759921327233 59.37718427553773,65.51027040649205 59.37718427553773,52.836799030192196 57.014113023877144,43.46943101938814 55.12365602143109,39.612274643499404 51.81535626761615,36.8571612178348 48.97967076301575,34.65306944027543 42.36307125352323,33.0 36.691700246185064,34.65306944027543 33.85601474158466,36.3061383604072 30.547714989632368,40.16329715726897 27.712029485031962,47.87760627735406 28.184643734246492,71.02046583965421 31.020329236984253,79.2857481832616 32.91078624129295,82.04083941457793 37.16431449726224,84.24491136241704 44.72614250704646,84.24491136241704 49.45228501409292,83.14287550374866 52.28797051683068,81.48982128407806 55.59627027064562,78.1837112866342 57.014113023877144,73.77556139649823 57.95934152416885,70.46944655664265 57.95934152416885,47.87760627735406 55.59627027064562,40.714319611899555 54.17842751927674,39.061252074316144 50.39751351438463,36.3061383604072 46.61659951135516,35.204092470463365 42.835685504600406,35.204092470463365 36.691700246185064,37.40818401938304 30.547714989632368,41.816364348866045 28.657257985323668,45.67351911077276 28.184643734246492,50.63271393766627 28.184643734246492,72.12250423524529 30.547714989632368,78.1837112866342 34.80124324373901,82.04083941457793 38.582157250493765,84.79592920653522 46.61659951135516,87.0 53.23319901898503,83.69389346148819 57.48672727495432,77.632692752406 59.37718427553773,69.9184272158891 58.431955775246024,65.51027040649205 58.431955775246024,52.28577784309164 57.48672727495432,45.67351911077276 55.12365602143109,40.16329715726897 49.45228501409292,34.65306944027543 42.835685504600406,33.0 40.0,33.0 36.21908599510789,34.65306944027543 30.547714989632368,39.612274643499404 28.657257985323668,43.46943101938814 28.184643734246492,47.87760627735406 27.712029485031962,69.9184272158891 28.184643734246492,74.32658033398911 31.965557739138603,80.93880309443921 35.27385749295354,83.69389346148819 40.94522850215435,85.89796471735463 44.72614250704646,86.44898238731548 49.45228501409292,84.79592920653522 56.541498770937324,79.2857481832616 58.9045700263232,74.32658033398911 59.37718427553773,69.3674078155309 57.95934152416885,64.40823062788695 58.431955775246024,47.87760627735406 56.541498770937324,41.816364348866045 54.17842751927674,38.510229447856545 51.34274201467633,35.75511544384062 46.61659951135516,33.55102320481092 40.47261424921453,33.55102320481092 35.74647174589336,35.204092470463365 30.547714989632368,41.26534200832248 28.184643734246492,51.73475659964606 28.657257985323668,72.12250423524529 30.547714989632368,77.632692752406 34.80124324373901,81.48982128407806 41.417842753231525,84.79592920653522 45.198756758123636,84.79592920653522 50.8701277654618,83.14287550374866 53.70581327006221,81.48982128407806 57.48672727495432,77.632692752406 60.32241277769208,69.9184272158891 60.32241277769208,58.89802827546373 59.37718427553773,49.53067104658112 55.12365602143109,40.16329715726897 51.81535626761615,36.3061383604072 48.0344422608614,34.65306944027543 39.054771499708295,34.10204635048285 33.383400494232774,36.8571612178348 30.547714989632368,40.714319611899555 28.657257985323668,48.97964951535687 29.129872234538198,56.14292493741959 28.657257985323668,71.57148506585509 29.602486485615373,75.42861803574488 33.383400494232774,80.93880309443921 36.691700246185064,83.69389346148819 42.36307125352323,85.34694699104875 47.08921376056969,84.24491136241704 52.28797051683068,81.48982128407806 56.06888452358544,78.1837112866342 57.95934152416885,74.32658033398911 58.9045700263232,68.81638835789636 59.37718427553773,61.102109908126295 57.014113023877144,46.775562807917595 53.23319901898503,39.061252074316144 51.34274201467633,36.3061383604072 47.56182800978422,34.10204635048285 43.780914006754756,33.55102320481092 38.582157250493765,34.10204635048285 34.80124324373901,36.3061383604072 30.547714989632368,40.16329715726897 28.657257985323668,49.53067104658112 29.129872234538198,73.77556139649823 32.43817199021578,80.93880309443921 36.691700246185064,84.79592920653522 42.36307125352323,86.44898238731548 48.97967076301575,84.79592920653522 55.59627027064562,79.83676654426381 57.95934152416885,74.32658033398911 58.9045700263232,69.9184272158891 57.95934152416885,62.20415037823841 58.9045700263232,48.97964951535687 57.014113023877144,41.26534200832248 54.17842751927674,37.95920676132664 49.92489926330745,34.65306944027543 45.198756758123636,33.55102320481092 38.582157250493765,34.10204635048285 33.85601474158466,37.40818401938304 30.547714989632368,41.816364348866045 28.184643734246492,49.53067104658112 29.129872234538198,72.6735233454965 30.547714989632368,77.08167415950447 32.91078624129295,80.93880309443921 39.52738575078547,84.24491136241704 43.780914006754756,84.79592920653522 48.50705651007593,83.69389346148819 52.76058476790786,82.04083941457793 55.59627027064562,79.2857481832616 57.48672727495432,73.22454240033403 57.48672727495432,45.67351911077276 54.65104177035391,38.510229447856545 46.61659951135516,34.65306944027543 38.582157250493765,35.204092470463365 34.328628992661834,37.95920676132664 30.547714989632368,43.46943101938814 28.657257985323668,48.97964951535687 26.766800981014967,67.71434927079827 27.239415232092142,71.02046583965421 28.657257985323668,74.87759921327233 32.43817199021578,80.93880309443921 36.691700246185064,84.24491136241704 41.890457002446055,86.44898238731548 48.0344422608614,87.0 51.34274201467633,85.34694699104875 55.12365602143109,82.04083941457793 57.95934152416885,78.1837112866342 58.9045700263232,71.57148506585509 57.48672727495432,63.85721065104008 57.48672727495432,50.08169252099469 56.541498770937324,43.46943101938814 53.70581327006221,39.061252074316144 49.45228501409292,35.204092470463365 42.835685504600406,34.10204635048285 38.109542997553945,35.204092470463365 31.965557739138603,39.612274643499404 29.602486485615373,45.67351911077276 28.657257985323668,72.6735233454965 31.965557739138603,79.83676654426381 35.74647174589336,83.14287550374866 42.36307125352323,85.34694699104875 48.97967076301575,84.24491136241704 53.23319901898503,81.48982128407806 56.541498770937324,77.632692752406 58.431955775246024,72.12250423524529 57.48672727495432,63.30619061831385 58.431955775246024,55.040883200243115 57.95934152416885,44.57147518126294 55.59627027064562,39.061252074316144 50.8701277654618,35.204092470463365 48.0344422608614,34.10204635048285 42.835685504600406,34.10204635048285 35.74647174589336,36.3061383604072 31.020329236984253,41.26534200832248 29.129872234538198,47.87760627735406 30.075100736692548,56.693945719860494 29.602486485615373,71.57148506585509 30.547714989632368,74.87759921327233 33.383400494232774,79.2857481832616 38.582157250493765,83.69389346148819 47.56182800978422,85.34694699104875 50.39751351438463,84.24491136241704 55.59627027064562,77.632692752406 57.95934152416885,72.12250423524529 57.48672727495432,62.20415037823841 58.431955775246024,50.63271393766627 57.95934152416885,45.122497173491865 54.17842751927674,37.95920676132664 49.45228501409292,34.65306944027543 43.780914006754756,34.10204635048285 40.94522850215435,34.10204635048285 36.21908599510789,36.3061383604072 31.492943489924073,41.26534200832248 29.129872234538198,50.63271393766627 29.602486485615373,60.55108958482742 29.129872234538198,65.51027040649205 29.602486485615373,71.57148506585509 31.965557739138603,78.73472976265475 36.21908599510789,82.04083941457793 42.835685504600406,84.24491136241704 51.34274201467633,82.04083941457793 56.541498770937324,76.53065550886095 58.431955775246024,71.02046583965421 57.48672727495432,63.85721065104008 58.431955775246024,52.28577784309164 57.95934152416885,47.326584570109844 55.59627027064562,41.26534200832248 52.28797051683068,36.8571612178348 48.0344422608614,34.65306944027543 43.780914006754756,34.10204635048285 34.80124324373901,37.40818401938304 30.547714989632368,41.26534200832248 29.129872234538198,48.97964951535687 27.239415232092142,53.93884122930467 26.294186733663082,54.48986224364489 22.04065847583115,52.28577784309164 20.62281572446227,53.38782015722245 20.15020147524774,55.591904097702354 20.15020147524774,54.48986224364489 21.568044224753976,53.93884122930467 19.677587224170566,55.040883200243115 20.15020147524774,55.591904097702354" stroke="#4DD2FF" stroke-linecap="round" stroke-linejoin="round" stroke-width="0.5"><title>2025-07-09 3.3km</title><desc>15057512390</desc></polyline><polyline fill="none" points="140.42305196262896,57.49491327209398 145.67540387809277,60.278419009409845 147.58535002544522,62.505222550127655 149.97278271242976,77.53612207947299 151.40524232387543,80.31961733289063 155.22513462603092,85.32990512112156 159.04502692818642,87.0 165.7298384513706,86.44330176478252 171.93716343864799,83.65980971511453 174.80208266340196,80.8763162093237 178.6219749636948,74.7526253699325 180.53192111477256,65.84542611567304 178.6219749636948,43.57736274506897 177.66700189001858,40.793848272413015 174.32459612935781,37.453628982417285 171.93716343864799,35.783518550451845 163.81989230029285,34.113407594617456 160.47748653776944,34.67011130601168 155.70262116380036,36.34022208629176 152.36021540127695,39.68044207431376 149.49529617466033,44.69076812826097 147.58535002544522,56.938211949542165 146.630376951769,58.60831574164331 145.67540387809277,59.16501688910648 145.67540387809277,58.051614535506815 147.10786348581314,59.16501688910648 149.01780963875353,64.73202515998855 149.97278271242976,75.30932482751086 151.40524232387543,78.64952035574242 155.22513462603092,82.54641248704866 161.4324596133083,86.44330176478252 164.29737883992493,87.0 166.68481152690947,86.44330176478252 174.32459612935781,80.31961733289063 178.14448842778802,74.19592585461214 180.05443457700312,65.28872566623613 179.57694803923368,49.70108946226537 179.09946150146425,43.57736274506897 176.71202881634235,38.56703564571217 171.45967690087855,34.113407594617456 164.29737883992493,33.0 160.47748653776944,34.113407594617456 155.22513462603092,36.89692556299269 151.40524232387543,41.907254237215966 149.49529617466033,47.474280561320484 148.5403231009841,71.41242739604786 149.01780963875353,74.7526253699325 151.40524232387543,78.64952035574242 155.22513462603092,82.54641248704866 160.47748653776944,85.32990512112156 167.1622980646789,85.32990512112156 174.32459612935781,82.54641248704866 178.14448842778802,76.42272357037291 179.09946150146425,71.41242739604786 178.14448842778802,64.17532459460199 179.57694803923368,58.051614535506815 179.09946150146425,46.91757819149643 178.6219749636948,43.57736274506897 176.23454227671027,38.56703564571217 172.41464997641742,35.783518550451845 167.1622980646789,33.55670382734388 163.34240576438606,33.55670382734388 158.0900538507849,35.22681495686993 155.22513462603092,36.89692556299269 151.40524232387543,40.23714520316571 149.97278271242976,44.13406546507031 148.5403231009841,49.70108946226537 148.5403231009841,72.52582695381716 150.92775578983128,78.64952035574242 154.27016155049205,82.54641248704866 160.00000000186265,85.32990512112156 164.77486537583172,86.44330176478252 169.54973075166345,85.32990512112156 176.23454227671027,79.2062194054015 179.09946150146425,73.08252664469182 180.05443457700312,68.62892748368904 179.57694803923368,59.721717978827655 178.6219749636948,53.04130106512457 179.09946150146425,44.69076812826097 177.1895153503865,39.68044207431376 174.32459612935781,35.783518550451845 167.1622980646789,33.0 161.9099461529404,33.0 157.13508077524602,34.67011130601168 151.40524232387543,41.907254237215966 149.49529617466033,48.58768512913957 148.5403231009841,56.38151056971401 149.01780963875353,73.63922627922148 150.4502692501992,78.09282124694437 153.31518847681582,81.98971378663555 157.6125673148781,84.77320670988411 161.9099461529404,85.8866034722887 169.07224421203136,84.77320670988411 171.93716343864799,83.10311112971976 175.75705573894083,79.76291839918122 178.14448842778802,75.30932482751086 179.09946150146425,72.52582695381716 180.53192111477256,59.721717978827655 178.6219749636948,43.57736274506897 175.75705573894083,38.56703564571217 169.54973075166345,34.67011130601168 163.81989230029285,33.55670382734388 160.95497307553887,34.113407594617456 156.1801077015698,36.34022208629176 152.36021540127695,40.793848272413015 149.01780963875353,48.58768512913957 148.06283656321466,55.824809131678194 145.67540387809277,59.721717978827655 147.10786348581314,61.94852175144479 147.10786348581314,65.84542611567304 149.49529617466033,75.86602422734722 152.83770193718374,80.31961733289063 159.04502692818642,84.77320670988411 165.7298384513706,85.32990512112156 169.54973075166345,84.77320670988411 173.84710958972573,81.98971378663555 178.6219749636948,75.30932482751086 179.09946150146425,61.3918208964169 178.6219749636948,42.46395713137463 177.1895153503865,39.68044207431376 174.80208266340196,37.453628982417285 170.98219036497176,35.22681495686993 164.29737883992493,34.113407594617456 155.70262116380036,36.34022208629176 150.4502692501992,43.02065996732563 149.01780963875353,49.70108946226537 149.49529617466033,59.16501688910648 148.5403231009841,74.19592585461214 149.97278271242976,78.64952035574242 153.79267501458526,83.10311112971976 157.13508077524602,85.32990512112156 161.4324596133083,86.44330176478252 167.63978460244834,85.32990512112156 174.32459612935781,81.98971378663555 177.1895153503865,78.64952035574242 179.57694803923368,68.62892748368904 178.6219749636948,64.17532459460199 176.23454227671027,65.28872566623613 179.57694803923368,63.61862397193909 180.05443457700312,62.505222550127655 180.05443457700312,51.9278974304907 179.09946150146425,46.36087576346472 177.1895153503865,40.23714520316571 170.02721729129553,34.67011130601168 165.25235191360116,33.55670382734388 162.38743268698454,33.55670382734388 156.65759423933923,36.89692556299269 152.83770193718374,40.793848272413015 150.4502692501992,43.57736274506897 148.06283656321466,54.15470446506515 146.1528904121369,57.49491327209398 143.28797118738294,58.60831574164331 139.4680788870901,56.38151056971401 148.5403231009841,59.721717978827655 149.49529617466033,61.94852175144479 149.49529617466033,73.08252664469182 150.4502692501992,77.53612207947299 152.83770193718374,81.43301502615213 155.70262116380036,84.21650824137032 158.0900538507849,85.32990512112156 162.38743268698454,85.8866034722887 169.07224421203136,84.77320670988411 173.3696230519563,82.54641248704866 177.66700189001858,76.42272357037291 179.57694803923368,71.96912720380351 179.57694803923368,68.62892748368904 179.57694803923368,51.9278974304907 178.6219749636948,43.57736274506897 176.71202881634235,39.123738889116794 173.84710958972573,36.89692556299269 170.02721729129553,34.67011130601168 165.7298384513706,34.113407594617456 159.04502692818642,35.22681495686993 151.8827288635075,41.350551282987 149.01780963875353,50.25779154151678 148.5403231009841,70.29902760777622 150.4502692501992,75.86602422734722 152.36021540127695,79.76291839918122 157.13508077524602,84.21650824137032 160.95497307553887,85.32990512112156 167.63978460244834,84.77320670988411 173.84710958972573,81.43301502615213 177.66700189001858,76.97942285332829 178.6219749636948,50.814493561629206 176.71202881634235,41.350551282987 173.84710958972573,38.010332342237234 169.07224421203136,35.22681495686993 160.00000000186265,35.22681495686993 155.70262116380036,38.010332342237234 151.8827288635075,41.907254237215966 149.97278271242976,46.91757819149643 149.01780963875353,54.711406079586595 149.49529617466033,71.96912720380351 152.36021540127695,79.2062194054015 154.27016155049205,81.43301502615213 160.95497307553887,84.77320670988411 164.77486537583172,85.32990512112156 170.02721729129553,84.21650824137032 175.75705573894083,78.64952035574242 178.14448842778802,75.30932482751086 178.14448842778802,69.185627582483 179.09946150146425,61.94852175144479 178.6219749636948,58.051614535506815 179.57694803923368,54.711406079586595 179.57694803923368,49.144387325737625 177.66700189001858,41.350551282987 173.84710958972573,36.89692556299269 166.68481152690947,34.113407594617456 161.9099461529404,34.113407594617456 156.65759423933923,36.34022208629176 151.8827288635075,41.350551282987 149.49529617466033,47.474280561320484 148.5403231009841,70.29902760777622 150.4502692501992,79.2062194054015 152.36021540127695,81.98971378663555 161.9099461529404,85.8866034722887 165.7298384513706,85.8866034722887 170.02721729129553,83.65980971511453 176.23454227671027,77.53612207947299 178.6219749636948,71.96912720380351 178.14448842778802,63.61862397193909 178.6219749636948,57.49491327209398 178.14448842778802,47.474280561320484 176.71202881634235,41.907254237215966 173.3696230519563,36.89692556299269 165.25235191360116,33.55670382734388 157.13508077524602,35.783518550451845 153.79267501458526,38.56703564571217 151.40524232387543,41.907254237215966 149.49529617466033,46.36087576346472 146.630376951769,55.824809131678194 145.19791733846068,58.051614535506815 142.3329981137067,59.16501688910648 139.4680788870901,57.49491327209398" stroke="#4DD2FF" stroke-linecap="round" stroke-linejoin="round" stroke-width="0.5"><title>2025-07-07 3.1km</title><desc>15035124835</desc></polyline><polyline fill="none" points="67.0,133.8417916179751 66.84680851083249,133.39528947562212 65.23829787224531,133.48458992282394 62.02127659553662,132.05578164820326 62.327659574337304,126.87633160472615 62.097872340120375,126.69772931846092 58.26808510674164,126.78703046613373 57.885106382891536,130.80557244608644 59.34042553184554,134.1096927910694 62.17446808516979,133.48458992282394 62.40425531938672,129.91256475198315 61.944680850952864,126.51912699500099 61.7148936172016,126.51912699500099 58.497872340492904,127.05493385356385 58.34468085132539,127.32283715659287 57.96170212747529,130.80557244608644 59.11063829809427,133.93109201820334 59.417021276429296,134.02039240917657 62.327659574337304,133.3059890192817 62.7872340423055,131.43067727604648 62.710638297721744,130.62697098206263 62.94042553193867,130.26976794173243 61.25531914876774,129.198157924111 58.03829787252471,127.59074037574464 24.948936169967055,112.32012269797269 22.497872340958565,110.62337053689407 20.429787234403193,108.5694028819562 17.44255319191143,106.60473354405258 16.06382978754118,105.89030720893061 15.374468085356057,105.89030720893061 14.608510638587177,106.06891384872142 13.536170213017613,107.14055290294345 13.306382978800684,107.94428131036693 13.38297872338444,110.44476485002087 13.306382978800684,112.14151736587519 13.689361702185124,113.21314879623242 14.378723404370248,113.83826650917763 15.527659574523568,114.1954764254624 16.676595744676888,113.9275690021459 17.748936170246452,113.03454365127254 18.131914893630892,112.14151736587519 18.055319149047136,108.12288752058521 17.672340426128358,106.78334003413329 16.82978723431006,106.06891384872142 15.604255319107324,105.89030720893061 14.914893617387861,106.06891384872142 14.148936170618981,106.42612701636972 13.459574468433857,107.14055290294345 13.229787234216928,108.03358441998716 13.076595745049417,110.17685624951264 13.153191489633173,112.4987279920606 13.459574468433857,112.94524106482277 14.225531915202737,113.65966149501037 14.991489361971617,114.01687148597557 15.834042553324252,114.10617396055022 16.982978723477572,113.7489640066633 17.748936170246452,112.94524106482277 17.97872340446338,112.40942534967326 18.208510638214648,111.6057011464145 18.208510638214648,110.89127899700543 18.131914893630892,108.39079676545225 17.902127659879625,107.22985609661555 17.672340426128358,106.78334003413329 16.982978723477572,106.24752045120113 16.217021276708692,105.97961053368635 15.374468085356057,105.89030720893061 14.225531915202737,106.33682373835472 13.689361702185124,106.87264326546574 13.459574468433857,107.22985609661555 13.229787234216928,108.39079676545225 13.306382978800684,110.53406769805588 13.153191489633173,111.42709566507256 13.38297872338444,112.76663586363429 13.99574468145147,113.48105644347379 14.761702127754688,114.01687148597557 15.91063829837367,114.1954764254624 17.519148936495185,113.39175390376477 17.902127659879625,112.76663586363429 18.208510638214648,112.14151736587519 18.131914893630892,108.03358441998716 17.902127659879625,107.22985609661555 17.44255319191143,106.51543028472224 16.293617021292448,105.97961053368635 15.680851064156741,105.89030720893061 14.608510638587177,106.24752045120113 14.225531915202737,106.42612701636972 13.459574468433857,107.40846245596185 13.153191489633173,108.65870592632564 13.153191489633173,111.33779291034443 13.229787234216928,112.67733324924484 13.76595744676888,113.39175390376477 14.455319148954004,113.83826650917763 15.680851064156741,114.1954764254624 16.676595744676888,113.9275690021459 17.672340426128358,113.21314879623242 18.208510638214648,112.23082003666786 18.131914893630892,109.90894756536 18.208510638214648,108.48009982844815 17.97872340446338,107.40846245596185 17.59574468107894,106.78334003413329 17.059574468061328,106.24752045120113 16.44680851045996,105.97961053368635 15.451063829939812,105.89030720893061 14.838297872804105,106.06891384872142 14.148936170618981,106.42612701636972 13.612765957601368,107.0512496996671 13.38297872338444,107.40846245596185 13.306382978800684,108.21219061157899 13.229787234216928,112.05221468606032 13.459574468433857,112.76663586363429 14.072340425569564,113.57035897404421 15.068085106555372,114.01687148597557 16.293617021292448,114.01687148597557 17.2127659576945,113.48105644347379 17.902127659879625,112.85593846888514 18.285106383264065,111.9629119966994 18.131914893630892,109.10522100760136 18.208510638214648,108.48009982844815 17.97872340446338,107.49776562181069 17.748936170246452,107.0512496996671 16.906382978893816,106.24752045120113 16.06382978754118,105.97961053368635 15.221276596188545,105.97961053368635 14.53191489353776,106.15821715461789 13.842553191352636,106.60473354405258 13.38297872338444,107.67637192527764 13.229787234216928,108.5694028819562 13.229787234216928,112.05221468606032 13.919148936402053,113.39175390376477 14.378723404370248,113.7489640066633 15.297872340772301,114.1954764254624 16.140425532124937,114.1954764254624 16.906382978893816,113.9275690021459 17.519148936495185,113.39175390376477 18.055319149047136,112.67733324924484 18.208510638214648,111.33779291034443 18.131914893630892,108.03358441998716 17.672340426128358,106.87264326546574 16.370212765876204,105.97961053368635 15.680851064156741,105.89030720893061 14.838297872804105,106.06891384872142 13.919148936402053,106.69403679377865 13.229787234216928,107.85497819143347 13.153191489633173,110.89127899700543 13.229787234216928,112.32012269797269 13.536170213017613,113.03454365127254 14.148936170618981,113.65966149501037 14.53191489353776,113.9275690021459 15.451063829939812,114.10617396055022 16.217021276708692,114.10617396055022 17.365957446862012,113.48105644347379 17.97872340446338,112.67733324924484 18.208510638214648,112.05221468606032 18.131914893630892,108.03358441998716 17.902127659879625,107.40846245596185 17.519148936495185,106.69403679377865 16.906382978893816,106.24752045120113 16.06382978754118,105.89030720893061 15.297872340772301,105.97961053368635 13.99574468145147,106.51543028472224 13.153191489633173,107.76567506318679 13.0,109.01591800991446 13.229787234216928,111.9629119966994 13.536170213017613,112.94524106482277 14.685106383170933,114.10617396055022 16.06382978754118,114.01687148597557 16.82978723431006,113.7489640066633 17.44255319191143,113.39175390376477 17.902127659879625,112.76663586363429 18.208510638214648,112.23082003666786 18.055319149047136,107.67637192527764 17.59574468107894,106.87264326546574 16.982978723477572,106.33682373835472 16.293617021292448,105.97961053368635 15.451063829939812,105.97961053368635 14.685106383170933,106.24752045120113 13.689361702185124,107.0512496996671 13.229787234216928,108.03358441998716 13.076595745049417,111.15918737323955 13.153191489633173,112.14151736587519 13.689361702185124,113.3024513546261 14.302127659786493,113.83826650917763 15.221276596188545,114.1954764254624 16.140425532124937,114.10617396055022 16.906382978893816,113.83826650917763 17.97872340446338,113.12384622823447 18.97446808544919,113.21314879623242 19.1276595746167,113.39175390376477" stroke="#4DD2FF" stroke-linecap="round" stroke-linejoin="round" stroke-width="0.5"><title>2025-06-15 3.3km</title><desc>14807579363</desc></polyline><polyline fill="none" points="170.39537155092694,146.75030337207136 170.6424881487037,146.84634057682706 170.8237069871975,146.88475544466928 171.53210790117737,146.7695108170301 171.89454557810677,146.75030337207136 172.40525321371388,146.84634057682706 172.8500630898052,147.0 172.96538416889962,146.94237773140776 172.98185860877857,146.21249409698066 173.04775636817794,145.96279639800196 173.11365412763553,145.17528604599647 173.2454496464925,144.84875637273944 173.22897520667175,144.57984914693225 173.31134740589187,143.984410316727 173.29487296607113,143.5234240895079 173.34429628564976,142.35174555207777 173.3278218457708,141.71788355411263 173.37724516534945,141.14164347498445 173.34429628564976,140.6998581894004 173.41019404504914,138.89428988323198 173.3937196052284,138.52933242967993 173.3278218457708,138.01070743182208 173.34429628564976,137.89545723328774 173.41019404504914,137.7802069624595 173.45961736468598,137.33841358713107 173.41019404504914,136.666117280256 173.4266684849281,136.18590412499907 173.3937196052284,136.05144421641307 173.22897520667175,135.89777562886593 173.19602632691385,135.66727250628173 173.19602632691385,134.99497007894388 173.22897520667175,134.80288321882836 173.2125007667346,134.6876310063235 173.22897520667175,134.5531700002466 173.19602632691385,134.4379176309012 173.22897520667175,134.24583018785052 173.2125007667346,133.86165469884872 173.19602632691385,133.72719308765954 173.11365412763553,133.55431372864405 173.09717968775658,133.4390607321402 173.01480748847825,133.30459881147544 172.58647205214947,133.28538995762938 171.7956989389495,133.34301651309943 171.49915902141947,133.3238076632988 171.30146574310493,133.24697224384 171.2849913033424,133.18934565816016 171.2849913033424,132.99725690853666 171.13672134454828,133.01646579257795 170.922553626413,132.95883913453144 170.3459482313483,132.97804802253086 170.06588275375543,132.93963024452387 169.78581727616256,132.95883913453144 169.39043071947526,132.92042135243537 169.1433141216403,132.95883913453144 168.51728540705517,132.90121245835326 167.24875353783136,132.90121245835326 166.9686880602385,132.86279466419364 166.85336698126048,132.92042135243537 166.80394366162363,132.97804802253086 166.70509702246636,132.99725690853666 165.98022166878218,132.97804802253086 165.68368175125215,132.86279466419364 165.6672073114314,132.80516795790754 165.68368175125215,132.57466095183918 165.5518862323952,132.47861628049577 164.53047096112277,132.49782521877205 163.32783685141476,132.44019839793327 162.89950141508598,132.38257155894826 162.6853336969507,132.22889989987016 162.5041148585733,131.97918317953008 162.4382170990575,132.05601912972634 162.30642158020055,132.13285504770465 162.04283054248663,132.19048196505173 161.53212290687952,132.15206402214244 161.40032738796435,132.28652678712388 161.21910854952876,132.36336260855023 161.0873130306718,132.47861628049577 160.5436565153068,132.51703415504016 159.6046134433709,132.4017805072799 159.39044572517741,132.42098945358885 159.01153360842727,132.4017805072799 158.74794257071335,132.42098945358885 158.0395416567917,132.36336260855023 157.62768066028366,132.38257155894826 157.38056406244868,132.36336260855023 157.2817174232914,132.4017805072799 156.83690754702548,132.36336260855023 155.6836967569543,132.3441536562168 155.1070913618314,132.28652678712388 153.98682945145993,132.3249447018752 152.53707874391694,132.19048196505173 152.0922688677092,132.19048196505173 151.6474589915597,132.22889989987016 151.13675135595258,132.15206402214244 150.3789271223941,132.17127299463027 150.09886164480122,132.11364607121504 149.78584728745045,132.13285504770465 149.60462844901485,132.03681014516042 149.4069351707003,132.07522811219678 148.97859973442974,132.05601912972634 148.1713521812926,132.09443709267362 148.00660778273595,131.90234719727596 147.95718446321553,131.72946611950465 147.89128670369973,131.6334210059722 147.59474678622792,131.5950029464584 147.56179790652823,131.55658487892651 147.4794257071917,131.4029125283705 147.2652579890564,131.2108219092188 147.16641134995734,130.8458491790807 147.19936022959882,130.5000848705531 147.10051359044155,130.09669235399633 147.28173242893536,128.75204422930256 147.28173242893536,128.0412976695079 147.49590014707064,127.27291991416132 147.5123745869496,127.00398693986062 147.6606445456855,126.23560484185873 147.75949118490098,125.58247752932948 147.80891450447962,124.79487973767391 147.80891450447962,124.14174729814113 147.8748122638208,123.62308164627757 147.92423558339942,122.91231522413727 147.90776114357868,122.6625858277257 147.94071002327837,122.45127607305767 147.90776114357868,122.27838609283208 147.75949118490098,121.99023576387845 147.74301674496382,121.79813529318199 147.7759656246635,121.60603462142171 147.92423558339942,121.31788323681394 148.00660778273595,121.04894153631176 147.97365890297806,120.77999944159819 147.89128670369973,120.51105695284787 147.95718446321553,120.26132428892015 148.12192886171397,119.8771195269801 148.13840330159292,119.64659628382651 148.07250554213533,119.37765213406237 148.13840330159292,118.99344552212278 148.0889799820725,118.85897301792284 147.85833782400005,118.5323965260759 147.79244006454246,118.30187159366324 147.6606445456855,118.1289777043421 147.59474678622792,117.95608365212684 147.4464768275502,117.82161038777849 147.43000238767127,117.72555799580005 147.34763018839294,117.62950555353018 147.36410462821368,116.8418736304593 147.49590014707064,116.36160860372183 147.54532346664928,116.03502766751626 147.64417010580655,115.6700247569388 147.6606445456855,115.49712838801497 147.4464768275502,114.67106571025215 147.0016669513425,113.82578842324438 146.88634587230626,113.42235925450223 146.86987143248552,112.53865416662302 146.91929475200595,112.25048854388297 146.91929475200595,111.3475666622544 147.0016669513425,110.6175414671161 147.0016669513425,109.82987944652268 147.0840391506208,109.25353924056981 147.0840391506208,108.60035148539464 147.1169880303205,108.13927637584857 147.10051359044155,107.98558441523346 147.16641134995734,107.73583470461017 147.16641134995734,107.31318057375029 147.1499369100784,106.9481603136228 147.1169880303205,106.79446735522652 147.13346247019945,106.54471602330159 147.03461583104217,105.10383631635341 146.95224363176385,104.41221003771352 146.9028203121852,103.45161365902459 146.7874992332072,102.45258809007646 146.7874992332072,102.2988913658337 146.68865259399172,101.43434489307401 146.70512703387067,101.31907172223146 146.7545503534493,101.2422229014337 146.77102479332825,101.1461618301546 146.7545503534493,101.05010070861317 146.70512703387067,101.01167624589289 146.67217815417098,100.93482729633979 146.55685707507655,99.97421271078929 146.54038263531402,99.05201797668997 146.5733315150137,98.8791059480427 146.55685707507655,98.4948564118531 146.5733315150137,98.24509378176299 146.55685707507655,97.59186683391454 146.5733315150137,97.05391348342528 146.62275483459234,96.4967458502797 146.70512703387067,96.20855503120401 146.85339699260658,96.01642756695219 146.968718071701,95.92036375941825 147.16641134995734,95.88193822230096 147.46295126737095,95.90115099183458 147.82538894424215,95.86272545068641 148.12192886171397,95.74744877901685 148.3855198994861,95.49768240848789 148.418468779244,95.40161832924059 148.46789209876442,94.9981486472825 148.51731541834306,94.88287143225898 149.02802305395016,94.84444567786704 149.70347508817213,94.90208430649363 149.88469392666593,94.84444567786704 150.26360604341608,94.80601991541334 150.8896347580012,94.67152968337177 150.90610919793835,94.6138909822912 150.87316031812225,94.46018769094371 150.87316031812225,94.36412306842976 150.90610919793835,94.19120662120986 151.0379047167371,93.9606511046004 151.08732803637395,93.78773427703709 151.12027691601543,93.55717825342435 151.08732803637395,93.28819585962628 151.1038024761947,93.17291757008934 151.15322579577332,93.1152783981961 151.41681683354545,93.0 151.5815612320439,93.0192130713549 151.53213791252347,93.1152783981961 151.9110500292154,93.691669302425" stroke="yellow" stroke-linecap="round" stroke-linejoin="round" stroke-width="0.5"><title>2025-06-10 5.1km</title><desc>14754484246</desc></polyline><polyline fill="none" points="63.22447374777403,206.76155622633814 64.20162870979402,207.0 64.3152513797395,206.76155622633814 64.49704765167553,206.01972971738724 64.95153833169024,201.59521933853102 64.86064019566402,200.61492813541554 64.79246659378987,199.5551495931868 64.90608926373534,195.28949610941345 64.3152513797395,194.94506132644892 63.451719087781385,194.54763599489524 53.27112785587087,189.77848336215538 52.86208624392748,189.51352780434536 51.97582941793371,188.7716507678124 51.79403314588126,188.50669415657467 51.70313500997145,188.0827630018175 51.74858407792635,187.79130992124556 51.68041047581937,187.36737756883667 51.72585954389069,186.86395697848639 51.68041047581937,186.2810476761806 51.58951233990956,185.9895925216988 51.38499153382145,185.72463299926312 51.362266999902204,185.5921531341446 51.38499153382145,185.30069718667073 51.27136886387598,184.6912882126635 51.362266999902204,184.2408545499202 51.43044060189277,183.71093156798452 51.407716067973524,182.91604501548863 51.18047072796617,182.54509710357524 50.7487045818707,182.1476523092133 50.40783657191787,182.12115596735384 49.68065148394089,182.2271413180424 49.04436453199014,182.2271413180424 48.7489455898758,182.12115596735384 48.40807758003939,181.7767032716365 48.27173037594184,181.72371050767833 47.27185087988619,181.72371050767833 46.74918659788091,181.67071773247153 46.4537676559994,181.72371050767833 46.09017511201091,181.6442213407281 45.34026548999827,181.6972141214501 44.544906799914315,181.59122854903399 43.77227264398243,181.61772494626348 42.74966861400753,181.51173934062535 42.24972886603791,181.6442213407281 41.95430992403999,181.61772494626348 41.27257390401792,181.67071773247153 40.74990962201264,181.56473214902508 40.24996987404302,181.51173934062535 39.70458105800208,181.40575369058934 39.091018640086986,181.37925727108086 38.50018075609114,181.45874652115162 37.363954056054354,181.43225010720198 36.77311617205851,181.53823574617854 36.31862549204379,181.72371050767833 36.000482016126625,181.67071773247153 35.77323667611927,181.72371050767833 35.00060252007097,181.59122854903399 34.568836374091916,181.72371050767833 34.1143456940772,181.43225010720198 34.00072302413173,181.37925727108086 33.59168141207192,181.56473214902508 32.29638297413476,181.6442213407281 31.978239498101175,181.51173934062535 31.796443226165138,181.29976799615542 31.637371488148347,181.22027869624435 31.43285068217665,180.87582477483375 31.160156274214387,180.7963353418163 30.751114662154578,180.769838858585 30.342073050211184,180.769838858585 29.387642622110434,180.87582477483375 28.81952927215025,180.7963353418163 27.36515909631271,180.8228318222682 25.59264544432517,180.74334237254516 24.820011288276874,180.769838858585 23.933754462283105,180.63735640089726 22.661180558265187,180.71684588382777 21.911270936368965,180.69034939231642 21.025014110375196,180.63735640089726 20.638697032351047,180.557866892952 18.95708151627332,180.53137038482237 18.002651088288985,180.47837736012298 17.389088670373894,180.557866892952 16.79825078637805,180.53137038482237 16.59372998040635,180.47837736012298 16.07106569840107,180.5048738739133 15.752922222367488,180.557866892952 15.571125950431451,180.557866892952 15.480227814405225,180.47837736012298 15.389329678262584,180.18691552619566 15.389329678262584,179.73647385019285 15.571125950431451,179.47150778402283 15.639299552422017,179.23303808740457 15.616575018386357,179.07405816492974 15.457503280369565,178.80909140553558 15.52567688236013,178.27915705485793 15.366605144343339,177.77571839441953 15.366605144343339,177.48425344926363 15.50295234832447,176.74234116554726 15.639299552422017,175.54997758335958 15.593850484350696,175.09952765754133 15.662024086341262,174.59608267432486 15.88926942634862,174.06613950525934 15.9574430284556,173.82766471726063 16.07106569840107,172.50280069347355 16.161963834427297,172.23782705675694 16.161963834427297,172.02584794766153 16.252861970337108,171.6548840796895 16.252861970337108,171.2839196681598 16.298311038292013,171.07193976035342 16.36648464028258,170.27701352530858 16.321035572327673,169.93254471491673 16.389209174434654,169.80005658607115 16.321035572327673,169.56157777959015 16.36648464028258,169.19061030061857 16.298311038292013,169.1111171986995 16.434658242273144,168.84614001197042 16.389209174434654,168.6606558162748 16.45738277642522,167.94521550263744 16.548280912451446,167.44175629215897 16.525556378415786,166.99129193929548 16.275586504372768,166.62032069392444 16.207412902382202,166.35534090007422 16.298311038292013,165.93137265300902 16.57100544637069,165.37491325124574 16.59372998040635,165.1629283955117 16.548280912451446,164.9244452205312 16.548280912451446,164.44747819668555 16.707352650351822,163.94401202992594 16.866424388368614,163.70552770661016 16.88914892228786,163.49354145293182 16.775526252342388,162.99007338882075 16.79825078637805,162.56609950565326 16.752801718423143,162.35411229771853 16.684628116432577,162.2216202026466 16.616454514325596,162.16862334520556 16.502831844380125,162.11562647666142 15.752922222367488,162.0626295969996 15.662024086341262,162.0361311530287 15.616575018386357,161.9301373493654 15.662024086341262,161.74464808608172 15.639299552422017,161.21467801372637 15.707473154412583,160.94969256148033 15.843820358393714,160.87019687164866 16.139239300391637,160.81719973123109 16.298311038292013,160.65820824349066 16.616454514325596,160.6317096525163 16.184688368346542,160.71120541724667 15.911993960267864,160.71120541724667 15.752922222367488,160.60521105877706 15.707473154412583,160.4462194378575 15.639299552422017,159.70425722002983 15.752922222367488,159.1477841293963 16.02561663032975,158.40581810564618 16.093790232320316,157.71684770760476 16.02561663032975,156.92187953353277 15.93471849441994,156.55089353121002 15.752922222367488,156.15340792525967 15.298431542469189,155.41143312427448 15.162084338371642,155.09344325806887 15.093910736381076,154.8284513977269 15.048461668426171,154.29846684471704 15.162084338371642,153.90097770170541 15.343880610424094,153.74198186972353 15.321156076388434,153.29149313674134 15.275707008317113,153.13249692192767 15.298431542469189,153.02649938990362 15.41205421241466,153.0 15.93471849441994,153.1059975430544 16.321035572327673,153.05299877710058 16.57100544637069,153.1854956713214 17.252741466392763,153.05299877710058 17.707232146291062,153.1854956713214 17.84357935038861,153.71548255471862 17.889028418343514,154.13947126240237 17.866303884307854,154.32496609872032 17.775405748398043,154.53696003083314 17.798130282317288,154.801952196387 17.707232146291062,155.25243824107747 17.52543587423861,155.7294225910009 17.41181320429314,156.2859031966218 17.41181320429314,157.1603702479042 17.639058544300497,157.95533767297457 17.93447748629842,158.35282044929045 18.04810015624389,158.77680138936557 18.002651088288985,158.93579405877972 17.91175295226276,159.041789116367 17.45726227236446,159.28027783334255 16.775526252342388,160.04873994873196 16.707352650351822,160.20773181930417 16.616454514325596,160.68470683172927 16.684628116432577,161.0556867756386 16.616454514325596,161.18817948095966 16.59372998040635,161.34717063582502 16.707352650351822,161.61215567209 16.752801718423143,162.0361311530287 16.820975320297293,162.19512177535216 16.911873456439935,162.4866043234506 16.866424388368614,163.4140465620294 16.820975320297293,163.70552770661016 16.59372998040635,164.20899434774765 16.525556378415786,164.47397638829716 16.502831844380125,164.7124599875242 16.616454514325596,165.1629283955117 16.616454514325596,165.3484151540324 16.548280912451446,165.53390177659458 16.275586504372768,166.0108667534514 16.230137436417863,166.19635289066355 16.252861970337108,166.5673247573286 16.502831844380125,166.93829608043598 16.57100544637069,167.30926685984014 16.480107310344465,168.52816702194104 16.4119337083539,168.87263774315943 16.434658242273144,169.1376149020798 16.36648464028258,169.58807543582225 16.434658242273144,170.06503277434967 16.389209174434654,170.11802797872224 16.34376010647975,170.4889940986468 16.321035572327673,171.46940194186755 16.116514766355976,172.37031390979246 16.116514766355976,172.58229273039615 16.002892096410505,173.11223900559708 15.93471849441994,173.85416192706907 15.707473154412583,174.49009412931628 15.616575018386357,175.9739297225169 15.457503280369565,176.82183187131886 15.366605144343339,177.11329757906788 15.43477874645032,177.11329757906788 15.41205421241466,177.4312597867247 15.457503280369565,177.6432343699853 15.43477874645032,177.85520877575618 15.54840141639579,178.1996668066422 15.54840141639579,178.46463420377404 15.480227814405225,178.5971177983447 15.480227814405225,178.78259471431375 15.639299552422017,179.2595347314782 15.593850484350696,179.49800440306717 15.43477874645032,179.68348065907776 15.343880610424094,179.86895677926077 15.321156076388434,180.0014396389888 15.389329678262584,180.18691552619566 15.571125950431451,180.34589474996028 15.752922222367488,180.42538432437868 16.139239300391637,180.34589474996028 16.321035572327673,180.37239127751673 16.321035572327673,180.39888780229376 16.298311038292013,180.37239127751673 16.36648464028258,180.31939821962442 16.298311038292013,180.29290168646548 16.775526252342388,180.34589474996028 17.252741466392763,180.31939821962442 17.29819053434767,180.42538432437868 16.843699854332954,180.42538432437868 16.820975320297293,180.557866892952 16.88914892228786,180.66385289802565 17.184567864402197,180.84932829995523 17.684507612371817,180.9553141829092 18.84345884632785,180.90232124693284 19.729715672321618,180.9553141829092 23.070222170324996,180.98181064672826 32.500903780106455,181.2732715656457" stroke="yellow" stroke-linecap="round" stroke-linejoin="round" stroke-width="0.5"><title>2025-04-19 6.0km</title><desc>14222567780</desc></polyline><polyline fill="none" points="155.14694295299705,153.0 155.13700834295014,153.20858965446678 155.08733529230813,153.3592374934815 155.0774006821448,153.62576778283255 155.0376622416079,153.71847381984117 155.04759685177123,154.00817968438787 155.00785841123434,154.25153202403453 154.95818536065053,154.76141137981904 154.9482507505454,155.01635017600347 154.8588392593665,155.21334793406277 154.88864308974007,155.20175984037633 154.86877386947162,155.4103453412099 154.78929698845604,155.88545529080875 154.77936237835092,156.03609948271333 154.73962393787224,156.31421129779483 154.7296893277089,156.65026214102545 154.68995088723022,156.85884490940225 154.65021244669333,157.33394863514695 154.62040861631976,157.43823942363815 154.6303432264831,157.54253011379478 154.5508663454675,157.9481040849787 154.52106251503574,158.35367656848393 154.45152024418348,158.7940107235845 154.45152024418348,158.9794140537415 154.30250109225744,159.9296012421255 154.30250109225744,160.14976540118369 154.22302421124186,160.60167993336654 154.21308960107854,160.77549272325268 154.16341655049473,161.08835505655588 154.1534819403896,161.34327926631522 154.04420122894226,162.10804836972966 154.03426661883714,162.33979553871177 153.96472434792668,163.06979594684526 153.86537824670086,163.7650299509114 153.80577058595372,164.37914968578116 153.74616292514838,164.70358892378135 153.68655526440125,165.31770344701363 153.5772745530121,165.9434015296647 153.51766689226497,166.0592711565114 153.42825540108606,166.14037982306763 153.4481246213545,166.12879287435499 153.3984515707125,166.4764008080965 153.3984515707125,166.62703057340696 153.4481246213545,166.81242077219213 153.47792845172808,166.96305007989577 153.42825540108606,167.40334995695594 153.4381900112494,167.57715205751447 153.38851696060738,167.86682161819772 153.37858235044405,168.14490368270344 153.2693016391131,168.81693245228234 153.19975936814444,169.41943753298256 153.19975936814444,169.6279962193512 153.12028248718707,170.0914585589053 152.98119794536615,171.37755637992814 152.98119794536615,171.95687483784423 153.02093638590304,172.37398224890785 153.08054404665018,172.69839803683863 153.18982475803932,173.15026129877515 153.32890929986024,173.544191867295 153.36864774033893,173.6832258506838 153.47792845172808,173.92653490108933 153.55740533274366,174.1698434163918 153.94485512771644,174.78390538483654 153.97465895809,174.86500765415258 153.96472434792668,175.01562599655153 154.12367810995784,175.1430721261131 154.22302421124186,175.25893211649236 154.25282804161543,175.31686206615996 154.38197797327302,175.3863779657404 154.56080095557263,175.56016752356663 154.6303432264831,175.60651135952503 154.96811997081386,175.96567543006677 155.10720451257657,176.06994865150045 155.50458891765447,176.29008068505937 155.79269261134323,176.48704055436974 156.27948850754183,176.71875759870454 156.76628440374043,176.86937341727025 156.91530355566647,176.96205997290963 157.39216484170174,177.08950386013748 157.9485030088108,177.12426125843194 158.1173913810053,177.10108966080588 158.26641053287312,177.14743285124132 158.45516812527785,177.12426125843194 158.8326833100873,177.14743285124132 159.51817140885396,177.10108966080588 159.67712517088512,177.13584705546236 159.87581737345317,177.14743285124132 159.99503269494744,177.13584705546236 160.44209015066735,177.15901864581247 160.61097852286184,177.12426125843194 160.720259234251,177.13584705546236 160.9487552671344,177.13584705546236 161.10770902922377,177.18219023138226 161.14744746970246,177.22853338784626 161.2169897405547,177.3328054190133 161.24679357098648,177.68037814632407 161.23685896082316,177.86574982107413 161.24679357098648,177.98160696004197 161.22692435071804,178.14380675082793 161.2567281811498,178.34076331988035 161.2567281811498,178.4218629816969 161.22692435071804,178.51454823669337 161.28653201146517,178.88528848025453 161.28653201146517,179.12858608990064 161.2070551304496,179.90481774420186 161.26666279119672,180.28713879605493 161.24679357098648,180.4609206556197 161.23685896082316,181.23714296250546 161.2567281811498,181.4225086780134 161.22692435071804,181.6194594105109 161.2070551304496,181.89750690658548 161.2169897405547,182.2334800321114 161.24679357098648,182.56945213746076 161.22692435071804,182.76640082837548 161.24679357098648,183.0212750844512 161.2169897405547,183.1602971584798 161.24679357098648,183.94808561201353 161.2070551304496,184.4346580313795 161.23685896082316,185.50047585438733 161.2567281811498,185.87119269082177 161.2169897405547,186.23032344173407 161.18718591018114,186.38092631300242 161.17725130007602,186.60103783302475 161.19712052034447,187.21503081171977 161.22692435071804,187.38880179097032 161.19712052034447,187.55098779204855 161.2070551304496,188.21131405667256 161.18718591018114,188.3966680894082 161.18718591018114,188.70945231559745 161.19712052034447,188.97589744056313 161.22692435071804,189.2307573946382 161.17725130007602,189.48561676176905 161.18718591018114,189.63621520283777 161.15738207980758,189.82156684895745 161.2070551304496,190.04167152549053 161.14744746970246,190.81782662814658 161.1673166899709,191.45496480832662 161.2070551304496,191.86041446772288 161.17725130007602,192.4280414954119 161.127578249434,193.0883386605783 160.9884937076713,193.73704782863206 160.75999767472968,194.5247609924263 160.69045540387742,194.67535257657437 160.5016978114145,195.26613296654978 160.44209015066735,195.59048164368141 160.39241710002534,195.7526556258017 160.34274404944154,195.85691020314698 160.26326716842595,196.26234373700572 160.1043134063948,196.78361324124126 160.024836525321,196.94578547519632 159.8857519835583,197.3048802905687 159.78640588233247,197.67555758772505 159.72679822152713,197.86089577078383 159.67712517088512,197.95356474591972 159.65725595067488,197.89564664555655 159.7963404924376,197.87247939690133 160.07450957602123,197.9303975094299 160.12418262660503,198.02306642637996 160.17385567724705,198.2431547932283 160.22352872788906,198.28948913050408 160.30300560890464,198.31265629186237 160.5513708620565,198.26632196428545 161.2169897405547,198.25473837939353 161.40574733301764,198.31265629186237 161.71372024691664,198.28948913050408 162.68731203937205,198.34740702479758 163.05489261407638,198.31265629186237 163.29332325712312,198.30107271180168 163.52181929006474,198.33582344837487 163.69070766220102,198.31265629186237 164.13776511792094,198.33582344837487 164.32652271026745,198.32423987073707 164.5649533533724,198.34740702479758 164.8331878267927,198.34740702479758 165.051749249571,198.38215774684795 165.73723734833766,198.35899060001248 165.91606033057906,198.38215774684795 166.3333139559254,198.32423987073707 166.54194076859858,198.33582344837487 166.70089453062974,198.31265629186237 166.83997907239245,198.33582344837487 166.91945595346624,198.41690845796984 166.9492597838398,198.6369960417287 166.95919439388672,198.96133484126767 166.91945595346624,199.56367580477672 166.9095213433029,200.09651315570954 166.97906361415517,200.49034781003866 166.95919439388672,200.62934794177272 166.9989328344236,200.73359792600968 167.01880205469206,200.90734768157563 166.95919439388672,201.08109716442414 166.93932517367648,201.32434598222608 166.8995867331978,201.49809481052944 166.8995867331978,201.62551044468273 166.97906361415517,202.15833787108568 166.9095213433029,202.7143289730593 166.9095213433029,202.91124181872874 166.84991368255578,204.5212807697826 166.8598482926609,204.66027584025142 166.83004446228733,204.90351679360174 166.84991368255578,205.14675721251842 166.78037141170353,205.44791127647477 166.7704368015402,205.72589891608368 166.7207637508982,205.91122362139868 166.7207637508982,206.11971354403795 166.67109070025617,206.38611676269647 166.6313522597775,206.86100786698807 166.5916138192406,206.8957559165865 166.4127908369992,206.90733859738248 166.3333139559254,206.8957559165865 166.2439024648629,206.8494251813754 166.08494870277354,206.80309442675207 165.7968450090848,206.80309442675207 165.6180220268434,206.82625980649027 165.2703106723493,206.77992904216808 165.2206376217655,206.74518095621897 165.21070301160216,206.71043285934138 165.21070301160216,206.60618850333412 165.2703106723493,206.46719587592088 165.24050684197573,206.35136855315795 165.06168385967612,206.5482749297662 165.08155307994457,206.67568475157896 165.17096457112348,206.80309442675207 165.1808991812286,206.73359825846273 165.21070301160216,206.698850157969 165.20076840143884,206.65251934033586 165.1808991812286,206.71043285934138 165.06168385967612,206.7915117350567 164.99214158882387,206.94208663244353 165.002076198929,206.98841732893197 165.02194541919744,207.0 165.12129152042326,206.98841732893197 165.13122613058658,206.8841732346118 165.12129152042326,206.81467711721052 164.98220697866054,206.47877860152948 164.84312243689783,206.39769949678885 164.7835147761507,206.39769949678885 164.66429945459822,206.45561314911174" stroke="yellow" stroke-linecap="round" stroke-linejoin="round" stroke-width="0.5"><title>2025-03-07 6.9km</title><desc>13950596373</desc></polyline><polyline fill="none" points="32.23738867556676,213.0 32.330851554404944,213.3391681751018 32.42431443318492,213.37550756339624 32.746242126915604,213.36339443524776 33.182402228121646,213.3876206903078 33.66010138654383,213.3149419098918 33.8366423798725,213.36339443524776 34.09626148769166,213.3876206903078 34.729732110805344,213.3876206903078 34.81281022535404,213.41184694028925 34.989351218682714,213.55720433354873 35.01012074731989,213.6056567573396 35.03089027595706,213.67833535496175 35.02050551160937,213.83580549301405 34.97896645439323,214.07806682493538 34.97896645439323,214.38089277575637 34.94781216146657,214.57470096791803 34.906273104134016,214.67160494212294 34.88550357555505,215.1076718207696 34.85434928262839,215.31359171932854 34.86473404697608,215.4104950740657 34.85434928262839,215.54373705420585 34.80242546106456,215.70120465089713 34.76088640379021,216.1130419664696 34.729732110805344,216.2220574808889 34.67780828929972,216.6217801539824 34.63626923202537,216.815584588825 34.63626923202537,217.06995241643017 34.59473017480923,217.20319248373562 34.55319111747667,217.6513624919462 34.522036824550014,217.7361512169373 34.522036824550014,217.90572848040028 34.50126729597105,218.14798128233087 34.522036824550014,218.28122010699008 34.490882531623356,218.49924694334914 34.438958710059524,218.58403504642774 34.407804417132866,218.91107429005206 34.36626535985852,219.2017750632076 34.35588059556903,219.3592376767774 34.22087865951471,220.50991949581658 34.231263423804194,220.582593752486 34.17933960224036,220.86117797975749 34.1481853093137,221.23666000649973 34.11703101632884,221.36989527121477 34.08587672340218,221.587916282253 34.08587672340218,221.79382463736692 34.00279860891169,222.37521095442207 33.982029080274515,222.72646377080673 33.847027144161984,223.53797481727088 33.82625761558302,223.90133612605132 33.732794736744836,224.2041363443641 33.61856232932769,224.34948016743874 33.56663850770565,224.56749555944407 33.56663850770565,224.89451787660073 33.62894709361717,225.06408463984553 33.649716622254346,225.1852036041746 33.60817756498,225.7544610369805 33.61856232932769,225.9603619713671 33.54586897906847,226.37216274005914 33.54586897906847,226.48116858037247 33.45240610023029,227.2320949099958 33.42125180736184,227.65600278106285 33.348558457160834,228.1404670163247 33.32778892852366,228.38269837269763 33.28624987124931,228.58859462664986 33.22394128533779,228.93982856657385 33.213556521048304,229.13361235257616 33.17201746383216,229.3152843569842 33.1408631708473,229.61807039664563 33.1408631708473,229.86029865753517 33.10970887792064,230.00563537050766 33.17201746383216,230.34475365695835 33.16163269948447,230.58698039551382 33.182402228121646,230.829206626644 33.23432604968548,231.14409996850736 33.33817369281314,231.55588227546832 33.35894322145032,231.7859952788931 33.40048227866646,231.90710720204515 33.45240610023029,232.0282189983118 33.50432992185233,232.19777530001738 33.57702327199513,232.34310907496547 33.691255679528695,232.67010940086038 33.847027144161984,232.92444234836876 33.90933573007351,233.05766414519894 34.12741578067653,233.3604403854697 34.15857007360319,233.57843878756103 34.20010913081933,233.6026608068787 34.17933960224036,233.57843878756103 34.231263423804194,233.6026608068787 34.38703488849569,233.7479928161556 34.50126729597105,233.95387951667362 34.63626923202537,234.00232339293143 34.781655932427384,234.1234329947838 34.88550357555505,234.22032058499462 34.96858169004554,234.35354088890745 35.06204456888372,234.41409552176628 35.23858556221239,234.61998103636142 35.40474179119337,234.6805355296965 35.539743727305904,234.78953353782708 35.88244094961556,234.98330752082256 35.98628859280143,235.08019439057534 36.11090576456627,235.1407486429307 36.474372515571304,235.346632863766 36.72360685910098,235.382965335295 37.03514978842577,235.56462752164225 37.37784701085184,235.6615139043206 37.72054423316149,235.8552864262383 37.83477664057864,235.8068433261651 37.959393812401686,235.83106487871555 38.10478051274549,235.8068433261651 38.208628155931365,235.84317565311358 38.281321506074164,235.81895410309517 38.43709297082387,235.8068433261651 38.72786637156969,235.84317565311358 39.6521103954874,235.83106487871555 39.82865138881607,235.86739719806064 40.22327243280597,235.8795079686024 40.659432533953805,235.8552864262383 40.835973527282476,235.86739719806064 41.14751645666547,235.8552864262383 41.552522264944855,235.8916187379291 41.635600379435346,235.92795103821845 41.708293729578145,236.02483711653622 41.73944802256301,236.23071976339997 41.749832786852494,236.36393775135366 41.79137184412684,236.4850448799989 41.77060231543146,237.11479990436055 41.79137184412684,237.5265609507478 41.78098707977915,237.65977744598058 41.801756608416326,238.13208923807542 41.760217551200185,238.59228861602605 41.79137184412684,238.95560262088838 41.77060231543146,239.10092790328054 41.79137184412684,239.2946946623997 41.760217551200185,239.50057148825726 41.77060231543146,240.06975845248235 41.73944802256301,240.34829573328898 41.73944802256301,240.56628096343047 41.718678493925836,240.68738369151833 41.78098707977915,241.38977701393014 41.77060231543146,241.69253144077084 41.78098707977915,241.76519238529727 41.749832786852494,241.88629385807144 41.760217551200185,242.0437255831057 41.749832786852494,242.24959751554707 41.77060231543146,242.66134028117085 41.749832786852494,243.13363164856128 41.718678493925836,243.3879415860647 41.73944802256301,243.6059210874737 41.749832786852494,243.96921934359125 41.73944802256301,244.32040657314792 41.760217551200185,244.45361524336477 41.73944802256301,245.398181413344 41.708293729578145,245.80991297096625 41.718678493925836,245.95522964141128 41.708293729578145,246.1853139962186 41.72906325827353,246.4759462112852 41.708293729578145,246.99666043715843 41.73944802256301,247.27518103760667 41.69790896528866,247.61424868954055 41.718678493925836,247.7837821428402 41.69790896528866,248.40136619285477 41.718678493925836,248.5830079330335 41.666754672362,248.99472815481568 41.68752420094097,249.21269709077023 41.72906325827353,249.41855626426695 41.72906325827353,249.68496170971048 41.666754672362,250.2419892949838 41.708293729578145,251.22283569721912 41.718678493925836,251.9614923131012 41.68752420094097,252.21578284366842 41.57329179352382,252.79701624324662 41.56290702923434,252.97865108172846 41.41752032877412,253.45090032730513 41.3552117429208,253.74151428948244 41.033284049190115,254.57702536451689 40.90866687748348,255.08559436909127 40.8152039986453,255.56994372361805 40.659432533953805,255.9816390808046 40.607508712331764,256.23592077543435 40.36865913314978,256.96243682362547 40.22327243280597,257.32569313697604 40.192118139821105,257.45888683280646 40.12980955396779,257.6647313338326 40.07788573234575,257.737382246778 40.067500968056265,257.7252737644667 40.08827049663523,257.737382246778 40.07788573234575,257.8342500597355 40.04673143941909,258.0158769904592 40.01557714649243,258.08852768289216 39.93249903200194,258.1853952018864 39.766342802962754,258.330696328303 39.70403421705123,258.4275636445236 39.67287992412457,258.4275636445236 39.66249515983509,258.4154552344553 39.69364945276175,258.4517804609204 39.74557327432558,258.330696328303 39.71441898139892,258.34280474726984 39.69364945276175,258.3185879080702 39.75595803867327,258.22172050058 39.95326856063912,258.0764192373026 40.057116203708574,258.06431079047616 40.109040025330614,258.1127445702805 40.16096384689445,258.1006361272157 40.410198190424126,258.14906989175506 40.524430597841274,258.1248530120356 40.607508712331764,258.1369614525247 40.659432533953805,258.1248530120356 40.84635829157196,258.0158769904592 41.09559263510164,257.97955162710423 41.52136797195999,257.99166008283646 41.73944802256301,257.97955162710423 41.9056042516022,258.0037685372663 42.08214524493087,258.0037685372663 42.19637765234802,257.97955162710423 42.40407293860335,258.0037685372663 42.63253775349585,258.0037685372663 43.04792832606472,258.0522023423764 43.442549369996414,258.04009389301063 43.7644770637271,258.0037685372663 43.88909423549194,258.027985442357 44.52256485854741,258.0158769904592 45.06257260288112,258.06431079047616 45.176805010356475,258.04009389301063 45.509117468376644,258.06431079047616 46.01797091978369,258.0522023423764 46.20489667740185,258.08852768289216 46.568363428348675,258.06431079047616 46.87990635778988,258.06431079047616 47.170679758593906,258.027985442357 47.544531273888424,257.99166008283646 47.64837891701609,258.0522023423764 47.73145703150658,258.1732867664541 47.73145703150658,258.4881056759841 47.752226560085546,258.68183996380685 47.73145703150658,259.15406593140506 47.70030273857992,259.25093255832326 47.71068750292761,259.4688821724485 47.70030273857992,259.79580582385097 47.72107226715889,260.1711614697342 47.74184179585427,260.2801354614421 47.72107226715889,260.42543395741814 47.74184179585427,260.7160304019926 47.73145703150658,260.98240983510186 47.74184179585427,261.05505866498424 47.73145703150658,261.40619403305755 47.752226560085546,261.52727494738065 47.74184179585427,261.6604638068238 47.76261132443324,261.92684106581146 47.752226560085546,262.0479214353545 47.74184179585427,262.42326977586345 47.70030273857992,262.62910544565966 47.73145703150658,262.7501850804256 47.72107226715889,263.2102865370689 47.70030273857992,263.40401291887247 47.74184179585427,264.1304839623117 47.73145703150658,264.2757776237049 47.71068750292761,264.3968555355168 47.71068750292761,264.5905799309767 47.64837891701609,264.9295968426086 47.65876368130557,265.0506740703713 47.627609388378914,265.12332034621795 47.586070331104565,265.3049358363569 47.586070331104565,265.4139049936057 47.55491603817791,265.52287404824165 47.544531273888424,265.8376729631127 47.51337698090356,265.93453399537975 47.492607452266384,266.14036341982865 47.44068363076076,266.3461924781732 47.44068363076076,266.5399136104825 47.40952933777589,266.95156993989076 47.38875980919693,266.9878924868899 47.33683598757489,267.0 47.087601644103415,266.9757849725065 47.004523529612925,266.9273549022255 46.5579786641174,266.85470975885255 46.287974791950546,266.8304947008801 46.01797091978369,266.8668172859034 45.92450804094551,266.8304947008801 45.91412327659782,266.78206456983753 45.87258421938168,266.73363441849506 46.41259196365718,265.70448891134583 46.319129084877204,265.98296448112524 46.17374238447519,266.2372241987687 45.9348928052932,266.58834384286456 45.810275633470155,266.6973117917005 45.810275633470155,266.68520424688177 45.84142992645502,266.7094193352241 45.84142992645502,266.67309670079703 45.820660397817846,266.67309670079703 45.7791213405435,266.73363441849506 45.78950610483298,266.66098915348266" stroke="yellow" stroke-linecap="round" stroke-linejoin="round" stroke-width="0.5"><title>2023-07-15 7.1km</title><desc>13950596377</desc></polyline><polyline fill="none" points="152.30905137147056,213.0 152.30905137147056,213.24695478881767 152.2841414163704,213.34864192696114 152.29659639392048,213.47938242361124 152.14713666349417,214.19118963129586 152.1346816860023,214.48172213531507 152.04749684320996,214.91751974994258 152.03504186565988,215.048258767245 151.99767693306785,215.20805073204974 151.94785702292575,215.30973643198377 151.89803711278364,215.36784251277277 151.82330724754138,215.41142205738288 151.8606721801916,215.3968955440214 151.87312715768348,215.71647848600696 151.78594231494935,216.0796400260151 151.87312715768348,216.29753649345366 151.88558213523356,216.48637982163928 151.83576222509146,216.93669748937828 151.8108522700495,217.45964520372218 151.74857738235733,217.88090720599575 151.72366742725717,218.2731155060028 151.67384751717327,218.4910085267038 151.58666267432272,219.36257718552952 151.41229298885446,220.80065349650977 151.31265316857025,221.42526785485097 151.31265316857025,221.7157852024684 151.25037828087807,221.9772502949636 151.237923303328,222.10798265635094 151.25037828087807,222.80521983568906 151.3375631236122,223.5460304977314 151.56175271928078,224.4756696512777 151.62402760697296,224.56282300244493 151.66139253956499,224.56282300244493 151.62402760697296,224.56282300244493 151.62402760697296,224.6645018428826 151.9229470678256,225.36172616916883 152.2343215062283,225.7829641677672 152.7076106526074,226.49470822364674 152.88198033813387,226.71258832687454 153.04389504611026,226.90141747279267 153.7538287656498,227.61315578888752 154.27693782217102,227.99081137139 154.91214167652652,228.33941561177198 155.57225548598217,228.67349385324633 156.30709916056367,228.90589563357935 157.0793077678536,229.06567163167347 158.31235054391436,229.13829702450312 161.27663519751513,229.16734717099462 161.41363995039137,229.19639731138886 161.5008247931837,229.2544975739438 161.57555465842597,229.3271228678932 161.612919591018,229.42879821555107 161.65028452366823,230.35839793813648 161.62537456850987,230.89581993558386 161.65028452366823,231.5349136545119 161.60046461346792,233.58289868898282 161.62537456850987,234.77391154077486 161.57555465842597,235.32584085820417 161.60046461346792,235.9649141664413 161.58800963591784,237.41734255374467 161.612919591018,237.9402130504459 161.5630996808759,238.60832248380757 161.62537456850987,238.94237599386543 161.62537456850987,239.5233367040055 161.60046461346792,240.59810760396067 161.57555465842597,240.85953710439207 161.5630996808759,240.87406095110055 161.53818972583394,240.85953710439207 161.58800963591784,240.93215632262581 161.5630996808759,240.91763248202915 161.5630996808759,240.8885847962665 161.55064470332582,241.54215625514917 161.5630996808759,242.0795349258551 161.55064470332582,244.40331062104087 161.52573474822566,244.86806108948076 161.55064470332582,245.65232397482032 161.5008247931837,246.3784893603879 161.53818972583394,247.61296179350757 161.52573474822566,248.76028514835343 161.4510048829834,249.34120474812516 161.20190533227287,250.3868538987299 160.7161612084019,251.8391313135362 160.59161143301753,252.27481157402508 160.42969672504114,253.0009423016454 160.09341233159648,254.07560880531673 159.8194028257858,254.8307748829684 159.79449287074385,254.88886441104114 159.80694784829393,254.87434203128214 159.80694784829393,254.88886441104114 159.7073080279515,254.74364054528996 159.64503314025933,254.61293893617403 159.64503314025933,254.48223720393435 159.7073080279515,254.32249047518417 159.68239807290956,254.30796803615522 159.5578482975252,254.40962507728545 159.53293834242504,254.35153534864367 159.5080283873831,254.3660577830742 159.48311843234114,254.35153534864367 159.45820847718278,254.27892315358622 159.45820847718278,254.14822110674868 159.59521323011722,254.27892315358622 159.7073080279515,254.30796803615522 159.7695829157019,254.30796803615522 159.83185780333588,254.35153534864367 159.85676775837783,254.51128204395354 159.91904264607,254.61293893617403 159.90658766857814,254.59841652754403 159.89413269096985,254.8307748829684 159.79449287074385,255.04861048782186 159.80694784829393,255.16478933722829 159.89413269096985,255.25192341048387 160.1930521518807,255.3390574290388 160.31760192720685,255.62950376233493 160.3923317924491,255.70211525066406 160.44215170264943,255.73115983538446 160.67879627580987,255.74568212541635 161.15208542218897,255.71663754375186 161.5008247931837,255.74568212541635 162.48476801853394,255.76020441399305 163.28188658086583,255.8037712705118 164.0914601207478,255.76020441399305 165.57360244751908,255.8037712705118 165.74797213298734,255.84733811335173 165.78533706563758,255.89090494254197 165.81024702067953,256.0216053479817 165.78533706563758,256.4863169037999 165.79779204318766,257.09624845915823 165.84761195338797,257.8368760296289 165.8227019982296,258.5484556585143 165.76042711059563,259.1002904098423 165.81024702067953,259.4923821891716 165.84761195338797,259.63760108561837 165.95970675110584,259.71021047685645 166.1465314141824,259.73925422268803 166.8813750887639,259.6811667248985 167.7656784938299,259.69568860161235 168.48806719097774,259.6811667248985 168.62507194385398,259.71021047685645 168.7247117641964,259.79734169614676 168.74962171929656,259.898994716219 168.76207669673022,260.3782150937186 168.7247117641964,263.6455826560996 168.69980180909624,264.06670443495386 168.55034207866993,265.27197694711504 168.48806719097774,266.1287305614678 168.4631572359358,266.3465484338376 168.42579230334377,266.448196657293 168.4631572359358,266.448196657293 168.4631572359358,266.47723899318953 168.41333732573548,266.53532364673447 168.33860746055143,266.5643659643538 168.05214297719067,266.53532364673447 168.02723302214872,266.53532364673447 168.05214297719067,266.52080248561106 168.01477804459864,266.53532364673447 167.9898680895567,266.5062813229888 168.00232306710677,266.4917601588677 167.89022826927248,266.448196657293 167.3546642352012,266.40463314209774 167.15538459463278,266.3465484338376 167.0308348192484,266.36106961316545 166.8191002011299,266.33202725296724 166.48281580762705,266.36106961316545 166.39563096489292,266.33202725296724 166.32090109965065,266.25942132591445 166.33335607725894,266.3175060706126 166.18389634677442,266.3175060706126 166.32090109965065,267.0 166.38317598734284,266.7386197427113 166.3582660323009,266.60792942946136" stroke="yellow" stroke-linecap="round" stroke-linejoin="round" stroke-width="0.5"><title>2023-07-01 5.8km</title><desc>13950596319</desc></polyline></svg>