<?xml version="1.0" encoding="utf-8" ?>
<svg baseProfile="full" height="300mm" version="1.1" viewBox="0,0,200,300" width="200mm" xmlns="http://www.w3.org/2000/svg" xmlns:ev="http://www.w3.org/2001/xml-events" xmlns:xlink="http://www.w3.org/1999/xlink"><defs /><rect fill="#222222" height="300" width="200" x="0" y="0" /><text fill="#FFFFFF" style="font-size:12px; font-family:Arial; font-weight:bold;" x="10" y="20">Over 3km Workouts</text><text fill="#FFFFFF" style="font-size:4px; font-family:Arial" x="10" y="280">ATHLETE</text><text fill="#FFFFFF" style="font-size:9px; font-family:Arial" x="10" y="290">JaneZhou</text><text fill="#FFFFFF" style="font-size:4px; font-family:Arial" x="65" y="280">SPECIAL TRACKS</text><rect fill="yellow" height="2.6" width="2.6" x="65" y="283" /><text fill="#FFFFFF" style="font-size:3px; font-family:Arial" x="70" y="285.5">Over 5.0 km</text><rect fill="red" height="2.6" width="2.6" x="65" y="287" /><text fill="#FFFFFF" style="font-size:3px; font-family:Arial" x="70" y="289.5">Over 10.0 km</text><text fill="#FFFFFF" style="font-size:4px; font-family:Arial" x="120" y="280">STATISTICS</text><text fill="#FFFFFF" style="font-size:3px; font-family:Arial" x="120" y="285">Number: 9</text><text fill="#FFFFFF" style="font-size:3px; font-family:Arial" x="120" y="290">Weekly: 1.3</text><text fill="#FFFFFF" style="font-size:3px; font-family:Arial" x="141" y="285">Total: 43.7 km</text><text fill="#FFFFFF" style="font-size:3px; font-family:Arial" x="141" y="290">Avg: 4.9 km</text><text fill="#FFFFFF" style="font-size:3px; font-family:Arial" x="167" y="285">Min: 3.1 km</text><text fill="#FFFFFF" style="font-size:3px; font-family:Arial" x="167" y="290">Max: 7.1 km</text><polyline fill="none" points="67.0,72.88201988424407 65.7142857145518,72.97570573893609 64.26785714318976,69.88406736491015 62.25892857182771,68.29140100668883 60.08928571455181,70.7272425253177 60.08928571455181,72.31990455149207 62.17857142863795,74.66204944427591 64.75,72.97570573893609 64.91071428591385,69.22826391342096 63.30357142910361,66.60504530509934 63.06250000046566,66.51135878398782 60.33035714318976,67.82296918594511 60.33035714318976,68.10402830806561 60.00892857182771,71.66410288377665 61.2946428572759,74.75573511276161 64.50892857136205,73.81887798866956 64.5892857145518,73.53782066021813 64.83035714318976,70.44618422683561 63.94642857182771,67.0734777629259 61.61607142910361,66.60504530509934 61.05357142863795,66.97979129105806 61.45535714318976,67.54190997604746 60.33035714318976,67.1671642253059 23.205357143189758,50.86557229136815 18.38392857136205,49.55393705330789 16.776785714551806,49.460248748539016 14.607142857275903,49.64762534806505 13.883928571362048,49.928690174478106 13.160714285448194,50.95926044922089 13.080357142724097,51.896141488163266 13.160714285448194,52.36458163964562 13.401785714086145,52.73933358467184 13.803571429103613,53.114085373003036 15.089285714551806,53.67621276131831 16.294642857275903,53.67621276131831 17.339285714551806,53.114085373003036 17.901785714551806,52.17720560828457 18.142857142724097,48.71074195735855 18.0625,47.39910356258042 17.660714285913855,46.27484055282548 17.339285714551806,45.806397215346806 16.776785714551806,45.619019811740145 15.732142857275903,45.337953632930294 14.687500000465661,45.5253310953849 13.5625,46.368529190833215 13.241071428637952,46.83697223413037 13.080357142724097,47.77385758579476 13.160714285448194,52.08351757802302 13.482142857275903,52.8330215466558 14.125,53.395149111165665 15.25,53.76990062528057 16.294642857275903,53.76990062528057 17.419642857275903,52.92670949851163 17.82142857136205,52.08351757802302 17.982142857275903,51.52138918999117 17.901785714551806,50.3034431389533 18.0625,48.617053564230446 18.0625,47.39910356258042 17.660714285913855,46.368529190833215 16.776785714551806,45.5253310953849 15.732142857275903,45.337953632930294 14.928571428637952,45.431642369017936 13.883928571362048,45.9937745797215 13.32142857182771,47.024349382845685 13.0,48.71074195735855 13.0,51.70876535854768 13.32142857182771,52.64564561331645 14.044642857275903,53.48883700440638 15.25,53.76990062528057 16.053571429103613,53.76990062528057 17.17857142863795,53.207773295696825 17.660714285913855,52.73933358467184 17.901785714551806,52.17720560828457 18.0625,50.116066676331684 17.982142857275903,47.21172649250366 17.74107142863795,46.46221781929489 17.17857142863795,45.806397215346806 16.69642857182771,45.431642369017936 15.57142857182771,45.24426488723839 14.607142857275903,45.5253310953849 13.32142857182771,46.74328364501707 13.160714285448194,47.305415032373276 13.080357142724097,48.14861145202303 13.080357142724097,51.80245342833223 14.125,53.30146120826248 14.928571428637952,53.67621276131831 15.973214285913855,53.67621276131831 16.776785714551806,53.48883700440638 17.17857142863795,53.207773295696825 17.74107142863795,52.64564561331645 18.0625,50.67819594661705 18.0625,47.21172649250366 17.660714285913855,46.46221781929489 17.017857143189758,45.71270851860754 16.535714285913855,45.431642369017936 15.732142857275903,45.337953632930294 15.169642857741565,45.337953632930294 14.526785714551806,45.5253310953849 13.964285714551806,45.90008590259822 13.401785714086145,46.6495950462413 13.080357142724097,48.05492300004698 13.080357142724097,51.80245342833223 13.5625,52.64564561331645 14.285714285913855,53.30146120826248 15.651785714551806,53.76990062528057 16.375,53.67621276131831 17.098214285913855,53.30146120826248 17.419642857275903,53.02039744076319 17.74107142863795,52.45826964074513 17.982142857275903,51.24032486404758 17.901785714551806,50.116066676331684 17.982142857275903,48.617053564230446 17.901785714551806,47.21172649250366 17.419642857275903,46.0874632470659 16.61607142863795,45.431642369017936 15.651785714551806,45.24426488723839 14.848214285913855,45.337953632930294 14.205357143189758,45.71270851860754 13.5625,46.46221781929489 13.32142857182771,47.024349382845685 13.080357142724097,47.68016909493599 13.080357142724097,51.98982953798259 13.32142857182771,52.55195763200754 13.803571429103613,53.207773295696825 15.25,53.76990062528057 15.732142857275903,53.76990062528057 16.857142857275903,53.395149111165665 17.25892857182771,53.114085373003036 17.82142857136205,52.55195763200754 18.0625,51.24032486404758 17.982142857275903,47.305415032373276 17.5,46.27484055282548 17.098214285913855,45.71270851860754 15.892857143189758,45.24426488723839 14.767857143189758,45.431642369017936 13.964285714551806,45.90008590259822 13.401785714086145,46.55590643762844 13.080357142724097,47.961234538350254 13.080357142724097,51.896141488163266 13.803571429103613,53.114085373003036 14.526785714551806,53.58252488769358 15.410714285913855,53.86358847905649 16.9375,53.395149111165665 17.419642857275903,52.92670949851163 17.982142857275903,52.08351757802302 18.0625,47.49279208329972 17.901785714551806,46.83697223413037 17.339285714551806,45.9937745797215 16.69642857182771,45.5253310953849 16.13392857182771,45.337953632930294 15.089285714551806,45.337953632930294 14.285714285913855,45.619019811740145 13.803571429103613,46.0874632470659 13.241071428637952,47.11803794273874 13.080357142724097,48.80443034047494 13.160714285448194,52.17720560828457 13.803571429103613,53.114085373003036 14.526785714551806,53.67621276131831 15.169642857741565,53.95727632299531 16.214285714551806,53.86358847905649 16.69642857182771,53.67621276131831 17.419642857275903,53.02039744076319 17.82142857136205,52.45826964074513 17.982142857275903,51.80245342833223 17.982142857275903,47.961234538350254 17.580357143189758,46.368529190833215 17.098214285913855,45.806397215346806 16.375,45.337953632930294 15.812500000465661,45.24426488723839 15.008928571362048,45.24426488723839 13.723214285913855,46.0874632470659 13.482142857275903,46.46221781929489 13.241071428637952,47.21172649250366 13.160714285448194,51.42770109104458 13.32142857182771,52.45826964074513 14.044642857275903,53.30146120826248 14.44642857182771,53.48883700440638 15.410714285913855,53.76990062528057 16.535714285913855,53.58252488769358 17.339285714551806,53.114085373003036 17.74107142863795,52.64564561331645 17.982142857275903,51.80245342833223 17.82142857136205,49.928690174478106 17.982142857275903,48.05492300004698 17.901785714551806,47.024349382845685 17.5,45.9937745797215 17.419642857275903,45.431642369017936" stroke="#4DD2FF" stroke-linecap="round" stroke-linejoin="round" stroke-width="0.5"><title>2025-07-16 3.1km</title><desc>15133462266</desc></polyline><polyline fill="none" points="84.87634398043156,58.347007723059505 86.76680098101497,58.347007723059505 87.71202948503196,58.89802827546373 88.18464373424649,72.12250423524529 90.07510073669255,77.08167415950447 94.32862899266183,82.04083941457793 98.58215725049376,84.24491136241704 105.19875675812364,85.34694699104875 109.92489926330745,84.24491136241704 114.17842751927674,82.04083941457793 117.48672727495432,77.632692752406 118.9045700263232,74.87759921327233 119.37718427553773,65.51027040649205 119.37718427553773,52.836799030192196 117.01411302387714,43.46943101938814 115.12365602143109,39.612274643499404 111.81535626761615,36.8571612178348 108.97967076301575,34.65306944027543 102.36307125352323,33.0 96.69170024618506,34.65306944027543 93.85601474158466,36.3061383604072 90.54771498963237,40.16329715726897 87.71202948503196,47.87760627735406 88.18464373424649,71.02046583965421 91.02032923698425,79.2857481832616 92.91078624129295,82.04083941457793 97.16431449726224,84.24491136241704 104.72614250704646,84.24491136241704 109.45228501409292,83.14287550374866 112.28797051683068,81.48982128407806 115.59627027064562,78.1837112866342 117.01411302387714,73.77556139649823 117.95934152416885,70.46944655664265 117.95934152416885,47.87760627735406 115.59627027064562,40.714319611899555 114.17842751927674,39.061252074316144 110.39751351438463,36.3061383604072 106.61659951135516,35.204092470463365 102.8356855046004,35.204092470463365 96.69170024618506,37.40818401938304 90.54771498963237,41.816364348866045 88.65725798532367,45.67351911077276 88.18464373424649,50.63271393766627 88.18464373424649,72.12250423524529 90.54771498963237,78.1837112866342 94.80124324373901,82.04083941457793 98.58215725049376,84.79592920653522 106.61659951135516,87.0 113.23319901898503,83.69389346148819 117.48672727495432,77.632692752406 119.37718427553773,69.9184272158891 118.43195577524602,65.51027040649205 118.43195577524602,52.28577784309164 117.48672727495432,45.67351911077276 115.12365602143109,40.16329715726897 109.45228501409292,34.65306944027543 102.8356855046004,33.0 100.0,33.0 96.21908599510789,34.65306944027543 90.54771498963237,39.612274643499404 88.65725798532367,43.46943101938814 88.18464373424649,47.87760627735406 87.71202948503196,69.9184272158891 88.18464373424649,74.32658033398911 91.9655577391386,80.93880309443921 95.27385749295354,83.69389346148819 100.94522850215435,85.89796471735463 104.72614250704646,86.44898238731548 109.45228501409292,84.79592920653522 116.54149877093732,79.2857481832616 118.9045700263232,74.32658033398911 119.37718427553773,69.3674078155309 117.95934152416885,64.40823062788695 118.43195577524602,47.87760627735406 116.54149877093732,41.816364348866045 114.17842751927674,38.510229447856545 111.34274201467633,35.75511544384062 106.61659951135516,33.55102320481092 100.47261424921453,33.55102320481092 95.74647174589336,35.204092470463365 90.54771498963237,41.26534200832248 88.18464373424649,51.73475659964606 88.65725798532367,72.12250423524529 90.54771498963237,77.632692752406 94.80124324373901,81.48982128407806 101.41784275323153,84.79592920653522 105.19875675812364,84.79592920653522 110.8701277654618,83.14287550374866 113.70581327006221,81.48982128407806 117.48672727495432,77.632692752406 120.32241277769208,69.9184272158891 120.32241277769208,58.89802827546373 119.37718427553773,49.53067104658112 115.12365602143109,40.16329715726897 111.81535626761615,36.3061383604072 108.0344422608614,34.65306944027543 99.0547714997083,34.10204635048285 93.38340049423277,36.8571612178348 90.54771498963237,40.714319611899555 88.65725798532367,48.97964951535687 89.1298722345382,56.14292493741959 88.65725798532367,71.57148506585509 89.60248648561537,75.42861803574488 93.38340049423277,80.93880309443921 96.69170024618506,83.69389346148819 102.36307125352323,85.34694699104875 107.08921376056969,84.24491136241704 112.28797051683068,81.48982128407806 116.06888452358544,78.1837112866342 117.95934152416885,74.32658033398911 118.9045700263232,68.81638835789636 119.37718427553773,61.102109908126295 117.01411302387714,46.775562807917595 113.23319901898503,39.061252074316144 111.34274201467633,36.3061383604072 107.56182800978422,34.10204635048285 103.78091400675476,33.55102320481092 98.58215725049376,34.10204635048285 94.80124324373901,36.3061383604072 90.54771498963237,40.16329715726897 88.65725798532367,49.53067104658112 89.1298722345382,73.77556139649823 92.43817199021578,80.93880309443921 96.69170024618506,84.79592920653522 102.36307125352323,86.44898238731548 108.97967076301575,84.79592920653522 115.59627027064562,79.83676654426381 117.95934152416885,74.32658033398911 118.9045700263232,69.9184272158891 117.95934152416885,62.20415037823841 118.9045700263232,48.97964951535687 117.01411302387714,41.26534200832248 114.17842751927674,37.95920676132664 109.92489926330745,34.65306944027543 105.19875675812364,33.55102320481092 98.58215725049376,34.10204635048285 93.85601474158466,37.40818401938304 90.54771498963237,41.816364348866045 88.18464373424649,49.53067104658112 89.1298722345382,72.6735233454965 90.54771498963237,77.08167415950447 92.91078624129295,80.93880309443921 99.52738575078547,84.24491136241704 103.78091400675476,84.79592920653522 108.50705651007593,83.69389346148819 112.76058476790786,82.04083941457793 115.59627027064562,79.2857481832616 117.48672727495432,73.22454240033403 117.48672727495432,45.67351911077276 114.65104177035391,38.510229447856545 106.61659951135516,34.65306944027543 98.58215725049376,35.204092470463365 94.32862899266183,37.95920676132664 90.54771498963237,43.46943101938814 88.65725798532367,48.97964951535687 86.76680098101497,67.71434927079827 87.23941523209214,71.02046583965421 88.65725798532367,74.87759921327233 92.43817199021578,80.93880309443921 96.69170024618506,84.24491136241704 101.89045700244606,86.44898238731548 108.0344422608614,87.0 111.34274201467633,85.34694699104875 115.12365602143109,82.04083941457793 117.95934152416885,78.1837112866342 118.9045700263232,71.57148506585509 117.48672727495432,63.85721065104008 117.48672727495432,50.08169252099469 116.54149877093732,43.46943101938814 113.70581327006221,39.061252074316144 109.45228501409292,35.204092470463365 102.8356855046004,34.10204635048285 98.10954299755394,35.204092470463365 91.9655577391386,39.612274643499404 89.60248648561537,45.67351911077276 88.65725798532367,72.6735233454965 91.9655577391386,79.83676654426381 95.74647174589336,83.14287550374866 102.36307125352323,85.34694699104875 108.97967076301575,84.24491136241704 113.23319901898503,81.48982128407806 116.54149877093732,77.632692752406 118.43195577524602,72.12250423524529 117.48672727495432,63.30619061831385 118.43195577524602,55.040883200243115 117.95934152416885,44.57147518126294 115.59627027064562,39.061252074316144 110.8701277654618,35.204092470463365 108.0344422608614,34.10204635048285 102.8356855046004,34.10204635048285 95.74647174589336,36.3061383604072 91.02032923698425,41.26534200832248 89.1298722345382,47.87760627735406 90.07510073669255,56.693945719860494 89.60248648561537,71.57148506585509 90.54771498963237,74.87759921327233 93.38340049423277,79.2857481832616 98.58215725049376,83.69389346148819 107.56182800978422,85.34694699104875 110.39751351438463,84.24491136241704 115.59627027064562,77.632692752406 117.95934152416885,72.12250423524529 117.48672727495432,62.20415037823841 118.43195577524602,50.63271393766627 117.95934152416885,45.122497173491865 114.17842751927674,37.95920676132664 109.45228501409292,34.65306944027543 103.78091400675476,34.10204635048285 100.94522850215435,34.10204635048285 96.21908599510789,36.3061383604072 91.49294348992407,41.26534200832248 89.1298722345382,50.63271393766627 89.60248648561537,60.55108958482742 89.1298722345382,65.51027040649205 89.60248648561537,71.57148506585509 91.9655577391386,78.73472976265475 96.21908599510789,82.04083941457793 102.8356855046004,84.24491136241704 111.34274201467633,82.04083941457793 116.54149877093732,76.53065550886095 118.43195577524602,71.02046583965421 117.48672727495432,63.85721065104008 118.43195577524602,52.28577784309164 117.95934152416885,47.326584570109844 115.59627027064562,41.26534200832248 112.28797051683068,36.8571612178348 108.0344422608614,34.65306944027543 103.78091400675476,34.10204635048285 94.80124324373901,37.40818401938304 90.54771498963237,41.26534200832248 89.1298722345382,48.97964951535687 87.23941523209214,53.93884122930467 86.29418673366308,54.48986224364489 82.04065847583115,52.28577784309164 80.62281572446227,53.38782015722245 80.15020147524774,55.591904097702354 80.15020147524774,54.48986224364489 81.56804422475398,53.93884122930467 79.67758722417057,55.040883200243115 80.15020147524774,55.591904097702354" stroke="#4DD2FF" stroke-linecap="round" stroke-linejoin="round" stroke-width="0.5"><title>2025-07-09 3.3km</title><desc>15057512390</desc></polyline><polyline fill="none" points="140.42305196262896,57.49491327209398 145.67540387809277,60.278419009409845 147.58535002544522,62.505222550127655 149.97278271242976,77.53612207947299 151.40524232387543,80.31961733289063 155.22513462603092,85.32990512112156 159.04502692818642,87.0 165.7298384513706,86.44330176478252 171.93716343864799,83.65980971511453 174.80208266340196,80.8763162093237 178.6219749636948,74.7526253699325 180.53192111477256,65.84542611567304 178.6219749636948,43.57736274506897 177.66700189001858,40.793848272413015 174.32459612935781,37.453628982417285 171.93716343864799,35.783518550451845 163.81989230029285,34.113407594617456 160.47748653776944,34.67011130601168 155.70262116380036,36.34022208629176 152.36021540127695,39.68044207431376 149.49529617466033,44.69076812826097 147.58535002544522,56.938211949542165 146.630376951769,58.60831574164331 145.67540387809277,59.16501688910648 145.67540387809277,58.051614535506815 147.10786348581314,59.16501688910648 149.01780963875353,64.73202515998855 149.97278271242976,75.30932482751086 151.40524232387543,78.64952035574242 155.22513462603092,82.54641248704866 161.4324596133083,86.44330176478252 164.29737883992493,87.0 166.68481152690947,86.44330176478252 174.32459612935781,80.31961733289063 178.14448842778802,74.19592585461214 180.05443457700312,65.28872566623613 179.57694803923368,49.70108946226537 179.09946150146425,43.57736274506897 176.71202881634235,38.56703564571217 171.45967690087855,34.113407594617456 164.29737883992493,33.0 160.47748653776944,34.113407594617456 155.22513462603092,36.89692556299269 151.40524232387543,41.907254237215966 149.49529617466033,47.474280561320484 148.5403231009841,71.41242739604786 149.01780963875353,74.7526253699325 151.40524232387543,78.64952035574242 155.22513462603092,82.54641248704866 160.47748653776944,85.32990512112156 167.1622980646789,85.32990512112156 174.32459612935781,82.54641248704866 178.14448842778802,76.42272357037291 179.09946150146425,71.41242739604786 178.14448842778802,64.17532459460199 179.57694803923368,58.051614535506815 179.09946150146425,46.91757819149643 178.6219749636948,43.57736274506897 176.23454227671027,38.56703564571217 172.41464997641742,35.783518550451845 167.1622980646789,33.55670382734388 163.34240576438606,33.55670382734388 158.0900538507849,35.22681495686993 155.22513462603092,36.89692556299269 151.40524232387543,40.23714520316571 149.97278271242976,44.13406546507031 148.5403231009841,49.70108946226537 148.5403231009841,72.52582695381716 150.92775578983128,78.64952035574242 154.27016155049205,82.54641248704866 160.00000000186265,85.32990512112156 164.77486537583172,86.44330176478252 169.54973075166345,85.32990512112156 176.23454227671027,79.2062194054015 179.09946150146425,73.08252664469182 180.05443457700312,68.62892748368904 179.57694803923368,59.721717978827655 178.6219749636948,53.04130106512457 179.09946150146425,44.69076812826097 177.1895153503865,39.68044207431376 174.32459612935781,35.783518550451845 167.1622980646789,33.0 161.9099461529404,33.0 157.13508077524602,34.67011130601168 151.40524232387543,41.907254237215966 149.49529617466033,48.58768512913957 148.5403231009841,56.38151056971401 149.01780963875353,73.63922627922148 150.4502692501992,78.09282124694437 153.31518847681582,81.98971378663555 157.6125673148781,84.77320670988411 161.9099461529404,85.8866034722887 169.07224421203136,84.77320670988411 171.93716343864799,83.10311112971976 175.75705573894083,79.76291839918122 178.14448842778802,75.30932482751086 179.09946150146425,72.52582695381716 180.53192111477256,59.721717978827655 178.6219749636948,43.57736274506897 175.75705573894083,38.56703564571217 169.54973075166345,34.67011130601168 163.81989230029285,33.55670382734388 160.95497307553887,34.113407594617456 156.1801077015698,36.34022208629176 152.36021540127695,40.793848272413015 149.01780963875353,48.58768512913957 148.06283656321466,55.824809131678194 145.67540387809277,59.721717978827655 147.10786348581314,61.94852175144479 147.10786348581314,65.84542611567304 149.49529617466033,75.86602422734722 152.83770193718374,80.31961733289063 159.04502692818642,84.77320670988411 165.7298384513706,85.32990512112156 169.54973075166345,84.77320670988411 173.84710958972573,81.98971378663555 178.6219749636948,75.30932482751086 179.09946150146425,61.3918208964169 178.6219749636948,42.46395713137463 177.1895153503865,39.68044207431376 174.80208266340196,37.453628982417285 170.98219036497176,35.22681495686993 164.29737883992493,34.113407594617456 155.70262116380036,36.34022208629176 150.4502692501992,43.02065996732563 149.01780963875353,49.70108946226537 149.49529617466033,59.16501688910648 148.5403231009841,74.19592585461214 149.97278271242976,78.64952035574242 153.79267501458526,83.10311112971976 157.13508077524602,85.32990512112156 161.4324596133083,86.44330176478252 167.63978460244834,85.32990512112156 174.32459612935781,81.98971378663555 177.1895153503865,78.64952035574242 179.57694803923368,68.62892748368904 178.6219749636948,64.17532459460199 176.23454227671027,65.28872566623613 179.57694803923368,63.61862397193909 180.05443457700312,62.505222550127655 180.05443457700312,51.9278974304907 179.09946150146425,46.36087576346472 177.1895153503865,40.23714520316571 170.02721729129553,34.67011130601168 165.25235191360116,33.55670382734388 162.38743268698454,33.55670382734388 156.65759423933923,36.89692556299269 152.83770193718374,40.793848272413015 150.4502692501992,43.57736274506897 148.06283656321466,54.15470446506515 146.1528904121369,57.49491327209398 143.28797118738294,58.60831574164331 139.4680788870901,56.38151056971401 148.5403231009841,59.721717978827655 149.49529617466033,61.94852175144479 149.49529617466033,73.08252664469182 150.4502692501992,77.53612207947299 152.83770193718374,81.43301502615213 155.70262116380036,84.21650824137032 158.0900538507849,85.32990512112156 162.38743268698454,85.8866034722887 169.07224421203136,84.77320670988411 173.3696230519563,82.54641248704866 177.66700189001858,76.42272357037291 179.57694803923368,71.96912720380351 179.57694803923368,68.62892748368904 179.57694803923368,51.9278974304907 178.6219749636948,43.57736274506897 176.71202881634235,39.123738889116794 173.84710958972573,36.89692556299269 170.02721729129553,34.67011130601168 165.7298384513706,34.113407594617456 159.04502692818642,35.22681495686993 151.8827288635075,41.350551282987 149.01780963875353,50.25779154151678 148.5403231009841,70.29902760777622 150.4502692501992,75.86602422734722 152.36021540127695,79.76291839918122 157.13508077524602,84.21650824137032 160.95497307553887,85.32990512112156 167.63978460244834,84.77320670988411 173.84710958972573,81.43301502615213 177.66700189001858,76.97942285332829 178.6219749636948,50.814493561629206 176.71202881634235,41.350551282987 173.84710958972573,38.010332342237234 169.07224421203136,35.22681495686993 160.00000000186265,35.22681495686993 155.70262116380036,38.010332342237234 151.8827288635075,41.907254237215966 149.97278271242976,46.91757819149643 149.01780963875353,54.711406079586595 149.49529617466033,71.96912720380351 152.36021540127695,79.2062194054015 154.27016155049205,81.43301502615213 160.95497307553887,84.77320670988411 164.77486537583172,85.32990512112156 170.02721729129553,84.21650824137032 175.75705573894083,78.64952035574242 178.14448842778802,75.30932482751086 178.14448842778802,69.185627582483 179.09946150146425,61.94852175144479 178.6219749636948,58.051614535506815 179.57694803923368,54.711406079586595 179.57694803923368,49.144387325737625 177.66700189001858,41.350551282987 173.84710958972573,36.89692556299269 166.68481152690947,34.113407594617456 161.9099461529404,34.113407594617456 156.65759423933923,36.34022208629176 151.8827288635075,41.350551282987 149.49529617466033,47.474280561320484 148.5403231009841,70.29902760777622 150.4502692501992,79.2062194054015 152.36021540127695,81.98971378663555 161.9099461529404,85.8866034722887 165.7298384513706,85.8866034722887 170.02721729129553,83.65980971511453 176.23454227671027,77.53612207947299 178.6219749636948,71.96912720380351 178.14448842778802,63.61862397193909 178.6219749636948,57.49491327209398 178.14448842778802,47.474280561320484 176.71202881634235,41.907254237215966 173.3696230519563,36.89692556299269 165.25235191360116,33.55670382734388 157.13508077524602,35.783518550451845 153.79267501458526,38.56703564571217 151.40524232387543,41.907254237215966 149.49529617466033,46.36087576346472 146.630376951769,55.824809131678194 145.19791733846068,58.051614535506815 142.3329981137067,59.16501688910648 139.4680788870901,57.49491327209398" stroke="#4DD2FF" stroke-linecap="round" stroke-linejoin="round" stroke-width="0.5"><title>2025-07-07 3.1km</title><desc>15035124835</desc></polyline><polyline fill="none" points="67.0,163.8417916179751 66.84680851083249,163.39528947562212 65.23829787224531,163.48458992282394 62.02127659553662,162.05578164820326 62.327659574337304,156.87633160472615 62.097872340120375,156.69772931846092 58.26808510674164,156.78703046613373 57.885106382891536,160.80557244608644 59.34042553184554,164.1096927910694 62.17446808516979,163.48458992282394 62.40425531938672,159.91256475198315 61.944680850952864,156.519126995001 61.7148936172016,156.519126995001 58.497872340492904,157.05493385356385 58.34468085132539,157.32283715659287 57.96170212747529,160.80557244608644 59.11063829809427,163.93109201820334 59.417021276429296,164.02039240917657 62.327659574337304,163.3059890192817 62.7872340423055,161.43067727604648 62.710638297721744,160.62697098206263 62.94042553193867,160.26976794173243 61.25531914876774,159.198157924111 58.03829787252471,157.59074037574464 24.948936169967055,142.3201226979727 22.497872340958565,140.62337053689407 20.429787234403193,138.5694028819562 17.44255319191143,136.60473354405258 16.06382978754118,135.8903072089306 15.374468085356057,135.8903072089306 14.608510638587177,136.06891384872142 13.536170213017613,137.14055290294345 13.306382978800684,137.94428131036693 13.38297872338444,140.44476485002087 13.306382978800684,142.1415173658752 13.689361702185124,143.21314879623242 14.378723404370248,143.83826650917763 15.527659574523568,144.1954764254624 16.676595744676888,143.9275690021459 17.748936170246452,143.03454365127254 18.131914893630892,142.1415173658752 18.055319149047136,138.1228875205852 17.672340426128358,136.7833400341333 16.82978723431006,136.06891384872142 15.604255319107324,135.8903072089306 14.914893617387861,136.06891384872142 14.148936170618981,136.42612701636972 13.459574468433857,137.14055290294345 13.229787234216928,138.03358441998716 13.076595745049417,140.17685624951264 13.153191489633173,142.4987279920606 13.459574468433857,142.94524106482277 14.225531915202737,143.65966149501037 14.991489361971617,144.01687148597557 15.834042553324252,144.10617396055022 16.982978723477572,143.7489640066633 17.748936170246452,142.94524106482277 17.97872340446338,142.40942534967326 18.208510638214648,141.6057011464145 18.208510638214648,140.89127899700543 18.131914893630892,138.39079676545225 17.902127659879625,137.22985609661555 17.672340426128358,136.7833400341333 16.982978723477572,136.24752045120113 16.217021276708692,135.97961053368635 15.374468085356057,135.8903072089306 14.225531915202737,136.33682373835472 13.689361702185124,136.87264326546574 13.459574468433857,137.22985609661555 13.229787234216928,138.39079676545225 13.306382978800684,140.53406769805588 13.153191489633173,141.42709566507256 13.38297872338444,142.7666358636343 13.99574468145147,143.4810564434738 14.761702127754688,144.01687148597557 15.91063829837367,144.1954764254624 17.519148936495185,143.39175390376477 17.902127659879625,142.7666358636343 18.208510638214648,142.1415173658752 18.131914893630892,138.03358441998716 17.902127659879625,137.22985609661555 17.44255319191143,136.51543028472224 16.293617021292448,135.97961053368635 15.680851064156741,135.8903072089306 14.608510638587177,136.24752045120113 14.225531915202737,136.42612701636972 13.459574468433857,137.40846245596185 13.153191489633173,138.65870592632564 13.153191489633173,141.33779291034443 13.229787234216928,142.67733324924484 13.76595744676888,143.39175390376477 14.455319148954004,143.83826650917763 15.680851064156741,144.1954764254624 16.676595744676888,143.9275690021459 17.672340426128358,143.21314879623242 18.208510638214648,142.23082003666786 18.131914893630892,139.90894756536 18.208510638214648,138.48009982844815 17.97872340446338,137.40846245596185 17.59574468107894,136.7833400341333 17.059574468061328,136.24752045120113 16.44680851045996,135.97961053368635 15.451063829939812,135.8903072089306 14.838297872804105,136.06891384872142 14.148936170618981,136.42612701636972 13.612765957601368,137.0512496996671 13.38297872338444,137.40846245596185 13.306382978800684,138.212190611579 13.229787234216928,142.05221468606032 13.459574468433857,142.7666358636343 14.072340425569564,143.5703589740442 15.068085106555372,144.01687148597557 16.293617021292448,144.01687148597557 17.2127659576945,143.4810564434738 17.902127659879625,142.85593846888514 18.285106383264065,141.9629119966994 18.131914893630892,139.10522100760136 18.208510638214648,138.48009982844815 17.97872340446338,137.4977656218107 17.748936170246452,137.0512496996671 16.906382978893816,136.24752045120113 16.06382978754118,135.97961053368635 15.221276596188545,135.97961053368635 14.53191489353776,136.1582171546179 13.842553191352636,136.60473354405258 13.38297872338444,137.67637192527764 13.229787234216928,138.5694028819562 13.229787234216928,142.05221468606032 13.919148936402053,143.39175390376477 14.378723404370248,143.7489640066633 15.297872340772301,144.1954764254624 16.140425532124937,144.1954764254624 16.906382978893816,143.9275690021459 17.519148936495185,143.39175390376477 18.055319149047136,142.67733324924484 18.208510638214648,141.33779291034443 18.131914893630892,138.03358441998716 17.672340426128358,136.87264326546574 16.370212765876204,135.97961053368635 15.680851064156741,135.8903072089306 14.838297872804105,136.06891384872142 13.919148936402053,136.69403679377865 13.229787234216928,137.85497819143347 13.153191489633173,140.89127899700543 13.229787234216928,142.3201226979727 13.536170213017613,143.03454365127254 14.148936170618981,143.65966149501037 14.53191489353776,143.9275690021459 15.451063829939812,144.10617396055022 16.217021276708692,144.10617396055022 17.365957446862012,143.4810564434738 17.97872340446338,142.67733324924484 18.208510638214648,142.05221468606032 18.131914893630892,138.03358441998716 17.902127659879625,137.40846245596185 17.519148936495185,136.69403679377865 16.906382978893816,136.24752045120113 16.06382978754118,135.8903072089306 15.297872340772301,135.97961053368635 13.99574468145147,136.51543028472224 13.153191489633173,137.7656750631868 13.0,139.01591800991446 13.229787234216928,141.9629119966994 13.536170213017613,142.94524106482277 14.685106383170933,144.10617396055022 16.06382978754118,144.01687148597557 16.82978723431006,143.7489640066633 17.44255319191143,143.39175390376477 17.902127659879625,142.7666358636343 18.208510638214648,142.23082003666786 18.055319149047136,137.67637192527764 17.59574468107894,136.87264326546574 16.982978723477572,136.33682373835472 16.293617021292448,135.97961053368635 15.451063829939812,135.97961053368635 14.685106383170933,136.24752045120113 13.689361702185124,137.0512496996671 13.229787234216928,138.03358441998716 13.076595745049417,141.15918737323955 13.153191489633173,142.1415173658752 13.689361702185124,143.3024513546261 14.302127659786493,143.83826650917763 15.221276596188545,144.1954764254624 16.140425532124937,144.10617396055022 16.906382978893816,143.83826650917763 17.97872340446338,143.12384622823447 18.97446808544919,143.21314879623242 19.1276595746167,143.39175390376477" stroke="#4DD2FF" stroke-linecap="round" stroke-linejoin="round" stroke-width="0.5"><title>2025-06-15 3.3km</title><desc>14807579363</desc></polyline><polyline fill="none" points="110.39537155092694,176.75030337207136 110.6424881487037,176.84634057682706 110.82370698719751,176.88475544466928 111.53210790117737,176.7695108170301 111.89454557810677,176.75030337207136 112.40525321371388,176.84634057682706 112.85006308980519,177.0 112.96538416889962,176.94237773140776 112.98185860877857,176.21249409698066 113.04775636817794,175.96279639800196 113.11365412763553,175.17528604599647 113.24544964649249,174.84875637273944 113.22897520667175,174.57984914693225 113.31134740589187,173.984410316727 113.29487296607113,173.5234240895079 113.34429628564976,172.35174555207777 113.32782184577081,171.71788355411263 113.37724516534945,171.14164347498445 113.34429628564976,170.6998581894004 113.41019404504914,168.89428988323198 113.3937196052284,168.52933242967993 113.32782184577081,168.01070743182208 113.34429628564976,167.89545723328774 113.41019404504914,167.7802069624595 113.45961736468598,167.33841358713107 113.41019404504914,166.666117280256 113.42666848492809,166.18590412499907 113.3937196052284,166.05144421641307 113.22897520667175,165.89777562886593 113.19602632691385,165.66727250628173 113.19602632691385,164.99497007894388 113.22897520667175,164.80288321882836 113.21250076673459,164.6876310063235 113.22897520667175,164.5531700002466 113.19602632691385,164.4379176309012 113.22897520667175,164.24583018785052 113.21250076673459,163.86165469884872 113.19602632691385,163.72719308765954 113.11365412763553,163.55431372864405 113.09717968775658,163.4390607321402 113.01480748847825,163.30459881147544 112.58647205214947,163.28538995762938 111.7956989389495,163.34301651309943 111.49915902141947,163.3238076632988 111.30146574310493,163.24697224384 111.2849913033424,163.18934565816016 111.2849913033424,162.99725690853666 111.13672134454828,163.01646579257795 110.92255362641299,162.95883913453144 110.3459482313483,162.97804802253086 110.06588275375543,162.93963024452387 109.78581727616256,162.95883913453144 109.39043071947526,162.92042135243537 109.14331412164029,162.95883913453144 108.51728540705517,162.90121245835326 107.24875353783136,162.90121245835326 106.96868806023849,162.86279466419364 106.85336698126048,162.92042135243537 106.80394366162363,162.97804802253086 106.70509702246636,162.99725690853666 105.98022166878218,162.97804802253086 105.68368175125215,162.86279466419364 105.66720731143141,162.80516795790754 105.68368175125215,162.57466095183918 105.55188623239519,162.47861628049577 104.53047096112277,162.49782521877205 103.32783685141476,162.44019839793327 102.89950141508598,162.38257155894826 102.68533369695069,162.22889989987016 102.5041148585733,161.97918317953008 102.43821709905751,162.05601912972634 102.30642158020055,162.13285504770465 102.04283054248663,162.19048196505173 101.53212290687952,162.15206402214244 101.40032738796435,162.28652678712388 101.21910854952876,162.36336260855023 101.0873130306718,162.47861628049577 100.5436565153068,162.51703415504016 99.60461344337091,162.4017805072799 99.39044572517741,162.42098945358885 99.01153360842727,162.4017805072799 98.74794257071335,162.42098945358885 98.0395416567917,162.36336260855023 97.62768066028366,162.38257155894826 97.38056406244868,162.36336260855023 97.28171742329141,162.4017805072799 96.83690754702548,162.36336260855023 95.6836967569543,162.3441536562168 95.10709136183141,162.28652678712388 93.98682945145993,162.3249447018752 92.53707874391694,162.19048196505173 92.09226886770921,162.19048196505173 91.64745899155969,162.22889989987016 91.13675135595258,162.15206402214244 90.37892712239409,162.17127299463027 90.09886164480122,162.11364607121504 89.78584728745045,162.13285504770465 89.60462844901485,162.03681014516042 89.40693517070031,162.07522811219678 88.97859973442974,162.05601912972634 88.1713521812926,162.09443709267362 88.00660778273595,161.90234719727596 87.95718446321553,161.72946611950465 87.89128670369973,161.6334210059722 87.59474678622792,161.5950029464584 87.56179790652823,161.55658487892651 87.4794257071917,161.4029125283705 87.26525798905641,161.2108219092188 87.16641134995734,160.8458491790807 87.19936022959882,160.5000848705531 87.10051359044155,160.09669235399633 87.28173242893536,158.75204422930256 87.28173242893536,158.0412976695079 87.49590014707064,157.27291991416132 87.51237458694959,157.00398693986062 87.6606445456855,156.23560484185873 87.75949118490098,155.58247752932948 87.80891450447962,154.7948797376739 87.80891450447962,154.14174729814113 87.87481226382079,153.62308164627757 87.92423558339942,152.91231522413727 87.90776114357868,152.6625858277257 87.94071002327837,152.45127607305767 87.90776114357868,152.27838609283208 87.75949118490098,151.99023576387845 87.74301674496382,151.79813529318199 87.77596562466351,151.6060346214217 87.92423558339942,151.31788323681394 88.00660778273595,151.04894153631176 87.97365890297806,150.7799994415982 87.89128670369973,150.51105695284787 87.95718446321553,150.26132428892015 88.12192886171397,149.8771195269801 88.13840330159292,149.6465962838265 88.07250554213533,149.37765213406237 88.13840330159292,148.99344552212278 88.08897998207249,148.85897301792284 87.85833782400005,148.5323965260759 87.79244006454246,148.30187159366324 87.6606445456855,148.1289777043421 87.59474678622792,147.95608365212684 87.44647682755021,147.8216103877785 87.43000238767127,147.72555799580005 87.34763018839294,147.62950555353018 87.36410462821368,146.8418736304593 87.49590014707064,146.36160860372183 87.54532346664928,146.03502766751626 87.64417010580655,145.6700247569388 87.6606445456855,145.49712838801497 87.44647682755021,144.67106571025215 87.00166695134249,143.82578842324438 86.88634587230626,143.42235925450223 86.86987143248552,142.53865416662302 86.91929475200595,142.25048854388297 86.91929475200595,141.3475666622544 87.00166695134249,140.6175414671161 87.00166695134249,139.82987944652268 87.08403915062081,139.2535392405698 87.08403915062081,138.60035148539464 87.1169880303205,138.13927637584857 87.10051359044155,137.98558441523346 87.16641134995734,137.73583470461017 87.16641134995734,137.3131805737503 87.1499369100784,136.9481603136228 87.1169880303205,136.79446735522652 87.13346247019945,136.5447160233016 87.03461583104217,135.1038363163534 86.95224363176385,134.41221003771352 86.90282031218521,133.4516136590246 86.7874992332072,132.45258809007646 86.7874992332072,132.2988913658337 86.68865259399172,131.434344893074 86.70512703387067,131.31907172223146 86.7545503534493,131.2422229014337 86.77102479332825,131.1461618301546 86.7545503534493,131.05010070861317 86.70512703387067,131.0116762458929 86.67217815417098,130.9348272963398 86.55685707507655,129.9742127107893 86.54038263531402,129.05201797668997 86.5733315150137,128.8791059480427 86.55685707507655,128.4948564118531 86.5733315150137,128.245093781763 86.55685707507655,127.59186683391454 86.5733315150137,127.05391348342528 86.62275483459234,126.4967458502797 86.70512703387067,126.20855503120401 86.85339699260658,126.01642756695219 86.968718071701,125.92036375941825 87.16641134995734,125.88193822230096 87.46295126737095,125.90115099183458 87.82538894424215,125.86272545068641 88.12192886171397,125.74744877901685 88.3855198994861,125.49768240848789 88.418468779244,125.40161832924059 88.46789209876442,124.9981486472825 88.51731541834306,124.88287143225898 89.02802305395016,124.84444567786704 89.70347508817213,124.90208430649363 89.88469392666593,124.84444567786704 90.26360604341608,124.80601991541334 90.8896347580012,124.67152968337177 90.90610919793835,124.6138909822912 90.87316031812225,124.46018769094371 90.87316031812225,124.36412306842976 90.90610919793835,124.19120662120986 91.0379047167371,123.9606511046004 91.08732803637395,123.78773427703709 91.12027691601543,123.55717825342435 91.08732803637395,123.28819585962628 91.10380247619469,123.17291757008934 91.15322579577332,123.1152783981961 91.41681683354545,123.0 91.5815612320439,123.0192130713549 91.53213791252347,123.1152783981961 91.9110500292154,123.691669302425" stroke="yellow" stroke-linecap="round" stroke-linejoin="round" stroke-width="0.5"><title>2025-06-10 5.1km</title><desc>14754484246</desc></polyline><polyline fill="none" points="183.22447374777403,176.76155622633814 184.20162870979402,177.0 184.3152513797395,176.76155622633814 184.49704765167553,176.01972971738724 184.95153833169024,171.59521933853102 184.86064019566402,170.61492813541554 184.79246659378987,169.5551495931868 184.90608926373534,165.28949610941345 184.3152513797395,164.94506132644892 183.45171908778138,164.54763599489524 173.27112785587087,159.77848336215538 172.86208624392748,159.51352780434536 171.9758294179337,158.7716507678124 171.79403314588126,158.50669415657467 171.70313500997145,158.0827630018175 171.74858407792635,157.79130992124556 171.68041047581937,157.36737756883667 171.7258595438907,156.86395697848639 171.68041047581937,156.2810476761806 171.58951233990956,155.9895925216988 171.38499153382145,155.72463299926312 171.3622669999022,155.5921531341446 171.38499153382145,155.30069718667073 171.27136886387598,154.6912882126635 171.3622669999022,154.2408545499202 171.43044060189277,153.71093156798452 171.40771606797352,152.91604501548863 171.18047072796617,152.54509710357524 170.7487045818707,152.1476523092133 170.40783657191787,152.12115596735384 169.6806514839409,152.2271413180424 169.04436453199014,152.2271413180424 168.7489455898758,152.12115596735384 168.4080775800394,151.7767032716365 168.27173037594184,151.72371050767833 167.2718508798862,151.72371050767833 166.7491865978809,151.67071773247153 166.4537676559994,151.72371050767833 166.0901751120109,151.6442213407281 165.34026548999827,151.6972141214501 164.54490679991432,151.59122854903399 163.77227264398243,151.61772494626348 162.74966861400753,151.51173934062535 162.2497288660379,151.6442213407281 161.95430992404,151.61772494626348 161.27257390401792,151.67071773247153 160.74990962201264,151.56473214902508 160.24996987404302,151.51173934062535 159.70458105800208,151.40575369058934 159.091018640087,151.37925727108086 158.50018075609114,151.45874652115162 157.36395405605435,151.43225010720198 156.7731161720585,151.53823574617854 156.3186254920438,151.72371050767833 156.00048201612663,151.67071773247153 155.77323667611927,151.72371050767833 155.00060252007097,151.59122854903399 154.56883637409192,151.72371050767833 154.1143456940772,151.43225010720198 154.00072302413173,151.37925727108086 153.59168141207192,151.56473214902508 152.29638297413476,151.6442213407281 151.97823949810117,151.51173934062535 151.79644322616514,151.29976799615542 151.63737148814835,151.22027869624435 151.43285068217665,150.87582477483375 151.1601562742144,150.7963353418163 150.75111466215458,150.769838858585 150.34207305021118,150.769838858585 149.38764262211043,150.87582477483375 148.81952927215025,150.7963353418163 147.3651590963127,150.8228318222682 145.59264544432517,150.74334237254516 144.82001128827687,150.769838858585 143.9337544622831,150.63735640089726 142.6611805582652,150.71684588382777 141.91127093636896,150.69034939231642 141.0250141103752,150.63735640089726 140.63869703235105,150.557866892952 138.95708151627332,150.53137038482237 138.00265108828899,150.47837736012298 137.3890886703739,150.557866892952 136.79825078637805,150.53137038482237 136.59372998040635,150.47837736012298 136.07106569840107,150.5048738739133 135.7529222223675,150.557866892952 135.57112595043145,150.557866892952 135.48022781440523,150.47837736012298 135.38932967826258,150.18691552619566 135.38932967826258,149.73647385019285 135.57112595043145,149.47150778402283 135.63929955242202,149.23303808740457 135.61657501838636,149.07405816492974 135.45750328036956,148.80909140553558 135.52567688236013,148.27915705485793 135.36660514434334,147.77571839441953 135.36660514434334,147.48425344926363 135.50295234832447,146.74234116554726 135.63929955242202,145.54997758335958 135.5938504843507,145.09952765754133 135.66202408634126,144.59608267432486 135.88926942634862,144.06613950525934 135.9574430284556,143.82766471726063 136.07106569840107,142.50280069347355 136.1619638344273,142.23782705675694 136.1619638344273,142.02584794766153 136.2528619703371,141.6548840796895 136.2528619703371,141.2839196681598 136.298311038292,141.07193976035342 136.36648464028258,140.27701352530858 136.32103557232767,139.93254471491673 136.38920917443465,139.80005658607115 136.32103557232767,139.56157777959015 136.36648464028258,139.19061030061857 136.298311038292,139.1111171986995 136.43465824227314,138.84614001197042 136.38920917443465,138.6606558162748 136.45738277642522,137.94521550263744 136.54828091245145,137.44175629215897 136.52555637841579,136.99129193929548 136.27558650437277,136.62032069392444 136.2074129023822,136.35534090007422 136.298311038292,135.93137265300902 136.5710054463707,135.37491325124574 136.59372998040635,135.1629283955117 136.54828091245145,134.9244452205312 136.54828091245145,134.44747819668555 136.70735265035182,133.94401202992594 136.8664243883686,133.70552770661016 136.88914892228786,133.49354145293182 136.7755262523424,132.99007338882075 136.79825078637805,132.56609950565326 136.75280171842314,132.35411229771853 136.68462811643258,132.2216202026466 136.6164545143256,132.16862334520556 136.50283184438013,132.11562647666142 135.7529222223675,132.0626295969996 135.66202408634126,132.0361311530287 135.61657501838636,131.9301373493654 135.66202408634126,131.74464808608172 135.63929955242202,131.21467801372637 135.70747315441258,130.94969256148033 135.8438203583937,130.87019687164866 136.13923930039164,130.81719973123109 136.298311038292,130.65820824349066 136.6164545143256,130.6317096525163 136.18468836834654,130.71120541724667 135.91199396026786,130.71120541724667 135.7529222223675,130.60521105877706 135.70747315441258,130.4462194378575 135.63929955242202,129.70425722002983 135.7529222223675,129.1477841293963 136.02561663032975,128.40581810564618 136.09379023232032,127.71684770760476 136.02561663032975,126.92187953353277 135.93471849441994,126.55089353121002 135.7529222223675,126.15340792525967 135.2984315424692,125.41143312427448 135.16208433837164,125.09344325806887 135.09391073638108,124.8284513977269 135.04846166842617,124.29846684471704 135.16208433837164,123.90097770170541 135.3438806104241,123.74198186972353 135.32115607638843,123.29149313674134 135.2757070083171,123.13249692192767 135.2984315424692,123.02649938990362 135.41205421241466,123.0 135.93471849441994,123.1059975430544 136.32103557232767,123.05299877710058 136.5710054463707,123.1854956713214 137.25274146639276,123.05299877710058 137.70723214629106,123.1854956713214 137.8435793503886,123.71548255471862 137.8890284183435,124.13947126240237 137.86630388430785,124.32496609872032 137.77540574839804,124.53696003083314 137.7981302823173,124.80195219638699 137.70723214629106,125.25243824107747 137.5254358742386,125.72942259100091 137.41181320429314,126.2859031966218 137.41181320429314,127.16037024790421 137.6390585443005,127.95533767297457 137.93447748629842,128.35282044929045 138.0481001562439,128.77680138936557 138.00265108828899,128.93579405877972 137.91175295226276,129.041789116367 137.45726227236446,129.28027783334255 136.7755262523424,130.04873994873196 136.70735265035182,130.20773181930417 136.6164545143256,130.68470683172927 136.68462811643258,131.0556867756386 136.6164545143256,131.18817948095966 136.59372998040635,131.34717063582502 136.70735265035182,131.61215567209 136.75280171842314,132.0361311530287 136.8209753202973,132.19512177535216 136.91187345643993,132.4866043234506 136.8664243883686,133.4140465620294 136.8209753202973,133.70552770661016 136.59372998040635,134.20899434774765 136.52555637841579,134.47397638829716 136.50283184438013,134.7124599875242 136.6164545143256,135.1629283955117 136.6164545143256,135.3484151540324 136.54828091245145,135.53390177659458 136.27558650437277,136.0108667534514 136.23013743641786,136.19635289066355 136.2528619703371,136.5673247573286 136.50283184438013,136.93829608043598 136.5710054463707,137.30926685984014 136.48010731034447,138.52816702194104 136.4119337083539,138.87263774315943 136.43465824227314,139.1376149020798 136.36648464028258,139.58807543582225 136.43465824227314,140.06503277434967 136.38920917443465,140.11802797872224 136.34376010647975,140.4889940986468 136.32103557232767,141.46940194186755 136.11651476635598,142.37031390979246 136.11651476635598,142.58229273039615 136.0028920964105,143.11223900559708 135.93471849441994,143.85416192706907 135.70747315441258,144.49009412931628 135.61657501838636,145.9739297225169 135.45750328036956,146.82183187131886 135.36660514434334,147.11329757906788 135.43477874645032,147.11329757906788 135.41205421241466,147.4312597867247 135.45750328036956,147.6432343699853 135.43477874645032,147.85520877575618 135.5484014163958,148.1996668066422 135.5484014163958,148.46463420377404 135.48022781440523,148.5971177983447 135.48022781440523,148.78259471431375 135.63929955242202,149.2595347314782 135.5938504843507,149.49800440306717 135.43477874645032,149.68348065907776 135.3438806104241,149.86895677926077 135.32115607638843,150.0014396389888 135.38932967826258,150.18691552619566 135.57112595043145,150.34589474996028 135.7529222223675,150.42538432437868 136.13923930039164,150.34589474996028 136.32103557232767,150.37239127751673 136.32103557232767,150.39888780229376 136.298311038292,150.37239127751673 136.36648464028258,150.31939821962442 136.298311038292,150.29290168646548 136.7755262523424,150.34589474996028 137.25274146639276,150.31939821962442 137.29819053434767,150.42538432437868 136.84369985433295,150.42538432437868 136.8209753202973,150.557866892952 136.88914892228786,150.66385289802565 137.1845678644022,150.84932829995523 137.68450761237182,150.9553141829092 138.84345884632785,150.90232124693284 139.72971567232162,150.9553141829092 143.070222170325,150.98181064672826 152.50090378010646,151.2732715656457" stroke="yellow" stroke-linecap="round" stroke-linejoin="round" stroke-width="0.5"><title>2025-04-19 6.0km</title><desc>14222567780</desc></polyline><polyline fill="none" points="35.14694295299705,213.0 35.13700834295014,213.20858965446678 35.087335292308126,213.3592374934815 35.0774006821448,213.62576778283255 35.037662241607904,213.71847381984117 35.04759685177123,214.00817968438787 35.00785841123434,214.25153202403453 34.95818536065053,214.76141137981904 34.94825075054541,215.01635017600347 34.858839259366505,215.21334793406277 34.88864308974007,215.20175984037633 34.868773869471624,215.4103453412099 34.789296988456044,215.88545529080875 34.779362378350925,216.03609948271333 34.73962393787224,216.31421129779483 34.72968932770891,216.65026214102545 34.689950887230225,216.85884490940225 34.65021244669333,217.33394863514695 34.620408616319764,217.43823942363815 34.63034322648309,217.54253011379478 34.55086634546751,217.9481040849787 34.52106251503574,218.35367656848393 34.451520244183484,218.7940107235845 34.451520244183484,218.9794140537415 34.302501092257444,219.9296012421255 34.302501092257444,220.14976540118369 34.223024211241864,220.60167993336654 34.213089601078536,220.77549272325268 34.16341655049473,221.08835505655588 34.15348194038961,221.34327926631522 34.044201228942256,222.10804836972966 34.03426661883714,222.33979553871177 33.964724347926676,223.06979594684526 33.86537824670086,223.7650299509114 33.805770585953724,224.37914968578116 33.74616292514838,224.70358892378135 33.68655526440125,225.31770344701363 33.5772745530121,225.9434015296647 33.51766689226497,226.0592711565114 33.42825540108606,226.14037982306763 33.44812462135451,226.12879287435499 33.398451570712496,226.4764008080965 33.398451570712496,226.62703057340696 33.44812462135451,226.81242077219213 33.477928451728076,226.96305007989577 33.42825540108606,227.40334995695594 33.43819001124939,227.57715205751447 33.388516960607376,227.86682161819772 33.37858235044405,228.14490368270344 33.26930163911311,228.81693245228234 33.19975936814444,229.41943753298256 33.19975936814444,229.6279962193512 33.12028248718707,230.0914585589053 32.98119794536615,231.37755637992814 32.98119794536615,231.95687483784423 33.02093638590304,232.37398224890785 33.080544046650175,232.69839803683863 33.18982475803932,233.15026129877515 33.32890929986024,233.544191867295 33.36864774033893,233.6832258506838 33.477928451728076,233.92653490108933 33.557405332743656,234.1698434163918 33.94485512771644,234.78390538483654 33.974658958090004,234.86500765415258 33.964724347926676,235.01562599655153 34.12367810995784,235.1430721261131 34.223024211241864,235.25893211649236 34.25282804161543,235.31686206615996 34.381977973273024,235.3863779657404 34.56080095557263,235.56016752356663 34.63034322648309,235.60651135952503 34.96811997081386,235.96567543006677 35.10720451257657,236.06994865150045 35.50458891765447,236.29008068505937 35.79269261134323,236.48704055436974 36.27948850754183,236.71875759870454 36.76628440374043,236.86937341727025 36.91530355566647,236.96205997290963 37.39216484170174,237.08950386013748 37.9485030088108,237.12426125843194 38.11739138100529,237.10108966080588 38.266410532873124,237.14743285124132 38.45516812527785,237.12426125843194 38.832683310087305,237.14743285124132 39.51817140885396,237.10108966080588 39.67712517088512,237.13584705546236 39.875817373453174,237.14743285124132 39.99503269494744,237.13584705546236 40.442090150667354,237.15901864581247 40.61097852286184,237.12426125843194 40.72025923425099,237.13584705546236 40.9487552671344,237.13584705546236 41.10770902922377,237.18219023138226 41.147447469702456,237.22853338784626 41.21698974055471,237.3328054190133 41.24679357098648,237.68037814632407 41.236858960823156,237.86574982107413 41.24679357098648,237.98160696004197 41.226924350718036,238.14380675082793 41.25672818114981,238.34076331988035 41.25672818114981,238.4218629816969 41.226924350718036,238.51454823669337 41.28653201146517,238.88528848025453 41.28653201146517,239.12858608990064 41.20705513044959,239.90481774420186 41.26666279119672,240.28713879605493 41.24679357098648,240.4609206556197 41.236858960823156,241.23714296250546 41.25672818114981,241.4225086780134 41.226924350718036,241.6194594105109 41.20705513044959,241.89750690658548 41.21698974055471,242.2334800321114 41.24679357098648,242.56945213746076 41.226924350718036,242.76640082837548 41.24679357098648,243.0212750844512 41.21698974055471,243.1602971584798 41.24679357098648,243.94808561201353 41.20705513044959,244.4346580313795 41.236858960823156,245.50047585438733 41.25672818114981,245.87119269082177 41.21698974055471,246.23032344173407 41.18718591018114,246.38092631300242 41.17725130007602,246.60103783302475 41.19712052034447,247.21503081171977 41.226924350718036,247.38880179097032 41.19712052034447,247.55098779204855 41.20705513044959,248.21131405667256 41.18718591018114,248.3966680894082 41.18718591018114,248.70945231559745 41.19712052034447,248.97589744056313 41.226924350718036,249.2307573946382 41.17725130007602,249.48561676176905 41.18718591018114,249.63621520283777 41.157382079807576,249.82156684895745 41.20705513044959,250.04167152549053 41.147447469702456,250.81782662814658 41.1673166899709,251.45496480832662 41.20705513044959,251.86041446772288 41.17725130007602,252.4280414954119 41.12757824943401,253.0883386605783 40.988493707671296,253.73704782863206 40.759997674729675,254.5247609924263 40.69045540387742,254.67535257657437 40.50169781141449,255.26613296654978 40.442090150667354,255.59048164368141 40.39241710002534,255.7526556258017 40.342744049441535,255.85691020314698 40.263267168425955,256.2623437370057 40.104313406394795,256.78361324124126 40.02483652532101,256.9457854751963 39.88575198355829,257.3048802905687 39.786405882332474,257.67555758772505 39.72679822152713,257.8608957707838 39.67712517088512,257.9535647459197 39.65725595067488,257.89564664555655 39.796340492437594,257.8724793969013 40.07450957602123,257.9303975094299 40.124182626605034,258.02306642637996 40.17385567724705,258.2431547932283 40.22352872788906,258.2894891305041 40.30300560890464,258.31265629186237 40.5513708620565,258.26632196428545 41.21698974055471,258.25473837939353 41.40574733301764,258.31265629186237 41.71372024691664,258.2894891305041 42.687312039372046,258.3474070247976 43.05489261407638,258.31265629186237 43.29332325712312,258.3010727118017 43.52181929006474,258.33582344837487 43.69070766220102,258.31265629186237 44.137765117920935,258.33582344837487 44.326522710267454,258.3242398707371 44.5649533533724,258.3474070247976 44.83318782679271,258.3474070247976 45.051749249571,258.38215774684795 45.73723734833766,258.3589906000125 45.91606033057906,258.38215774684795 46.333313955925405,258.3242398707371 46.54194076859858,258.33582344837487 46.70089453062974,258.31265629186237 46.83997907239245,258.33582344837487 46.91945595346624,258.41690845796984 46.94925978383981,258.6369960417287 46.95919439388672,258.96133484126767 46.91945595346624,259.5636758047767 46.90952134330291,260.09651315570954 46.979063614155166,260.49034781003866 46.95919439388672,260.6293479417727 46.99893283442361,260.7335979260097 47.01880205469206,260.90734768157563 46.95919439388672,261.08109716442414 46.93932517367648,261.3243459822261 46.89958673319779,261.49809481052944 46.89958673319779,261.62551044468273 46.979063614155166,262.1583378710857 46.90952134330291,262.7143289730593 46.90952134330291,262.91124181872874 46.84991368255578,264.5212807697826 46.8598482926609,264.6602758402514 46.83004446228733,264.90351679360174 46.84991368255578,265.1467572125184 46.78037141170353,265.44791127647477 46.7704368015402,265.7258989160837 46.720763750898186,265.9112236213987 46.720763750898186,266.11971354403795 46.67109070025617,266.3861167626965 46.631352259777486,266.8610078669881 46.59161381924059,266.8957559165865 46.41279083699919,266.9073385973825 46.333313955925405,266.8957559165865 46.24390246486291,266.8494251813754 46.084948702773545,266.80309442675207 45.79684500908479,266.80309442675207 45.61802202684339,266.82625980649027 45.2703106723493,266.7799290421681 45.22063762176549,266.745180956219 45.21070301160216,266.7104328593414 45.21070301160216,266.6061885033341 45.2703106723493,266.4671958759209 45.24050684197573,266.35136855315795 45.06168385967612,266.5482749297662 45.08155307994457,266.67568475157896 45.17096457112348,266.80309442675207 45.1808991812286,266.73359825846273 45.21070301160216,266.698850157969 45.200768401438836,266.65251934033586 45.1808991812286,266.7104328593414 45.06168385967612,266.7915117350567 44.99214158882387,266.94208663244353 45.00207619892899,266.988417328932 45.021945419197436,267.0 45.121291520423256,266.988417328932 45.13122613058658,266.8841732346118 45.121291520423256,266.8146771172105 44.98220697866054,266.4787786015295 44.84312243689783,266.39769949678885 44.783514776150696,266.39769949678885 44.66429945459822,266.45561314911174" stroke="yellow" stroke-linecap="round" stroke-linejoin="round" stroke-width="0.5"><title>2025-03-07 6.9km</title><desc>13950596373</desc></polyline><polyline fill="none" points="92.23738867556676,213.0 92.33085155440494,213.3391681751018 92.42431443318492,213.37550756339624 92.7462421269156,213.36339443524776 93.18240222812165,213.3876206903078 93.66010138654383,213.3149419098918 93.8366423798725,213.36339443524776 94.09626148769166,213.3876206903078 94.72973211080534,213.3876206903078 94.81281022535404,213.41184694028925 94.98935121868271,213.55720433354873 95.01012074731989,213.6056567573396 95.03089027595706,213.67833535496175 95.02050551160937,213.83580549301405 94.97896645439323,214.07806682493538 94.97896645439323,214.38089277575637 94.94781216146657,214.57470096791803 94.90627310413402,214.67160494212294 94.88550357555505,215.1076718207696 94.85434928262839,215.31359171932854 94.86473404697608,215.4104950740657 94.85434928262839,215.54373705420585 94.80242546106456,215.70120465089713 94.76088640379021,216.1130419664696 94.72973211080534,216.2220574808889 94.67780828929972,216.6217801539824 94.63626923202537,216.815584588825 94.63626923202537,217.06995241643017 94.59473017480923,217.20319248373562 94.55319111747667,217.6513624919462 94.52203682455001,217.7361512169373 94.52203682455001,217.90572848040028 94.50126729597105,218.14798128233087 94.52203682455001,218.28122010699008 94.49088253162336,218.49924694334914 94.43895871005952,218.58403504642774 94.40780441713287,218.91107429005206 94.36626535985852,219.2017750632076 94.35588059556903,219.3592376767774 94.22087865951471,220.50991949581658 94.2312634238042,220.582593752486 94.17933960224036,220.86117797975749 94.1481853093137,221.23666000649973 94.11703101632884,221.36989527121477 94.08587672340218,221.587916282253 94.08587672340218,221.79382463736692 94.00279860891169,222.37521095442207 93.98202908027451,222.72646377080673 93.84702714416198,223.53797481727088 93.82625761558302,223.90133612605132 93.73279473674484,224.2041363443641 93.61856232932769,224.34948016743874 93.56663850770565,224.56749555944407 93.56663850770565,224.89451787660073 93.62894709361717,225.06408463984553 93.64971662225435,225.1852036041746 93.60817756498,225.7544610369805 93.61856232932769,225.9603619713671 93.54586897906847,226.37216274005914 93.54586897906847,226.48116858037247 93.45240610023029,227.2320949099958 93.42125180736184,227.65600278106285 93.34855845716083,228.1404670163247 93.32778892852366,228.38269837269763 93.28624987124931,228.58859462664986 93.22394128533779,228.93982856657385 93.2135565210483,229.13361235257616 93.17201746383216,229.3152843569842 93.1408631708473,229.61807039664563 93.1408631708473,229.86029865753517 93.10970887792064,230.00563537050766 93.17201746383216,230.34475365695835 93.16163269948447,230.58698039551382 93.18240222812165,230.829206626644 93.23432604968548,231.14409996850736 93.33817369281314,231.55588227546832 93.35894322145032,231.7859952788931 93.40048227866646,231.90710720204515 93.45240610023029,232.0282189983118 93.50432992185233,232.19777530001738 93.57702327199513,232.34310907496547 93.6912556795287,232.67010940086038 93.84702714416198,232.92444234836876 93.90933573007351,233.05766414519894 94.12741578067653,233.3604403854697 94.15857007360319,233.57843878756103 94.20010913081933,233.6026608068787 94.17933960224036,233.57843878756103 94.2312634238042,233.6026608068787 94.38703488849569,233.7479928161556 94.50126729597105,233.95387951667362 94.63626923202537,234.00232339293143 94.78165593242738,234.1234329947838 94.88550357555505,234.22032058499462 94.96858169004554,234.35354088890745 95.06204456888372,234.41409552176628 95.23858556221239,234.61998103636142 95.40474179119337,234.6805355296965 95.5397437273059,234.78953353782708 95.88244094961556,234.98330752082256 95.98628859280143,235.08019439057534 96.11090576456627,235.1407486429307 96.4743725155713,235.346632863766 96.72360685910098,235.382965335295 97.03514978842577,235.56462752164225 97.37784701085184,235.6615139043206 97.72054423316149,235.8552864262383 97.83477664057864,235.8068433261651 97.95939381240169,235.83106487871555 98.10478051274549,235.8068433261651 98.20862815593136,235.84317565311358 98.28132150607416,235.81895410309517 98.43709297082387,235.8068433261651 98.72786637156969,235.84317565311358 99.6521103954874,235.83106487871555 99.82865138881607,235.86739719806064 100.22327243280597,235.8795079686024 100.6594325339538,235.8552864262383 100.83597352728248,235.86739719806064 101.14751645666547,235.8552864262383 101.55252226494486,235.8916187379291 101.63560037943535,235.92795103821845 101.70829372957814,236.02483711653622 101.73944802256301,236.23071976339997 101.7498327868525,236.36393775135366 101.79137184412684,236.4850448799989 101.77060231543146,237.11479990436055 101.79137184412684,237.5265609507478 101.78098707977915,237.65977744598058 101.80175660841633,238.13208923807542 101.76021755120018,238.59228861602605 101.79137184412684,238.95560262088838 101.77060231543146,239.10092790328054 101.79137184412684,239.2946946623997 101.76021755120018,239.50057148825726 101.77060231543146,240.06975845248235 101.73944802256301,240.34829573328898 101.73944802256301,240.56628096343047 101.71867849392584,240.68738369151833 101.78098707977915,241.38977701393014 101.77060231543146,241.69253144077084 101.78098707977915,241.76519238529727 101.7498327868525,241.88629385807144 101.76021755120018,242.0437255831057 101.7498327868525,242.24959751554707 101.77060231543146,242.66134028117085 101.7498327868525,243.13363164856128 101.71867849392584,243.3879415860647 101.73944802256301,243.6059210874737 101.7498327868525,243.96921934359125 101.73944802256301,244.32040657314792 101.76021755120018,244.45361524336477 101.73944802256301,245.398181413344 101.70829372957814,245.80991297096625 101.71867849392584,245.95522964141128 101.70829372957814,246.1853139962186 101.72906325827353,246.4759462112852 101.70829372957814,246.99666043715843 101.73944802256301,247.27518103760667 101.69790896528866,247.61424868954055 101.71867849392584,247.7837821428402 101.69790896528866,248.40136619285477 101.71867849392584,248.5830079330335 101.666754672362,248.99472815481568 101.68752420094097,249.21269709077023 101.72906325827353,249.41855626426695 101.72906325827353,249.68496170971048 101.666754672362,250.2419892949838 101.70829372957814,251.22283569721912 101.71867849392584,251.9614923131012 101.68752420094097,252.21578284366842 101.57329179352382,252.79701624324662 101.56290702923434,252.97865108172846 101.41752032877412,253.45090032730513 101.3552117429208,253.74151428948244 101.03328404919012,254.57702536451689 100.90866687748348,255.08559436909127 100.8152039986453,255.56994372361805 100.6594325339538,255.9816390808046 100.60750871233176,256.23592077543435 100.36865913314978,256.96243682362547 100.22327243280597,257.32569313697604 100.1921181398211,257.45888683280646 100.12980955396779,257.6647313338326 100.07788573234575,257.737382246778 100.06750096805627,257.7252737644667 100.08827049663523,257.737382246778 100.07788573234575,257.8342500597355 100.04673143941909,258.0158769904592 100.01557714649243,258.08852768289216 99.93249903200194,258.1853952018864 99.76634280296275,258.330696328303 99.70403421705123,258.4275636445236 99.67287992412457,258.4275636445236 99.66249515983509,258.4154552344553 99.69364945276175,258.4517804609204 99.74557327432558,258.330696328303 99.71441898139892,258.34280474726984 99.69364945276175,258.3185879080702 99.75595803867327,258.22172050058 99.95326856063912,258.0764192373026 100.05711620370857,258.06431079047616 100.10904002533061,258.1127445702805 100.16096384689445,258.1006361272157 100.41019819042413,258.14906989175506 100.52443059784127,258.1248530120356 100.60750871233176,258.1369614525247 100.6594325339538,258.1248530120356 100.84635829157196,258.0158769904592 101.09559263510164,257.97955162710423 101.52136797195999,257.99166008283646 101.73944802256301,257.97955162710423 101.9056042516022,258.0037685372663 102.08214524493087,258.0037685372663 102.19637765234802,257.97955162710423 102.40407293860335,258.0037685372663 102.63253775349585,258.0037685372663 103.04792832606472,258.0522023423764 103.44254936999641,258.04009389301063 103.7644770637271,258.0037685372663 103.88909423549194,258.027985442357 104.52256485854741,258.0158769904592 105.06257260288112,258.06431079047616 105.17680501035647,258.04009389301063 105.50911746837664,258.06431079047616 106.01797091978369,258.0522023423764 106.20489667740185,258.08852768289216 106.56836342834868,258.06431079047616 106.87990635778988,258.06431079047616 107.1706797585939,258.027985442357 107.54453127388842,257.99166008283646 107.64837891701609,258.0522023423764 107.73145703150658,258.1732867664541 107.73145703150658,258.4881056759841 107.75222656008555,258.68183996380685 107.73145703150658,259.15406593140506 107.70030273857992,259.25093255832326 107.71068750292761,259.4688821724485 107.70030273857992,259.79580582385097 107.72107226715889,260.1711614697342 107.74184179585427,260.2801354614421 107.72107226715889,260.42543395741814 107.74184179585427,260.7160304019926 107.73145703150658,260.98240983510186 107.74184179585427,261.05505866498424 107.73145703150658,261.40619403305755 107.75222656008555,261.52727494738065 107.74184179585427,261.6604638068238 107.76261132443324,261.92684106581146 107.75222656008555,262.0479214353545 107.74184179585427,262.42326977586345 107.70030273857992,262.62910544565966 107.73145703150658,262.7501850804256 107.72107226715889,263.2102865370689 107.70030273857992,263.40401291887247 107.74184179585427,264.1304839623117 107.73145703150658,264.2757776237049 107.71068750292761,264.3968555355168 107.71068750292761,264.5905799309767 107.64837891701609,264.9295968426086 107.65876368130557,265.0506740703713 107.62760938837891,265.12332034621795 107.58607033110457,265.3049358363569 107.58607033110457,265.4139049936057 107.55491603817791,265.52287404824165 107.54453127388842,265.8376729631127 107.51337698090356,265.93453399537975 107.49260745226638,266.14036341982865 107.44068363076076,266.3461924781732 107.44068363076076,266.5399136104825 107.4095293377759,266.95156993989076 107.38875980919693,266.9878924868899 107.33683598757489,267.0 107.08760164410342,266.9757849725065 107.00452352961292,266.9273549022255 106.5579786641174,266.85470975885255 106.28797479195055,266.8304947008801 106.01797091978369,266.8668172859034 105.92450804094551,266.8304947008801 105.91412327659782,266.78206456983753 105.87258421938168,266.73363441849506 106.41259196365718,265.70448891134583 106.3191290848772,265.98296448112524 106.17374238447519,266.2372241987687 105.9348928052932,266.58834384286456 105.81027563347016,266.6973117917005 105.81027563347016,266.68520424688177 105.84142992645502,266.7094193352241 105.84142992645502,266.67309670079703 105.82066039781785,266.67309670079703 105.7791213405435,266.73363441849506 105.78950610483298,266.66098915348266" stroke="yellow" stroke-linecap="round" stroke-linejoin="round" stroke-width="0.5"><title>2023-07-15 7.1km</title><desc>13950596377</desc></polyline><polyline fill="none" points="152.30905137147056,213.0 152.30905137147056,213.24695478881767 152.2841414163704,213.34864192696114 152.29659639392048,213.47938242361124 152.14713666349417,214.19118963129586 152.1346816860023,214.48172213531507 152.04749684320996,214.91751974994258 152.03504186565988,215.048258767245 151.99767693306785,215.20805073204974 151.94785702292575,215.30973643198377 151.89803711278364,215.36784251277277 151.82330724754138,215.41142205738288 151.8606721801916,215.3968955440214 151.87312715768348,215.71647848600696 151.78594231494935,216.0796400260151 151.87312715768348,216.29753649345366 151.88558213523356,216.48637982163928 151.83576222509146,216.93669748937828 151.8108522700495,217.45964520372218 151.74857738235733,217.88090720599575 151.72366742725717,218.2731155060028 151.67384751717327,218.4910085267038 151.58666267432272,219.36257718552952 151.41229298885446,220.80065349650977 151.31265316857025,221.42526785485097 151.31265316857025,221.7157852024684 151.25037828087807,221.9772502949636 151.237923303328,222.10798265635094 151.25037828087807,222.80521983568906 151.3375631236122,223.5460304977314 151.56175271928078,224.4756696512777 151.62402760697296,224.56282300244493 151.66139253956499,224.56282300244493 151.62402760697296,224.56282300244493 151.62402760697296,224.6645018428826 151.9229470678256,225.36172616916883 152.2343215062283,225.7829641677672 152.7076106526074,226.49470822364674 152.88198033813387,226.71258832687454 153.04389504611026,226.90141747279267 153.7538287656498,227.61315578888752 154.27693782217102,227.99081137139 154.91214167652652,228.33941561177198 155.57225548598217,228.67349385324633 156.30709916056367,228.90589563357935 157.0793077678536,229.06567163167347 158.31235054391436,229.13829702450312 161.27663519751513,229.16734717099462 161.41363995039137,229.19639731138886 161.5008247931837,229.2544975739438 161.57555465842597,229.3271228678932 161.612919591018,229.42879821555107 161.65028452366823,230.35839793813648 161.62537456850987,230.89581993558386 161.65028452366823,231.5349136545119 161.60046461346792,233.58289868898282 161.62537456850987,234.77391154077486 161.57555465842597,235.32584085820417 161.60046461346792,235.9649141664413 161.58800963591784,237.41734255374467 161.612919591018,237.9402130504459 161.5630996808759,238.60832248380757 161.62537456850987,238.94237599386543 161.62537456850987,239.5233367040055 161.60046461346792,240.59810760396067 161.57555465842597,240.85953710439207 161.5630996808759,240.87406095110055 161.53818972583394,240.85953710439207 161.58800963591784,240.93215632262581 161.5630996808759,240.91763248202915 161.5630996808759,240.8885847962665 161.55064470332582,241.54215625514917 161.5630996808759,242.0795349258551 161.55064470332582,244.40331062104087 161.52573474822566,244.86806108948076 161.55064470332582,245.65232397482032 161.5008247931837,246.3784893603879 161.53818972583394,247.61296179350757 161.52573474822566,248.76028514835343 161.4510048829834,249.34120474812516 161.20190533227287,250.3868538987299 160.7161612084019,251.8391313135362 160.59161143301753,252.27481157402508 160.42969672504114,253.0009423016454 160.09341233159648,254.07560880531673 159.8194028257858,254.8307748829684 159.79449287074385,254.88886441104114 159.80694784829393,254.87434203128214 159.80694784829393,254.88886441104114 159.7073080279515,254.74364054528996 159.64503314025933,254.61293893617403 159.64503314025933,254.48223720393435 159.7073080279515,254.32249047518417 159.68239807290956,254.30796803615522 159.5578482975252,254.40962507728545 159.53293834242504,254.35153534864367 159.5080283873831,254.3660577830742 159.48311843234114,254.35153534864367 159.45820847718278,254.27892315358622 159.45820847718278,254.14822110674868 159.59521323011722,254.27892315358622 159.7073080279515,254.30796803615522 159.7695829157019,254.30796803615522 159.83185780333588,254.35153534864367 159.85676775837783,254.51128204395354 159.91904264607,254.61293893617403 159.90658766857814,254.59841652754403 159.89413269096985,254.8307748829684 159.79449287074385,255.04861048782186 159.80694784829393,255.16478933722829 159.89413269096985,255.25192341048387 160.1930521518807,255.3390574290388 160.31760192720685,255.62950376233493 160.3923317924491,255.70211525066406 160.44215170264943,255.73115983538446 160.67879627580987,255.74568212541635 161.15208542218897,255.71663754375186 161.5008247931837,255.74568212541635 162.48476801853394,255.76020441399305 163.28188658086583,255.8037712705118 164.0914601207478,255.76020441399305 165.57360244751908,255.8037712705118 165.74797213298734,255.84733811335173 165.78533706563758,255.89090494254197 165.81024702067953,256.0216053479817 165.78533706563758,256.4863169037999 165.79779204318766,257.09624845915823 165.84761195338797,257.8368760296289 165.8227019982296,258.5484556585143 165.76042711059563,259.1002904098423 165.81024702067953,259.4923821891716 165.84761195338797,259.63760108561837 165.95970675110584,259.71021047685645 166.1465314141824,259.73925422268803 166.8813750887639,259.6811667248985 167.7656784938299,259.69568860161235 168.48806719097774,259.6811667248985 168.62507194385398,259.71021047685645 168.7247117641964,259.79734169614676 168.74962171929656,259.898994716219 168.76207669673022,260.3782150937186 168.7247117641964,263.6455826560996 168.69980180909624,264.06670443495386 168.55034207866993,265.27197694711504 168.48806719097774,266.1287305614678 168.4631572359358,266.3465484338376 168.42579230334377,266.448196657293 168.4631572359358,266.448196657293 168.4631572359358,266.47723899318953 168.41333732573548,266.53532364673447 168.33860746055143,266.5643659643538 168.05214297719067,266.53532364673447 168.02723302214872,266.53532364673447 168.05214297719067,266.52080248561106 168.01477804459864,266.53532364673447 167.9898680895567,266.5062813229888 168.00232306710677,266.4917601588677 167.89022826927248,266.448196657293 167.3546642352012,266.40463314209774 167.15538459463278,266.3465484338376 167.0308348192484,266.36106961316545 166.8191002011299,266.33202725296724 166.48281580762705,266.36106961316545 166.39563096489292,266.33202725296724 166.32090109965065,266.25942132591445 166.33335607725894,266.3175060706126 166.18389634677442,266.3175060706126 166.32090109965065,267.0 166.38317598734284,266.7386197427113 166.3582660323009,266.60792942946136" stroke="yellow" stroke-linecap="round" stroke-linejoin="round" stroke-width="0.5"><title>2023-07-01 5.8km</title><desc>13950596319</desc></polyline></svg>