<?xml version="1.0" encoding="utf-8" ?>
<svg baseProfile="full" height="300mm" version="1.1" viewBox="0,0,200,300" width="200mm" xmlns="http://www.w3.org/2000/svg" xmlns:ev="http://www.w3.org/2001/xml-events" xmlns:xlink="http://www.w3.org/1999/xlink"><defs /><rect fill="#222222" height="300" width="200" x="0" y="0" /><text fill="#FFFFFF" style="font-size:12px; font-family:Arial; font-weight:bold;" x="10" y="20">Over 3km Workouts</text><text fill="#FFFFFF" style="font-size:4px; font-family:Arial" x="10" y="280">ATHLETE</text><text fill="#FFFFFF" style="font-size:9px; font-family:Arial" x="10" y="290">JaneZhou</text><text fill="#FFFFFF" style="font-size:4px; font-family:Arial" x="65" y="280">SPECIAL TRACKS</text><rect fill="yellow" height="2.6" width="2.6" x="65" y="283" /><text fill="#FFFFFF" style="font-size:3px; font-family:Arial" x="70" y="285.5">Over 5.0 km</text><rect fill="red" height="2.6" width="2.6" x="65" y="287" /><text fill="#FFFFFF" style="font-size:3px; font-family:Arial" x="70" y="289.5">Over 10.0 km</text><text fill="#FFFFFF" style="font-size:4px; font-family:Arial" x="120" y="280">STATISTICS</text><text fill="#FFFFFF" style="font-size:3px; font-family:Arial" x="120" y="285">Number: 3</text><text fill="#FFFFFF" style="font-size:3px; font-family:Arial" x="120" y="290">Weekly: 1.0</text><text fill="#FFFFFF" style="font-size:3px; font-family:Arial" x="141" y="285">Total: 19.8 km</text><text fill="#FFFFFF" style="font-size:3px; font-family:Arial" x="141" y="290">Avg: 6.6 km</text><text fill="#FFFFFF" style="font-size:3px; font-family:Arial" x="167" y="285">Min: 5.8 km</text><text fill="#FFFFFF" style="font-size:3px; font-family:Arial" x="167" y="290">Max: 7.1 km</text><polyline fill="none" points="47.72041442943737,34.5 47.7055125143379,34.81288448168198 47.63100293831667,35.03885624022223 47.61610102315899,35.43865167423792 47.55649336235365,35.577710729747196 47.571395277569536,36.01226952657453 47.511787616764195,36.3772980360518 47.43727804085938,37.142117069728556 47.4223761257017,37.52452526400157 47.28825888893334,37.82002190109051 47.332964634522796,37.80263976055721 47.30316080409102,38.11551801180758 47.183945482596755,38.82818293620949 47.169043567439076,39.054149224059074 47.10943590669194,39.471316946684965 47.094533991476055,39.97539321152726 47.03492633072892,40.28826736409974 46.97531866998179,41.00092295272043 46.930612924392335,41.15735913545359 46.94551483960822,41.313795170688536 46.82629951805575,41.92215612746077 46.781593772466294,42.53051485271135 46.67728036612971,43.19101608537312 46.67728036612971,43.469121080604964 46.45375163824065,44.8944018631737 46.45375163824065,45.224648101764615 46.33453631674638,45.90251990004617 46.31963440153049,46.16323908486811 46.24512482562568,46.63253258483019 46.230222910468,47.014918899469194 46.06630184332607,48.162072554579936 46.051399928168394,48.509693308064016 45.94708652183181,49.60469392026425 45.798067369963974,50.64754492636712 45.708655878785066,51.5687245286681 45.61924438766437,52.05538338566839 45.52983289648546,52.97655517050589 45.36591182940174,53.91510229448613 45.27650033828104,54.0889067347598 45.14238310151268,54.21056973459781 45.17218693194445,54.1931893115252 45.09767735598143,54.714601212137495 45.09767735598143,54.94054586009588 45.17218693194445,55.218631158277276 45.216892677533906,55.44457511983637 45.14238310151268,56.105024935430265 45.15728501678677,56.36572808625351 45.082775440765545,56.800232427282026 45.067873525607865,57.21735552404425 44.903952458524145,58.22539867841988 44.79963905212935,59.12915629945928 44.79963905212935,59.44199432901223 44.680423730635084,60.137187838350656 44.47179691802012,62.06633456988493 44.47179691802012,62.935312256755424 44.53140457876725,63.56097337335814 44.62081606988795,64.04759705525066 44.78473713697167,64.72539194815909 44.99336394970305,65.3162878009316 45.05297161039198,65.52483877602208 45.216892677533906,65.88980235162308 45.33610799902817,66.25476512458408 45.91728269145824,67.1758580772439 45.961988437047694,67.29751148121431 45.94708652183181,67.52343899481639 46.18551716487855,67.71460818916967 46.33453631674638,67.88839817472035 46.379242062335834,67.97529309923993 46.57296695985133,68.07956694859604 46.84120143321343,68.3402512853354 46.94551483960822,68.40976703928027 47.45217995607527,68.94851314509287 47.660806768748444,69.10492297724704 48.25688337633619,69.43512102757813 48.689038916898426,69.73056083153642 49.41923276119633,70.07813639804954 50.14942660549423,70.3040601258981 50.37295533338329,70.44308995935717 51.0882472624653,70.63425579019531 51.922754513158,70.68639188763336 52.17608707136242,70.65163449119427 52.39961579919327,70.7211492768547 52.682752187829465,70.68639188763336 53.249024965043645,70.7211492768547 54.277257113251835,70.65163449119427 54.51568775624037,70.70377058318991 54.81372606009245,70.7211492768547 54.99254904233385,70.70377058318991 55.663135225942824,70.73852796871506 55.916467784147244,70.68639188763336 56.080388851230964,70.70377058318991 56.42313290061429,70.70377058318991 56.66156354371924,70.77328534706612 56.72117120446637,70.84280008176574 56.82548461080296,70.99920812851633 56.870190356334206,71.52056721947156 56.85528844111832,71.79862473160028 56.870190356334206,71.97241044005204 56.84038652601885,72.21571012622735 56.8850922716083,72.51114497981325 56.8850922716083,72.63279447253444 56.84038652601885,72.77182235503278 56.92979801708134,73.32793272037816 56.92979801708134,73.69287913484732 56.81058269558707,74.85722661629552 56.89999418670777,75.43070819406421 56.870190356334206,75.69138098342228 56.85528844111832,76.85571444375091 56.8850922716083,77.13376301700191 56.84038652601885,77.42918911576271 56.81058269558707,77.84626035987458 56.82548461080296,78.35022004815983 56.870190356334206,78.85417820618022 56.84038652601885,79.14960124254867 56.870190356334206,79.53191262666951 56.82548461080296,79.74044573771243 56.870190356334206,80.92212841800938 56.81058269558707,81.65198704706563 56.85528844111832,83.25071378157008 56.8850922716083,83.80678903621447 56.82548461080296,84.34548516258656 56.780778865213506,84.57138946949271 56.76587694999762,84.90155674952257 56.79568078042939,85.82254621757602 56.84038652601885,86.08320268645184 56.79568078042939,86.32648168805463 56.81058269558707,87.3169710850052 56.780778865213506,87.59500213409774 56.780778865213506,88.06417847338889 56.79568078042939,88.46384616084106 56.84038652601885,88.84613609194639 56.76587694999762,89.2284251426463 56.780778865213506,89.45432280424575 56.73607311962405,89.73235027342162 56.81058269558707,90.06250728822488 56.72117120446637,91.22673994221259 56.75097503483994,92.18244721247174 56.81058269558707,92.79062170156976 56.76587694999762,93.64206224310328 56.6913673740346,94.63250799085654 56.482740561361425,95.60557174294081 56.1399965119781,96.78714148863219 56.035683105757926,97.01302886485064 55.752546717063524,97.89919944982103 55.663135225942824,98.38572246550757 55.588625649979804,98.62898343869892 55.51411607401678,98.78536530472047 55.39490075252252,99.39351560550858 55.15647010947578,100.17541986185824 55.0372547879233,100.41867821277992 54.82862797525013,100.95732043584576 54.6796088234405,101.51333638158394 54.59019733220339,101.79134365616483 54.51568775624037,101.93034711887594 54.4858839258668,101.84346996832755 54.694510738539975,101.80871909535199 55.11176436388632,101.89559626413393 55.18627393984934,102.03459963956266 55.26078351581236,102.36473218983156 55.335293091717176,102.43423369574884 55.45450841326965,102.46898443778628 55.827056293026544,102.3994829464209 56.82548461080296,102.38210756907938 57.108620999439154,102.46898443778628 57.57058037031675,102.43423369574884 59.03096805891255,102.52111053718545 59.58233892102726,102.46898443778628 59.939984885568265,102.4516090676916 60.2827289350098,102.50373517254775 60.53606149321422,102.46898443778628 61.20664767676499,102.50373517254775 61.489784065342974,102.48635980609106 61.84743002994219,102.52111053718545 62.24978174007265,102.52111053718545 62.5776238742983,102.57323662027193 63.60585602239007,102.53848590001871 63.87409049581038,102.57323662027193 64.4999709338299,102.48635980609106 64.81291115278145,102.50373517254775 65.0513417958864,102.46898443778628 65.25996860850137,102.50373517254775 65.37918393005384,102.62536268694384 65.4238896756433,102.95549406258215 65.43879159074277,103.44200226190151 65.37918393005384,104.3455137071578 65.36428201483795,105.1447697335534 65.46859542117454,105.73552171504707 65.43879159074277,105.94402191265544 65.49839925160632,106.10039688901452 65.52820308192167,106.3610215223598 65.43879159074277,106.62164574662165 65.40898776042741,106.98651897332456 65.34938009968027,107.24714221578324 65.34938009968027,107.43826566702046 65.46859542117454,108.2375068066176 65.36428201483795,109.07149345957441 65.36428201483795,109.36686272808583 65.27487052371725,111.78192115465936 65.28977243893314,111.99041376037349 65.24506669334369,112.3552751903917 65.27487052371725,112.720135818774 65.17055711743888,113.17186691470852 65.15565520222299,113.5888483741146 65.08114562625997,113.86683543209801 65.08114562625997,114.17957031604601 65.00663605029695,114.57917514404107 64.94702838954981,115.29151180047484 64.88742072874447,115.34363387487247 64.61918625538237,115.3610078960628 64.4999709338299,115.34363387487247 64.36585369717795,115.2741377720522 64.1274230540148,115.20464164011355 63.69526751351077,115.20464164011355 63.42703304014867,115.23938970972085 62.90546600846574,115.16989356324484 62.83095643250272,115.11777143432118 62.81605451728683,115.06564928899752 62.81605451728683,114.90928275499027 62.90546600846574,114.7007938138704 62.86076026287628,114.52705282972602 62.59252578939777,114.82241239464201 62.62232961982954,115.01352712736116 62.7564468565397,115.20464164011355 62.771348771697376,115.1003973876941 62.81605451728683,115.04827523694257 62.80115260207094,114.97877901050379 62.771348771697376,115.06564928899752 62.59252578939777,115.18726760258141 62.48821238311939,115.41312994866166 62.50311429833528,115.48262599339068 62.53291812870884,115.5 62.681937280576676,115.48262599339068 62.69683919579256,115.3262598519068 62.681937280576676,115.22201567581214 62.4733104679035,114.71816790229059 62.26468365523033,114.59654924516508 62.17527216410963,114.59654924516508 61.99644918181002,114.68341972366034" stroke="yellow" stroke-linecap="round" stroke-linejoin="round" stroke-width="0.5"><title>2025-03-07 6.9km</title><desc>13950596373</desc></polyline><polyline fill="none" points="133.35608301329194,34.5 133.4962773315492,35.00875226264179 133.63647164980648,35.063261345087085 134.1193631903734,35.04509165286436 134.77360334218247,35.08143103544717 135.49015207984485,34.97241286483768 135.75496356980875,35.04509165286436 136.1443922315375,35.08143103544717 137.09459816623712,35.08143103544717 137.21921533806017,35.11777041043388 137.48402682802407,35.335806500312174 137.51518112100894,35.4084851360094 137.5463354139356,35.517503032431705 137.53075826744316,35.7537082395138 137.46844968158985,36.11710023738851 137.46844968158985,36.571339163623634 137.42171824217075,36.862051451869775 137.35940965625923,37.00740741318441 137.32825536333257,37.6615077311435 137.28152392391348,37.97038757898554 137.29710107040592,38.115742611087626 137.28152392391348,38.3156055813015 137.20363819162594,38.551806976349326 137.1413296056562,39.16956294969714 137.09459816623712,39.33308622131881 137.01671243394958,39.932670230962685 136.95440384803806,40.223376883237506 136.95440384803806,40.604928624641616 136.89209526218474,40.804788725596154 136.82978667627322,41.4770437379193 136.78305523685412,41.60422682540957 136.78305523685412,41.858592720585875 136.75190094392747,42.2219719234854 136.78305523685412,42.42183016047056 136.73632379743503,42.74887041501643 136.65843806508929,42.876052569641615 136.6117066256702,43.366611435078084 136.54939803981688,43.80266259481141 136.53382089338265,44.038856515151565 136.33131798921386,45.76487924371031 136.3468951357063,45.87389062871807 136.26900940336054,46.29176696963259 136.22227796394145,46.85499000974232 136.17554652452236,47.05484290681488 136.12881508510327,47.38187442337221 136.12881508510327,47.690736956035835 136.00419791339664,48.56281643162947 135.97304362041177,49.08969565619191 135.77054071630118,50.306962225891766 135.73938642337453,50.85200418907334 135.59919210511725,51.30620451654249 135.42784349399153,51.52422025114356 135.34995776158758,51.85124333915883 135.34995776158758,52.34177681489382 135.44342064042576,52.59612695976102 135.47457493341062,52.77780540625099 135.4122663474409,53.631691555463476 135.42784349399153,53.940542957047 135.3188034686027,54.55824411007052 135.3188034686027,54.72175287055143 135.17860915034544,55.84814236497914 135.13187771098455,56.48400417159428 135.02283768571215,57.210700524490676 134.9916833928437,57.57404755904281 134.92937480687397,57.88289193996752 134.83591192803578,58.40974284984986 134.82033478154335,58.700418528853334 134.75802619574824,58.972926535469014 134.71129475632915,59.427105594964814 134.71129475632915,59.79044798629184 134.66456331691006,60.00845305575058 134.75802619574824,60.51713048543024 134.7424490491976,60.88047059327073 134.77360334218247,61.24380993995874 134.85148907458642,61.716149952757405 135.00726053921971,62.333823413195205 135.03841483214637,62.67899291832873 135.1007234180579,62.86066080305318 135.17860915034544,63.04232849746768 135.2564948828076,63.29666295001516 135.3655349080218,63.51466361244093 135.53688351926394,64.0051641012833 135.77054071630118,64.38666352254222 135.86400359513937,64.5864962177875 136.19112367095659,65.04066057820455 136.23785511037568,65.36765818133426 136.3001636962872,65.4039912103035 136.26900940336054,65.36765818133426 136.3468951357063,65.4039912103035 136.58055233280174,65.62198922422249 136.75190094392747,65.93081927500316 136.95440384803806,66.00348508938623 137.17248389864108,66.18514949217206 137.32825536333257,66.33048087748466 137.4528725350974,66.53031133335026 137.59306685335469,66.62114328263851 137.8578783433186,66.92997155453486 138.10711268679006,67.02080329453747 138.30961559101706,67.18430030673335 138.82366142445244,67.47496128121566 138.97943288920214,67.62029158585938 139.1663586468203,67.71112296439242 139.71155877335696,68.01994929564535 140.08541028859327,68.07444800293888 140.55272468266776,68.34694128246338 141.06677051627776,68.49227085646999 141.58081634971313,68.78292963934655 141.75216496089706,68.71026498924766 141.93909071857342,68.74659731806605 142.15717076911824,68.71026498924766 142.31294223392615,68.76476347965945 142.42198225914035,68.72843115463911 142.6556394562358,68.71026498924766 143.09179955738364,68.76476347965945 144.4781655932893,68.74659731806605 144.7429770832532,68.80109579708369 145.33490864920896,68.81926195289998 145.9891488009016,68.78292963934655 146.25396029092371,68.80109579708369 146.7212746849982,68.78292963934655 147.32878339738818,68.83742810688273 147.45340056915302,68.8919265573204 147.56244059442542,69.03725567478978 147.60917203384452,69.34607964509632 147.62474918027874,69.54590662702685 147.68705776619026,69.72756731999107 147.6559034732054,70.67219985653355 147.68705776619026,71.28984142611444 147.67148061969783,71.48966616897087 147.7026349126245,72.19813385710586 147.64032632677117,72.88843292402453 147.68705776619026,73.4334039313253 147.6559034732054,73.65139185491716 147.68705776619026,73.94204199359228 147.64032632677117,74.25085723237135 147.6559034732054,75.1046376787126 147.60917203384452,75.52244359992619 147.60917203384452,75.8494214451348 147.57801774085965,76.03107553726295 147.67148061969783,77.08466552088794 147.6559034732054,77.53879716114898 147.67148061969783,77.64778857793135 147.62474918027874,77.82944078709988 147.64032632677117,78.06558837465127 147.62474918027874,78.37439627331332 147.6559034732054,78.99201042174536 147.62474918027874,79.700447472831 147.57801774085965,80.08191237910069 147.60917203384452,80.40888163119962 147.62474918027874,80.95382901538687 147.60917203384452,81.48060985971824 147.64032632677117,81.68042286504351 147.60917203384452,83.09727212000871 147.56244059442542,83.71486945643846 147.57801774085965,83.93284446212056 147.56244059442542,84.27797099431336 147.59359488735208,84.71391931692779 147.56244059442542,85.49499065573036 147.60917203384452,85.91277155641001 147.546863447933,86.42137303430354 147.57801774085965,86.67567321425304 147.546863447933,87.60204928927124 147.57801774085965,87.874511899543 147.5001320085721,88.49209223221987 147.53128630144056,88.81904563614808 147.59359488735208,89.12783439639315 147.59359488735208,89.52744256456208 147.5001320085721,90.36298394246842 147.56244059442542,91.83425354582141 147.57801774085965,92.94223846963723 147.53128630144056,93.32367426548444 147.35993769031484,94.19552436486993 147.3443605438224,94.46797662258905 147.12628049321938,95.17635049094679 147.0328176143812,95.61227143422002 146.54992607381428,96.86553804676805 146.36300031619612,97.62839155363326 146.22280599799706,98.35491558541253 145.9891488009016,98.97245862119598 145.91126306849765,99.35388116314425 145.55298869975377,100.44365523543092 145.33490864920896,100.98853970546043 145.28817720973166,101.18833024920605 145.19471433095168,101.49709700074163 145.11682859854773,101.60607337015972 145.1012514521135,101.58791064668912 145.13240574498195,101.60607337015972 145.11682859854773,101.75137508958869 145.07009715912864,102.02381548567791 145.02336571970955,102.13279152433097 144.8987485479447,102.27809280282236 144.64951420441503,102.49604449245089 144.55605132557685,102.64134546677815 144.50931988615775,102.64134546677815 144.49374273972353,102.62318285167567 144.54047417914262,102.67767069138063 144.61835991154658,102.49604449245089 144.5716284721275,102.51420712089748 144.54047417914262,102.477881862098 144.6339370579808,102.33258075086633 144.92990284092957,102.11462885595392 145.08567430556286,102.09646618569968 145.16356003796682,102.16911685540981 145.24144577037077,102.15095419081626 145.61529728560708,102.22360483762168 145.78664589679101,102.18727951803885 145.91126306849765,102.20544217877614 145.9891488009016,102.18727951803885 146.26953743735794,102.02381548567791 146.64338895265246,101.96932744064543 147.2820519579691,101.98749012424378 147.60917203384452,101.96932744064543 147.8584063773742,102.00565280589217 148.1232178673381,102.00565280589217 148.29456647852203,101.96932744064543 148.60610940790502,102.00565280589217 148.94880663027288,102.00565280589217 149.57189248909708,102.07830351355369 150.16382405499462,102.06014083951595 150.64671559556155,102.00565280589217 150.8336413532379,102.04197816352826 151.78384728782112,102.02381548567791 152.59385890432168,102.09646618569968 152.7652075155056,102.06014083951595 153.26367620256497,102.09646618569968 154.02695637964644,102.07830351355369 154.30734501610277,102.13279152433097 154.852545142523,102.09646618569968 155.31985953671392,102.09646618569968 155.75601963786175,102.04197816352826 156.31679691083264,101.98749012424378 156.47256837552413,102.07830351355369 156.59718554728897,102.25993014968117 156.59718554728897,102.73215851397254 156.62833984015742,103.02275994569936 156.59718554728897,103.73109889710031 156.55045410786988,103.87639883747033 156.56603125436231,104.20332325866912 156.55045410786988,104.69370873576554 156.58160840073833,105.25674220458313 156.6127626937814,105.42020319215953 156.58160840073833,105.63815093612357 156.6127626937814,106.07404560298892 156.59718554728897,106.47361475264188 156.6127626937814,106.58258799747273 156.59718554728897,107.10929104957904 156.62833984015742,107.29091242105642 156.6127626937814,107.49069571022119 156.64391698670806,107.89026159871719 156.62833984015742,108.07188215301721 156.6127626937814,108.63490466377698 156.55045410786988,108.94365816848585 156.59718554728897,109.12527762062382 156.58160840073833,109.81542980558879 156.55045410786988,110.10601937829051 156.6127626937814,111.19572594345664 156.59718554728897,111.41366643554647 156.56603125436231,111.5952833032643 156.56603125436231,111.88586989646137 156.47256837552413,112.39439526390925 156.48814552195836,112.57601110555697 156.44141408253927,112.68498051931965 156.37910549668595,112.95740375452442 156.37910549668595,113.12085749040125 156.33237405726686,113.28431107234792 156.31679691083264,113.75650944466179 156.27006547141355,113.90180099305871 156.23891117842868,114.21054512973933 156.16102544614114,114.51928871725977 156.16102544614114,114.80987041571643 156.11429400672205,115.42735490982886 156.0831397137954,115.48183873032394 156.00525398139143,115.5 155.63140246615512,115.46367745875614 155.50678529439028,115.3910323533346 154.836967996147,115.28206463827519 154.43196218792582,115.24574205130921 154.02695637964644,115.3002259288478 153.88676206138916,115.24574205130921 153.87118491489673,115.17309685474902 153.80887632910162,115.10045162773167 154.61888794548577,113.5567333670042 154.4786936273449,113.97444672168058 154.2606135767419,114.3558362981421 153.9023392079398,114.88251576428593 153.71541345026344,115.04596768753254 153.71541345026344,115.02780637031537 153.76214488968253,115.06412900282885 153.76214488968253,115.00964505119191 153.73099059669767,115.00964505119191 153.66868201084435,115.10045162773167 153.68425915727858,114.99148373022035" stroke="yellow" stroke-linecap="round" stroke-linejoin="round" stroke-width="0.5"><title>2023-07-15 7.1km</title><desc>13950596377</desc></polyline><polyline fill="none" points="43.46357705723494,184.5 43.46357705723494,184.8704321832338 43.4262121245265,185.02296289043443 43.44489459088072,185.2190736354096 43.220704995212145,186.28678444692923 43.20202252897434,186.72258320296532 43.07124526472762,187.37627962492115 43.05256279848982,187.5723881508602 42.99651539954357,187.8120760980819 42.921785534359515,187.96460464797565 42.84705566917546,188.05176376915188 42.734960871282965,188.11713308606704 42.79100827022921,188.09534331601753 42.80969073646702,188.57471772901772 42.67891347233672,189.1194600390154 42.80969073646702,189.4463047401805 42.82837320282124,189.72956973244436 42.753643337637186,190.40504623405286 42.71627840504516,191.1894678055687 42.622866073506884,191.82136080898636 42.58550114079844,192.40967325899692 42.510771275730804,192.7365127900557 42.37999401148409,194.04386577829428 42.11843948322348,196.20098024475737 41.968979752855375,197.1379017822619 41.968979752855375,197.57367780370987 41.8755674213171,197.9658754424454 41.85688495496288,198.16197398451914 41.8755674213171,199.2078297535336 42.0063446854474,200.31904574658256 42.34262907889206,201.71350447692384 42.436041410430335,201.84423450366012 42.49208880937658,201.84423450366012 42.436041410430335,201.84423450366012 42.436041410430335,201.99675276431662 42.88442060176749,203.04258925376053 43.35148225934245,203.6744462516508 44.061415978940204,204.7420623354701 44.32297050720081,205.06888249031908 44.56584256910719,205.35212620918173 45.630743148503825,206.4197336833313 46.41540673316922,206.986217057085 47.368212514789775,207.5091234176507 48.35838322888594,208.0102407798695 49.4606487408746,208.35884345036175 50.6189616516931,208.59850744750293 52.468525815871544,208.70744553674012 56.91495279618539,208.75102075647737 57.12045992561616,208.79459596707602 57.25123718974646,208.88174636090116 57.36333198763896,208.99068430182524 57.41937938646879,209.14319732331205 57.47542678541504,210.53759690719016 57.438061852706596,211.34372990338306 57.47542678541504,212.3023704817606 57.40069692011457,215.37434803346696 57.438061852706596,217.1608673111623 57.36333198763896,217.98876128731354 57.40069692011457,218.94737124966923 57.382014453876764,221.12601383060974 57.41937938646879,221.9103195756761 57.34464952128474,222.91248372571135 57.438061852706596,223.41356399079086 57.438061852706596,224.28500505600823 57.40069692011457,225.89716140592645 57.36333198763896,226.28930565658084 57.34464952128474,226.31109142664354 57.30728458869271,226.28930565658084 57.382014453876764,226.398234483946 57.34464952128474,226.376448723051 57.34464952128474,226.3328771943925 57.325967054930516,227.31323438271647 57.34464952128474,228.1193023887754 57.325967054930516,231.6049659315613 57.28860212233849,232.3020916342066 57.325967054930516,233.47848596223048 57.25123718974646,234.5677340405673 57.30728458869271,236.41944269026862 57.28860212233849,238.14042772252287 57.17650732444599,239.01180712218047 56.80285799840931,240.58028084809484 56.074241812573746,242.75869697029702 55.887417149497196,243.41221736103762 55.644545087590814,244.5014134524681 55.14011849730741,246.1134132079751 54.7291042386787,247.24616232444532 54.691739306086674,247.33329661654716 54.710421772440895,247.31151304690866 54.710421772440895,247.33329661654716 54.56096204195637,247.11546081793495 54.4675497104181,246.91940840426832 54.4675497104181,246.72335580589424 54.56096204195637,246.48373571278353 54.52359710924793,246.46195205423282 54.336772446287796,246.6144376159209 54.299407513579354,246.52730302295822 54.26204258110374,246.54908667461132 54.224677648511715,246.52730302295822 54.18731271580327,246.41838473036478 54.18731271580327,246.22233166011574 54.392819845234044,246.41838473036478 54.56096204195637,246.46195205423282 54.65437437349465,246.46195205423282 54.74778670503292,246.52730302295822 54.785151637508534,246.76692306592304 54.878563969163224,246.91940840426832 54.859881502809,246.89762479130877 54.84119903645478,247.24616232444532 54.691739306086674,247.57291573172552 54.710421772440895,247.74718400584243 54.84119903645478,247.8778851157258 55.289578227791935,248.00858614355093 55.47640289075207,248.44425564350968 55.588497688644566,248.5531728759961 55.663227553945035,248.5967397530767 56.0181944136275,248.61852318812453 56.728128133225255,248.5749563156278 57.25123718974646,248.61852318812453 58.72715202777181,248.64030662098958 59.922829871298745,248.7056569057604 61.13719018106349,248.64030662098958 63.36040367127862,248.7056569057604 63.62195819942281,248.7710071700276 63.678005598369054,248.83635741382022 63.7153705310775,249.03240802195796 63.678005598369054,249.72947535569256 63.696688064723276,250.64437268873735 63.771417930023745,251.75531404445064 63.7340529973153,252.82268348775688 63.64064066577703,253.65043561474886 63.7153705310775,254.23857328374288 63.771417930023745,254.45640162842756 63.93956012662966,254.56531571528467 64.21979712124448,254.60888133403205 65.32206263311673,254.52175008735503 66.64851774077397,254.54353290241852 67.73210078640841,254.52175008735503 67.93760791572277,254.56531571528467 68.08706764620729,254.69601254421286 68.12443257891573,254.8484920743067 68.14311504515354,255.56732264056336 68.08706764620729,260.4683739841421 68.04970271361526,261.1000566524308 67.8255131180631,262.90796542067255 67.73210078640841,264.1930958422017 67.6947358539328,264.5198226507637 67.63868845498655,264.67229498592496 67.6947358539328,264.67229498592496 67.6947358539328,264.71585848976974 67.62000598863233,264.8029854701017 67.50791119073983,264.8465489465161 67.0782144657569,264.8029854701017 67.04084953316487,264.8029854701017 67.0782144657569,264.78120372840203 67.02216706692707,264.8029854701017 66.98480213421863,264.7594219844759 67.00348460057285,264.73764023829426 66.83534240385052,264.67229498592496 66.03199635271449,264.60694971313933 65.73307689186186,264.5198226507637 65.5462522287853,264.5416044197482 65.22865030169487,264.49804087945085 64.72422371141147,264.5416044197482 64.59344644728117,264.49804087945085 64.48135164950509,264.38913198887894 64.50003411585931,264.4762591059116 64.27584452019073,264.4762591059116 64.48135164950509,265.5 64.57476398092695,265.1079296140524 64.53739904845133,264.9118941441993" stroke="yellow" stroke-linecap="round" stroke-linejoin="round" stroke-width="0.5"><title>2023-07-01 5.8km</title><desc>13950596319</desc></polyline></svg>