<?xml version="1.0" encoding="utf-8" ?>
<svg baseProfile="full" height="300mm" version="1.1" viewBox="0,0,200,300" width="200mm" xmlns="http://www.w3.org/2000/svg" xmlns:ev="http://www.w3.org/2001/xml-events" xmlns:xlink="http://www.w3.org/1999/xlink"><defs /><rect fill="#222222" height="300" width="200" x="0" y="0" /><text fill="#FFFFFF" style="font-size:12px; font-family:Arial; font-weight:bold;" x="10" y="20">Over 3km Workouts</text><text fill="#FFFFFF" style="font-size:4px; font-family:Arial" x="10" y="280">ATHLETE</text><text fill="#FFFFFF" style="font-size:9px; font-family:Arial" x="10" y="290">JaneZhou</text><text fill="#FFFFFF" style="font-size:4px; font-family:Arial" x="65" y="280">SPECIAL TRACKS</text><rect fill="yellow" height="2.6" width="2.6" x="65" y="283" /><text fill="#FFFFFF" style="font-size:3px; font-family:Arial" x="70" y="285.5">Over 5.0 km</text><rect fill="red" height="2.6" width="2.6" x="65" y="287" /><text fill="#FFFFFF" style="font-size:3px; font-family:Arial" x="70" y="289.5">Over 10.0 km</text><text fill="#FFFFFF" style="font-size:4px; font-family:Arial" x="120" y="280">STATISTICS</text><text fill="#FFFFFF" style="font-size:3px; font-family:Arial" x="120" y="285">Number: 4</text><text fill="#FFFFFF" style="font-size:3px; font-family:Arial" x="120" y="290">Weekly: 1.0</text><text fill="#FFFFFF" style="font-size:3px; font-family:Arial" x="141" y="285">Total: 25.8 km</text><text fill="#FFFFFF" style="font-size:3px; font-family:Arial" x="141" y="290">Avg: 6.4 km</text><text fill="#FFFFFF" style="font-size:3px; font-family:Arial" x="167" y="285">Min: 5.8 km</text><text fill="#FFFFFF" style="font-size:3px; font-family:Arial" x="167" y="290">Max: 7.1 km</text><polyline fill="none" points="89.83671062160283,115.14233433949994 91.30244306463283,115.5 91.47287706949282,115.14233433949994 91.74557147745509,114.02959457607358 92.42730749747716,107.39282900778926 92.29096029349603,105.92239220312331 92.1886998906266,104.33272438979475 92.3591338954866,97.93424416412017 91.47287706949282,97.41759198968066 90.17757863155566,96.8214539923647 74.9066917836899,89.6677250432258 74.2931293657748,89.27029170651804 72.96374412672594,88.15747615174041 72.69104971864726,87.76004123486928 72.55470251489896,87.12414450274082 72.62287611677311,86.68696488189744 72.52061571378727,86.05106635324773 72.58878931577783,85.29593546772958 72.52061571378727,84.42157151427818 72.38426850980613,83.98438878255547 72.07748730073217,83.58694949891651 72.04340049973689,83.38822970123147 72.07748730073217,82.9510457800061 71.90705329575576,82.03693231902434 72.04340049973689,81.36128182488028 72.14566090283915,80.5663973519986 72.11157410184387,79.37406752325478 71.77070609189104,78.81764565536287 71.12305687274784,78.22147846381995 70.6117548578186,78.18173395103076 69.52097722585313,78.3407119770709 68.5665467978688,78.3407119770709 68.12341838469729,78.18173395103076 67.61211637000088,77.66505490744021 67.40759556391276,77.5855657615175 65.90777631977107,77.5855657615175 65.12377989676315,77.50607659871457 64.68065148394089,77.5855657615175 64.13526266789995,77.46633201109944 63.0103982349392,77.54582118216786 61.81736019987147,77.38684282355825 60.65840896591544,77.42658741940977 59.1245029210113,77.2676090109453 58.37459329899866,77.46633201109944 57.931464886059985,77.42658741940977 56.908860856085084,77.50607659871457 56.124864433077164,77.34709822354489 55.37495481094811,77.2676090109453 54.55687158706132,77.10863053589128 53.63652796007227,77.06888590662857 52.7502711340785,77.18811978172744 51.04593108408153,77.14837516081752 50.159674257971346,77.30735361928237 49.47793823806569,77.5855657615175 49.000723024015315,77.50607659871457 48.6598550141789,77.5855657615175 47.500903780106455,77.38684282355825 46.853254561079666,77.5855657615175 46.171518541057594,77.14837516081752 46.00108453608118,77.06888590662857 45.387522118049674,77.34709822354489 43.44457446120214,77.46633201109944 42.96735924715176,77.2676090109453 42.6946648391895,76.94965199424769 42.45605723222252,76.83041804438108 42.149276023264974,76.31373716224334 41.740234411205165,76.19450301272445 41.12667199317366,76.15475828788476 40.51310957537498,76.15475828788476 39.08146393310744,76.31373716224334 38.22929390822537,76.19450301272445 36.047738644410856,76.2342477334023 33.388968166313134,76.11501355882501 32.2300169323571,76.15475828788476 30.90063169330824,75.95603460134589 28.991770837339573,76.07526882574894 27.86690640449524,76.0355240884819 26.53752116544638,75.95603460134589 25.958045548410155,75.83680033945711 23.43562227440998,75.7970555772481 22.003976632491685,75.71756604019902 21.083633005502634,75.83680033945711 20.197376179508865,75.7970555772481 19.89059497055132,75.71756604019902 19.1065985475434,75.75731081087724 18.62938333360944,75.83680033945711 18.356688925647177,75.83680033945711 18.22034172154963,75.71756604019902 18.083994517452084,75.28037328930805 18.083994517452084,74.6047107753111 18.356688925647177,74.20726167602697 18.45894932851661,73.8495571311214 18.424862527521327,73.61108724740916 18.186254920554347,73.21363710830337 18.28851532342378,72.41873558229418 18.0499077164568,71.66357759162202 18.0499077164568,71.22638017390273 18.254428522428498,70.11351174832089 18.45894932851661,68.32496637504664 18.39077572640963,67.64929148630472 18.493036129511893,66.89412401148002 18.83390413946472,66.09920925789629 18.936164542566985,65.74149707591278 19.1065985475434,63.75420104019577 19.24294575152453,63.356740585149964 19.24294575152453,63.03877192150685 19.37929295550566,62.48232611952699 19.37929295550566,61.92587950226152 19.447466557379812,61.607909640530124 19.54972696036566,60.41552028796286 19.48155335849151,59.89881707238965 19.58381376147736,59.700084879092174 19.48155335849151,59.34236666938523 19.54972696036566,58.785915450920584 19.447466557379812,58.66667579807108 19.651987363467924,58.26921001795563 19.58381376147736,57.99098372441949 19.686074164579622,56.91782325395616 19.82242136867717,56.16263443825301 19.78833456756547,55.486937908950495 19.41337975661736,54.93048104090849 19.311119353515096,54.53301135011134 19.447466557379812,53.89705897952081 19.85650816943962,53.06236987689044 19.89059497055132,52.744392593274824 19.82242136867717,52.38666783081135 19.82242136867717,51.67121729502105 20.061028975527734,50.91601804489619 20.299636582494713,50.55829155992251 20.33372338337358,50.24031217940501 20.163289378513582,49.48511008324567 20.197376179508865,48.84914925848716 20.1292025775183,48.53116844658507 20.02694217453245,48.332430303969886 19.924681771546602,48.252935017837444 19.754247766453773,48.173439714999404 18.62938333360944,48.09394439551397 18.493036129511893,48.05419672955759 18.424862527521327,47.89520602405537 18.493036129511893,47.61697212912259 18.45894932851661,46.82201702060411 18.56120973150246,46.424538842227776 18.76573053759057,46.305295307480264 19.208858950529248,46.225799596868455 19.447466557379812,45.987312365235994 19.924681771546602,45.94756447878899 19.277032552519813,46.06680812587729 18.867990940460004,46.06680812587729 18.62938333360944,45.90781658818014 18.56120973150246,45.669329156778986 18.45894932851661,44.55638583007385 18.62938333360944,43.72167619410902 19.038424945436418,42.608727158483816 19.140685348538682,41.57527156142169 19.038424945436418,40.38281930031371 18.902077741571702,39.826340296829585 18.62938333360944,39.23011188788223 17.947647313587368,38.11714968641172 17.743126507499255,37.640164887096034 17.640866104513407,37.24267709659762 17.572692502639256,36.44770026707556 17.743126507499255,35.85146655255812 18.015820915461518,35.612972804607125 17.98173411458265,34.93723970511928 17.91356051247567,34.698745382920606 17.947647313587368,34.539749084884534 18.11808131856378,34.5 18.902077741571702,34.65899631459615 19.48155335849151,34.57949816566543 19.85650816943962,34.778243506967556 20.87911219941452,34.57949816566543 21.560848219436593,34.778243506967556 21.765369025524706,35.57322383209248 21.83354262751527,36.20920689360355 21.799455826403573,36.48744914808776 21.663108622422442,36.80544004624244 21.697195423417725,37.202928294602316 21.560848219436593,37.87865736160893 21.288153811357915,38.594133886508644 21.1177198063815,39.42885479493998 21.1177198063815,40.74055537185632 21.458587816450745,41.933006509469124 21.90171622938942,42.52923067394295 22.072150234365836,43.165202084055636 22.003976632491685,43.40369108816958 21.86762942839414,43.56268367456505 21.185893408488482,43.92041675001383 20.163289378513582,45.07310992310522 20.061028975527734,45.31159772895626 19.924681771546602,46.02706024760846 20.02694217453245,46.58353016345063 19.924681771546602,46.78226922143949 19.89059497055132,47.020755953737535 20.061028975527734,47.41823350812774 20.1292025775183,48.05419672955759 20.231462980387732,48.2926826630428 20.36781018448528,48.729906485183164 20.299636582494713,50.12106984303682 20.231462980387732,50.55829155992251 19.89059497055132,51.313491521636024 19.78833456756547,51.710964582453016 19.754247766453773,52.068689981271746 19.924681771546602,52.744392593274824 19.924681771546602,53.022622731048614 19.82242136867717,53.30085266489186 19.41337975661736,54.01630013019894 19.34520615451038,54.29452933600987 19.37929295550566,54.85098713598563 19.754247766453773,55.40744412067579 19.85650816943962,55.96390028978931 19.72016096545849,57.79225053291884 19.61790056247264,58.3089566147537 19.651987363467924,58.70642235313426 19.54972696036566,59.3821131537552 19.651987363467924,60.097549161553616 19.58381376147736,60.17704196809791 19.51564015960321,60.73349114798475 19.48155335849151,62.20410291280132 19.17477214941755,63.55547086469596 19.17477214941755,63.873439095623326 19.00433814455755,64.66835850841017 18.902077741571702,65.78124289060361 18.56120973150246,66.73514119398897 18.424862527521327,68.96089458378265 18.186254920554347,70.23274780699285 18.0499077164568,70.66994636860909 18.152168119559065,70.66994636860909 18.11808131856378,71.14688968009432 18.186254920554347,71.46485155500704 18.152168119559065,71.78281316364883 18.32260212453548,72.29950020997785 18.32260212453548,72.69695130566834 18.22034172154963,72.89567669751705 18.22034172154963,73.17389207147062 18.45894932851661,73.88930209723185 18.39077572640963,74.24700660462258 18.152168119559065,74.52522098863847 18.015820915461518,74.80343516889843 17.98173411458265,75.00215945849777 18.083994517452084,75.28037328930805 18.356688925647177,75.51884212496225 18.62938333360944,75.63807648656075 19.208858950529248,75.51884212496225 19.48155335849151,75.55858691627509 19.48155335849151,75.59833170345519 19.447466557379812,75.55858691627509 19.54972696036566,75.47909732945845 19.447466557379812,75.4393525297055 20.163289378513582,75.51884212496225 20.87911219941452,75.47909732945845 20.947285801521502,75.63807648656075 20.26554978149943,75.63807648656075 20.231462980387732,75.83680033945711 20.33372338337358,75.99577934705303 20.77685179654509,76.2739924499474 21.52676141844131,76.43297127436381 23.265188269433565,76.35348187040654 24.594573508482426,76.43297127436381 29.60533325537108,76.47271597009967 43.75135567015968,76.9099073484831" stroke="yellow" stroke-linecap="round" stroke-linejoin="round" stroke-width="0.5"><title>2025-04-19 6.0km</title><desc>14222567780</desc></polyline><polyline fill="none" points="137.72041442943737,34.5 137.7055125143379,34.81288448168198 137.63100293831667,35.03885624022223 137.616101023159,35.43865167423792 137.55649336235365,35.577710729747196 137.57139527756954,36.01226952657453 137.5117876167642,36.3772980360518 137.43727804085938,37.142117069728556 137.4223761257017,37.52452526400157 137.28825888893334,37.82002190109051 137.3329646345228,37.80263976055721 137.30316080409102,38.11551801180758 137.18394548259676,38.82818293620949 137.16904356743908,39.054149224059074 137.10943590669194,39.471316946684965 137.09453399147606,39.97539321152726 137.03492633072892,40.28826736409974 136.9753186699818,41.00092295272043 136.93061292439234,41.15735913545359 136.94551483960822,41.313795170688536 136.82629951805575,41.92215612746077 136.7815937724663,42.53051485271135 136.6772803661297,43.19101608537312 136.6772803661297,43.469121080604964 136.45375163824065,44.8944018631737 136.45375163824065,45.224648101764615 136.33453631674638,45.90251990004617 136.3196344015305,46.16323908486811 136.24512482562568,46.63253258483019 136.230222910468,47.014918899469194 136.06630184332607,48.162072554579936 136.0513999281684,48.509693308064016 135.9470865218318,49.60469392026425 135.79806736996397,50.64754492636712 135.70865587878507,51.5687245286681 135.61924438766437,52.05538338566839 135.52983289648546,52.97655517050589 135.36591182940174,53.91510229448613 135.27650033828104,54.0889067347598 135.14238310151268,54.21056973459781 135.17218693194445,54.1931893115252 135.09767735598143,54.714601212137495 135.09767735598143,54.94054586009588 135.17218693194445,55.218631158277276 135.2168926775339,55.44457511983637 135.14238310151268,56.105024935430265 135.15728501678677,56.36572808625351 135.08277544076554,56.800232427282026 135.06787352560787,57.21735552404425 134.90395245852415,58.22539867841988 134.79963905212935,59.12915629945928 134.79963905212935,59.44199432901223 134.68042373063508,60.137187838350656 134.47179691802012,62.06633456988493 134.47179691802012,62.935312256755424 134.53140457876725,63.56097337335814 134.62081606988795,64.04759705525066 134.78473713697167,64.72539194815909 134.99336394970305,65.3162878009316 135.05297161039198,65.52483877602208 135.2168926775339,65.88980235162308 135.33610799902817,66.25476512458408 135.91728269145824,67.1758580772439 135.9619884370477,67.29751148121431 135.9470865218318,67.52343899481639 136.18551716487855,67.71460818916967 136.33453631674638,67.88839817472035 136.37924206233583,67.97529309923993 136.57296695985133,68.07956694859604 136.84120143321343,68.3402512853354 136.94551483960822,68.40976703928027 137.45217995607527,68.94851314509287 137.66080676874844,69.10492297724704 138.2568833763362,69.43512102757813 138.68903891689843,69.73056083153642 139.41923276119633,70.07813639804954 140.14942660549423,70.3040601258981 140.3729553333833,70.44308995935717 141.0882472624653,70.63425579019531 141.922754513158,70.68639188763336 142.17608707136242,70.65163449119427 142.39961579919327,70.7211492768547 142.68275218782946,70.68639188763336 143.24902496504365,70.7211492768547 144.27725711325184,70.65163449119427 144.51568775624037,70.70377058318991 144.81372606009245,70.7211492768547 144.99254904233385,70.70377058318991 145.66313522594282,70.73852796871506 145.91646778414724,70.68639188763336 146.08038885123096,70.70377058318991 146.4231329006143,70.70377058318991 146.66156354371924,70.77328534706612 146.72117120446637,70.84280008176574 146.82548461080296,70.99920812851633 146.8701903563342,71.52056721947156 146.85528844111832,71.79862473160028 146.8701903563342,71.97241044005204 146.84038652601885,72.21571012622735 146.8850922716083,72.51114497981325 146.8850922716083,72.63279447253444 146.84038652601885,72.77182235503278 146.92979801708134,73.32793272037816 146.92979801708134,73.69287913484732 146.81058269558707,74.85722661629552 146.89999418670777,75.43070819406421 146.8701903563342,75.69138098342228 146.85528844111832,76.85571444375091 146.8850922716083,77.13376301700191 146.84038652601885,77.42918911576271 146.81058269558707,77.84626035987458 146.82548461080296,78.35022004815983 146.8701903563342,78.85417820618022 146.84038652601885,79.14960124254867 146.8701903563342,79.53191262666951 146.82548461080296,79.74044573771243 146.8701903563342,80.92212841800938 146.81058269558707,81.65198704706563 146.85528844111832,83.25071378157008 146.8850922716083,83.80678903621447 146.82548461080296,84.34548516258656 146.7807788652135,84.57138946949271 146.76587694999762,84.90155674952257 146.7956807804294,85.82254621757602 146.84038652601885,86.08320268645184 146.7956807804294,86.32648168805463 146.81058269558707,87.3169710850052 146.7807788652135,87.59500213409774 146.7807788652135,88.06417847338889 146.7956807804294,88.46384616084106 146.84038652601885,88.84613609194639 146.76587694999762,89.2284251426463 146.7807788652135,89.45432280424575 146.73607311962405,89.73235027342162 146.81058269558707,90.06250728822488 146.72117120446637,91.22673994221259 146.75097503483994,92.18244721247174 146.81058269558707,92.79062170156976 146.76587694999762,93.64206224310328 146.6913673740346,94.63250799085654 146.48274056136142,95.60557174294081 146.1399965119781,96.78714148863219 146.03568310575793,97.01302886485064 145.75254671706352,97.89919944982103 145.66313522594282,98.38572246550757 145.5886256499798,98.62898343869892 145.51411607401678,98.78536530472047 145.39490075252252,99.39351560550858 145.15647010947578,100.17541986185824 145.0372547879233,100.41867821277992 144.82862797525013,100.95732043584576 144.6796088234405,101.51333638158394 144.5901973322034,101.79134365616483 144.51568775624037,101.93034711887594 144.4858839258668,101.84346996832755 144.69451073853998,101.80871909535199 145.11176436388632,101.89559626413393 145.18627393984934,102.03459963956266 145.26078351581236,102.36473218983156 145.33529309171718,102.43423369574884 145.45450841326965,102.46898443778628 145.82705629302654,102.3994829464209 146.82548461080296,102.38210756907938 147.10862099943915,102.46898443778628 147.57058037031675,102.43423369574884 149.03096805891255,102.52111053718545 149.58233892102726,102.46898443778628 149.93998488556826,102.4516090676916 150.2827289350098,102.50373517254775 150.53606149321422,102.46898443778628 151.206647676765,102.50373517254775 151.48978406534297,102.48635980609106 151.8474300299422,102.52111053718545 152.24978174007265,102.52111053718545 152.5776238742983,102.57323662027193 153.60585602239007,102.53848590001871 153.87409049581038,102.57323662027193 154.4999709338299,102.48635980609106 154.81291115278145,102.50373517254775 155.0513417958864,102.46898443778628 155.25996860850137,102.50373517254775 155.37918393005384,102.62536268694384 155.4238896756433,102.95549406258215 155.43879159074277,103.44200226190151 155.37918393005384,104.3455137071578 155.36428201483795,105.1447697335534 155.46859542117454,105.73552171504707 155.43879159074277,105.94402191265544 155.49839925160632,106.10039688901452 155.52820308192167,106.3610215223598 155.43879159074277,106.62164574662165 155.4089877604274,106.98651897332456 155.34938009968027,107.24714221578324 155.34938009968027,107.43826566702046 155.46859542117454,108.2375068066176 155.36428201483795,109.07149345957441 155.36428201483795,109.36686272808583 155.27487052371725,111.78192115465936 155.28977243893314,111.99041376037349 155.2450666933437,112.3552751903917 155.27487052371725,112.720135818774 155.17055711743888,113.17186691470852 155.155655202223,113.5888483741146 155.08114562625997,113.86683543209801 155.08114562625997,114.17957031604601 155.00663605029695,114.57917514404107 154.9470283895498,115.29151180047484 154.88742072874447,115.34363387487247 154.61918625538237,115.3610078960628 154.4999709338299,115.34363387487247 154.36585369717795,115.2741377720522 154.1274230540148,115.20464164011355 153.69526751351077,115.20464164011355 153.42703304014867,115.23938970972085 152.90546600846574,115.16989356324484 152.83095643250272,115.11777143432118 152.81605451728683,115.06564928899752 152.81605451728683,114.90928275499027 152.90546600846574,114.7007938138704 152.86076026287628,114.52705282972602 152.59252578939777,114.82241239464201 152.62232961982954,115.01352712736116 152.7564468565397,115.20464164011355 152.77134877169738,115.1003973876941 152.81605451728683,115.04827523694257 152.80115260207094,114.97877901050379 152.77134877169738,115.06564928899752 152.59252578939777,115.18726760258141 152.4882123831194,115.41312994866166 152.50311429833528,115.48262599339068 152.53291812870884,115.5 152.68193728057668,115.48262599339068 152.69683919579256,115.3262598519068 152.68193728057668,115.22201567581214 152.4733104679035,114.71816790229059 152.26468365523033,114.59654924516508 152.17527216410963,114.59654924516508 151.99644918181002,114.68341972366034" stroke="yellow" stroke-linecap="round" stroke-linejoin="round" stroke-width="0.5"><title>2025-03-07 6.9km</title><desc>13950596373</desc></polyline><polyline fill="none" points="43.356083013291936,184.5 43.49627733154921,185.0087522626418 43.63647164980648,185.06326134508708 44.119363190373406,185.04509165286436 44.77360334218247,185.08143103544717 45.49015207984485,184.97241286483768 45.75496356980875,185.04509165286436 46.144392231537495,185.08143103544717 47.09459816623712,185.08143103544717 47.21921533806017,185.11777041043388 47.48402682802407,185.33580650031217 47.515181121008936,185.4084851360094 47.546335413935594,185.5175030324317 47.53075826744316,185.7537082395138 47.468449681589846,186.1171002373885 47.468449681589846,186.57133916362363 47.421718242170755,186.86205145186977 47.35940965625923,187.0074074131844 47.32825536333257,187.6615077311435 47.28152392391348,187.97038757898554 47.297101070405915,188.11574261108763 47.28152392391348,188.3156055813015 47.20363819162594,188.55180697634933 47.14132960565621,189.16956294969714 47.09459816623712,189.3330862213188 47.01671243394958,189.93267023096269 46.954403848038055,190.2233768832375 46.954403848038055,190.60492862464162 46.89209526218474,190.80478872559615 46.829786676273216,191.4770437379193 46.783055236854125,191.60422682540957 46.783055236854125,191.85859272058588 46.75190094392747,192.2219719234854 46.783055236854125,192.42183016047056 46.736323797435034,192.74887041501643 46.658438065089285,192.87605256964162 46.611706625670195,193.36661143507808 46.54939803981688,193.8026625948114 46.533820893382654,194.03885651515156 46.33131798921386,195.7648792437103 46.34689513570629,195.87389062871807 46.26900940336054,196.2917669696326 46.22227796394145,196.85499000974232 46.17554652452236,197.05484290681488 46.12881508510327,197.3818744233722 46.12881508510327,197.69073695603583 46.00419791339664,198.56281643162947 45.97304362041177,199.0896956561919 45.770540716301184,200.30696222589177 45.739386423374526,200.85200418907334 45.599192105117254,201.3062045165425 45.42784349399153,201.52422025114356 45.349957761587575,201.85124333915883 45.349957761587575,202.34177681489382 45.44342064042576,202.59612695976102 45.47457493341062,202.777805406251 45.41226634744089,203.63169155546348 45.42784349399153,203.940542957047 45.31880346860271,204.55824411007052 45.31880346860271,204.72175287055143 45.17860915034544,205.84814236497914 45.131877710984554,206.48400417159428 45.02283768571215,207.21070052449068 44.9916833928437,207.5740475590428 44.929374806873966,207.88289193996752 44.835911928035785,208.40974284984986 44.82033478154335,208.70041852885333 44.75802619574824,208.972926535469 44.71129475632915,209.42710559496481 44.71129475632915,209.79044798629184 44.66456331691006,210.00845305575058 44.75802619574824,210.51713048543024 44.7424490491976,210.88047059327073 44.77360334218247,211.24380993995874 44.851489074586425,211.7161499527574 45.007260539219715,212.3338234131952 45.03841483214637,212.67899291832873 45.100723418057896,212.86066080305318 45.17860915034544,213.04232849746768 45.2564948828076,213.29666295001516 45.3655349080218,213.51466361244093 45.53688351926394,214.0051641012833 45.770540716301184,214.38666352254222 45.864003595139366,214.5864962177875 46.191123670956586,215.04066057820455 46.237855110375676,215.36765818133426 46.3001636962872,215.4039912103035 46.26900940336054,215.36765818133426 46.34689513570629,215.4039912103035 46.580552332801744,215.6219892242225 46.75190094392747,215.93081927500316 46.954403848038055,216.00348508938623 47.172483898641076,216.18514949217206 47.32825536333257,216.33048087748466 47.45287253509741,216.53031133335026 47.593066853354685,216.6211432826385 47.85787834331859,216.92997155453486 48.10711268679006,217.02080329453747 48.309615591017064,217.18430030673335 48.82366142445244,217.47496128121566 48.979432889202144,217.62029158585938 49.1663586468203,217.71112296439242 49.711558773356955,218.01994929564535 50.085410288593266,218.07444800293888 50.55272468266776,218.34694128246338 51.06677051627776,218.49227085647 51.58081634971313,218.78292963934655 51.75216496089706,218.71026498924766 51.939090718573425,218.74659731806605 52.15717076911824,218.71026498924766 52.31294223392615,218.76476347965945 52.42198225914035,218.7284311546391 52.655639456235804,218.71026498924766 53.09179955738364,218.76476347965945 54.478165593289305,218.74659731806605 54.74297708325321,218.8010957970837 55.334908649208955,218.81926195289998 55.9891488009016,218.78292963934655 56.253960290923715,218.8010957970837 56.72127468499821,218.78292963934655 57.32878339738818,218.83742810688273 57.45340056915302,218.8919265573204 57.562440594425425,219.03725567478978 57.609172033844516,219.34607964509632 57.62474918027874,219.54590662702685 57.687057766190264,219.72756731999107 57.6559034732054,220.67219985653355 57.687057766190264,221.28984142611444 57.67148061969783,221.48966616897087 57.70263491262449,222.19813385710586 57.640326326771174,222.88843292402453 57.687057766190264,223.4334039313253 57.6559034732054,223.65139185491716 57.687057766190264,223.94204199359228 57.640326326771174,224.25085723237135 57.6559034732054,225.1046376787126 57.609172033844516,225.5224435999262 57.609172033844516,225.8494214451348 57.57801774085965,226.03107553726295 57.67148061969783,227.08466552088794 57.6559034732054,227.53879716114898 57.67148061969783,227.64778857793135 57.62474918027874,227.82944078709988 57.640326326771174,228.06558837465127 57.62474918027874,228.37439627331332 57.6559034732054,228.99201042174536 57.62474918027874,229.700447472831 57.57801774085965,230.0819123791007 57.609172033844516,230.40888163119962 57.62474918027874,230.95382901538687 57.609172033844516,231.48060985971824 57.640326326771174,231.6804228650435 57.609172033844516,233.0972721200087 57.562440594425425,233.71486945643846 57.57801774085965,233.93284446212056 57.562440594425425,234.27797099431336 57.59359488735208,234.7139193169278 57.562440594425425,235.49499065573036 57.609172033844516,235.91277155641 57.54686344793299,236.42137303430354 57.57801774085965,236.67567321425304 57.54686344793299,237.60204928927124 57.57801774085965,237.874511899543 57.50013200857211,238.49209223221987 57.53128630144056,238.81904563614808 57.59359488735208,239.12783439639315 57.59359488735208,239.52744256456208 57.50013200857211,240.36298394246842 57.562440594425425,241.8342535458214 57.57801774085965,242.94223846963723 57.53128630144056,243.32367426548444 57.35993769031484,244.19552436486993 57.344360543822404,244.46797662258905 57.12628049321938,245.1763504909468 57.0328176143812,245.61227143422002 56.54992607381428,246.86553804676805 56.36300031619612,247.62839155363326 56.22280599799706,248.35491558541253 55.9891488009016,248.97245862119598 55.91126306849765,249.35388116314425 55.55298869975377,250.44365523543092 55.334908649208955,250.98853970546043 55.28817720973166,251.18833024920605 55.19471433095168,251.49709700074163 55.11682859854773,251.60607337015972 55.1012514521135,251.58791064668912 55.13240574498195,251.60607337015972 55.11682859854773,251.7513750895887 55.070097159128636,252.02381548567791 55.023365719709545,252.13279152433097 54.898748547944706,252.27809280282236 54.64951420441503,252.4960444924509 54.556051325576846,252.64134546677815 54.509319886157755,252.64134546677815 54.49374273972353,252.62318285167567 54.54047417914262,252.67767069138063 54.61835991154658,252.4960444924509 54.571628472127486,252.51420712089748 54.54047417914262,252.477881862098 54.6339370579808,252.33258075086633 54.92990284092957,252.11462885595392 55.08567430556286,252.09646618569968 55.16356003796682,252.1691168554098 55.241445770370774,252.15095419081626 55.615297285607085,252.22360483762168 55.786645896791015,252.18727951803885 55.91126306849765,252.20544217877614 55.9891488009016,252.18727951803885 56.26953743735794,252.02381548567791 56.64338895265246,251.96932744064543 57.28205195796909,251.98749012424378 57.609172033844516,251.96932744064543 57.858406377374195,252.00565280589217 58.1232178673381,252.00565280589217 58.29456647852203,251.96932744064543 58.60610940790502,252.00565280589217 58.948806630272884,252.00565280589217 59.57189248909708,252.0783035135537 60.16382405499462,252.06014083951595 60.646715595561545,252.00565280589217 60.83364135323791,252.04197816352826 61.78384728782112,252.02381548567791 62.59385890432168,252.09646618569968 62.76520751550561,252.06014083951595 63.263676202564966,252.09646618569968 64.02695637964644,252.0783035135537 64.30734501610277,252.13279152433097 64.85254514252301,252.09646618569968 65.31985953671392,252.09646618569968 65.75601963786175,252.04197816352826 66.31679691083264,251.98749012424378 66.47256837552413,252.0783035135537 66.59718554728897,252.25993014968117 66.59718554728897,252.73215851397254 66.62833984015742,253.02275994569936 66.59718554728897,253.7310988971003 66.55045410786988,253.87639883747033 66.56603125436231,254.20332325866912 66.55045410786988,254.69370873576554 66.58160840073833,255.25674220458313 66.6127626937814,255.42020319215953 66.58160840073833,255.63815093612357 66.6127626937814,256.0740456029889 66.59718554728897,256.4736147526419 66.6127626937814,256.58258799747273 66.59718554728897,257.10929104957904 66.62833984015742,257.2909124210564 66.6127626937814,257.4906957102212 66.64391698670806,257.8902615987172 66.62833984015742,258.0718821530172 66.6127626937814,258.634904663777 66.55045410786988,258.94365816848585 66.59718554728897,259.1252776206238 66.58160840073833,259.8154298055888 66.55045410786988,260.1060193782905 66.6127626937814,261.19572594345664 66.59718554728897,261.4136664355465 66.56603125436231,261.5952833032643 66.56603125436231,261.8858698964614 66.47256837552413,262.39439526390925 66.48814552195836,262.576011105557 66.44141408253927,262.68498051931965 66.37910549668595,262.9574037545244 66.37910549668595,263.12085749040125 66.33237405726686,263.2843110723479 66.31679691083264,263.7565094446618 66.27006547141355,263.9018009930587 66.23891117842868,264.21054512973933 66.16102544614114,264.51928871725977 66.16102544614114,264.80987041571643 66.11429400672205,265.42735490982886 66.08313971379539,265.48183873032394 66.00525398139143,265.5 65.63140246615512,265.46367745875614 65.50678529439028,265.3910323533346 64.836967996147,265.2820646382752 64.43196218792582,265.2457420513092 64.02695637964644,265.3002259288478 63.88676206138916,265.2457420513092 63.87118491489673,265.173096854749 63.80887632910162,265.1004516277317 64.61888794548577,263.5567333670042 64.47869362734491,263.9744467216806 64.26061357674189,264.3558362981421 63.902339207939804,264.8825157642859 63.71541345026344,265.04596768753254 63.71541345026344,265.0278063703154 63.76214488968253,265.06412900282885 63.76214488968253,265.0096450511919 63.730990596697666,265.0096450511919 63.66868201084435,265.1004516277317 63.684259157278575,264.99148373022035" stroke="yellow" stroke-linecap="round" stroke-linejoin="round" stroke-width="0.5"><title>2023-07-15 7.1km</title><desc>13950596377</desc></polyline><polyline fill="none" points="133.46357705723494,184.5 133.46357705723494,184.8704321832338 133.4262121245265,185.02296289043443 133.44489459088072,185.2190736354096 133.22070499521215,186.28678444692923 133.20202252897434,186.72258320296532 133.07124526472762,187.37627962492115 133.05256279848982,187.5723881508602 132.99651539954357,187.8120760980819 132.92178553435951,187.96460464797565 132.84705566917546,188.05176376915188 132.73496087128296,188.11713308606704 132.7910082702292,188.09534331601753 132.80969073646702,188.57471772901772 132.67891347233672,189.1194600390154 132.80969073646702,189.4463047401805 132.82837320282124,189.72956973244436 132.7536433376372,190.40504623405286 132.71627840504516,191.1894678055687 132.62286607350688,191.82136080898636 132.58550114079844,192.40967325899692 132.5107712757308,192.7365127900557 132.3799940114841,194.04386577829428 132.11843948322348,196.20098024475737 131.96897975285538,197.1379017822619 131.96897975285538,197.57367780370987 131.8755674213171,197.9658754424454 131.85688495496288,198.16197398451914 131.8755674213171,199.2078297535336 132.0063446854474,200.31904574658256 132.34262907889206,201.71350447692384 132.43604141043033,201.84423450366012 132.49208880937658,201.84423450366012 132.43604141043033,201.84423450366012 132.43604141043033,201.99675276431662 132.8844206017675,203.04258925376053 133.35148225934245,203.6744462516508 134.0614159789402,204.7420623354701 134.3229705072008,205.06888249031908 134.5658425691072,205.35212620918173 135.63074314850383,206.4197336833313 136.41540673316922,206.986217057085 137.36821251478978,207.5091234176507 138.35838322888594,208.0102407798695 139.4606487408746,208.35884345036175 140.6189616516931,208.59850744750293 142.46852581587154,208.70744553674012 146.9149527961854,208.75102075647737 147.12045992561616,208.79459596707602 147.25123718974646,208.88174636090116 147.36333198763896,208.99068430182524 147.4193793864688,209.14319732331205 147.47542678541504,210.53759690719016 147.4380618527066,211.34372990338306 147.47542678541504,212.3023704817606 147.40069692011457,215.37434803346696 147.4380618527066,217.1608673111623 147.36333198763896,217.98876128731354 147.40069692011457,218.94737124966923 147.38201445387676,221.12601383060974 147.4193793864688,221.9103195756761 147.34464952128474,222.91248372571135 147.4380618527066,223.41356399079086 147.4380618527066,224.28500505600823 147.40069692011457,225.89716140592645 147.36333198763896,226.28930565658084 147.34464952128474,226.31109142664354 147.3072845886927,226.28930565658084 147.38201445387676,226.398234483946 147.34464952128474,226.376448723051 147.34464952128474,226.3328771943925 147.32596705493052,227.31323438271647 147.34464952128474,228.1193023887754 147.32596705493052,231.6049659315613 147.2886021223385,232.3020916342066 147.32596705493052,233.47848596223048 147.25123718974646,234.5677340405673 147.3072845886927,236.41944269026862 147.2886021223385,238.14042772252287 147.176507324446,239.01180712218047 146.8028579984093,240.58028084809484 146.07424181257375,242.75869697029702 145.8874171494972,243.41221736103762 145.6445450875908,244.5014134524681 145.1401184973074,246.1134132079751 144.7291042386787,247.24616232444532 144.69173930608667,247.33329661654716 144.7104217724409,247.31151304690866 144.7104217724409,247.33329661654716 144.56096204195637,247.11546081793495 144.4675497104181,246.91940840426832 144.4675497104181,246.72335580589424 144.56096204195637,246.48373571278353 144.52359710924793,246.46195205423282 144.3367724462878,246.6144376159209 144.29940751357935,246.52730302295822 144.26204258110374,246.54908667461132 144.22467764851172,246.52730302295822 144.18731271580327,246.41838473036478 144.18731271580327,246.22233166011574 144.39281984523404,246.41838473036478 144.56096204195637,246.46195205423282 144.65437437349465,246.46195205423282 144.74778670503292,246.52730302295822 144.78515163750853,246.76692306592304 144.87856396916322,246.91940840426832 144.859881502809,246.89762479130877 144.84119903645478,247.24616232444532 144.69173930608667,247.57291573172552 144.7104217724409,247.74718400584243 144.84119903645478,247.8778851157258 145.28957822779194,248.00858614355093 145.47640289075207,248.44425564350968 145.58849768864457,248.5531728759961 145.66322755394503,248.5967397530767 146.0181944136275,248.61852318812453 146.72812813322525,248.5749563156278 147.25123718974646,248.61852318812453 148.7271520277718,248.64030662098958 149.92282987129875,248.7056569057604 151.1371901810635,248.64030662098958 153.36040367127862,248.7056569057604 153.6219581994228,248.7710071700276 153.67800559836905,248.83635741382022 153.7153705310775,249.03240802195796 153.67800559836905,249.72947535569256 153.69668806472328,250.64437268873735 153.77141793002374,251.75531404445064 153.7340529973153,252.82268348775688 153.64064066577703,253.65043561474886 153.7153705310775,254.23857328374288 153.77141793002374,254.45640162842756 153.93956012662966,254.56531571528467 154.21979712124448,254.60888133403205 155.32206263311673,254.52175008735503 156.64851774077397,254.54353290241852 157.7321007864084,254.52175008735503 157.93760791572277,254.56531571528467 158.0870676462073,254.69601254421286 158.12443257891573,254.8484920743067 158.14311504515354,255.56732264056336 158.0870676462073,260.4683739841421 158.04970271361526,261.1000566524308 157.8255131180631,262.90796542067255 157.7321007864084,264.1930958422017 157.6947358539328,264.5198226507637 157.63868845498655,264.67229498592496 157.6947358539328,264.67229498592496 157.6947358539328,264.71585848976974 157.62000598863233,264.8029854701017 157.50791119073983,264.8465489465161 157.0782144657569,264.8029854701017 157.04084953316487,264.8029854701017 157.0782144657569,264.78120372840203 157.02216706692707,264.8029854701017 156.98480213421863,264.7594219844759 157.00348460057285,264.73764023829426 156.83534240385052,264.67229498592496 156.0319963527145,264.60694971313933 155.73307689186186,264.5198226507637 155.5462522287853,264.5416044197482 155.22865030169487,264.49804087945085 154.72422371141147,264.5416044197482 154.59344644728117,264.49804087945085 154.4813516495051,264.38913198887894 154.5000341158593,264.4762591059116 154.27584452019073,264.4762591059116 154.4813516495051,265.5 154.57476398092695,265.1079296140524 154.53739904845133,264.9118941441993" stroke="yellow" stroke-linecap="round" stroke-linejoin="round" stroke-width="0.5"><title>2023-07-01 5.8km</title><desc>13950596319</desc></polyline></svg>