<?xml version="1.0" encoding="utf-8" ?>
<svg baseProfile="full" height="300mm" version="1.1" viewBox="0,0,200,300" width="200mm" xmlns="http://www.w3.org/2000/svg" xmlns:ev="http://www.w3.org/2001/xml-events" xmlns:xlink="http://www.w3.org/1999/xlink"><defs /><rect fill="#222222" height="300" width="200" x="0" y="0" /><text fill="#FFFFFF" style="font-size:12px; font-family:Arial; font-weight:bold;" x="10" y="20">Over 3km Workouts</text><text fill="#FFFFFF" style="font-size:4px; font-family:Arial" x="10" y="280">ATHLETE</text><text fill="#FFFFFF" style="font-size:9px; font-family:Arial" x="10" y="290">JaneZhou</text><text fill="#FFFFFF" style="font-size:4px; font-family:Arial" x="65" y="280">SPECIAL TRACKS</text><rect fill="yellow" height="2.6" width="2.6" x="65" y="283" /><text fill="#FFFFFF" style="font-size:3px; font-family:Arial" x="70" y="285.5">Over 5.0 km</text><rect fill="red" height="2.6" width="2.6" x="65" y="287" /><text fill="#FFFFFF" style="font-size:3px; font-family:Arial" x="70" y="289.5">Over 10.0 km</text><text fill="#FFFFFF" style="font-size:4px; font-family:Arial" x="120" y="280">STATISTICS</text><text fill="#FFFFFF" style="font-size:3px; font-family:Arial" x="120" y="285">Number: 5</text><text fill="#FFFFFF" style="font-size:3px; font-family:Arial" x="120" y="290">Weekly: 1.0</text><text fill="#FFFFFF" style="font-size:3px; font-family:Arial" x="141" y="285">Total: 30.9 km</text><text fill="#FFFFFF" style="font-size:3px; font-family:Arial" x="141" y="290">Avg: 6.2 km</text><text fill="#FFFFFF" style="font-size:3px; font-family:Arial" x="167" y="285">Min: 5.1 km</text><text fill="#FFFFFF" style="font-size:3px; font-family:Arial" x="167" y="290">Max: 7.1 km</text><polyline fill="none" points="63.86049540131353,105.66707116276666 64.18998419842683,105.7951207691076 64.43160931637976,105.84634059289237 65.3761438683141,105.69268108937831 65.85939410421997,105.66707116276666 66.54033761832397,105.7951207691076 67.1334174531512,106.0 67.28717889194377,105.92317030853883 67.30914481182117,104.9499921293027 67.39700849098153,104.61706186398806 67.48487217025831,103.56704806133348 67.66059952869546,103.13167516364774 67.63863360893447,102.77313219589996 67.74846320797224,101.97921375562146 67.72649728821125,101.3645654526772 67.79239504761063,99.80232740276551 67.77042912773322,98.95717807215988 67.83632688724902,98.18885796664108 67.79239504761063,97.59981091920054 67.8802587268874,95.19238651097112 67.85829280701,94.70577657291142 67.77042912773322,94.01427657576278 67.79239504761063,93.86060964438366 67.8802587268874,93.7069426166272 67.94615648628678,93.11788478284143 67.8802587268874,92.221489707008 67.90222464664839,91.58120549999876 67.85829280701,91.4019256218744 67.63863360893447,91.19703417182609 67.59470176929608,90.88969667503261 67.59470176929608,89.99329343860154 67.63863360893447,89.73717762509477 67.61666768905707,89.58350800843618 67.63863360893447,89.40422666698578 67.59470176929608,89.25055684120161 67.63863360893447,88.9944402504625 67.61666768905707,88.48220626512193 67.59470176929608,88.30292411688424 67.48487217025831,88.07241830485873 67.46290625038091,87.91874764286331 67.35307665134314,87.73946508196241 66.78196273627691,87.71385327682947 65.7275985853048,87.79068868412287 65.33221202867571,87.76507688440324 65.06862099084537,87.66262965845817 65.0466550712008,87.58579421088507 65.0466550712008,87.32967587804887 64.84896179288626,87.35528772343241 64.56340483529493,87.27845217938011 63.79459764191415,87.30406403004599 63.42117700516246,87.25284032602212 63.04775636829436,87.27845217938011 62.5205742927501,87.22722846991383 62.1910854956368,87.27845217938011 61.35638054285664,87.20161661112797 59.66500471718609,87.20161661112797 59.291584080434404,87.15039288559637 59.13782264175825,87.22722846991383 59.071924882242456,87.30406403004599 58.9401293634437,87.32967587804887 57.973628891748376,87.30406403004599 57.578242335119285,87.15039288559637 57.5562764153583,87.07355727721006 57.578242335119285,86.76621460243769 57.40251497668214,86.63815504065133 56.04062794824131,86.66376695835788 54.437115801963955,86.58693119723466 53.86600188689772,86.51009541192616 53.58044492942281,86.30519986648869 53.338819811469875,85.97224423936859 53.250956132193096,86.0746921729733 53.07522877375595,86.17714006359165 52.723774056648836,86.25397595339746 52.042830542544834,86.20275202952325 51.867103183991276,86.38203571617487 51.625478066154756,86.48448347806698 51.4497507076012,86.63815504065133 50.724875353858806,86.68937887338689 49.472817924572155,86.53570734304958 49.18726096698083,86.5613192714518 48.68204481131397,86.53570734304958 48.330590094439685,86.5613192714518 47.386055542505346,86.48448347806698 46.83690754708368,86.51009541192616 46.507418749970384,86.48448347806698 46.375623231055215,86.53570734304958 45.78254339611158,86.48448347806698 44.24492900935002,86.45887154161755 43.47612181585282,86.38203571617487 41.98243926872965,86.43325960249058 40.049438325339,86.25397595339746 39.45635849039536,86.25397595339746 38.86327865545172,86.30519986648869 38.18233514134772,86.20275202952325 37.171902830014005,86.22836399283551 36.7984821931459,86.15152809495339 36.38112971675582,86.17714006359165 36.13950459880289,86.04908019353752 35.87591356097255,86.10030414960056 35.30479964602273,86.0746921729733 34.22846957517322,86.12591612356482 34.00881037709769,85.86979626302491 33.94291261769831,85.63928815933468 33.85504893842153,85.51122800794838 33.459662381676026,85.46000392861606 33.41573054215405,85.40877983855898 33.30590094299987,85.20388337115583 33.02034398552496,84.94776254562021 32.888548466726206,84.4611322387791 32.93248030624818,84.00011316072778 32.80068478733301,83.46225647199026 33.04230990540236,81.66939230573189 33.04230990540236,80.721730225996 33.32786686287727,79.69722655221995 33.349832782754675,79.33864925314265 33.54752606106922,78.31413978914497 33.679321579867974,77.44330337244901 33.745219339383766,76.39317298357491 33.745219339383766,75.52232973085484 33.83308301854413,74.83077552836039 33.89898077794351,73.88308696552122 33.87701485818252,73.55011443697731 33.92094669782091,73.26836809740053 33.87701485818252,73.03784812377125 33.679321579867974,72.65364768517611 33.65735565999057,72.3975137242378 33.70128749962896,72.14137949523865 33.89898077794351,71.7571776490804 34.00881037709769,71.3985887150775 33.964878537342884,71.03999925547396 33.85504893842153,70.68140927045897 33.94291261769831,70.34843238523172 34.162571815773845,69.83615936931164 34.18453773553483,69.52879504508746 34.09667405625805,69.17020284540195 34.18453773553483,68.65792736281583 34.118639976135455,68.47863069055893 33.81111709866673,68.04319536809635 33.723253419506364,67.73582879155583 33.54752606106922,67.50530360577977 33.459662381676026,67.27477820283093 33.261969103477895,67.09548051703314 33.24000318371691,66.96741066107643 33.130173584562726,66.83934073803539 33.15213950432371,65.78916484060755 33.32786686287727,65.14881147163396 33.39376462227665,64.71337022335501 33.52556014119182,64.22669967591355 33.54752606106922,63.99617118401511 33.261969103477895,62.8947542803362 32.66888926853426,61.76771789765917 32.51512782974169,61.22981233934115 32.493161910097115,60.05153888883069 32.55905966949649,59.66731805850577 32.55905966949649,58.46342221634404 32.66888926853426,57.49005528949783 32.66888926853426,56.43983926203509 32.778718867572024,55.671385654088226 32.778718867572024,54.800468647197704 32.822650707094,54.185701834459906 32.80068478733301,53.98077922032098 32.888548466726206,53.647779606151744 32.888548466726206,53.08424076499068 32.866582546848804,52.59754708482069 32.822650707094,52.39262314030202 32.8446166269714,52.05962136440212 32.71282110817265,50.138448421799694 32.60299150913488,49.216280050284695 32.53709374961909,47.9354848787043 32.38333231094293,46.60345078675891 32.38333231094293,46.39852182111645 32.25153679214418,45.2457931907702 32.27350271190517,45.09209562963224 32.33940047130454,44.98963053524494 32.361366391181946,44.861549106877646 32.33940047130454,44.73346761148423 32.27350271190517,44.6822349945287 32.22957087226678,44.579769728457904 32.07580943359062,43.298950281052385 32.053843513829634,42.06935730225814 32.09777535346802,41.83880793071876 32.07580943359062,41.32647521579929 32.09777535346802,40.993458375683986 32.07580943359062,40.1224891118909 32.09777535346802,39.40521797791007 32.1636731128674,38.662327800368075 32.27350271190517,38.278073374938685 32.47119599021971,38.02190342260292 32.624957429012284,37.89381834589585 32.888548466726206,37.84258429639158 33.28393502323888,37.86820132244611 33.76718525902834,37.81696726757218 34.162571815773845,37.66326503868913 34.51402653276455,37.330243211312336 34.557958372402936,37.20215777232079 34.62385613180231,36.664198196376674 34.68975389120169,36.510495243011974 35.37069740530569,36.459260903822724 36.27130011760164,36.53611240866303 36.512925235554576,36.459260903822724 37.01814139133785,36.40802655387961 37.85284634411801,36.2287062444957 37.87481226399541,36.151854643045226 37.830880424240604,35.94691692125343 37.830880424240604,35.81883075789665 37.87481226399541,35.58827549494163 38.05053962243255,35.2808681394672 38.11643738183193,35.050312369377934 38.16036922147032,34.74290433789429 38.11643738183193,34.38426114617323 38.13840330170933,34.23055676011427 38.20430106110871,34.15370453093783 38.55575577809941,34.0 38.77541497617494,34.0256174284732 38.709517216775566,34.15370453093783 39.214733372442424,34.922225736576365" stroke="yellow" stroke-linecap="round" stroke-linejoin="round" stroke-width="0.5"><title>2025-06-10 5.1km</title><desc>14754484246</desc></polyline><polyline fill="none" points="180.96596499695443,105.68207496847026 182.26883827964775,106.0 182.42033517290838,105.68207496847026 182.66273020219523,104.69297295651631 183.268717775587,98.79362578471773 183.14752026088536,97.48657084724982 183.05662212497555,96.07353279093513 183.20811901823618,90.38599481256097 182.42033517290838,89.92674843527493 181.2689587837085,89.39684799322276 167.69483714108355,83.03797781621688 167.14944832515903,82.68470373915625 165.96777255716734,81.69553435710259 165.72537752776407,81.342258875462 165.60418001317885,80.77701733578579 165.66477877052967,80.38841322835651 165.57388063450344,79.82317009178223 165.63447939185426,79.15194263798185 165.57388063450344,78.37473023493658 165.4526831198018,77.98612336226506 165.17998871183954,77.6328439990466 165.14968933316413,77.45620417888858 165.17998871183954,77.06759624890401 165.0284918185789,76.2550509502471 165.14968933316413,75.65447273323662 165.24058746919036,74.94790875734179 165.21028809051495,73.88806002066121 164.90729430387728,73.3934628047864 164.33160610916093,72.8635364123038 163.87711542926263,72.82820795648149 162.90753531188238,72.96952175741899 162.0591527093202,72.96952175741899 161.66526078642346,72.82820795648149 161.21077010664158,72.36893769551534 161.02897383458912,72.29828067691415 159.6958011732204,72.29828067691415 158.99891546391882,72.22762364332448 158.60502354125492,72.29828067691415 158.12023348268121,72.19229512099992 157.12035398662556,72.26295216195285 156.0598757332191,72.12163806537865 155.02969685860444,72.15696659503737 153.6662248186767,72.01565245419624 152.99963848805055,72.19229512099992 152.60574656538665,72.15696659503737 151.69676520535722,72.22762364332448 150.99987949605566,72.08630953205284 150.33329316531308,72.01565245419624 149.6061080773361,71.87433825415792 148.78802485344931,71.83900969478418 148.0002410080051,71.9449953615549 146.48527207470033,71.90966680963174 145.69748822937254,72.05098099491443 145.0915006560972,72.29828067691415 144.6673093547579,72.22762364332448 144.36431556823663,72.29828067691415 143.33413669338915,72.12163806537865 142.75844849878922,72.29828067691415 142.15246092539746,71.90966680963174 142.00096403213684,71.83900969478418 141.4555752160959,72.08630953205284 139.72851063217968,72.19229512099992 139.30431933084037,72.01565245419624 139.06192430155352,71.7330239948933 138.84982865082566,71.62703826167854 138.5771342429798,71.167766366445 138.2135416988749,71.06178045575507 137.66815288283397,71.02645181145635 137.12276406702586,71.02645181145635 135.85019016289152,71.167766366445 135.09270569623914,71.06178045575507 133.15354546171147,71.0971090963867 130.7901939257281,70.99112316340324 129.76001505099703,71.02645181145635 128.57833928300533,70.84980853454908 126.88157407764811,70.95579451177036 125.88169458182529,70.9204658564413 124.70001881371718,70.84980853454908 124.18492937646806,70.74382252394571 121.9427753550699,70.70849384643952 120.67020145105198,70.63783648019307 119.85211822716519,70.74382252394571 119.06433438172098,70.70849384643952 118.79163997387514,70.63783648019307 118.09475426445715,70.67316516523715 117.67056296323426,70.74382252394571 117.4281679339474,70.74382252394571 117.30697041912936,70.63783648019307 117.18577290442772,70.24922070163302 117.18577290442772,69.64863180028624 117.4281679339474,69.29534371203044 117.51906606985722,68.97738411655882 117.48876669118181,68.76541088661179 117.27667104057036,68.41212187407655 117.36756917636376,67.70554273982998 117.15547352575231,67.03429119256907 117.15547352575231,66.64567126569455 117.33726979780477,65.65645488741575 117.51906606985722,64.06663677783217 117.45846731238998,63.46603687672177 117.54936544841621,62.794776899099816 117.85235923505388,62.08818600702216 117.94325737119652,61.77021962302388 118.09475426445715,60.00373425797443 118.21595177915879,59.650436075695325 118.21595177915879,59.36779726357781 118.337149293744,58.873178772919346 118.337149293744,58.3785595575755 118.39774805109482,58.095919680490624 118.48864618712105,57.03601803377387 118.42804742977023,56.576726286584744 118.51894556579646,56.40007544809487 118.42804742977023,56.082103706139605 118.48864618712105,55.587480400834465 118.39774805109482,55.48148959828541 118.57954432303086,55.12818668264663 118.51894556579646,54.88087442170945 118.60984370182268,53.92695400354569 118.73104121664073,53.25567505622166 118.70074183784891,52.65505591908004 118.36744867253583,52.16042759193806 118.2765505365096,51.80712120010867 118.39774805109482,51.24183020403143 118.76134059508331,50.49988433503313 118.79163997387514,50.21723786069197 118.73104121664073,49.899260294041596 118.73104121664073,49.2633042622474 118.94313686713576,48.59201603991096 119.15523251774721,48.274036942166276 119.18553189642262,47.9913886039285 119.03403500316199,47.3200978517707 119.06433438172098,46.75479934088071 119.00373562448658,46.472149730310775 118.91283748846035,46.29549360353849 118.82193935243413,46.22483112697955 118.67044245905709,46.15416863557766 117.67056296323426,46.08350612936192 117.54936544841621,46.048174870724324 117.48876669118181,45.906849799182964 117.54936544841621,45.6595307814714 117.51906606985722,44.95290401831153 117.60996420576703,44.59959008201258 117.79176047781948,44.49359582888428 118.18565240048338,44.42293297499418 118.39774805109482,44.21094432467362 118.82193935243413,44.17561287005083 118.2462511578342,44.28160722300527 117.88265861372929,44.28160722300527 117.67056296323426,44.14028141173185 117.60996420576703,43.92829258381971 117.51906606985722,42.93900962671614 117.67056296323426,42.197045505890856 118.03415550710633,41.207757474214304 118.12505364313256,40.289130276825745 118.03415550710633,39.229172711406136 117.91295799252111,38.73452470829943 117.67056296323426,38.20454390035593 117.0645753898425,37.21524416570901 116.88277911790647,36.79125767745427 116.79188098188024,36.437935196998296 116.73128222452942,35.73128912629909 116.88277911790647,35.20130360228359 117.1251741470769,34.98930915966048 117.09487476851791,34.38865751566482 117.0342760111671,34.17666256258963 117.0645753898425,34.0353325199103 117.21607228310313,34.0 117.91295799252111,34.14133005743497 118.42804742977023,34.070665036153514 118.76134059508331,34.247327561781276 119.67032195511274,34.070665036153514 120.27630952838808,34.247327561781276 120.45810580044053,34.95397673963453 120.51870455779135,35.51929501653649 120.48840517911594,35.766621464979835 120.36720766441431,36.04928004113026 120.39750704308972,36.40260292854509 120.27630952838808,37.003250988112995 120.03391449898481,37.63923012133455 119.88241760572419,38.381204262172105 119.88241760572419,39.54716033054865 120.18541139236186,40.607116897328524 120.57930331514217,41.137093932396965 120.7308002084028,41.70240185249713 120.67020145105198,41.91439207838266 120.54900393635035,42.05571882185177 119.943016363075,42.37370377781917 119.03403500316199,43.39831993164262 118.94313686713576,43.610309092415264 118.82193935243413,44.24627577565843 118.91283748846035,44.740915700851474 118.82193935243413,44.91757264127955 118.79163997387514,45.1295608477958 118.94313686713576,45.48287422946305 119.00373562448658,46.048174870724324 119.09463376039639,46.26016236716532 119.21583127521444,46.64880576462019 119.15523251774721,47.8853954160586 119.09463376039639,48.274036942166276 118.79163997387514,48.94532579701627 118.70074183784891,49.298635184415616 118.67044245905709,49.61661331669893 118.82193935243413,50.21723786069197 118.82193935243413,50.46455353873898 118.73104121664073,50.711869035469135 118.36744867253583,51.34782233796432 118.30684991518501,51.5951371875708 118.337149293744,52.08976634312421 118.67044245905709,52.58439477393404 118.76134059508331,53.07902247979655 118.64014308049809,54.704222695931094 118.54924494447187,55.16351699089864 118.57954432303086,55.51681986945914 118.48864618712105,56.117433914449066 118.57954432303086,56.75337703249534 118.51894556579646,56.82403730499209 118.45834680856206,57.31865879820543 118.42804742977023,58.625869255833095 118.15535302180797,59.82708521306631 118.15535302180797,60.1097236405476 118.00385612854734,60.81631867415854 117.91295799252111,61.8055492361018 117.60996420576703,62.65345883910777 117.48876669118181,64.63190629670862 117.27667104057036,65.76244249512092 117.15547352575231,66.15106343876687 117.24637166189495,66.15106343876687 117.21607228310313,66.57501304897596 117.27667104057036,66.85764582667616 117.24637166189495,67.14027836770401 117.39786855515558,67.5995557421993 117.39786855515558,67.95284560506116 117.30697041912936,68.12949039781233 117.30697041912936,68.37679295244743 117.51906606985722,69.01271297532367 117.45846731238998,69.3306725374423 117.24637166189495,69.57797421212308 117.1251741470769,69.82527570569073 117.09487476851791,70.00191951866145 117.18577290442772,70.24922070163302 117.4281679339474,70.46119299996644 117.67056296323426,70.56717909919098 118.18565240048338,70.46119299996644 118.42804742977023,70.49652170337504 118.42804742977023,70.53185040308745 118.39774805109482,70.49652170337504 118.48864618712105,70.42586429286166 118.39774805109482,70.39053558197338 119.03403500316199,70.46119299996644 119.67032195511274,70.42586429286166 119.73092071246356,70.56717909919098 119.12493313918822,70.56717909919098 119.09463376039639,70.74382252394571 119.18553189642262,70.88513719738694 119.57942381920293,71.13243773329305 120.24601014982909,71.27375224389834 121.79127846169285,71.20309499592986 122.97295422980096,71.27375224389834 127.42696289368905,71.30908086232375 140.00120504014194,71.69769542088034" stroke="yellow" stroke-linecap="round" stroke-linejoin="round" stroke-width="0.5"><title>2025-04-19 6.0km</title><desc>14222567780</desc></polyline><polyline fill="none" points="43.52925727062393,114.0 43.516011123836506,114.27811953927448 43.44978038966656,114.47898332464683 43.436534242820926,114.83435704377189 43.3835496554384,114.95796509311185 43.39679580234224,115.34423957917897 43.343811214959715,115.66870936537453 43.277580480789766,116.34854850643023 43.264334333944134,116.68846690133796 43.14511901244987,116.9511305787455 43.184857452928554,116.93567978715873 43.15836515923729,117.21379378827987 43.05239598458866,117.84727372106863 43.039149837743025,118.04813264361292 42.98616525041871,118.41894839705492 42.972919103573076,118.86701618802908 42.91993451624876,119.14512654587452 42.866949928866234,119.77859818020079 42.82721148838755,119.91765256485087 42.84045763523318,120.0567068183882 42.734488460526336,120.59747211329523 42.69475001998944,121.13823542464525 42.60202699218644,121.72534763145086 42.60202699218644,121.97255207164562 42.403334789618384,123.239468322834 42.403334789618384,123.53302053491643 42.29736561491154,124.13557324449357 42.28411946806591,124.36732363099873 42.21788873389596,124.78447340874118 42.20464258710854,125.12437235508696 42.0589349718648,126.14406449296803 42.04568882507738,126.45306071828236 41.952965797216166,127.42639459579368 41.82050432887627,128.35337326787703 41.74102744786069,129.1721995810367 41.66155056684511,129.60478523171332 41.58207368582953,130.42360459601332 41.436366070644,131.25786870620504 41.35688918957021,131.41236154201033 41.237673868075944,131.520506430752 41.26416616176721,131.50505716580665 41.19793542753905,131.96853441078565 41.19793542753905,132.16937409786624 41.26416616176721,132.41656102957495 41.30390460224589,132.61740010652284 41.237673868075944,133.20446660926973 41.250920014921576,133.43620274333807 41.18468928075163,133.82242882426362 41.171443133905996,134.1932049102761 41.02573551872047,135.0892432697001 40.93301249080105,135.89258337731007 40.93301249080105,136.17066162580159 40.82704331615241,136.78861141185916 40.6415972604882,138.5034085065563 40.6415972604882,139.27583311712078 40.694581847812515,139.83197633187228 40.774058728828095,140.26453071577998 40.919766344013624,140.86701506502868 41.10521239973605,141.39225582305517 41.158196987060364,141.5776344675687 41.30390460224589,141.90204653477122 41.409873776952736,142.22645788852242 41.9264735035249,143.0452071797772 41.9662119440618,143.15334353885555 41.952965797216166,143.35416799539234 42.164904146571644,143.52409616815567 42.29736561491154,143.6785761553183 42.337104055448435,143.75581608821813 42.50930396432523,143.84850395431567 42.74773460737197,144.0802233647555 42.84045763523318,144.14201514603337 43.2908266276354,144.6209005734272 43.47627268335782,144.7599315353291 44.00611855677562,145.0534409134125 44.390256815066095,145.31605407247844 45.03931800997816,145.62501013159635 45.688379204890225,145.8258312230173 45.88707140745828,145.94941329720314 46.52288645558292,146.1193384801736 47.264670678414404,146.16568167789956 47.48985517461551,146.134786214403 47.68854737712536,146.19657713499328 47.94022416701773,146.16568167789956 48.44357774674427,146.19657713499328 49.35756187845254,146.134786214403 49.56950022780802,146.18112940728315 49.834423164546024,146.19657713499328 49.993376926577184,146.18112940728315 50.58945353422314,146.2120248610736 50.81463803042425,146.16568167789956 50.96034564560978,146.18112940728315 51.26500702282647,146.18112940728315 51.476945372181945,146.24292030850484 51.52992995956447,146.304711183795 51.62265298736747,146.44374055867956 51.66239142790437,146.90717086175573 51.64914528100053,147.15433309476066 51.66239142790437,147.30880928004626 51.63589913427131,147.52507566775603 51.67563757475,147.78768442649744 51.67563757475,147.89581730893406 51.63589913427131,148.0193976489245 51.715376015228685,148.513717973663 51.715376015228685,148.83811478652933 51.60940684058005,149.87309032559278 51.68888372153742,150.38285172806354 51.66239142790437,150.61456087416445 51.64914528100053,151.64952394999273 51.67563757475,151.89667823734635 51.63589913427131,152.15927921401453 51.60940684058005,152.53000920877093 51.62265298736747,152.9779733761534 51.66239142790437,153.42593618326646 51.63589913427131,153.68853443782427 51.66239142790437,154.02836677926825 51.62265298736747,154.2137295446446 51.66239142790437,155.26411414935137 51.60940684058005,155.91287737517268 51.64914528100053,157.33396780584008 51.67563757475,157.828256921086 51.62265298736747,158.30709792229754 51.58291454688879,158.50790175066504 51.569668400043156,158.80138377736148 51.59616069373442,159.62004108229303 51.63589913427131,159.8517357212986 51.59616069373442,160.0679837227217 51.60940684058005,160.94841874223494 51.58291454688879,161.19555745253456 51.58291454688879,161.6126030874584 51.59616069373442,161.96786325408902 51.63589913427131,162.30767652617942 51.569668400043156,162.64748901568237 51.58291454688879,162.84828693710733 51.54317610635189,163.0954224652669 51.60940684058005,163.38889536731585 51.52992995956447,164.42376883752877 51.55642225325573,165.2732864110876 51.60940684058005,165.81388595695898 51.569668400043156,166.57072199387767 51.50343766587321,167.45111821409955 51.317991610150784,168.31606377150456 51.013330232934095,169.3663479898969 50.92060720513109,169.56713676876097 50.66893041518051,170.3548439553997 50.58945353422314,170.7873088582419 50.52322279999498,171.00354083439743 50.456992065825034,171.14254693752446 50.3510228911764,171.68312498267915 50.13908454176271,172.37815098831197 50.03311536705587,172.5943806335854 49.847669311391655,173.0731737207534 49.71520784305176,173.5674101169716 49.63573096197797,173.81452769436873 49.56950022780802,173.93808632789296 49.54300793411676,173.8608621940657 49.72845398983918,173.82997252920177 50.09934610128403,173.90719667923986 50.165576835453976,174.03075523515872 50.231807569623925,174.32420639097109 50.298038303793874,174.38598550732422 50.404007478500716,174.41687505580194 50.73516114940867,174.35509595238545 51.62265298736747,174.339651172515 51.874329777259845,174.41687505580194 52.28496032918338,174.38598550732422 53.583082719065715,174.46320936639677 54.073190152063034,174.41687505580194 54.391097676125355,174.40143028239254 54.695759053342044,174.44776459783316 54.92094354954315,174.41687505580194 55.5170201571309,174.44776459783316 55.768696946965065,174.43231982763973 56.08660447108559,174.46320936639677 56.44425043568481,174.46320936639677 56.735665666055866,174.50954366245423 57.64964979770593,174.47865413334512 57.888080440752674,174.50954366245423 58.444418607861735,174.43231982763973 58.72258769138716,174.44776459783316 58.93452604080085,174.41687505580194 59.11997209646506,174.44776459783316 59.22594127123011,174.55587794395979 59.2656797117088,174.84932805562858 59.27892585849622,175.28177978836175 59.22594127123011,176.08490107303078 59.212695124326274,176.79535087426484 59.305418152187485,177.32046374671336 59.27892585849622,177.50579725569696 59.33191044587875,177.64479723467957 59.3584027395118,177.87646357543417 59.27892585849622,178.10812955255096 59.25243356486317,178.43246130962507 59.19944897753885,178.6641264140344 59.19944897753885,178.83401392624364 59.305418152187485,179.5444504947809 59.212695124326274,180.28577196407423 59.212695124326274,180.54832242496195 59.133218243310694,182.6950410263671 59.14646439021453,182.8803677870019 59.10672594967764,183.20468905812595 59.133218243310694,183.52900961668638 59.04049521550769,183.93054836863303 59.02724906866206,184.3011985547637 58.96101833449211,184.54829816186975 58.96101833449211,184.82628472537908 58.89478760026395,185.18148901691893 58.841803012939636,185.8146771559841 58.78881842555711,185.8610078887723 58.55038778256858,185.87645146317664 58.444418607861735,185.8610078887723 58.32520328636747,185.79923357516236 58.11326493695378,185.73745923566457 57.729126678663306,185.73745923566457 57.49069603573298,185.768346408644 57.027080896426924,185.70657205620955 56.960850162256975,185.66024127496348 56.94760401541134,185.6139104791073 56.94760401541134,185.4749180044455 57.027080896426924,185.28959450122784 56.98734245594824,185.13515807087242 56.74891181284329,185.39769990634522 56.77540410653455,185.5675796687574 56.894619428087026,185.73745923566457 56.90786557487445,185.64479767794546 56.94760401541134,185.59846687728714 56.934357868507504,185.53669245378114 56.90786557487445,185.6139104791073 56.74891181284329,185.72201564673742 56.656188785040285,185.92278217658168 56.66943493188592,185.9845564385614 56.69592722557718,186.0 56.82838869385887,185.9845564385614 56.84163484076271,185.8455643128109 56.82838869385887,185.75290282294736 56.642942638194654,185.3050381353678 56.45749658247223,185.19693266238028 56.37801970145665,185.19693266238028 56.21906593942549,185.27415086547262" stroke="yellow" stroke-linecap="round" stroke-linejoin="round" stroke-width="0.5"><title>2025-03-07 6.9km</title><desc>13950596373</desc></polyline><polyline fill="none" points="139.64985156740295,114.0 139.774468739226,114.45222423346422 139.89908591099083,114.50067675119499 140.32832283596508,114.48452591366367 140.90986963751493,114.51682758706738 141.54680184880272,114.41992254652723 141.7821898398688,114.48452591366367 142.12834865029436,114.51682758706738 142.97297614783747,114.51682758706738 143.08374696719693,114.549129253719 143.31913495832123,114.7429391113983 143.346827663132,114.80754234312917 143.37452036794275,114.90444713995385 143.36067401553737,115.11440732401388 143.30528860591585,115.43742243324232 143.30528860591585,115.84119036767515 143.2637495486415,116.09960129055253 143.20836413890356,116.22880658949725 143.1806714340928,116.81022909436433 143.13913237687666,117.08478895910957 143.15297872928204,117.21399343208759 143.13913237687666,117.39164940560295 143.06990061479155,117.60160620120587 143.0145152050536,118.15072262195463 142.97297614783747,118.29607664118521 142.90374438575236,118.82904020530987 142.84835897607263,119.08744611842849 142.84835897607263,119.42660322190204 142.7929735664511,119.60425664497598 142.73758815671317,120.20181665592827 142.69604909943882,120.31486828924972 142.69604909943882,120.54097130720038 142.66835639462806,120.86397504310298 142.69604909943882,121.0416268093104 142.65451004216447,121.33232925779885 142.58527828013757,121.44538006190851 142.54373922286322,121.88143238674093 142.4883538131835,122.26903341761499 142.4745074607781,122.4789835690317 142.29450487933354,124.0132259944221 142.30835123173892,124.1101250033098 142.23911946971202,124.48157063967665 142.19758041243767,124.9822133419948 142.15604135516332,125.15986036161485 142.11450229788898,125.45055504300399 142.11450229788898,125.72509951649408 142.00373147858772,126.50028127255791 141.97603877371876,126.96861836107564 141.7960361922742,128.05063308968965 141.76834348746343,128.53511483473994 141.6437263156986,128.93884845916182 141.491416439123,129.13264022325166 141.42218467697967,129.42332741258724 141.42218467697967,129.85935716881067 141.50526279152837,130.08544618646556 141.53295549639734,130.24693813890917 141.4775700866594,131.00594804930734 141.491416439123,131.28048262849916 141.3944919721689,131.82955032007885 141.3944919721689,131.97489144049177 141.26987480034586,132.97612654665136 141.22833574312972,133.54133704141714 141.13141127623385,134.18728935510444 141.1037185714231,134.51026449693018 141.04833316168515,134.78479283553315 140.96525504719466,135.25310475543665 140.95140869473107,135.51148313676822 140.89602328510955,135.75371247598378 140.8544842278934,136.15742719553236 140.8544842278934,136.48039821004204 140.81294517061906,136.67418049401022 140.89602328510955,137.12633820927294 140.88217693264596,137.44930719402328 140.90986963751493,137.7722755021823 140.97910139965825,138.192133291348 141.11756492377026,138.7411763673008 141.14525762863923,139.04799370518595 141.20064303831896,139.2094762693887 141.26987480034586,139.37095866442542 141.33910656254739,139.5970337333565 141.43603102938505,139.7908120999491 141.58834090601886,140.22681253448536 141.7960361922742,140.56592313115834 141.87911430682288,140.7435521935986 142.1698877075687,141.14725384730264 142.21142676484305,141.4379183834244 142.26681217452278,141.4702144091716 142.23911946971202,141.4379183834244 142.30835123173892,141.4702144091716 142.51604651805246,141.6639904215408 142.66835639462806,141.93850602222665 142.84835897607263,142.00309785724676 143.04220790992258,142.1645773263881 143.1806714340928,142.29376077999768 143.29144225345226,142.47138785188145 143.4160594252171,142.5521273623599 143.6514474163414,142.82664138180553 143.8729890549439,142.90738070626685 144.05299163644668,143.0527113837743 144.5099212662317,143.31107669443008 144.6483847904601,143.44025918743864 144.8145410194411,143.52099819057912 145.29916335409507,143.79551048502617 145.63147581211524,143.84395378039335 146.0468663846259,144.08617002886604 146.50379601446912,144.21535187242262 146.96072564425413,144.4737152349844 147.11303552082973,144.4091244348965 147.27919174986891,144.4414198382874 147.47304068371886,144.4091244348965 147.6115042079473,144.45756753747992 147.70842867484316,144.42527213746507 147.9161239610985,144.4091244348965 148.3038218287984,144.45756753747992 149.5361471940414,144.4414198382874 149.7715351851657,144.48986293074267 150.29769657709403,144.50601062481292 150.87924337864388,144.4737152349844 151.11463136970997,144.48986293074267 151.53002194227884,144.4737152349844 152.07002968661254,144.5221583172388 152.1808005059138,144.57060138428642 152.27772497286787,144.6997828220483 152.319264030084,144.97429301786178 152.3331103824894,145.15191700180003 152.38849579222733,145.31339317333186 152.36080308730016,146.1530665391474 152.38849579222733,146.70208126766374 152.37464943976374,146.87970326130744 152.4023421445745,147.5094523174339 152.34695673495298,148.1230514880299 152.38849579222733,148.60747016117966 152.36080308730016,148.80123720437405 152.38849579222733,149.05959288320446 152.34695673495298,149.3340953176812 152.36080308730016,150.0930112699716 152.319264030084,150.46439431105682 152.319264030084,150.75504128457396 152.29157132527325,150.91651158868626 152.37464943976374,151.85303601856867 152.36080308730016,152.25670858769445 152.37464943976374,152.35358984705817 152.3331103824894,152.51505847742374 152.34695673495298,152.72496744414093 152.3331103824894,152.99946335406275 152.36080308730016,153.54845370822295 152.3331103824894,154.17817553141504 152.29157132527325,154.51725544809597 152.319264030084,154.80789478329825 152.3331103824894,155.29229245812166 152.319264030084,155.76054209753056 152.34695673495298,155.93815365781484 152.319264030084,157.19757521779684 152.27772497286787,157.746550627955 152.29157132527325,157.94030618855322 152.27772497286787,158.24708532828663 152.30541767767863,158.63459494838025 152.27772497286787,159.3288805828779 152.319264030084,159.70024138348526 152.2638786204625,160.15233158605406 152.29157132527325,160.37837619044876 152.2638786204625,161.20182159048272 152.29157132527325,161.44401057738287 152.22233956318814,161.99297087309242 152.2500322679989,162.28359612102213 152.30541767767863,162.55807501902746 152.30541767767863,162.91328227960912 152.22233956318814,163.6559857266402 152.27772497286787,164.9637809296255 152.29157132527325,165.9486564174731 152.2500322679989,166.28771045821486 152.0977223914233,167.06268832433852 152.08387603901792,167.30486810897128 151.89002710510977,167.93453376974503 151.80694899056107,168.3220190526481 151.37771206564503,169.43603381936555 151.21155583666405,170.11412582545017 151.0869386648992,170.75992496481922 150.87924337864388,171.30885210774431 150.81001161650056,171.6478943672555 150.49154551094398,172.61658243149577 150.29769657709403,173.10092418263957 150.25615751976147,173.27851577708498 150.1730794053292,173.55297511177196 150.10384764318587,173.64984299569915 150.0900012907805,173.6336983526271 150.11769399559125,173.64984299569915 150.10384764318587,173.77900007965218 150.06230858591152,174.02116932060744 150.02076952863717,174.11803691052774 149.90999870933592,174.24719360251038 149.688457070617,174.44092843774706 149.60537895612651,174.57008485936967 149.56383989885217,174.57008485936967 149.54999354644679,174.5539403126022 149.59153260372113,174.60237394789874 149.66076436580624,174.44092843774706 149.6192253085901,174.45707299635978 149.59153260372113,174.42478387743176 149.67461071821162,174.2956273341115 149.9376914142049,174.10189231640834 150.0761549383169,174.08574772063002 150.14538670046022,174.15032609370246 150.21461846254533,174.13418150294456 150.5469309205655,174.19875985567342 150.6992407971993,174.16647068271413 150.81001161650056,174.1826152700378 150.87924337864388,174.16647068271413 151.12847772211535,174.02116932060744 151.46079018013552,173.9727355028008 152.0284906293382,173.98888011045347 152.319264030084,173.9727355028008 152.54080566880293,174.0050247163599 152.77619365992723,174.0050247163599 152.92850353650283,173.9727355028008 153.20543058484327,174.0050247163599 153.51005033805268,174.0050247163599 154.06390443479177,174.0696031231637 154.59006582666188,174.05345852402388 155.01930275163613,174.0050247163599 155.18545898067532,174.03731392313784 156.03008647810202,174.02116932060744 156.7500968038803,174.08574772063002 156.9024066804559,174.05345852402388 157.34548995789373,174.08574772063002 158.02396122639766,174.0696031231637 158.27319556992734,174.11803691052774 158.7578179045231,174.08574772063002 159.17320847709198,174.08574772063002 159.56090634479187,174.03731392313784 160.05937503185123,173.98888011045347 160.19783855607966,174.0696031231637 160.3086093753809,174.23104902193882 160.3086093753809,174.65080756797397 160.33630208019167,174.90911995174247 160.3086093753809,175.5387545752019 160.26707031810656,175.66791007775464 160.28091667057015,175.95850956326467 160.26707031810656,176.39440776512492 160.29476302291732,176.89488195964077 160.3224557278445,177.0401806152513 160.29476302291732,177.23391194322903 160.3224557278445,177.62137386933318 160.3086093753809,177.97654644680733 160.3224557278445,178.07341155331233 160.3086093753809,178.54159204407188 160.33630208019167,178.70303326316935 160.3224557278445,178.8806184090936 160.35014843265526,179.23578808775346 160.33630208019167,179.39722858046298 160.3224557278445,179.89769303447974 160.26707031810656,180.17214059422258 160.3086093753809,180.33358010723896 160.29476302291732,180.947048716087 160.26707031810656,181.20535055849177 160.3224557278445,182.17397861641075 160.3086093753809,182.36770349826838 160.28091667057015,182.52914071401756 160.28091667057015,182.78743990797375 160.19783855607966,183.23946245681145 160.21168490848504,183.4008987605048 160.1701458512107,183.4977604616288 160.11476044153096,183.73991444846615 160.11476044153096,183.88520665814576 160.0732213842566,184.0304987309937 160.05937503185123,184.4502306174836 160.0178359746351,184.57937866050634 159.99014326976612,184.85381789310486 159.920911507681,185.12825663757394 159.920911507681,185.386551480653 159.87937245040666,185.93542658652586 159.8516797456541,185.9838566491817 159.7824479835108,186.0 159.45013552549062,185.96771329667536 159.33936470613116,185.90313986963884 158.74397155217594,185.80627967847977 158.3839663892868,185.77399293451163 158.02396122639766,185.82242304788087 157.89934405463282,185.77399293451163 157.88549770216923,185.70941942645004 157.8301122925477,185.64484589133644 158.55012261826778,184.27265188179445 158.42550544656115,184.64395264150517 158.2316565127112,184.98296559836308 157.9131904070964,185.45112512381456 157.74703417805722,185.59641572226246 157.74703417805722,185.58027232917084 157.78857323527336,185.61255911363696 157.78857323527336,185.56412893440574 157.7608805304044,185.56412893440574 157.70549512078287,185.64484589133644 157.71934147318825,185.54798553798173" stroke="yellow" stroke-linecap="round" stroke-linejoin="round" stroke-width="0.5"><title>2023-07-15 7.1km</title><desc>13950596377</desc></polyline><polyline fill="none" points="39.7454018285498,194.0 39.7454018285498,194.3292730517569 39.71218855510233,194.46485590261 39.72879519179696,194.639176564815 39.52951555128675,195.58825284171326 39.51290891459212,195.97562951374857 39.39666245749686,196.55669299993315 39.38005582080223,196.73101168965513 39.33023591066012,196.944067642733 39.263809363823384,197.07964857597835 39.19738281698665,197.15712335034914 39.09774299664423,197.21522940983414 39.14756290684454,197.1958607253473 39.164169543539174,197.62197131468565 39.047923086502124,198.10618670134863 39.164169543539174,198.39671532460488 39.180776180292014,198.64850642884267 39.11434963333886,199.248929985828 39.081136359949596,199.94619360494835 38.998103176418226,200.50787627465616 38.964889902912546,201.03082067465584 38.898463356134016,201.32134470227174 38.78221689903876,202.48343624737754 38.54972398508107,204.40087132867484 38.41687089134939,205.23369047312008 38.41687089134939,205.62104693663423 38.33383770775981,205.96966705995146 38.31723107106518,206.14397687512974 38.33383770775981,207.0736264475854 38.450084164738655,208.06137399697036 38.74900362564949,209.30089286837028 38.83203680923907,209.41709733658354 38.881856719381176,209.41709733658354 38.83203680923907,209.41709733658354 38.83203680923907,209.55266912383377 39.23059609037591,210.48230155889178 39.64576200826559,211.04395222368476 40.276814203418326,211.99294429819565 40.50930711743422,212.28345110249938 40.72519339469727,212.53522329706175 41.671771687455475,213.4842077185167 42.369250429444946,213.98774849518668 43.21618890197715,214.4525541490293 44.096340647898614,214.8979918043333 45.076132213987876,215.20786084476276 46.105743690393865,215.42089550889796 47.74980072519975,215.51772936599446 51.702180263295304,215.55646289464494 51.884853267110884,215.59519641519 52.00109972420614,215.67266343192023 52.10073954449035,215.76949715719093 52.15055945463246,215.90506428739172 52.20037936477456,217.14453058417712 52.16716609126888,217.86109324745485 52.20037936477456,218.71321820600133 52.13395281787962,221.44386491864861 52.16716609126888,223.03188205436163 52.10073954449035,223.7677878109389 52.13395281787962,224.61988555526477 52.117346181184985,226.55645673831168 52.15055945463246,227.25361740059452 52.08413290773751,228.14442997840524 52.16716609126888,228.58983465848723 52.16716609126888,229.36444893867883 52.13395281787962,230.7974768052809 52.10073954449035,231.14604947251792 52.08413290773751,231.16541460146254 52.05091963434825,231.14604947251792 52.117346181184985,231.24287509683927 52.08413290773751,231.22350997604372 52.08413290773751,231.18477972835535 52.06752627104288,232.0562083401892 52.08413290773751,232.77271323447349 52.06752627104288,235.87108082805935 52.03431299759541,236.49074811929313 52.06752627104288,237.53643196642224 52.00109972420614,238.5046524805075 52.05091963434825,240.15061572467675 52.03431299759541,241.68038019779488 51.93467317725299,242.4549396641669 51.602540442952886,243.84913853163016 50.95488161110552,245.78550841804827 50.78881524398457,246.3664154320286 50.57292896666331,247.33458973553206 50.12454977538437,248.76747840708413 49.75920376763679,249.77436651062453 49.725990494247526,249.85181921471667 49.742597131000366,249.83245604169497 49.742597131000366,249.85181921471667 49.609744037210476,249.6581873937248 49.5267108536209,249.48391858156538 49.5267108536209,249.3096496052458 49.609744037210476,249.09665396691707 49.576530763763,249.07729071487847 49.410464396642055,249.21283343636605 49.37725112319458,249.13538046485337 49.34403784974711,249.15474371076562 49.310824576357845,249.13538046485337 49.277611302852165,249.03856420477678 49.277611302852165,248.86429480899824 49.46028430678416,249.03856420477678 49.609744037210476,249.07729071487847 49.69277722085826,249.07729071487847 49.77581040438963,249.13538046485337 49.809023677778896,249.34837605860957 49.892056861368474,249.48391858156538 49.87545022467384,249.46455537005386 49.858843587921,249.77436651062453 49.725990494247526,250.06481398375763 49.742597131000366,250.21971911631408 49.858843587921,250.33589788065 50.25740286911605,250.45207657205174 50.423469236237,250.8393383497896 50.52310905652121,250.93615366754238 50.58953560341615,250.97487978050776 50.905061700963415,250.99424283388362 51.536113896174356,250.95551672500733 52.00109972420614,250.99424283388362 53.313024024653714,251.01360588532407 54.37584877444897,251.0716950273345 55.45528016088065,251.01360588532407 57.431469929928426,251.0716950273345 57.66396284394432,251.12978415114048 57.713782754086424,251.18787325672747 57.746996027533896,251.36214046397072 57.713782754086424,251.98175587171863 57.730389390839264,252.7949979455443 57.79681593773421,253.7825013728434 57.76360266422853,254.73127421134268 57.68056948069716,255.46705387978 57.746996027533896,255.98984291889064 57.79681593773421,256.1834681141481 57.94627566810232,256.2802806358086 58.19537521881284,256.31900563025556 59.17516678496031,256.241555633198 60.35423799173441,256.2609181354783 61.31742292124545,256.241555633198 61.50009592506103,256.2802806358086 61.63294901885092,256.3964555948478 61.666162292298395,256.53199295494414 61.68276892893482,257.1709534582769 61.63294901885092,261.52744354146125 61.59973574540345,262.08893924660515 61.40045610483503,263.69596926282975 61.31742292124545,264.8383074152953 61.28420964785619,265.1287312451168 61.23438973771408,265.26426220971916 61.28420964785619,265.26426220971916 61.28420964785619,265.30298532424786 61.21778310096124,265.38043152897444 61.118143280618824,265.4191546191287 60.736190636176616,265.38043152897444 60.70297736278735,265.38043152897444 60.736190636176616,265.36106998080504 60.68637072609272,265.38043152897444 60.653157452645246,265.3417084306566 60.669764089398086,265.3223468784854 60.52030435891356,265.26426220971916 59.80621898017125,265.20617752279213 59.54051279270789,265.1287312451168 59.37444642558694,265.1480928175588 59.09213360142894,265.109369670623 58.643754410149995,265.1480928175588 58.527507953112945,265.109369670623 58.427868132828735,265.0125617678859 58.444474769581575,265.09000809413556 58.245195129013155,265.09000809413556 58.427868132828735,266.0 58.510901316360105,265.6514929902769 58.47768804297084,265.4772392392915" stroke="yellow" stroke-linecap="round" stroke-linejoin="round" stroke-width="0.5"><title>2023-07-01 5.8km</title><desc>13950596319</desc></polyline></svg>