<?xml version="1.0" encoding="utf-8" ?>
<svg baseProfile="full" height="300mm" version="1.1" viewBox="0,0,200,300" width="200mm" xmlns="http://www.w3.org/2000/svg" xmlns:ev="http://www.w3.org/2001/xml-events" xmlns:xlink="http://www.w3.org/1999/xlink"><defs /><rect fill="#222222" height="300" width="200" x="0" y="0" /><text fill="#FFFFFF" style="font-size:12px; font-family:Arial; font-weight:bold;" x="10" y="20">Over 3km Workouts</text><text fill="#FFFFFF" style="font-size:4px; font-family:Arial" x="10" y="280">ATHLETE</text><text fill="#FFFFFF" style="font-size:9px; font-family:Arial" x="10" y="290">JaneZhou</text><text fill="#FFFFFF" style="font-size:4px; font-family:Arial" x="65" y="280">SPECIAL TRACKS</text><rect fill="yellow" height="2.6" width="2.6" x="65" y="283" /><text fill="#FFFFFF" style="font-size:3px; font-family:Arial" x="70" y="285.5">Over 5.0 km</text><rect fill="red" height="2.6" width="2.6" x="65" y="287" /><text fill="#FFFFFF" style="font-size:3px; font-family:Arial" x="70" y="289.5">Over 10.0 km</text><text fill="#FFFFFF" style="font-size:4px; font-family:Arial" x="120" y="280">STATISTICS</text><text fill="#FFFFFF" style="font-size:3px; font-family:Arial" x="120" y="285">Number: 10</text><text fill="#FFFFFF" style="font-size:3px; font-family:Arial" x="120" y="290">Weekly: 1.2</text><text fill="#FFFFFF" style="font-size:3px; font-family:Arial" x="141" y="285">Total: 48.7 km</text><text fill="#FFFFFF" style="font-size:3px; font-family:Arial" x="141" y="290">Avg: 4.9 km</text><text fill="#FFFFFF" style="font-size:3px; font-family:Arial" x="167" y="285">Min: 3.1 km</text><text fill="#FFFFFF" style="font-size:3px; font-family:Arial" x="167" y="290">Max: 7.1 km</text><polyline fill="none" points="56.57632037810981,58.57901427010074 55.113703874871135,43.80004293564707 53.16354853473604,39.25265905354172 50.238315530121326,38.68423580145463 45.36292718164623,35.273695033974946 41.95015533827245,33.568423848133534 37.07476699166,33.568423848133534 31.224300974979997,36.41054219426587 27.323990298435092,40.9579284559004 24.39875729009509,47.21057835035026 23.423679621890187,59.14743544207886 23.423679621890187,73.92636502813548 25.373834958299994,79.61055801203474 29.27414563857019,83.58948956103995 35.12461165338755,85.8631634246558 41.95015533827245,86.43158174306154 47.31308251991868,84.15790811553597 52.67600970156491,79.61055801203474 54.13862620666623,77.9053007401526 56.08878154307604,70.51584638468921 55.601242708042264,65.96848486177623 55.601242708042264,47.77900071069598 54.13862620666623,42.09477442735806 51.70093203149736,38.68423580145463 48.28816018998623,35.84211864322424 44.38784951157868,34.1368476357311 34.14953398332,35.273695033974946 29.761684469878674,37.54738911660388 26.34891263023019,40.389505381230265 24.39875729009509,44.36846565362066 23.423679621890187,48.91584525583312 23.91121845692396,76.76846226258203 25.373834958299994,79.04213898163289 30.249223306775093,83.02107094787061 34.14953398332,85.29474504757673 38.0498446598649,85.8631634246558 42.43769417330623,85.8631634246558 47.80062135308981,83.02107094787061 52.188470866531134,79.04213898163289 55.113703874871135,73.35794540308416 55.113703874871135,44.36846565362066 52.188470866531134,39.25265905354172 47.80062135308981,34.70527136558667 40.975077668204904,33.0 33.66199515014887,34.1368476357311 28.299067966639996,39.25265905354172 25.861373795196414,43.23162015900016 24.39875729009509,48.347423014231026 23.423679621890187,68.2421660986729 23.91121845692396,72.78952571796253 24.88629612326622,77.33688153186813 27.81152913160622,81.88423353992403 31.711839811876416,84.72632661182433 36.09968932159245,86.43158174306154 41.95015533827245,86.43158174306154 48.28816018998623,84.72632661182433 50.72585436142981,82.45265227276832 54.626165037974715,76.20004293462262 55.601242708042264,71.65268617076799 55.113703874871135,61.98954040789977 55.601242708042264,47.77900071069598 54.626165037974715,42.6631973227486 53.65108736976981,40.389505381230265 47.80062135308981,35.273695033974946 42.43769417330623,33.568423848133534 37.07476699166,33.568423848133534 30.249223306775093,36.97896568430588 25.861373795196414,42.09477442735806 24.39875729009509,46.642155930865556 23.423679621890187,70.51584638468921 23.91121845692396,75.06320410221815 25.861373795196414,79.04213898163289 29.761684469878674,83.02107094787061 34.63707282021642,85.8631634246558 39.02492232993245,86.43158174306154 42.43769417330623,85.8631634246558 50.238315530121326,81.88423353992403 53.65108736976981,76.76846226258203 56.08878154307604,68.81058625876904 54.13862620666623,43.23162015900016 52.188470866531134,39.25265905354172 48.28816018998623,35.84211864322424 44.38784951157868,34.1368476357311 37.56230582855642,33.568423848133534 32.199378645047545,35.273695033974946 26.836451461538672,40.389505381230265 23.91121845692396,46.07373345177621 23.91121845692396,72.78952571796253 25.373834958299994,77.9053007401526 34.14953398332,84.72632661182433 38.53738349676132,85.8631634246558 42.92523300834,85.8631634246558 45.36292718164623,85.29474504757673 49.26323785819113,82.45265227276832 52.188470866531134,79.04213898163289 54.13862620666623,76.20004293462262 54.626165037974715,70.51584638468921 53.65108736976981,53.463221051264554 54.13862620666623,44.93688831338659 53.16354853473604,40.9579284559004 50.72585436142981,37.54738911660388 45.36292718164623,34.70527136558667 36.587228156626225,33.568423848133534 29.27414563857019,36.97896568430588 24.88629612326622,44.36846565362066 23.91121845692396,58.01059303898364 24.88629612326622,74.4947845954448 30.736762141808867,83.58948956103995 37.07476699166,86.43158174306154 42.92523300834,85.8631634246558 46.33800484985113,84.15790811553597 51.21339319832623,80.74739589495584 54.626165037974715,75.06320410221815 55.601242708042264,71.08426630869508 54.626165037974715,64.83164388639852 54.626165037974715,48.347423014231026 53.65108736976981,43.23162015900016 52.188470866531134,39.82108224602416 49.26323785819113,36.41054219426587 45.85046601668,34.1368476357311 40.975077668204904,33.0 32.199378645047545,34.70527136558667 25.861373795196414,40.9579284559004 23.91121845692396,48.91584525583312 24.39875729009509,58.57901427010074 23.91121845692396,69.94742640201002 24.39875729009509,75.06320410221815 26.34891263023019,80.17897698190063 28.786606803536415,82.45265227276832 36.09968932159245,85.29474504757673 43.412771843373775,84.72632661182433 48.28816018998623,82.45265227276832 53.65108736976981,76.20004293462262 54.626165037974715,72.22110597370192 53.65108736976981,66.53690526122227 54.13862620666623,50.62111162440851 53.16354853473604,43.80004293564707 50.238315530121326,38.68423580145463 47.31308251991868,35.84211864322424 42.92523300834,34.1368476357311 39.512461164966226,33.568423848133534 36.587228156626225,33.568423848133534 31.224300974979997,35.84211864322424 28.299067966639996,38.68423580145463 25.861373795196414,42.6631973227486 24.39875729009509,48.347423014231026 23.91121845692396,54.600064404308796 24.88629612326622,63.6948026730679 23.91121845692396,73.92636502813548 29.761684469878674,83.58948956103995 36.587228156626225,86.43158174306154 41.95015533827245,85.8631634246558 45.85046601668,84.72632661182433 50.72585436142981,80.74739589495584 54.13862620666623,75.63162354798988 54.626165037974715,71.08426630869508 53.65108736976981,61.98954040789977 54.13862620666623,47.21057835035026 51.21339319832623,39.82108224602416 46.825543684884906,35.84211864322424 40.975077668204904,33.568423848133534 38.53738349676132,33.0 33.66199515014887,34.70527136558667 29.27414563857019,37.54738911660388 26.34891263023019,40.389505381230265 24.39875729009509,50.05268956115469 23.91121845692396,73.92636502813548 25.373834958299994,77.9053007401526 29.27414563857019,83.02107094787061 36.09968932159245,87.0 41.46261650510132,86.43158174306154 45.85046601668,84.72632661182433 49.26323785819113,83.02107094787061 52.67600970156491,78.47371989069507 54.626165037974715,69.37900636065751 54.626165037974715,56.30532899033278 53.65108736976981,43.80004293564707 48.28816018998623,36.41054219426587 44.38784951157868,34.70527136558667 38.53738349676132,33.568423848133534 34.14953398332,34.70527136558667 29.761684469878674,37.54738911660388 25.373834958299994,44.36846565362066 24.39875729009509,50.05268956115469 24.88629612326622,75.06320410221815 27.323990298435092,80.17897698190063 29.761684469878674,82.45265227276832 33.174456315115094,84.72632661182433 40.0,85.8631634246558 48.77569902315736,82.45265227276832 53.16354853473604,77.9053007401526 54.626165037974715,72.78952571796253 55.113703874871135,65.40006440458819 54.626165037974715,48.347423014231026 53.16354853473604,41.52635147050023 50.72585436142981,38.11581248790026 47.31308251991868,34.70527136558667 40.975077668204904,33.568423848133534 35.61215048842132,33.568423848133534 29.761684469878674,38.11581248790026 26.34891263023019,43.23162015900016 24.39875729009509,47.21057835035026 24.39875729009509,73.92636502813548 25.373834958299994,77.9053007401526 27.323990298435092,80.74739589495584 32.199378645047545,83.58948956103995 37.56230582855642,85.8631634246558 43.900310676544905,85.8631634246558 49.75077669322491,81.88423353992403 52.188470866531134,79.04213898163289 53.65108736976981,74.4947845954448 55.113703874871135,54.600064404308796 53.65108736976981,42.09477442735806 49.75077669322491,36.97896568430588 44.87538834474981,33.568423848133534 37.07476699166,33.568423848133534 30.249223306775093,37.54738911660388 26.34891263023019,42.6631973227486 25.373834958299994,46.07373345177621 24.39875729009509,67.10532559920102 24.88629612326622,76.20004293462262 29.761684469878674,82.45265227276832 32.68691748008132,84.72632661182433 36.09968932159245,85.8631634246558 42.92523300834,85.8631634246558 49.26323785819113,82.45265227276832 53.65108736976981,75.63162354798988 55.113703874871135,52.89479928417131 53.16354853473604,41.52635147050023 50.238315530121326,36.97896568430588 47.31308251991868,34.70527136558667 42.43769417330623,33.568423848133534 38.0498446598649,33.568423848133534 34.14953398332,34.70527136558667 29.27414563857019,38.11581248790026 23.91121845692396,43.80004293564707 23.423679621890187,50.05268956115469 23.91121845692396,54.03164275595918 23.423679621890187,67.10532559920102 23.423679621890187,73.35794540308416 24.39875729009509,76.76846226258203 29.27414563857019,82.45265227276832 34.14953398332,85.29474504757673 37.07476699166,85.8631634246558 42.92523300834,85.29474504757673 48.28816018998623,82.45265227276832 51.21339319832623,79.61055801203474 54.626165037974715,72.22110597370192 54.626165037974715,47.77900071069598 52.67600970156491,40.389505381230265 50.72585436142981,37.54738911660388 46.33800484985113,34.1368476357311 37.07476699166,33.0 28.786606803536415,37.54738911660388 26.34891263023019,41.52635147050023 24.88629612326622,46.07373345177621 24.39875729009509,74.4947845954448 30.249223306775093,82.45265227276832 35.61215048842132,84.72632661182433 42.43769417330623,84.72632661182433 49.75077669322491,80.74739589495584 54.13862620666623,73.92636502813548 54.626165037974715,66.53690526122227 54.626165037974715,46.642155930865556 53.65108736976981,42.09477442735806 49.26323785819113,35.84211864322424 43.900310676544905,33.568423848133534 39.02492232993245,33.0 34.63707282021642,34.1368476357311 28.786606803536415,37.54738911660388 26.836451461538672,39.82108224602416 24.88629612326622,45.505310910753906 23.423679621890187,64.83164388639852 23.91121845692396,71.08426630869508 24.88629612326622,73.92636502813548 27.323990298435092,79.61055801203474 29.761684469878674,81.88423353992403 35.61215048842132,84.72632661182433 42.43769417330623,84.72632661182433 44.87538834474981,84.15790811553597 50.72585436142981,79.61055801203474 54.13862620666623,72.22110597370192 55.113703874871135,62.55796122131869 53.65108736976981,43.23162015900016 50.238315530121326,37.54738911660388 47.80062135308981,34.70527136558667 40.0,33.0 35.12461165338755,34.1368476357311 28.786606803536415,38.68423580145463 26.34891263023019,41.52635147050023 24.88629612326622,44.93688831338659 23.423679621890187,65.96848486177623 24.39875729009509,74.4947845954448 27.81152913160622,79.61055801203474 32.199378645047545,83.02107094787061 39.512461164966226,84.72632661182433 44.38784951157868,84.15790811553597 48.77569902315736,81.88423353992403 51.70093203149736,79.04213898163289 53.65108736976981,75.06320410221815 54.626165037974715,68.2421660986729 54.13862620666623,55.73690752219409 54.626165037974715,50.05268956115469 53.65108736976981,42.6631973227486 49.75077669322491,36.41054219426587 43.412771843373775,33.568423848133534 39.02492232993245,33.0 34.14953398332,34.1368476357311 29.761684469878674,36.97896568430588 25.861373795196414,40.9579284559004 24.88629612326622,44.36846565362066 23.91121845692396,60.85269859991968 23.91121845692396,69.37900636065751 25.373834958299994,75.63162354798988 29.27414563857019,80.17897698190063 35.12461165338755,83.58948956103995 38.0498446598649,84.72632661182433 42.92523300834,84.15790811553597 46.33800484985113,83.02107094787061 49.26323785819113,80.74739589495584 53.65108736976981,75.06320410221815 54.626165037974715,51.75795557303354 52.67600970156491,41.52635147050023 47.80062135308981,35.273695033974946 37.07476699166,33.0 32.68691748008132,34.70527136558667 29.27414563857019,37.54738911660388 26.836451461538672,41.52635147050023 25.373834958299994,44.93688831338659 24.88629612326622,52.89479928417131 25.373834958299994,58.57901427010074 24.39875729009509,67.10532559920102 25.373834958299994,74.4947845954448 28.299067966639996,79.04213898163289 33.174456315115094,81.88423353992403 39.512461164966226,83.58948956103995 43.412771843373775,83.02107094787061 47.31308251991868,81.31581474700943 50.238315530121326,79.04213898163289 53.65108736976981,72.78952571796253 54.626165037974715,50.05268956115469 53.65108736976981,42.6631973227486 52.188470866531134,38.68423580145463 47.31308251991868,34.70527136558667 43.900310676544905,33.568423848133534 36.09968932159245,33.0 32.199378645047545,34.1368476357311 27.81152913160622,37.54738911660388 25.373834958299994,41.52635147050023 23.423679621890187,48.347423014231026 23.423679621890187,52.89479928417131" stroke="yellow" stroke-linecap="round" stroke-linejoin="round" stroke-width="0.5"><title>2025-07-25 5.0km</title><desc>15231554030</desc></polyline><polyline fill="none" points="127.0,72.88201988424407 125.7142857145518,72.97570573893609 124.26785714318976,69.88406736491015 122.25892857182771,68.29140100668883 120.0892857145518,70.7272425253177 120.0892857145518,72.31990455149207 122.17857142863795,74.66204944427591 124.75,72.97570573893609 124.91071428591385,69.22826391342096 123.30357142910361,66.60504530509934 123.06250000046566,66.51135878398782 120.33035714318976,67.82296918594511 120.33035714318976,68.10402830806561 120.00892857182771,71.66410288377665 121.2946428572759,74.75573511276161 124.50892857136205,73.81887798866956 124.5892857145518,73.53782066021813 124.83035714318976,70.44618422683561 123.94642857182771,67.0734777629259 121.61607142910361,66.60504530509934 121.05357142863795,66.97979129105806 121.45535714318976,67.54190997604746 120.33035714318976,67.1671642253059 83.20535714318976,50.86557229136815 78.38392857136205,49.55393705330789 76.7767857145518,49.460248748539016 74.6071428572759,49.64762534806505 73.88392857136205,49.928690174478106 73.1607142854482,50.95926044922089 73.0803571427241,51.896141488163266 73.1607142854482,52.36458163964562 73.40178571408615,52.73933358467184 73.80357142910361,53.114085373003036 75.0892857145518,53.67621276131831 76.2946428572759,53.67621276131831 77.3392857145518,53.114085373003036 77.9017857145518,52.17720560828457 78.1428571427241,48.71074195735855 78.0625,47.39910356258042 77.66071428591385,46.27484055282548 77.3392857145518,45.806397215346806 76.7767857145518,45.619019811740145 75.7321428572759,45.337953632930294 74.68750000046566,45.5253310953849 73.5625,46.368529190833215 73.24107142863795,46.83697223413037 73.0803571427241,47.77385758579476 73.1607142854482,52.08351757802302 73.4821428572759,52.8330215466558 74.125,53.395149111165665 75.25,53.76990062528057 76.2946428572759,53.76990062528057 77.4196428572759,52.92670949851163 77.82142857136205,52.08351757802302 77.9821428572759,51.52138918999117 77.9017857145518,50.3034431389533 78.0625,48.617053564230446 78.0625,47.39910356258042 77.66071428591385,46.368529190833215 76.7767857145518,45.5253310953849 75.7321428572759,45.337953632930294 74.92857142863795,45.431642369017936 73.88392857136205,45.9937745797215 73.32142857182771,47.024349382845685 73.0,48.71074195735855 73.0,51.70876535854768 73.32142857182771,52.64564561331645 74.0446428572759,53.48883700440638 75.25,53.76990062528057 76.05357142910361,53.76990062528057 77.17857142863795,53.207773295696825 77.66071428591385,52.73933358467184 77.9017857145518,52.17720560828457 78.0625,50.116066676331684 77.9821428572759,47.21172649250366 77.74107142863795,46.46221781929489 77.17857142863795,45.806397215346806 76.69642857182771,45.431642369017936 75.57142857182771,45.24426488723839 74.6071428572759,45.5253310953849 73.32142857182771,46.74328364501707 73.1607142854482,47.305415032373276 73.0803571427241,48.14861145202303 73.0803571427241,51.80245342833223 74.125,53.30146120826248 74.92857142863795,53.67621276131831 75.97321428591385,53.67621276131831 76.7767857145518,53.48883700440638 77.17857142863795,53.207773295696825 77.74107142863795,52.64564561331645 78.0625,50.67819594661705 78.0625,47.21172649250366 77.66071428591385,46.46221781929489 77.01785714318976,45.71270851860754 76.53571428591385,45.431642369017936 75.7321428572759,45.337953632930294 75.16964285774156,45.337953632930294 74.5267857145518,45.5253310953849 73.9642857145518,45.90008590259822 73.40178571408615,46.6495950462413 73.0803571427241,48.05492300004698 73.0803571427241,51.80245342833223 73.5625,52.64564561331645 74.28571428591385,53.30146120826248 75.6517857145518,53.76990062528057 76.375,53.67621276131831 77.09821428591385,53.30146120826248 77.4196428572759,53.02039744076319 77.74107142863795,52.45826964074513 77.9821428572759,51.24032486404758 77.9017857145518,50.116066676331684 77.9821428572759,48.617053564230446 77.9017857145518,47.21172649250366 77.4196428572759,46.0874632470659 76.61607142863795,45.431642369017936 75.6517857145518,45.24426488723839 74.84821428591385,45.337953632930294 74.20535714318976,45.71270851860754 73.5625,46.46221781929489 73.32142857182771,47.024349382845685 73.0803571427241,47.68016909493599 73.0803571427241,51.98982953798259 73.32142857182771,52.55195763200754 73.80357142910361,53.207773295696825 75.25,53.76990062528057 75.7321428572759,53.76990062528057 76.8571428572759,53.395149111165665 77.25892857182771,53.114085373003036 77.82142857136205,52.55195763200754 78.0625,51.24032486404758 77.9821428572759,47.305415032373276 77.5,46.27484055282548 77.09821428591385,45.71270851860754 75.89285714318976,45.24426488723839 74.76785714318976,45.431642369017936 73.9642857145518,45.90008590259822 73.40178571408615,46.55590643762844 73.0803571427241,47.961234538350254 73.0803571427241,51.896141488163266 73.80357142910361,53.114085373003036 74.5267857145518,53.58252488769358 75.41071428591385,53.86358847905649 76.9375,53.395149111165665 77.4196428572759,52.92670949851163 77.9821428572759,52.08351757802302 78.0625,47.49279208329972 77.9017857145518,46.83697223413037 77.3392857145518,45.9937745797215 76.69642857182771,45.5253310953849 76.13392857182771,45.337953632930294 75.0892857145518,45.337953632930294 74.28571428591385,45.619019811740145 73.80357142910361,46.0874632470659 73.24107142863795,47.11803794273874 73.0803571427241,48.80443034047494 73.1607142854482,52.17720560828457 73.80357142910361,53.114085373003036 74.5267857145518,53.67621276131831 75.16964285774156,53.95727632299531 76.2142857145518,53.86358847905649 76.69642857182771,53.67621276131831 77.4196428572759,53.02039744076319 77.82142857136205,52.45826964074513 77.9821428572759,51.80245342833223 77.9821428572759,47.961234538350254 77.58035714318976,46.368529190833215 77.09821428591385,45.806397215346806 76.375,45.337953632930294 75.81250000046566,45.24426488723839 75.00892857136205,45.24426488723839 73.72321428591385,46.0874632470659 73.4821428572759,46.46221781929489 73.24107142863795,47.21172649250366 73.1607142854482,51.42770109104458 73.32142857182771,52.45826964074513 74.0446428572759,53.30146120826248 74.44642857182771,53.48883700440638 75.41071428591385,53.76990062528057 76.53571428591385,53.58252488769358 77.3392857145518,53.114085373003036 77.74107142863795,52.64564561331645 77.9821428572759,51.80245342833223 77.82142857136205,49.928690174478106 77.9821428572759,48.05492300004698 77.9017857145518,47.024349382845685 77.5,45.9937745797215 77.4196428572759,45.431642369017936" stroke="#4DD2FF" stroke-linecap="round" stroke-linejoin="round" stroke-width="0.5"><title>2025-07-16 3.1km</title><desc>15133462266</desc></polyline><polyline fill="none" points="144.87634398043156,58.347007723059505 146.76680098101497,58.347007723059505 147.71202948503196,58.89802827546373 148.1846437342465,72.12250423524529 150.07510073669255,77.08167415950447 154.32862899266183,82.04083941457793 158.58215725049376,84.24491136241704 165.19875675812364,85.34694699104875 169.92489926330745,84.24491136241704 174.17842751927674,82.04083941457793 177.48672727495432,77.632692752406 178.9045700263232,74.87759921327233 179.37718427553773,65.51027040649205 179.37718427553773,52.836799030192196 177.01411302387714,43.46943101938814 175.1236560214311,39.612274643499404 171.81535626761615,36.8571612178348 168.97967076301575,34.65306944027543 162.36307125352323,33.0 156.69170024618506,34.65306944027543 153.85601474158466,36.3061383604072 150.54771498963237,40.16329715726897 147.71202948503196,47.87760627735406 148.1846437342465,71.02046583965421 151.02032923698425,79.2857481832616 152.91078624129295,82.04083941457793 157.16431449726224,84.24491136241704 164.72614250704646,84.24491136241704 169.45228501409292,83.14287550374866 172.28797051683068,81.48982128407806 175.59627027064562,78.1837112866342 177.01411302387714,73.77556139649823 177.95934152416885,70.46944655664265 177.95934152416885,47.87760627735406 175.59627027064562,40.714319611899555 174.17842751927674,39.061252074316144 170.39751351438463,36.3061383604072 166.61659951135516,35.204092470463365 162.8356855046004,35.204092470463365 156.69170024618506,37.40818401938304 150.54771498963237,41.816364348866045 148.65725798532367,45.67351911077276 148.1846437342465,50.63271393766627 148.1846437342465,72.12250423524529 150.54771498963237,78.1837112866342 154.801243243739,82.04083941457793 158.58215725049376,84.79592920653522 166.61659951135516,87.0 173.23319901898503,83.69389346148819 177.48672727495432,77.632692752406 179.37718427553773,69.9184272158891 178.43195577524602,65.51027040649205 178.43195577524602,52.28577784309164 177.48672727495432,45.67351911077276 175.1236560214311,40.16329715726897 169.45228501409292,34.65306944027543 162.8356855046004,33.0 160.0,33.0 156.2190859951079,34.65306944027543 150.54771498963237,39.612274643499404 148.65725798532367,43.46943101938814 148.1846437342465,47.87760627735406 147.71202948503196,69.9184272158891 148.1846437342465,74.32658033398911 151.9655577391386,80.93880309443921 155.27385749295354,83.69389346148819 160.94522850215435,85.89796471735463 164.72614250704646,86.44898238731548 169.45228501409292,84.79592920653522 176.54149877093732,79.2857481832616 178.9045700263232,74.32658033398911 179.37718427553773,69.3674078155309 177.95934152416885,64.40823062788695 178.43195577524602,47.87760627735406 176.54149877093732,41.816364348866045 174.17842751927674,38.510229447856545 171.34274201467633,35.75511544384062 166.61659951135516,33.55102320481092 160.47261424921453,33.55102320481092 155.74647174589336,35.204092470463365 150.54771498963237,41.26534200832248 148.1846437342465,51.73475659964606 148.65725798532367,72.12250423524529 150.54771498963237,77.632692752406 154.801243243739,81.48982128407806 161.41784275323153,84.79592920653522 165.19875675812364,84.79592920653522 170.8701277654618,83.14287550374866 173.7058132700622,81.48982128407806 177.48672727495432,77.632692752406 180.32241277769208,69.9184272158891 180.32241277769208,58.89802827546373 179.37718427553773,49.53067104658112 175.1236560214311,40.16329715726897 171.81535626761615,36.3061383604072 168.0344422608614,34.65306944027543 159.0547714997083,34.10204635048285 153.38340049423277,36.8571612178348 150.54771498963237,40.714319611899555 148.65725798532367,48.97964951535687 149.1298722345382,56.14292493741959 148.65725798532367,71.57148506585509 149.60248648561537,75.42861803574488 153.38340049423277,80.93880309443921 156.69170024618506,83.69389346148819 162.36307125352323,85.34694699104875 167.0892137605697,84.24491136241704 172.28797051683068,81.48982128407806 176.06888452358544,78.1837112866342 177.95934152416885,74.32658033398911 178.9045700263232,68.81638835789636 179.37718427553773,61.102109908126295 177.01411302387714,46.775562807917595 173.23319901898503,39.061252074316144 171.34274201467633,36.3061383604072 167.56182800978422,34.10204635048285 163.78091400675476,33.55102320481092 158.58215725049376,34.10204635048285 154.801243243739,36.3061383604072 150.54771498963237,40.16329715726897 148.65725798532367,49.53067104658112 149.1298722345382,73.77556139649823 152.43817199021578,80.93880309443921 156.69170024618506,84.79592920653522 162.36307125352323,86.44898238731548 168.97967076301575,84.79592920653522 175.59627027064562,79.83676654426381 177.95934152416885,74.32658033398911 178.9045700263232,69.9184272158891 177.95934152416885,62.20415037823841 178.9045700263232,48.97964951535687 177.01411302387714,41.26534200832248 174.17842751927674,37.95920676132664 169.92489926330745,34.65306944027543 165.19875675812364,33.55102320481092 158.58215725049376,34.10204635048285 153.85601474158466,37.40818401938304 150.54771498963237,41.816364348866045 148.1846437342465,49.53067104658112 149.1298722345382,72.6735233454965 150.54771498963237,77.08167415950447 152.91078624129295,80.93880309443921 159.52738575078547,84.24491136241704 163.78091400675476,84.79592920653522 168.50705651007593,83.69389346148819 172.76058476790786,82.04083941457793 175.59627027064562,79.2857481832616 177.48672727495432,73.22454240033403 177.48672727495432,45.67351911077276 174.6510417703539,38.510229447856545 166.61659951135516,34.65306944027543 158.58215725049376,35.204092470463365 154.32862899266183,37.95920676132664 150.54771498963237,43.46943101938814 148.65725798532367,48.97964951535687 146.76680098101497,67.71434927079827 147.23941523209214,71.02046583965421 148.65725798532367,74.87759921327233 152.43817199021578,80.93880309443921 156.69170024618506,84.24491136241704 161.89045700244606,86.44898238731548 168.0344422608614,87.0 171.34274201467633,85.34694699104875 175.1236560214311,82.04083941457793 177.95934152416885,78.1837112866342 178.9045700263232,71.57148506585509 177.48672727495432,63.85721065104008 177.48672727495432,50.08169252099469 176.54149877093732,43.46943101938814 173.7058132700622,39.061252074316144 169.45228501409292,35.204092470463365 162.8356855046004,34.10204635048285 158.10954299755394,35.204092470463365 151.9655577391386,39.612274643499404 149.60248648561537,45.67351911077276 148.65725798532367,72.6735233454965 151.9655577391386,79.83676654426381 155.74647174589336,83.14287550374866 162.36307125352323,85.34694699104875 168.97967076301575,84.24491136241704 173.23319901898503,81.48982128407806 176.54149877093732,77.632692752406 178.43195577524602,72.12250423524529 177.48672727495432,63.30619061831385 178.43195577524602,55.040883200243115 177.95934152416885,44.57147518126294 175.59627027064562,39.061252074316144 170.8701277654618,35.204092470463365 168.0344422608614,34.10204635048285 162.8356855046004,34.10204635048285 155.74647174589336,36.3061383604072 151.02032923698425,41.26534200832248 149.1298722345382,47.87760627735406 150.07510073669255,56.693945719860494 149.60248648561537,71.57148506585509 150.54771498963237,74.87759921327233 153.38340049423277,79.2857481832616 158.58215725049376,83.69389346148819 167.56182800978422,85.34694699104875 170.39751351438463,84.24491136241704 175.59627027064562,77.632692752406 177.95934152416885,72.12250423524529 177.48672727495432,62.20415037823841 178.43195577524602,50.63271393766627 177.95934152416885,45.122497173491865 174.17842751927674,37.95920676132664 169.45228501409292,34.65306944027543 163.78091400675476,34.10204635048285 160.94522850215435,34.10204635048285 156.2190859951079,36.3061383604072 151.49294348992407,41.26534200832248 149.1298722345382,50.63271393766627 149.60248648561537,60.55108958482742 149.1298722345382,65.51027040649205 149.60248648561537,71.57148506585509 151.9655577391386,78.73472976265475 156.2190859951079,82.04083941457793 162.8356855046004,84.24491136241704 171.34274201467633,82.04083941457793 176.54149877093732,76.53065550886095 178.43195577524602,71.02046583965421 177.48672727495432,63.85721065104008 178.43195577524602,52.28577784309164 177.95934152416885,47.326584570109844 175.59627027064562,41.26534200832248 172.28797051683068,36.8571612178348 168.0344422608614,34.65306944027543 163.78091400675476,34.10204635048285 154.801243243739,37.40818401938304 150.54771498963237,41.26534200832248 149.1298722345382,48.97964951535687 147.23941523209214,53.93884122930467 146.29418673366308,54.48986224364489 142.04065847583115,52.28577784309164 140.62281572446227,53.38782015722245 140.15020147524774,55.591904097702354 140.15020147524774,54.48986224364489 141.56804422475398,53.93884122930467 139.67758722417057,55.040883200243115 140.15020147524774,55.591904097702354" stroke="#4DD2FF" stroke-linecap="round" stroke-linejoin="round" stroke-width="0.5"><title>2025-07-09 3.3km</title><desc>15057512390</desc></polyline><polyline fill="none" points="20.42305196262896,117.49491327209398 25.675403878092766,120.27841900940984 27.585350025445223,122.50522255012766 29.972782712429762,137.536122079473 31.405242323875427,140.31961733289063 35.22513462603092,145.32990512112156 39.04502692818642,147.0 45.7298384513706,146.44330176478252 51.937163438647985,143.65980971511453 54.80208266340196,140.8763162093237 58.62197496369481,134.7526253699325 60.53192111477256,125.84542611567304 58.62197496369481,103.57736274506897 57.66700189001858,100.79384827241302 54.324596129357815,97.45362898241729 51.937163438647985,95.78351855045184 43.81989230029285,94.11340759461746 40.47748653776944,94.67011130601168 35.70262116380036,96.34022208629176 32.360215401276946,99.68044207431376 29.495296174660325,104.69076812826097 27.585350025445223,116.93821194954216 26.630376951768994,118.60831574164331 25.675403878092766,119.16501688910648 25.675403878092766,118.05161453550681 27.10786348581314,119.16501688910648 29.017809638753533,124.73202515998855 29.972782712429762,135.30932482751086 31.405242323875427,138.64952035574242 35.22513462603092,142.54641248704866 41.43245961330831,146.44330176478252 44.29737883992493,147.0 46.68481152690947,146.44330176478252 54.324596129357815,140.31961733289063 58.14448842778802,134.19592585461214 60.05443457700312,125.28872566623613 59.576948039233685,109.70108946226537 59.09946150146425,103.57736274506897 56.712028816342354,98.56703564571217 51.45967690087855,94.11340759461746 44.29737883992493,93.0 40.47748653776944,94.11340759461746 35.22513462603092,96.89692556299269 31.405242323875427,101.90725423721597 29.495296174660325,107.47428056132048 28.540323100984097,131.41242739604786 29.017809638753533,134.7526253699325 31.405242323875427,138.64952035574242 35.22513462603092,142.54641248704866 40.47748653776944,145.32990512112156 47.16229806467891,145.32990512112156 54.324596129357815,142.54641248704866 58.14448842778802,136.4227235703729 59.09946150146425,131.41242739604786 58.14448842778802,124.17532459460199 59.576948039233685,118.05161453550681 59.09946150146425,106.91757819149643 58.62197496369481,103.57736274506897 56.23454227671027,98.56703564571217 52.41464997641742,95.78351855045184 47.16229806467891,93.55670382734388 43.34240576438606,93.55670382734388 38.0900538507849,95.22681495686993 35.22513462603092,96.89692556299269 31.405242323875427,100.23714520316571 29.972782712429762,104.13406546507031 28.540323100984097,109.70108946226537 28.540323100984097,132.52582695381716 30.92775578983128,138.64952035574242 34.27016155049205,142.54641248704866 40.000000001862645,145.32990512112156 44.77486537583172,146.44330176478252 49.549730751663446,145.32990512112156 56.23454227671027,139.2062194054015 59.09946150146425,133.08252664469182 60.05443457700312,128.62892748368904 59.576948039233685,119.72171797882766 58.62197496369481,113.04130106512457 59.09946150146425,104.69076812826097 57.1895153503865,99.68044207431376 54.324596129357815,95.78351855045184 47.16229806467891,93.0 41.90994615294039,93.0 37.135080775246024,94.67011130601168 31.405242323875427,101.90725423721597 29.495296174660325,108.58768512913957 28.540323100984097,116.38151056971401 29.017809638753533,133.63922627922148 30.4502692501992,138.09282124694437 33.31518847681582,141.98971378663555 37.612567314878106,144.7732067098841 41.90994615294039,145.8866034722887 49.072244212031364,144.7732067098841 51.937163438647985,143.10311112971976 55.757055738940835,139.76291839918122 58.14448842778802,135.30932482751086 59.09946150146425,132.52582695381716 60.53192111477256,119.72171797882766 58.62197496369481,103.57736274506897 55.757055738940835,98.56703564571217 49.549730751663446,94.67011130601168 43.81989230029285,93.55670382734388 40.954973075538874,94.11340759461746 36.180107701569796,96.34022208629176 32.360215401276946,100.79384827241302 29.017809638753533,108.58768512913957 28.06283656321466,115.8248091316782 25.675403878092766,119.72171797882766 27.10786348581314,121.94852175144479 27.10786348581314,125.84542611567304 29.495296174660325,135.86602422734722 32.83770193718374,140.31961733289063 39.04502692818642,144.7732067098841 45.7298384513706,145.32990512112156 49.549730751663446,144.7732067098841 53.84710958972573,141.98971378663555 58.62197496369481,135.30932482751086 59.09946150146425,121.3918208964169 58.62197496369481,102.46395713137463 57.1895153503865,99.68044207431376 54.80208266340196,97.45362898241729 50.98219036497176,95.22681495686993 44.29737883992493,94.11340759461746 35.70262116380036,96.34022208629176 30.4502692501992,103.02065996732563 29.017809638753533,109.70108946226537 29.495296174660325,119.16501688910648 28.540323100984097,134.19592585461214 29.972782712429762,138.64952035574242 33.79267501458526,143.10311112971976 37.135080775246024,145.32990512112156 41.43245961330831,146.44330176478252 47.639784602448344,145.32990512112156 54.324596129357815,141.98971378663555 57.1895153503865,138.64952035574242 59.576948039233685,128.62892748368904 58.62197496369481,124.17532459460199 56.23454227671027,125.28872566623613 59.576948039233685,123.61862397193909 60.05443457700312,122.50522255012766 60.05443457700312,111.9278974304907 59.09946150146425,106.36087576346472 57.1895153503865,100.23714520316571 50.02721729129553,94.67011130601168 45.25235191360116,93.55670382734388 42.38743268698454,93.55670382734388 36.65759423933923,96.89692556299269 32.83770193718374,100.79384827241302 30.4502692501992,103.57736274506897 28.06283656321466,114.15470446506515 26.152890412136912,117.49491327209398 23.287971187382936,118.60831574164331 19.468078887090087,116.38151056971401 28.540323100984097,119.72171797882766 29.495296174660325,121.94852175144479 29.495296174660325,133.08252664469182 30.4502692501992,137.536122079473 32.83770193718374,141.43301502615213 35.70262116380036,144.21650824137032 38.0900538507849,145.32990512112156 42.38743268698454,145.8866034722887 49.072244212031364,144.7732067098841 53.369623051956296,142.54641248704866 57.66700189001858,136.4227235703729 59.576948039233685,131.9691272038035 59.576948039233685,128.62892748368904 59.576948039233685,111.9278974304907 58.62197496369481,103.57736274506897 56.712028816342354,99.1237388891168 53.84710958972573,96.89692556299269 50.02721729129553,94.67011130601168 45.7298384513706,94.11340759461746 39.04502692818642,95.22681495686993 31.88272886350751,101.350551282987 29.017809638753533,110.25779154151678 28.540323100984097,130.29902760777622 30.4502692501992,135.86602422734722 32.360215401276946,139.76291839918122 37.135080775246024,144.21650824137032 40.954973075538874,145.32990512112156 47.639784602448344,144.7732067098841 53.84710958972573,141.43301502615213 57.66700189001858,136.9794228533283 58.62197496369481,110.8144935616292 56.712028816342354,101.350551282987 53.84710958972573,98.01033234223723 49.072244212031364,95.22681495686993 40.000000001862645,95.22681495686993 35.70262116380036,98.01033234223723 31.88272886350751,101.90725423721597 29.972782712429762,106.91757819149643 29.017809638753533,114.7114060795866 29.495296174660325,131.9691272038035 32.360215401276946,139.2062194054015 34.27016155049205,141.43301502615213 40.954973075538874,144.7732067098841 44.77486537583172,145.32990512112156 50.02721729129553,144.21650824137032 55.757055738940835,138.64952035574242 58.14448842778802,135.30932482751086 58.14448842778802,129.185627582483 59.09946150146425,121.94852175144479 58.62197496369481,118.05161453550681 59.576948039233685,114.7114060795866 59.576948039233685,109.14438732573763 57.66700189001858,101.350551282987 53.84710958972573,96.89692556299269 46.68481152690947,94.11340759461746 41.90994615294039,94.11340759461746 36.65759423933923,96.34022208629176 31.88272886350751,101.350551282987 29.495296174660325,107.47428056132048 28.540323100984097,130.29902760777622 30.4502692501992,139.2062194054015 32.360215401276946,141.98971378663555 41.90994615294039,145.8866034722887 45.7298384513706,145.8866034722887 50.02721729129553,143.65980971511453 56.23454227671027,137.536122079473 58.62197496369481,131.9691272038035 58.14448842778802,123.61862397193909 58.62197496369481,117.49491327209398 58.14448842778802,107.47428056132048 56.712028816342354,101.90725423721597 53.369623051956296,96.89692556299269 45.25235191360116,93.55670382734388 37.135080775246024,95.78351855045184 33.79267501458526,98.56703564571217 31.405242323875427,101.90725423721597 29.495296174660325,106.36087576346472 26.630376951768994,115.8248091316782 25.197917338460684,118.05161453550681 22.332998113706708,119.16501688910648 19.468078887090087,117.49491327209398" stroke="#4DD2FF" stroke-linecap="round" stroke-linejoin="round" stroke-width="0.5"><title>2025-07-07 3.1km</title><desc>15035124835</desc></polyline><polyline fill="none" points="127.0,133.8417916179751 126.84680851083249,133.39528947562212 125.23829787224531,133.48458992282394 122.02127659553662,132.05578164820326 122.3276595743373,126.87633160472615 122.09787234012038,126.69772931846092 118.26808510674164,126.78703046613373 117.88510638289154,130.80557244608644 119.34042553184554,134.1096927910694 122.17446808516979,133.48458992282394 122.40425531938672,129.91256475198315 121.94468085095286,126.51912699500099 121.7148936172016,126.51912699500099 118.4978723404929,127.05493385356385 118.34468085132539,127.32283715659287 117.96170212747529,130.80557244608644 119.11063829809427,133.93109201820334 119.4170212764293,134.02039240917657 122.3276595743373,133.3059890192817 122.7872340423055,131.43067727604648 122.71063829772174,130.62697098206263 122.94042553193867,130.26976794173243 121.25531914876774,129.198157924111 118.03829787252471,127.59074037574464 84.94893616996706,112.32012269797269 82.49787234095857,110.62337053689407 80.4297872344032,108.5694028819562 77.44255319191143,106.60473354405258 76.06382978754118,105.89030720893061 75.37446808535606,105.89030720893061 74.60851063858718,106.06891384872142 73.53617021301761,107.14055290294345 73.30638297880068,107.94428131036693 73.38297872338444,110.44476485002087 73.30638297880068,112.14151736587519 73.68936170218512,113.21314879623242 74.37872340437025,113.83826650917763 75.52765957452357,114.1954764254624 76.67659574467689,113.9275690021459 77.74893617024645,113.03454365127254 78.13191489363089,112.14151736587519 78.05531914904714,108.12288752058521 77.67234042612836,106.78334003413329 76.82978723431006,106.06891384872142 75.60425531910732,105.89030720893061 74.91489361738786,106.06891384872142 74.14893617061898,106.42612701636972 73.45957446843386,107.14055290294345 73.22978723421693,108.03358441998716 73.07659574504942,110.17685624951264 73.15319148963317,112.4987279920606 73.45957446843386,112.94524106482277 74.22553191520274,113.65966149501037 74.99148936197162,114.01687148597557 75.83404255332425,114.10617396055022 76.98297872347757,113.7489640066633 77.74893617024645,112.94524106482277 77.97872340446338,112.40942534967326 78.20851063821465,111.6057011464145 78.20851063821465,110.89127899700543 78.13191489363089,108.39079676545225 77.90212765987962,107.22985609661555 77.67234042612836,106.78334003413329 76.98297872347757,106.24752045120113 76.21702127670869,105.97961053368635 75.37446808535606,105.89030720893061 74.22553191520274,106.33682373835472 73.68936170218512,106.87264326546574 73.45957446843386,107.22985609661555 73.22978723421693,108.39079676545225 73.30638297880068,110.53406769805588 73.15319148963317,111.42709566507256 73.38297872338444,112.76663586363429 73.99574468145147,113.48105644347379 74.76170212775469,114.01687148597557 75.91063829837367,114.1954764254624 77.51914893649518,113.39175390376477 77.90212765987962,112.76663586363429 78.20851063821465,112.14151736587519 78.13191489363089,108.03358441998716 77.90212765987962,107.22985609661555 77.44255319191143,106.51543028472224 76.29361702129245,105.97961053368635 75.68085106415674,105.89030720893061 74.60851063858718,106.24752045120113 74.22553191520274,106.42612701636972 73.45957446843386,107.40846245596185 73.15319148963317,108.65870592632564 73.15319148963317,111.33779291034443 73.22978723421693,112.67733324924484 73.76595744676888,113.39175390376477 74.455319148954,113.83826650917763 75.68085106415674,114.1954764254624 76.67659574467689,113.9275690021459 77.67234042612836,113.21314879623242 78.20851063821465,112.23082003666786 78.13191489363089,109.90894756536 78.20851063821465,108.48009982844815 77.97872340446338,107.40846245596185 77.59574468107894,106.78334003413329 77.05957446806133,106.24752045120113 76.44680851045996,105.97961053368635 75.45106382993981,105.89030720893061 74.8382978728041,106.06891384872142 74.14893617061898,106.42612701636972 73.61276595760137,107.0512496996671 73.38297872338444,107.40846245596185 73.30638297880068,108.21219061157899 73.22978723421693,112.05221468606032 73.45957446843386,112.76663586363429 74.07234042556956,113.57035897404421 75.06808510655537,114.01687148597557 76.29361702129245,114.01687148597557 77.2127659576945,113.48105644347379 77.90212765987962,112.85593846888514 78.28510638326406,111.9629119966994 78.13191489363089,109.10522100760136 78.20851063821465,108.48009982844815 77.97872340446338,107.49776562181069 77.74893617024645,107.0512496996671 76.90638297889382,106.24752045120113 76.06382978754118,105.97961053368635 75.22127659618855,105.97961053368635 74.53191489353776,106.15821715461789 73.84255319135264,106.60473354405258 73.38297872338444,107.67637192527764 73.22978723421693,108.5694028819562 73.22978723421693,112.05221468606032 73.91914893640205,113.39175390376477 74.37872340437025,113.7489640066633 75.2978723407723,114.1954764254624 76.14042553212494,114.1954764254624 76.90638297889382,113.9275690021459 77.51914893649518,113.39175390376477 78.05531914904714,112.67733324924484 78.20851063821465,111.33779291034443 78.13191489363089,108.03358441998716 77.67234042612836,106.87264326546574 76.3702127658762,105.97961053368635 75.68085106415674,105.89030720893061 74.8382978728041,106.06891384872142 73.91914893640205,106.69403679377865 73.22978723421693,107.85497819143347 73.15319148963317,110.89127899700543 73.22978723421693,112.32012269797269 73.53617021301761,113.03454365127254 74.14893617061898,113.65966149501037 74.53191489353776,113.9275690021459 75.45106382993981,114.10617396055022 76.21702127670869,114.10617396055022 77.36595744686201,113.48105644347379 77.97872340446338,112.67733324924484 78.20851063821465,112.05221468606032 78.13191489363089,108.03358441998716 77.90212765987962,107.40846245596185 77.51914893649518,106.69403679377865 76.90638297889382,106.24752045120113 76.06382978754118,105.89030720893061 75.2978723407723,105.97961053368635 73.99574468145147,106.51543028472224 73.15319148963317,107.76567506318679 73.0,109.01591800991446 73.22978723421693,111.9629119966994 73.53617021301761,112.94524106482277 74.68510638317093,114.10617396055022 76.06382978754118,114.01687148597557 76.82978723431006,113.7489640066633 77.44255319191143,113.39175390376477 77.90212765987962,112.76663586363429 78.20851063821465,112.23082003666786 78.05531914904714,107.67637192527764 77.59574468107894,106.87264326546574 76.98297872347757,106.33682373835472 76.29361702129245,105.97961053368635 75.45106382993981,105.97961053368635 74.68510638317093,106.24752045120113 73.68936170218512,107.0512496996671 73.22978723421693,108.03358441998716 73.07659574504942,111.15918737323955 73.15319148963317,112.14151736587519 73.68936170218512,113.3024513546261 74.30212765978649,113.83826650917763 75.22127659618855,114.1954764254624 76.14042553212494,114.10617396055022 76.90638297889382,113.83826650917763 77.97872340446338,113.12384622823447 78.97446808544919,113.21314879623242 79.1276595746167,113.39175390376477" stroke="#4DD2FF" stroke-linecap="round" stroke-linejoin="round" stroke-width="0.5"><title>2025-06-15 3.3km</title><desc>14807579363</desc></polyline><polyline fill="none" points="170.39537155092694,146.75030337207136 170.6424881487037,146.84634057682706 170.8237069871975,146.88475544466928 171.53210790117737,146.7695108170301 171.89454557810677,146.75030337207136 172.40525321371388,146.84634057682706 172.8500630898052,147.0 172.96538416889962,146.94237773140776 172.98185860877857,146.21249409698066 173.04775636817794,145.96279639800196 173.11365412763553,145.17528604599647 173.2454496464925,144.84875637273944 173.22897520667175,144.57984914693225 173.31134740589187,143.984410316727 173.29487296607113,143.5234240895079 173.34429628564976,142.35174555207777 173.3278218457708,141.71788355411263 173.37724516534945,141.14164347498445 173.34429628564976,140.6998581894004 173.41019404504914,138.89428988323198 173.3937196052284,138.52933242967993 173.3278218457708,138.01070743182208 173.34429628564976,137.89545723328774 173.41019404504914,137.7802069624595 173.45961736468598,137.33841358713107 173.41019404504914,136.666117280256 173.4266684849281,136.18590412499907 173.3937196052284,136.05144421641307 173.22897520667175,135.89777562886593 173.19602632691385,135.66727250628173 173.19602632691385,134.99497007894388 173.22897520667175,134.80288321882836 173.2125007667346,134.6876310063235 173.22897520667175,134.5531700002466 173.19602632691385,134.4379176309012 173.22897520667175,134.24583018785052 173.2125007667346,133.86165469884872 173.19602632691385,133.72719308765954 173.11365412763553,133.55431372864405 173.09717968775658,133.4390607321402 173.01480748847825,133.30459881147544 172.58647205214947,133.28538995762938 171.7956989389495,133.34301651309943 171.49915902141947,133.3238076632988 171.30146574310493,133.24697224384 171.2849913033424,133.18934565816016 171.2849913033424,132.99725690853666 171.13672134454828,133.01646579257795 170.922553626413,132.95883913453144 170.3459482313483,132.97804802253086 170.06588275375543,132.93963024452387 169.78581727616256,132.95883913453144 169.39043071947526,132.92042135243537 169.1433141216403,132.95883913453144 168.51728540705517,132.90121245835326 167.24875353783136,132.90121245835326 166.9686880602385,132.86279466419364 166.85336698126048,132.92042135243537 166.80394366162363,132.97804802253086 166.70509702246636,132.99725690853666 165.98022166878218,132.97804802253086 165.68368175125215,132.86279466419364 165.6672073114314,132.80516795790754 165.68368175125215,132.57466095183918 165.5518862323952,132.47861628049577 164.53047096112277,132.49782521877205 163.32783685141476,132.44019839793327 162.89950141508598,132.38257155894826 162.6853336969507,132.22889989987016 162.5041148585733,131.97918317953008 162.4382170990575,132.05601912972634 162.30642158020055,132.13285504770465 162.04283054248663,132.19048196505173 161.53212290687952,132.15206402214244 161.40032738796435,132.28652678712388 161.21910854952876,132.36336260855023 161.0873130306718,132.47861628049577 160.5436565153068,132.51703415504016 159.6046134433709,132.4017805072799 159.39044572517741,132.42098945358885 159.01153360842727,132.4017805072799 158.74794257071335,132.42098945358885 158.0395416567917,132.36336260855023 157.62768066028366,132.38257155894826 157.38056406244868,132.36336260855023 157.2817174232914,132.4017805072799 156.83690754702548,132.36336260855023 155.6836967569543,132.3441536562168 155.1070913618314,132.28652678712388 153.98682945145993,132.3249447018752 152.53707874391694,132.19048196505173 152.0922688677092,132.19048196505173 151.6474589915597,132.22889989987016 151.13675135595258,132.15206402214244 150.3789271223941,132.17127299463027 150.09886164480122,132.11364607121504 149.78584728745045,132.13285504770465 149.60462844901485,132.03681014516042 149.4069351707003,132.07522811219678 148.97859973442974,132.05601912972634 148.1713521812926,132.09443709267362 148.00660778273595,131.90234719727596 147.95718446321553,131.72946611950465 147.89128670369973,131.6334210059722 147.59474678622792,131.5950029464584 147.56179790652823,131.55658487892651 147.4794257071917,131.4029125283705 147.2652579890564,131.2108219092188 147.16641134995734,130.8458491790807 147.19936022959882,130.5000848705531 147.10051359044155,130.09669235399633 147.28173242893536,128.75204422930256 147.28173242893536,128.0412976695079 147.49590014707064,127.27291991416132 147.5123745869496,127.00398693986062 147.6606445456855,126.23560484185873 147.75949118490098,125.58247752932948 147.80891450447962,124.79487973767391 147.80891450447962,124.14174729814113 147.8748122638208,123.62308164627757 147.92423558339942,122.91231522413727 147.90776114357868,122.6625858277257 147.94071002327837,122.45127607305767 147.90776114357868,122.27838609283208 147.75949118490098,121.99023576387845 147.74301674496382,121.79813529318199 147.7759656246635,121.60603462142171 147.92423558339942,121.31788323681394 148.00660778273595,121.04894153631176 147.97365890297806,120.77999944159819 147.89128670369973,120.51105695284787 147.95718446321553,120.26132428892015 148.12192886171397,119.8771195269801 148.13840330159292,119.64659628382651 148.07250554213533,119.37765213406237 148.13840330159292,118.99344552212278 148.0889799820725,118.85897301792284 147.85833782400005,118.5323965260759 147.79244006454246,118.30187159366324 147.6606445456855,118.1289777043421 147.59474678622792,117.95608365212684 147.4464768275502,117.82161038777849 147.43000238767127,117.72555799580005 147.34763018839294,117.62950555353018 147.36410462821368,116.8418736304593 147.49590014707064,116.36160860372183 147.54532346664928,116.03502766751626 147.64417010580655,115.6700247569388 147.6606445456855,115.49712838801497 147.4464768275502,114.67106571025215 147.0016669513425,113.82578842324438 146.88634587230626,113.42235925450223 146.86987143248552,112.53865416662302 146.91929475200595,112.25048854388297 146.91929475200595,111.3475666622544 147.0016669513425,110.6175414671161 147.0016669513425,109.82987944652268 147.0840391506208,109.25353924056981 147.0840391506208,108.60035148539464 147.1169880303205,108.13927637584857 147.10051359044155,107.98558441523346 147.16641134995734,107.73583470461017 147.16641134995734,107.31318057375029 147.1499369100784,106.9481603136228 147.1169880303205,106.79446735522652 147.13346247019945,106.54471602330159 147.03461583104217,105.10383631635341 146.95224363176385,104.41221003771352 146.9028203121852,103.45161365902459 146.7874992332072,102.45258809007646 146.7874992332072,102.2988913658337 146.68865259399172,101.43434489307401 146.70512703387067,101.31907172223146 146.7545503534493,101.2422229014337 146.77102479332825,101.1461618301546 146.7545503534493,101.05010070861317 146.70512703387067,101.01167624589289 146.67217815417098,100.93482729633979 146.55685707507655,99.97421271078929 146.54038263531402,99.05201797668997 146.5733315150137,98.8791059480427 146.55685707507655,98.4948564118531 146.5733315150137,98.24509378176299 146.55685707507655,97.59186683391454 146.5733315150137,97.05391348342528 146.62275483459234,96.4967458502797 146.70512703387067,96.20855503120401 146.85339699260658,96.01642756695219 146.968718071701,95.92036375941825 147.16641134995734,95.88193822230096 147.46295126737095,95.90115099183458 147.82538894424215,95.86272545068641 148.12192886171397,95.74744877901685 148.3855198994861,95.49768240848789 148.418468779244,95.40161832924059 148.46789209876442,94.9981486472825 148.51731541834306,94.88287143225898 149.02802305395016,94.84444567786704 149.70347508817213,94.90208430649363 149.88469392666593,94.84444567786704 150.26360604341608,94.80601991541334 150.8896347580012,94.67152968337177 150.90610919793835,94.6138909822912 150.87316031812225,94.46018769094371 150.87316031812225,94.36412306842976 150.90610919793835,94.19120662120986 151.0379047167371,93.9606511046004 151.08732803637395,93.78773427703709 151.12027691601543,93.55717825342435 151.08732803637395,93.28819585962628 151.1038024761947,93.17291757008934 151.15322579577332,93.1152783981961 151.41681683354545,93.0 151.5815612320439,93.0192130713549 151.53213791252347,93.1152783981961 151.9110500292154,93.691669302425" stroke="yellow" stroke-linecap="round" stroke-linejoin="round" stroke-width="0.5"><title>2025-06-10 5.1km</title><desc>14754484246</desc></polyline><polyline fill="none" points="63.22447374777403,206.76155622633814 64.20162870979402,207.0 64.3152513797395,206.76155622633814 64.49704765167553,206.01972971738724 64.95153833169024,201.59521933853102 64.86064019566402,200.61492813541554 64.79246659378987,199.5551495931868 64.90608926373534,195.28949610941345 64.3152513797395,194.94506132644892 63.451719087781385,194.54763599489524 53.27112785587087,189.77848336215538 52.86208624392748,189.51352780434536 51.97582941793371,188.7716507678124 51.79403314588126,188.50669415657467 51.70313500997145,188.0827630018175 51.74858407792635,187.79130992124556 51.68041047581937,187.36737756883667 51.72585954389069,186.86395697848639 51.68041047581937,186.2810476761806 51.58951233990956,185.9895925216988 51.38499153382145,185.72463299926312 51.362266999902204,185.5921531341446 51.38499153382145,185.30069718667073 51.27136886387598,184.6912882126635 51.362266999902204,184.2408545499202 51.43044060189277,183.71093156798452 51.407716067973524,182.91604501548863 51.18047072796617,182.54509710357524 50.7487045818707,182.1476523092133 50.40783657191787,182.12115596735384 49.68065148394089,182.2271413180424 49.04436453199014,182.2271413180424 48.7489455898758,182.12115596735384 48.40807758003939,181.7767032716365 48.27173037594184,181.72371050767833 47.27185087988619,181.72371050767833 46.74918659788091,181.67071773247153 46.4537676559994,181.72371050767833 46.09017511201091,181.6442213407281 45.34026548999827,181.6972141214501 44.544906799914315,181.59122854903399 43.77227264398243,181.61772494626348 42.74966861400753,181.51173934062535 42.24972886603791,181.6442213407281 41.95430992403999,181.61772494626348 41.27257390401792,181.67071773247153 40.74990962201264,181.56473214902508 40.24996987404302,181.51173934062535 39.70458105800208,181.40575369058934 39.091018640086986,181.37925727108086 38.50018075609114,181.45874652115162 37.363954056054354,181.43225010720198 36.77311617205851,181.53823574617854 36.31862549204379,181.72371050767833 36.000482016126625,181.67071773247153 35.77323667611927,181.72371050767833 35.00060252007097,181.59122854903399 34.568836374091916,181.72371050767833 34.1143456940772,181.43225010720198 34.00072302413173,181.37925727108086 33.59168141207192,181.56473214902508 32.29638297413476,181.6442213407281 31.978239498101175,181.51173934062535 31.796443226165138,181.29976799615542 31.637371488148347,181.22027869624435 31.43285068217665,180.87582477483375 31.160156274214387,180.7963353418163 30.751114662154578,180.769838858585 30.342073050211184,180.769838858585 29.387642622110434,180.87582477483375 28.81952927215025,180.7963353418163 27.36515909631271,180.8228318222682 25.59264544432517,180.74334237254516 24.820011288276874,180.769838858585 23.933754462283105,180.63735640089726 22.661180558265187,180.71684588382777 21.911270936368965,180.69034939231642 21.025014110375196,180.63735640089726 20.638697032351047,180.557866892952 18.95708151627332,180.53137038482237 18.002651088288985,180.47837736012298 17.389088670373894,180.557866892952 16.79825078637805,180.53137038482237 16.59372998040635,180.47837736012298 16.07106569840107,180.5048738739133 15.752922222367488,180.557866892952 15.571125950431451,180.557866892952 15.480227814405225,180.47837736012298 15.389329678262584,180.18691552619566 15.389329678262584,179.73647385019285 15.571125950431451,179.47150778402283 15.639299552422017,179.23303808740457 15.616575018386357,179.07405816492974 15.457503280369565,178.80909140553558 15.52567688236013,178.27915705485793 15.366605144343339,177.77571839441953 15.366605144343339,177.48425344926363 15.50295234832447,176.74234116554726 15.639299552422017,175.54997758335958 15.593850484350696,175.09952765754133 15.662024086341262,174.59608267432486 15.88926942634862,174.06613950525934 15.9574430284556,173.82766471726063 16.07106569840107,172.50280069347355 16.161963834427297,172.23782705675694 16.161963834427297,172.02584794766153 16.252861970337108,171.6548840796895 16.252861970337108,171.2839196681598 16.298311038292013,171.07193976035342 16.36648464028258,170.27701352530858 16.321035572327673,169.93254471491673 16.389209174434654,169.80005658607115 16.321035572327673,169.56157777959015 16.36648464028258,169.19061030061857 16.298311038292013,169.1111171986995 16.434658242273144,168.84614001197042 16.389209174434654,168.6606558162748 16.45738277642522,167.94521550263744 16.548280912451446,167.44175629215897 16.525556378415786,166.99129193929548 16.275586504372768,166.62032069392444 16.207412902382202,166.35534090007422 16.298311038292013,165.93137265300902 16.57100544637069,165.37491325124574 16.59372998040635,165.1629283955117 16.548280912451446,164.9244452205312 16.548280912451446,164.44747819668555 16.707352650351822,163.94401202992594 16.866424388368614,163.70552770661016 16.88914892228786,163.49354145293182 16.775526252342388,162.99007338882075 16.79825078637805,162.56609950565326 16.752801718423143,162.35411229771853 16.684628116432577,162.2216202026466 16.616454514325596,162.16862334520556 16.502831844380125,162.11562647666142 15.752922222367488,162.0626295969996 15.662024086341262,162.0361311530287 15.616575018386357,161.9301373493654 15.662024086341262,161.74464808608172 15.639299552422017,161.21467801372637 15.707473154412583,160.94969256148033 15.843820358393714,160.87019687164866 16.139239300391637,160.81719973123109 16.298311038292013,160.65820824349066 16.616454514325596,160.6317096525163 16.184688368346542,160.71120541724667 15.911993960267864,160.71120541724667 15.752922222367488,160.60521105877706 15.707473154412583,160.4462194378575 15.639299552422017,159.70425722002983 15.752922222367488,159.1477841293963 16.02561663032975,158.40581810564618 16.093790232320316,157.71684770760476 16.02561663032975,156.92187953353277 15.93471849441994,156.55089353121002 15.752922222367488,156.15340792525967 15.298431542469189,155.41143312427448 15.162084338371642,155.09344325806887 15.093910736381076,154.8284513977269 15.048461668426171,154.29846684471704 15.162084338371642,153.90097770170541 15.343880610424094,153.74198186972353 15.321156076388434,153.29149313674134 15.275707008317113,153.13249692192767 15.298431542469189,153.02649938990362 15.41205421241466,153.0 15.93471849441994,153.1059975430544 16.321035572327673,153.05299877710058 16.57100544637069,153.1854956713214 17.252741466392763,153.05299877710058 17.707232146291062,153.1854956713214 17.84357935038861,153.71548255471862 17.889028418343514,154.13947126240237 17.866303884307854,154.32496609872032 17.775405748398043,154.53696003083314 17.798130282317288,154.801952196387 17.707232146291062,155.25243824107747 17.52543587423861,155.7294225910009 17.41181320429314,156.2859031966218 17.41181320429314,157.1603702479042 17.639058544300497,157.95533767297457 17.93447748629842,158.35282044929045 18.04810015624389,158.77680138936557 18.002651088288985,158.93579405877972 17.91175295226276,159.041789116367 17.45726227236446,159.28027783334255 16.775526252342388,160.04873994873196 16.707352650351822,160.20773181930417 16.616454514325596,160.68470683172927 16.684628116432577,161.0556867756386 16.616454514325596,161.18817948095966 16.59372998040635,161.34717063582502 16.707352650351822,161.61215567209 16.752801718423143,162.0361311530287 16.820975320297293,162.19512177535216 16.911873456439935,162.4866043234506 16.866424388368614,163.4140465620294 16.820975320297293,163.70552770661016 16.59372998040635,164.20899434774765 16.525556378415786,164.47397638829716 16.502831844380125,164.7124599875242 16.616454514325596,165.1629283955117 16.616454514325596,165.3484151540324 16.548280912451446,165.53390177659458 16.275586504372768,166.0108667534514 16.230137436417863,166.19635289066355 16.252861970337108,166.5673247573286 16.502831844380125,166.93829608043598 16.57100544637069,167.30926685984014 16.480107310344465,168.52816702194104 16.4119337083539,168.87263774315943 16.434658242273144,169.1376149020798 16.36648464028258,169.58807543582225 16.434658242273144,170.06503277434967 16.389209174434654,170.11802797872224 16.34376010647975,170.4889940986468 16.321035572327673,171.46940194186755 16.116514766355976,172.37031390979246 16.116514766355976,172.58229273039615 16.002892096410505,173.11223900559708 15.93471849441994,173.85416192706907 15.707473154412583,174.49009412931628 15.616575018386357,175.9739297225169 15.457503280369565,176.82183187131886 15.366605144343339,177.11329757906788 15.43477874645032,177.11329757906788 15.41205421241466,177.4312597867247 15.457503280369565,177.6432343699853 15.43477874645032,177.85520877575618 15.54840141639579,178.1996668066422 15.54840141639579,178.46463420377404 15.480227814405225,178.5971177983447 15.480227814405225,178.78259471431375 15.639299552422017,179.2595347314782 15.593850484350696,179.49800440306717 15.43477874645032,179.68348065907776 15.343880610424094,179.86895677926077 15.321156076388434,180.0014396389888 15.389329678262584,180.18691552619566 15.571125950431451,180.34589474996028 15.752922222367488,180.42538432437868 16.139239300391637,180.34589474996028 16.321035572327673,180.37239127751673 16.321035572327673,180.39888780229376 16.298311038292013,180.37239127751673 16.36648464028258,180.31939821962442 16.298311038292013,180.29290168646548 16.775526252342388,180.34589474996028 17.252741466392763,180.31939821962442 17.29819053434767,180.42538432437868 16.843699854332954,180.42538432437868 16.820975320297293,180.557866892952 16.88914892228786,180.66385289802565 17.184567864402197,180.84932829995523 17.684507612371817,180.9553141829092 18.84345884632785,180.90232124693284 19.729715672321618,180.9553141829092 23.070222170324996,180.98181064672826 32.500903780106455,181.2732715656457" stroke="yellow" stroke-linecap="round" stroke-linejoin="round" stroke-width="0.5"><title>2025-04-19 6.0km</title><desc>14222567780</desc></polyline><polyline fill="none" points="95.14694295299705,153.0 95.13700834295014,153.20858965446678 95.08733529230813,153.3592374934815 95.0774006821448,153.62576778283255 95.0376622416079,153.71847381984117 95.04759685177123,154.00817968438787 95.00785841123434,154.25153202403453 94.95818536065053,154.76141137981904 94.94825075054541,155.01635017600347 94.8588392593665,155.21334793406277 94.88864308974007,155.20175984037633 94.86877386947162,155.4103453412099 94.78929698845604,155.88545529080875 94.77936237835092,156.03609948271333 94.73962393787224,156.31421129779483 94.72968932770891,156.65026214102545 94.68995088723022,156.85884490940225 94.65021244669333,157.33394863514695 94.62040861631976,157.43823942363815 94.63034322648309,157.54253011379478 94.55086634546751,157.9481040849787 94.52106251503574,158.35367656848393 94.45152024418348,158.7940107235845 94.45152024418348,158.9794140537415 94.30250109225744,159.9296012421255 94.30250109225744,160.14976540118369 94.22302421124186,160.60167993336654 94.21308960107854,160.77549272325268 94.16341655049473,161.08835505655588 94.15348194038961,161.34327926631522 94.04420122894226,162.10804836972966 94.03426661883714,162.33979553871177 93.96472434792668,163.06979594684526 93.86537824670086,163.7650299509114 93.80577058595372,164.37914968578116 93.74616292514838,164.70358892378135 93.68655526440125,165.31770344701363 93.5772745530121,165.9434015296647 93.51766689226497,166.0592711565114 93.42825540108606,166.14037982306763 93.44812462135451,166.12879287435499 93.3984515707125,166.4764008080965 93.3984515707125,166.62703057340696 93.44812462135451,166.81242077219213 93.47792845172808,166.96305007989577 93.42825540108606,167.40334995695594 93.43819001124939,167.57715205751447 93.38851696060738,167.86682161819772 93.37858235044405,168.14490368270344 93.26930163911311,168.81693245228234 93.19975936814444,169.41943753298256 93.19975936814444,169.6279962193512 93.12028248718707,170.0914585589053 92.98119794536615,171.37755637992814 92.98119794536615,171.95687483784423 93.02093638590304,172.37398224890785 93.08054404665018,172.69839803683863 93.18982475803932,173.15026129877515 93.32890929986024,173.544191867295 93.36864774033893,173.6832258506838 93.47792845172808,173.92653490108933 93.55740533274366,174.1698434163918 93.94485512771644,174.78390538483654 93.97465895809,174.86500765415258 93.96472434792668,175.01562599655153 94.12367810995784,175.1430721261131 94.22302421124186,175.25893211649236 94.25282804161543,175.31686206615996 94.38197797327302,175.3863779657404 94.56080095557263,175.56016752356663 94.63034322648309,175.60651135952503 94.96811997081386,175.96567543006677 95.10720451257657,176.06994865150045 95.50458891765447,176.29008068505937 95.79269261134323,176.48704055436974 96.27948850754183,176.71875759870454 96.76628440374043,176.86937341727025 96.91530355566647,176.96205997290963 97.39216484170174,177.08950386013748 97.9485030088108,177.12426125843194 98.11739138100529,177.10108966080588 98.26641053287312,177.14743285124132 98.45516812527785,177.12426125843194 98.8326833100873,177.14743285124132 99.51817140885396,177.10108966080588 99.67712517088512,177.13584705546236 99.87581737345317,177.14743285124132 99.99503269494744,177.13584705546236 100.44209015066735,177.15901864581247 100.61097852286184,177.12426125843194 100.72025923425099,177.13584705546236 100.9487552671344,177.13584705546236 101.10770902922377,177.18219023138226 101.14744746970246,177.22853338784626 101.21698974055471,177.3328054190133 101.24679357098648,177.68037814632407 101.23685896082316,177.86574982107413 101.24679357098648,177.98160696004197 101.22692435071804,178.14380675082793 101.25672818114981,178.34076331988035 101.25672818114981,178.4218629816969 101.22692435071804,178.51454823669337 101.28653201146517,178.88528848025453 101.28653201146517,179.12858608990064 101.20705513044959,179.90481774420186 101.26666279119672,180.28713879605493 101.24679357098648,180.4609206556197 101.23685896082316,181.23714296250546 101.25672818114981,181.4225086780134 101.22692435071804,181.6194594105109 101.20705513044959,181.89750690658548 101.21698974055471,182.2334800321114 101.24679357098648,182.56945213746076 101.22692435071804,182.76640082837548 101.24679357098648,183.0212750844512 101.21698974055471,183.1602971584798 101.24679357098648,183.94808561201353 101.20705513044959,184.4346580313795 101.23685896082316,185.50047585438733 101.25672818114981,185.87119269082177 101.21698974055471,186.23032344173407 101.18718591018114,186.38092631300242 101.17725130007602,186.60103783302475 101.19712052034447,187.21503081171977 101.22692435071804,187.38880179097032 101.19712052034447,187.55098779204855 101.20705513044959,188.21131405667256 101.18718591018114,188.3966680894082 101.18718591018114,188.70945231559745 101.19712052034447,188.97589744056313 101.22692435071804,189.2307573946382 101.17725130007602,189.48561676176905 101.18718591018114,189.63621520283777 101.15738207980758,189.82156684895745 101.20705513044959,190.04167152549053 101.14744746970246,190.81782662814658 101.1673166899709,191.45496480832662 101.20705513044959,191.86041446772288 101.17725130007602,192.4280414954119 101.12757824943401,193.0883386605783 100.9884937076713,193.73704782863206 100.75999767472968,194.5247609924263 100.69045540387742,194.67535257657437 100.50169781141449,195.26613296654978 100.44209015066735,195.59048164368141 100.39241710002534,195.7526556258017 100.34274404944154,195.85691020314698 100.26326716842595,196.26234373700572 100.1043134063948,196.78361324124126 100.024836525321,196.94578547519632 99.8857519835583,197.3048802905687 99.78640588233247,197.67555758772505 99.72679822152713,197.86089577078383 99.67712517088512,197.95356474591972 99.65725595067488,197.89564664555655 99.7963404924376,197.87247939690133 100.07450957602123,197.9303975094299 100.12418262660503,198.02306642637996 100.17385567724705,198.2431547932283 100.22352872788906,198.28948913050408 100.30300560890464,198.31265629186237 100.5513708620565,198.26632196428545 101.21698974055471,198.25473837939353 101.40574733301764,198.31265629186237 101.71372024691664,198.28948913050408 102.68731203937205,198.34740702479758 103.05489261407638,198.31265629186237 103.29332325712312,198.30107271180168 103.52181929006474,198.33582344837487 103.69070766220102,198.31265629186237 104.13776511792094,198.33582344837487 104.32652271026745,198.32423987073707 104.5649533533724,198.34740702479758 104.83318782679271,198.34740702479758 105.051749249571,198.38215774684795 105.73723734833766,198.35899060001248 105.91606033057906,198.38215774684795 106.3333139559254,198.32423987073707 106.54194076859858,198.33582344837487 106.70089453062974,198.31265629186237 106.83997907239245,198.33582344837487 106.91945595346624,198.41690845796984 106.9492597838398,198.6369960417287 106.95919439388672,198.96133484126767 106.91945595346624,199.56367580477672 106.90952134330291,200.09651315570954 106.97906361415517,200.49034781003866 106.95919439388672,200.62934794177272 106.99893283442361,200.73359792600968 107.01880205469206,200.90734768157563 106.95919439388672,201.08109716442414 106.93932517367648,201.32434598222608 106.8995867331978,201.49809481052944 106.8995867331978,201.62551044468273 106.97906361415517,202.15833787108568 106.90952134330291,202.7143289730593 106.90952134330291,202.91124181872874 106.84991368255578,204.5212807697826 106.8598482926609,204.66027584025142 106.83004446228733,204.90351679360174 106.84991368255578,205.14675721251842 106.78037141170353,205.44791127647477 106.7704368015402,205.72589891608368 106.72076375089819,205.91122362139868 106.72076375089819,206.11971354403795 106.67109070025617,206.38611676269647 106.63135225977749,206.86100786698807 106.59161381924059,206.8957559165865 106.41279083699919,206.90733859738248 106.3333139559254,206.8957559165865 106.24390246486291,206.8494251813754 106.08494870277354,206.80309442675207 105.79684500908479,206.80309442675207 105.61802202684339,206.82625980649027 105.2703106723493,206.77992904216808 105.22063762176549,206.74518095621897 105.21070301160216,206.71043285934138 105.21070301160216,206.60618850333412 105.2703106723493,206.46719587592088 105.24050684197573,206.35136855315795 105.06168385967612,206.5482749297662 105.08155307994457,206.67568475157896 105.17096457112348,206.80309442675207 105.1808991812286,206.73359825846273 105.21070301160216,206.698850157969 105.20076840143884,206.65251934033586 105.1808991812286,206.71043285934138 105.06168385967612,206.7915117350567 104.99214158882387,206.94208663244353 105.00207619892899,206.98841732893197 105.02194541919744,207.0 105.12129152042326,206.98841732893197 105.13122613058658,206.8841732346118 105.12129152042326,206.81467711721052 104.98220697866054,206.47877860152948 104.84312243689783,206.39769949678885 104.7835147761507,206.39769949678885 104.66429945459822,206.45561314911174" stroke="yellow" stroke-linecap="round" stroke-linejoin="round" stroke-width="0.5"><title>2025-03-07 6.9km</title><desc>13950596373</desc></polyline><polyline fill="none" points="152.23738867556676,153.0 152.33085155440494,153.3391681751018 152.42431443318492,153.37550756339624 152.7462421269156,153.36339443524776 153.18240222812165,153.3876206903078 153.66010138654383,153.3149419098918 153.8366423798725,153.36339443524776 154.09626148769166,153.3876206903078 154.72973211080534,153.3876206903078 154.81281022535404,153.41184694028925 154.9893512186827,153.55720433354873 155.0101207473199,153.6056567573396 155.03089027595706,153.67833535496175 155.02050551160937,153.83580549301405 154.97896645439323,154.07806682493538 154.97896645439323,154.38089277575637 154.94781216146657,154.57470096791803 154.90627310413402,154.67160494212294 154.88550357555505,155.1076718207696 154.8543492826284,155.31359171932854 154.86473404697608,155.4104950740657 154.8543492826284,155.54373705420585 154.80242546106456,155.70120465089713 154.7608864037902,156.1130419664696 154.72973211080534,156.2220574808889 154.67780828929972,156.6217801539824 154.63626923202537,156.815584588825 154.63626923202537,157.06995241643017 154.59473017480923,157.20319248373562 154.55319111747667,157.6513624919462 154.52203682455,157.7361512169373 154.52203682455,157.90572848040028 154.50126729597105,158.14798128233087 154.52203682455,158.28122010699008 154.49088253162336,158.49924694334914 154.43895871005952,158.58403504642774 154.40780441713287,158.91107429005206 154.36626535985852,159.2017750632076 154.35588059556903,159.3592376767774 154.2208786595147,160.50991949581658 154.2312634238042,160.582593752486 154.17933960224036,160.86117797975749 154.1481853093137,161.23666000649973 154.11703101632884,161.36989527121477 154.08587672340218,161.587916282253 154.08587672340218,161.79382463736692 154.0027986089117,162.37521095442207 153.98202908027451,162.72646377080673 153.84702714416198,163.53797481727088 153.82625761558302,163.90133612605132 153.73279473674484,164.2041363443641 153.6185623293277,164.34948016743874 153.56663850770565,164.56749555944407 153.56663850770565,164.89451787660073 153.62894709361717,165.06408463984553 153.64971662225435,165.1852036041746 153.60817756498,165.7544610369805 153.6185623293277,165.9603619713671 153.54586897906847,166.37216274005914 153.54586897906847,166.48116858037247 153.4524061002303,167.2320949099958 153.42125180736184,167.65600278106285 153.34855845716083,168.1404670163247 153.32778892852366,168.38269837269763 153.2862498712493,168.58859462664986 153.2239412853378,168.93982856657385 153.2135565210483,169.13361235257616 153.17201746383216,169.3152843569842 153.1408631708473,169.61807039664563 153.1408631708473,169.86029865753517 153.10970887792064,170.00563537050766 153.17201746383216,170.34475365695835 153.16163269948447,170.58698039551382 153.18240222812165,170.829206626644 153.23432604968548,171.14409996850736 153.33817369281314,171.55588227546832 153.35894322145032,171.7859952788931 153.40048227866646,171.90710720204515 153.4524061002303,172.0282189983118 153.50432992185233,172.19777530001738 153.57702327199513,172.34310907496547 153.6912556795287,172.67010940086038 153.84702714416198,172.92444234836876 153.9093357300735,173.05766414519894 154.12741578067653,173.3604403854697 154.1585700736032,173.57843878756103 154.20010913081933,173.6026608068787 154.17933960224036,173.57843878756103 154.2312634238042,173.6026608068787 154.3870348884957,173.7479928161556 154.50126729597105,173.95387951667362 154.63626923202537,174.00232339293143 154.78165593242738,174.1234329947838 154.88550357555505,174.22032058499462 154.96858169004554,174.35354088890745 155.06204456888372,174.41409552176628 155.2385855622124,174.61998103636142 155.40474179119337,174.6805355296965 155.5397437273059,174.78953353782708 155.88244094961556,174.98330752082256 155.98628859280143,175.08019439057534 156.11090576456627,175.1407486429307 156.4743725155713,175.346632863766 156.72360685910098,175.382965335295 157.03514978842577,175.56462752164225 157.37784701085184,175.6615139043206 157.7205442331615,175.8552864262383 157.83477664057864,175.8068433261651 157.9593938124017,175.83106487871555 158.1047805127455,175.8068433261651 158.20862815593136,175.84317565311358 158.28132150607416,175.81895410309517 158.43709297082387,175.8068433261651 158.7278663715697,175.84317565311358 159.6521103954874,175.83106487871555 159.82865138881607,175.86739719806064 160.22327243280597,175.8795079686024 160.6594325339538,175.8552864262383 160.83597352728248,175.86739719806064 161.14751645666547,175.8552864262383 161.55252226494486,175.8916187379291 161.63560037943535,175.92795103821845 161.70829372957814,176.02483711653622 161.739448022563,176.23071976339997 161.7498327868525,176.36393775135366 161.79137184412684,176.4850448799989 161.77060231543146,177.11479990436055 161.79137184412684,177.5265609507478 161.78098707977915,177.65977744598058 161.80175660841633,178.13208923807542 161.76021755120018,178.59228861602605 161.79137184412684,178.95560262088838 161.77060231543146,179.10092790328054 161.79137184412684,179.2946946623997 161.76021755120018,179.50057148825726 161.77060231543146,180.06975845248235 161.739448022563,180.34829573328898 161.739448022563,180.56628096343047 161.71867849392584,180.68738369151833 161.78098707977915,181.38977701393014 161.77060231543146,181.69253144077084 161.78098707977915,181.76519238529727 161.7498327868525,181.88629385807144 161.76021755120018,182.0437255831057 161.7498327868525,182.24959751554707 161.77060231543146,182.66134028117085 161.7498327868525,183.13363164856128 161.71867849392584,183.3879415860647 161.739448022563,183.6059210874737 161.7498327868525,183.96921934359125 161.739448022563,184.32040657314792 161.76021755120018,184.45361524336477 161.739448022563,185.398181413344 161.70829372957814,185.80991297096625 161.71867849392584,185.95522964141128 161.70829372957814,186.1853139962186 161.72906325827353,186.4759462112852 161.70829372957814,186.99666043715843 161.739448022563,187.27518103760667 161.69790896528866,187.61424868954055 161.71867849392584,187.7837821428402 161.69790896528866,188.40136619285477 161.71867849392584,188.5830079330335 161.666754672362,188.99472815481568 161.68752420094097,189.21269709077023 161.72906325827353,189.41855626426695 161.72906325827353,189.68496170971048 161.666754672362,190.2419892949838 161.70829372957814,191.22283569721912 161.71867849392584,191.9614923131012 161.68752420094097,192.21578284366842 161.57329179352382,192.79701624324662 161.56290702923434,192.97865108172846 161.41752032877412,193.45090032730513 161.3552117429208,193.74151428948244 161.03328404919012,194.57702536451689 160.90866687748348,195.08559436909127 160.8152039986453,195.56994372361805 160.6594325339538,195.9816390808046 160.60750871233176,196.23592077543435 160.36865913314978,196.96243682362547 160.22327243280597,197.32569313697604 160.1921181398211,197.45888683280646 160.1298095539678,197.6647313338326 160.07788573234575,197.737382246778 160.06750096805627,197.7252737644667 160.08827049663523,197.737382246778 160.07788573234575,197.8342500597355 160.0467314394191,198.01587699045922 160.01557714649243,198.08852768289216 159.93249903200194,198.18539520188642 159.76634280296275,198.33069632830302 159.70403421705123,198.42756364452362 159.67287992412457,198.42756364452362 159.6624951598351,198.4154552344553 159.69364945276175,198.45178046092042 159.74557327432558,198.33069632830302 159.71441898139892,198.34280474726984 159.69364945276175,198.31858790807019 159.75595803867327,198.22172050057998 159.95326856063912,198.07641923730262 160.05711620370857,198.06431079047616 160.10904002533061,198.11274457028048 160.16096384689445,198.1006361272157 160.41019819042413,198.14906989175506 160.52443059784127,198.1248530120356 160.60750871233176,198.1369614525247 160.6594325339538,198.1248530120356 160.84635829157196,198.01587699045922 161.09559263510164,197.97955162710423 161.52136797196,197.99166008283646 161.739448022563,197.97955162710423 161.9056042516022,198.0037685372663 162.08214524493087,198.0037685372663 162.19637765234802,197.97955162710423 162.40407293860335,198.0037685372663 162.63253775349585,198.0037685372663 163.04792832606472,198.0522023423764 163.4425493699964,198.04009389301063 163.7644770637271,198.0037685372663 163.88909423549194,198.02798544235702 164.5225648585474,198.01587699045922 165.06257260288112,198.06431079047616 165.17680501035647,198.04009389301063 165.50911746837664,198.06431079047616 166.0179709197837,198.0522023423764 166.20489667740185,198.08852768289216 166.56836342834868,198.06431079047616 166.87990635778988,198.06431079047616 167.1706797585939,198.02798544235702 167.54453127388842,197.99166008283646 167.6483789170161,198.0522023423764 167.73145703150658,198.1732867664541 167.73145703150658,198.48810567598412 167.75222656008555,198.68183996380685 167.73145703150658,199.15406593140506 167.70030273857992,199.25093255832326 167.7106875029276,199.4688821724485 167.70030273857992,199.79580582385097 167.7210722671589,200.17116146973422 167.74184179585427,200.28013546144211 167.7210722671589,200.42543395741814 167.74184179585427,200.7160304019926 167.73145703150658,200.98240983510186 167.74184179585427,201.05505866498424 167.73145703150658,201.40619403305755 167.75222656008555,201.52727494738065 167.74184179585427,201.66046380682383 167.76261132443324,201.92684106581146 167.75222656008555,202.0479214353545 167.74184179585427,202.42326977586345 167.70030273857992,202.62910544565966 167.73145703150658,202.75018508042558 167.7210722671589,203.2102865370689 167.70030273857992,203.40401291887247 167.74184179585427,204.1304839623117 167.73145703150658,204.27577762370493 167.7106875029276,204.3968555355168 167.7106875029276,204.59057993097667 167.6483789170161,204.9295968426086 167.65876368130557,205.05067407037131 167.62760938837891,205.12332034621795 167.58607033110457,205.3049358363569 167.58607033110457,205.41390499360568 167.5549160381779,205.52287404824165 167.54453127388842,205.8376729631127 167.51337698090356,205.93453399537975 167.49260745226638,206.14036341982865 167.44068363076076,206.34619247817318 167.44068363076076,206.53991361048247 167.4095293377759,206.95156993989076 167.38875980919693,206.9878924868899 167.3368359875749,207.0 167.08760164410342,206.97578497250652 167.00452352961292,206.9273549022255 166.5579786641174,206.85470975885255 166.28797479195055,206.83049470088008 166.0179709197837,206.86681728590338 165.9245080409455,206.83049470088008 165.91412327659782,206.78206456983753 165.87258421938168,206.73363441849506 166.41259196365718,205.70448891134583 166.3191290848772,205.98296448112524 166.1737423844752,206.23722419876867 165.9348928052932,206.58834384286456 165.81027563347016,206.69731179170049 165.81027563347016,206.68520424688177 165.84142992645502,206.70941933522408 165.84142992645502,206.67309670079703 165.82066039781785,206.67309670079703 165.7791213405435,206.73363441849506 165.78950610483298,206.66098915348266" stroke="yellow" stroke-linecap="round" stroke-linejoin="round" stroke-width="0.5"><title>2023-07-15 7.1km</title><desc>13950596377</desc></polyline><polyline fill="none" points="32.30905137147056,213.0 32.30905137147056,213.24695478881767 32.2841414163704,213.34864192696114 32.29659639392048,213.47938242361124 32.147136663494166,214.19118963129586 32.134681686002295,214.48172213531507 32.047496843209956,214.91751974994258 32.03504186565988,215.048258767245 31.99767693306785,215.20805073204974 31.947857022925746,215.30973643198377 31.89803711278364,215.36784251277277 31.82330724754138,215.41142205738288 31.860672180191614,215.3968955440214 31.873127157683484,215.71647848600696 31.785942314949352,216.0796400260151 31.873127157683484,216.29753649345366 31.885582135233562,216.48637982163928 31.835762225091457,216.93669748937828 31.81085227004951,217.45964520372218 31.748577382357325,217.88090720599575 31.72366742725717,218.2731155060028 31.67384751717327,218.4910085267038 31.586662674322724,219.36257718552952 31.41229298885446,220.80065349650977 31.31265316857025,221.42526785485097 31.31265316857025,221.7157852024684 31.250378280878067,221.9772502949636 31.23792330332799,222.10798265635094 31.250378280878067,222.80521983568906 31.3375631236122,223.5460304977314 31.561752719280776,224.4756696512777 31.62402760697296,224.56282300244493 31.661392539564986,224.56282300244493 31.62402760697296,224.56282300244493 31.62402760697296,224.6645018428826 31.92294706782559,225.36172616916883 32.2343215062283,225.7829641677672 32.7076106526074,226.49470822364674 32.88198033813387,226.71258832687454 33.043895046110265,226.90141747279267 33.753828765649814,227.61315578888752 34.27693782217102,227.99081137139 34.91214167652652,228.33941561177198 35.57225548598217,228.67349385324633 36.307099160563666,228.90589563357935 37.07930776785361,229.06567163167347 38.31235054391436,229.13829702450312 41.276635197515134,229.16734717099462 41.41363995039137,229.19639731138886 41.50082479318371,229.2544975739438 41.57555465842597,229.3271228678932 41.612919591018,229.42879821555107 41.65028452366823,230.35839793813648 41.62537456850987,230.89581993558386 41.65028452366823,231.5349136545119 41.60046461346792,233.58289868898282 41.62537456850987,234.77391154077486 41.57555465842597,235.32584085820417 41.60046461346792,235.9649141664413 41.58800963591784,237.41734255374467 41.612919591018,237.9402130504459 41.563099680875894,238.60832248380757 41.62537456850987,238.94237599386543 41.62537456850987,239.5233367040055 41.60046461346792,240.59810760396067 41.57555465842597,240.85953710439207 41.563099680875894,240.87406095110055 41.538189725833945,240.85953710439207 41.58800963591784,240.93215632262581 41.563099680875894,240.91763248202915 41.563099680875894,240.8885847962665 41.550644703325815,241.54215625514917 41.563099680875894,242.0795349258551 41.550644703325815,244.40331062104087 41.52573474822566,244.86806108948076 41.550644703325815,245.65232397482032 41.50082479318371,246.3784893603879 41.538189725833945,247.61296179350757 41.52573474822566,248.76028514835343 41.4510048829834,249.34120474812516 41.20190533227287,250.3868538987299 40.7161612084019,251.8391313135362 40.59161143301753,252.27481157402508 40.42969672504114,253.0009423016454 40.09341233159648,254.07560880531673 39.8194028257858,254.8307748829684 39.79449287074385,254.88886441104114 39.80694784829393,254.87434203128214 39.80694784829393,254.88886441104114 39.70730802795151,254.74364054528996 39.64503314025933,254.61293893617403 39.64503314025933,254.48223720393435 39.70730802795151,254.32249047518417 39.682398072909564,254.30796803615522 39.5578482975252,254.40962507728545 39.53293834242504,254.35153534864367 39.50802838738309,254.3660577830742 39.48311843234114,254.35153534864367 39.45820847718278,254.27892315358622 39.45820847718278,254.14822110674868 39.595213230117224,254.27892315358622 39.70730802795151,254.30796803615522 39.7695829157019,254.30796803615522 39.83185780333588,254.35153534864367 39.85676775837783,254.51128204395354 39.91904264607001,254.61293893617403 39.90658766857814,254.59841652754403 39.894132690969855,254.8307748829684 39.79449287074385,255.04861048782186 39.80694784829393,255.16478933722829 39.894132690969855,255.25192341048387 40.19305215188069,255.3390574290388 40.31760192720685,255.62950376233493 40.39233179244911,255.70211525066406 40.442151702649426,255.73115983538446 40.67879627580987,255.74568212541635 41.152085422188975,255.71663754375186 41.50082479318371,255.74568212541635 42.48476801853394,255.76020441399305 43.28188658086583,255.8037712705118 44.0914601207478,255.76020441399305 45.57360244751908,255.8037712705118 45.74797213298734,255.84733811335173 45.78533706563758,255.89090494254197 45.810247020679526,256.0216053479817 45.78533706563758,256.4863169037999 45.797792043187656,257.09624845915823 45.84761195338797,257.8368760296289 45.822701998229604,258.5484556585143 45.76042711059563,259.1002904098423 45.810247020679526,259.4923821891716 45.84761195338797,259.63760108561837 45.95970675110584,259.71021047685645 46.14653141418239,259.73925422268803 46.88137508876389,259.6811667248985 47.76567849382991,259.69568860161235 48.488067190977745,259.6811667248985 48.62507194385398,259.71021047685645 48.7247117641964,259.79734169614676 48.749621719296556,259.898994716219 48.76207669673022,260.3782150937186 48.7247117641964,263.6455826560996 48.69980180909624,264.06670443495386 48.55034207866993,265.27197694711504 48.488067190977745,266.1287305614678 48.463157235935796,266.3465484338376 48.42579230334377,266.448196657293 48.463157235935796,266.448196657293 48.463157235935796,266.47723899318953 48.41333732573548,266.53532364673447 48.33860746055143,266.5643659643538 48.05214297719067,266.53532364673447 48.02723302214872,266.53532364673447 48.05214297719067,266.52080248561106 48.01477804459864,266.53532364673447 47.989868089556694,266.5062813229888 48.00232306710677,266.4917601588677 47.890228269272484,266.448196657293 47.3546642352012,266.40463314209774 47.15538459463278,266.3465484338376 47.03083481924841,266.36106961316545 46.81910020112991,266.33202725296724 46.48281580762705,266.36106961316545 46.395630964892916,266.33202725296724 46.320901099650655,266.25942132591445 46.33335607725894,266.3175060706126 46.18389634677442,266.3175060706126 46.320901099650655,267.0 46.38317598734284,266.7386197427113 46.35826603230089,266.60792942946136" stroke="yellow" stroke-linecap="round" stroke-linejoin="round" stroke-width="0.5"><title>2023-07-01 5.8km</title><desc>13950596319</desc></polyline></svg>